<?xml version="1.0" encoding="utf-8" standalone="no"?>
<!DOCTYPE svg PUBLIC "-//W3C//DTD SVG 1.1//EN"
  "http://www.w3.org/Graphics/SVG/1.1/DTD/svg11.dtd">
<svg xmlns:xlink="http://www.w3.org/1999/xlink" width="504pt" height="504pt" viewBox="0 0 504 504" xmlns="http://www.w3.org/2000/svg" version="1.1">
 <metadata>
  <rdf:RDF xmlns:dc="http://purl.org/dc/elements/1.1/" xmlns:cc="http://creativecommons.org/ns#" xmlns:rdf="http://www.w3.org/1999/02/22-rdf-syntax-ns#">
   <cc:Work>
    <dc:type rdf:resource="http://purl.org/dc/dcmitype/StillImage"/>
    <dc:date>2022-03-01T17:25:27.687761</dc:date>
    <dc:format>image/svg+xml</dc:format>
    <dc:creator>
     <cc:Agent>
      <dc:title>Matplotlib v3.5.1, https://matplotlib.org/</dc:title>
     </cc:Agent>
    </dc:creator>
   </cc:Work>
  </rdf:RDF>
 </metadata>
 <defs>
  <style type="text/css">*{stroke-linejoin: round; stroke-linecap: butt}</style>
 </defs>
 <g id="figure_1">
  <g id="patch_1">
   <path d="M 0 504 
L 504 504 
L 504 0 
L 0 0 
L 0 504 
z
" style="fill: none"/>
  </g>
  <g id="axes_1">
   <g id="patch_2">
    <path d="M 63 441 
L 453.6 441 
L 453.6 60.48 
L 63 60.48 
L 63 441 
z
" style="fill: none"/>
   </g>
   <g id="matplotlib.axis_1">
    <g id="xtick_1">
     <g id="line2d_1">
      <defs>
       <path id="mc443d6bf4f" d="M 0 0 
L 0 3.5 
" style="stroke: #000000; stroke-width: 0.8"/>
      </defs>
      <g>
       <use xlink:href="#mc443d6bf4f" x="80.754545" y="441" style="stroke: #000000; stroke-width: 0.8"/>
      </g>
     </g>
     <g id="text_1">
      <!-- 0.0 -->
      <g transform="translate(68.827202 459.397656)scale(0.15 -0.15)">
       <defs>
        <path id="DejaVuSans-30" d="M 2034 4250 
Q 1547 4250 1301 3770 
Q 1056 3291 1056 2328 
Q 1056 1369 1301 889 
Q 1547 409 2034 409 
Q 2525 409 2770 889 
Q 3016 1369 3016 2328 
Q 3016 3291 2770 3770 
Q 2525 4250 2034 4250 
z
M 2034 4750 
Q 2819 4750 3233 4129 
Q 3647 3509 3647 2328 
Q 3647 1150 3233 529 
Q 2819 -91 2034 -91 
Q 1250 -91 836 529 
Q 422 1150 422 2328 
Q 422 3509 836 4129 
Q 1250 4750 2034 4750 
z
" transform="scale(0.015625)"/>
        <path id="DejaVuSans-2e" d="M 684 794 
L 1344 794 
L 1344 0 
L 684 0 
L 684 794 
z
" transform="scale(0.015625)"/>
       </defs>
       <use xlink:href="#DejaVuSans-30"/>
       <use xlink:href="#DejaVuSans-2e" x="63.623047"/>
       <use xlink:href="#DejaVuSans-30" x="95.410156"/>
      </g>
     </g>
    </g>
    <g id="xtick_2">
     <g id="line2d_2">
      <g>
       <use xlink:href="#mc443d6bf4f" x="151.772727" y="441" style="stroke: #000000; stroke-width: 0.8"/>
      </g>
     </g>
     <g id="text_2">
      <!-- 0.2 -->
      <g transform="translate(139.845384 459.397656)scale(0.15 -0.15)">
       <defs>
        <path id="DejaVuSans-32" d="M 1228 531 
L 3431 531 
L 3431 0 
L 469 0 
L 469 531 
Q 828 903 1448 1529 
Q 2069 2156 2228 2338 
Q 2531 2678 2651 2914 
Q 2772 3150 2772 3378 
Q 2772 3750 2511 3984 
Q 2250 4219 1831 4219 
Q 1534 4219 1204 4116 
Q 875 4013 500 3803 
L 500 4441 
Q 881 4594 1212 4672 
Q 1544 4750 1819 4750 
Q 2544 4750 2975 4387 
Q 3406 4025 3406 3419 
Q 3406 3131 3298 2873 
Q 3191 2616 2906 2266 
Q 2828 2175 2409 1742 
Q 1991 1309 1228 531 
z
" transform="scale(0.015625)"/>
       </defs>
       <use xlink:href="#DejaVuSans-30"/>
       <use xlink:href="#DejaVuSans-2e" x="63.623047"/>
       <use xlink:href="#DejaVuSans-32" x="95.410156"/>
      </g>
     </g>
    </g>
    <g id="xtick_3">
     <g id="line2d_3">
      <g>
       <use xlink:href="#mc443d6bf4f" x="222.790909" y="441" style="stroke: #000000; stroke-width: 0.8"/>
      </g>
     </g>
     <g id="text_3">
      <!-- 0.4 -->
      <g transform="translate(210.863565 459.397656)scale(0.15 -0.15)">
       <defs>
        <path id="DejaVuSans-34" d="M 2419 4116 
L 825 1625 
L 2419 1625 
L 2419 4116 
z
M 2253 4666 
L 3047 4666 
L 3047 1625 
L 3713 1625 
L 3713 1100 
L 3047 1100 
L 3047 0 
L 2419 0 
L 2419 1100 
L 313 1100 
L 313 1709 
L 2253 4666 
z
" transform="scale(0.015625)"/>
       </defs>
       <use xlink:href="#DejaVuSans-30"/>
       <use xlink:href="#DejaVuSans-2e" x="63.623047"/>
       <use xlink:href="#DejaVuSans-34" x="95.410156"/>
      </g>
     </g>
    </g>
    <g id="xtick_4">
     <g id="line2d_4">
      <g>
       <use xlink:href="#mc443d6bf4f" x="293.809091" y="441" style="stroke: #000000; stroke-width: 0.8"/>
      </g>
     </g>
     <g id="text_4">
      <!-- 0.6 -->
      <g transform="translate(281.881747 459.397656)scale(0.15 -0.15)">
       <defs>
        <path id="DejaVuSans-36" d="M 2113 2584 
Q 1688 2584 1439 2293 
Q 1191 2003 1191 1497 
Q 1191 994 1439 701 
Q 1688 409 2113 409 
Q 2538 409 2786 701 
Q 3034 994 3034 1497 
Q 3034 2003 2786 2293 
Q 2538 2584 2113 2584 
z
M 3366 4563 
L 3366 3988 
Q 3128 4100 2886 4159 
Q 2644 4219 2406 4219 
Q 1781 4219 1451 3797 
Q 1122 3375 1075 2522 
Q 1259 2794 1537 2939 
Q 1816 3084 2150 3084 
Q 2853 3084 3261 2657 
Q 3669 2231 3669 1497 
Q 3669 778 3244 343 
Q 2819 -91 2113 -91 
Q 1303 -91 875 529 
Q 447 1150 447 2328 
Q 447 3434 972 4092 
Q 1497 4750 2381 4750 
Q 2619 4750 2861 4703 
Q 3103 4656 3366 4563 
z
" transform="scale(0.015625)"/>
       </defs>
       <use xlink:href="#DejaVuSans-30"/>
       <use xlink:href="#DejaVuSans-2e" x="63.623047"/>
       <use xlink:href="#DejaVuSans-36" x="95.410156"/>
      </g>
     </g>
    </g>
    <g id="xtick_5">
     <g id="line2d_5">
      <g>
       <use xlink:href="#mc443d6bf4f" x="364.827273" y="441" style="stroke: #000000; stroke-width: 0.8"/>
      </g>
     </g>
     <g id="text_5">
      <!-- 0.8 -->
      <g transform="translate(352.899929 459.397656)scale(0.15 -0.15)">
       <defs>
        <path id="DejaVuSans-38" d="M 2034 2216 
Q 1584 2216 1326 1975 
Q 1069 1734 1069 1313 
Q 1069 891 1326 650 
Q 1584 409 2034 409 
Q 2484 409 2743 651 
Q 3003 894 3003 1313 
Q 3003 1734 2745 1975 
Q 2488 2216 2034 2216 
z
M 1403 2484 
Q 997 2584 770 2862 
Q 544 3141 544 3541 
Q 544 4100 942 4425 
Q 1341 4750 2034 4750 
Q 2731 4750 3128 4425 
Q 3525 4100 3525 3541 
Q 3525 3141 3298 2862 
Q 3072 2584 2669 2484 
Q 3125 2378 3379 2068 
Q 3634 1759 3634 1313 
Q 3634 634 3220 271 
Q 2806 -91 2034 -91 
Q 1263 -91 848 271 
Q 434 634 434 1313 
Q 434 1759 690 2068 
Q 947 2378 1403 2484 
z
M 1172 3481 
Q 1172 3119 1398 2916 
Q 1625 2713 2034 2713 
Q 2441 2713 2670 2916 
Q 2900 3119 2900 3481 
Q 2900 3844 2670 4047 
Q 2441 4250 2034 4250 
Q 1625 4250 1398 4047 
Q 1172 3844 1172 3481 
z
" transform="scale(0.015625)"/>
       </defs>
       <use xlink:href="#DejaVuSans-30"/>
       <use xlink:href="#DejaVuSans-2e" x="63.623047"/>
       <use xlink:href="#DejaVuSans-38" x="95.410156"/>
      </g>
     </g>
    </g>
    <g id="xtick_6">
     <g id="line2d_6">
      <g>
       <use xlink:href="#mc443d6bf4f" x="435.845455" y="441" style="stroke: #000000; stroke-width: 0.8"/>
      </g>
     </g>
     <g id="text_6">
      <!-- 1.0 -->
      <g transform="translate(423.918111 459.397656)scale(0.15 -0.15)">
       <defs>
        <path id="DejaVuSans-31" d="M 794 531 
L 1825 531 
L 1825 4091 
L 703 3866 
L 703 4441 
L 1819 4666 
L 2450 4666 
L 2450 531 
L 3481 531 
L 3481 0 
L 794 0 
L 794 531 
z
" transform="scale(0.015625)"/>
       </defs>
       <use xlink:href="#DejaVuSans-31"/>
       <use xlink:href="#DejaVuSans-2e" x="63.623047"/>
       <use xlink:href="#DejaVuSans-30" x="95.410156"/>
      </g>
     </g>
    </g>
    <g id="text_7">
     <!-- Threshold $x$ -->
     <g transform="translate(199.7 481.714063)scale(0.2 -0.2)">
      <defs>
       <path id="DejaVuSans-54" d="M -19 4666 
L 3928 4666 
L 3928 4134 
L 2272 4134 
L 2272 0 
L 1638 0 
L 1638 4134 
L -19 4134 
L -19 4666 
z
" transform="scale(0.015625)"/>
       <path id="DejaVuSans-68" d="M 3513 2113 
L 3513 0 
L 2938 0 
L 2938 2094 
Q 2938 2591 2744 2837 
Q 2550 3084 2163 3084 
Q 1697 3084 1428 2787 
Q 1159 2491 1159 1978 
L 1159 0 
L 581 0 
L 581 4863 
L 1159 4863 
L 1159 2956 
Q 1366 3272 1645 3428 
Q 1925 3584 2291 3584 
Q 2894 3584 3203 3211 
Q 3513 2838 3513 2113 
z
" transform="scale(0.015625)"/>
       <path id="DejaVuSans-72" d="M 2631 2963 
Q 2534 3019 2420 3045 
Q 2306 3072 2169 3072 
Q 1681 3072 1420 2755 
Q 1159 2438 1159 1844 
L 1159 0 
L 581 0 
L 581 3500 
L 1159 3500 
L 1159 2956 
Q 1341 3275 1631 3429 
Q 1922 3584 2338 3584 
Q 2397 3584 2469 3576 
Q 2541 3569 2628 3553 
L 2631 2963 
z
" transform="scale(0.015625)"/>
       <path id="DejaVuSans-65" d="M 3597 1894 
L 3597 1613 
L 953 1613 
Q 991 1019 1311 708 
Q 1631 397 2203 397 
Q 2534 397 2845 478 
Q 3156 559 3463 722 
L 3463 178 
Q 3153 47 2828 -22 
Q 2503 -91 2169 -91 
Q 1331 -91 842 396 
Q 353 884 353 1716 
Q 353 2575 817 3079 
Q 1281 3584 2069 3584 
Q 2775 3584 3186 3129 
Q 3597 2675 3597 1894 
z
M 3022 2063 
Q 3016 2534 2758 2815 
Q 2500 3097 2075 3097 
Q 1594 3097 1305 2825 
Q 1016 2553 972 2059 
L 3022 2063 
z
" transform="scale(0.015625)"/>
       <path id="DejaVuSans-73" d="M 2834 3397 
L 2834 2853 
Q 2591 2978 2328 3040 
Q 2066 3103 1784 3103 
Q 1356 3103 1142 2972 
Q 928 2841 928 2578 
Q 928 2378 1081 2264 
Q 1234 2150 1697 2047 
L 1894 2003 
Q 2506 1872 2764 1633 
Q 3022 1394 3022 966 
Q 3022 478 2636 193 
Q 2250 -91 1575 -91 
Q 1294 -91 989 -36 
Q 684 19 347 128 
L 347 722 
Q 666 556 975 473 
Q 1284 391 1588 391 
Q 1994 391 2212 530 
Q 2431 669 2431 922 
Q 2431 1156 2273 1281 
Q 2116 1406 1581 1522 
L 1381 1569 
Q 847 1681 609 1914 
Q 372 2147 372 2553 
Q 372 3047 722 3315 
Q 1072 3584 1716 3584 
Q 2034 3584 2315 3537 
Q 2597 3491 2834 3397 
z
" transform="scale(0.015625)"/>
       <path id="DejaVuSans-6f" d="M 1959 3097 
Q 1497 3097 1228 2736 
Q 959 2375 959 1747 
Q 959 1119 1226 758 
Q 1494 397 1959 397 
Q 2419 397 2687 759 
Q 2956 1122 2956 1747 
Q 2956 2369 2687 2733 
Q 2419 3097 1959 3097 
z
M 1959 3584 
Q 2709 3584 3137 3096 
Q 3566 2609 3566 1747 
Q 3566 888 3137 398 
Q 2709 -91 1959 -91 
Q 1206 -91 779 398 
Q 353 888 353 1747 
Q 353 2609 779 3096 
Q 1206 3584 1959 3584 
z
" transform="scale(0.015625)"/>
       <path id="DejaVuSans-6c" d="M 603 4863 
L 1178 4863 
L 1178 0 
L 603 0 
L 603 4863 
z
" transform="scale(0.015625)"/>
       <path id="DejaVuSans-64" d="M 2906 2969 
L 2906 4863 
L 3481 4863 
L 3481 0 
L 2906 0 
L 2906 525 
Q 2725 213 2448 61 
Q 2172 -91 1784 -91 
Q 1150 -91 751 415 
Q 353 922 353 1747 
Q 353 2572 751 3078 
Q 1150 3584 1784 3584 
Q 2172 3584 2448 3432 
Q 2725 3281 2906 2969 
z
M 947 1747 
Q 947 1113 1208 752 
Q 1469 391 1925 391 
Q 2381 391 2643 752 
Q 2906 1113 2906 1747 
Q 2906 2381 2643 2742 
Q 2381 3103 1925 3103 
Q 1469 3103 1208 2742 
Q 947 2381 947 1747 
z
" transform="scale(0.015625)"/>
       <path id="DejaVuSans-20" transform="scale(0.015625)"/>
       <path id="DejaVuSans-Oblique-78" d="M 3841 3500 
L 2234 1784 
L 3219 0 
L 2559 0 
L 1819 1388 
L 531 0 
L -166 0 
L 1556 1844 
L 641 3500 
L 1300 3500 
L 1972 2234 
L 3144 3500 
L 3841 3500 
z
" transform="scale(0.015625)"/>
      </defs>
      <use xlink:href="#DejaVuSans-54" transform="translate(0 0.015625)"/>
      <use xlink:href="#DejaVuSans-68" transform="translate(61.083984 0.015625)"/>
      <use xlink:href="#DejaVuSans-72" transform="translate(124.462891 0.015625)"/>
      <use xlink:href="#DejaVuSans-65" transform="translate(165.576172 0.015625)"/>
      <use xlink:href="#DejaVuSans-73" transform="translate(227.099609 0.015625)"/>
      <use xlink:href="#DejaVuSans-68" transform="translate(279.199219 0.015625)"/>
      <use xlink:href="#DejaVuSans-6f" transform="translate(342.578125 0.015625)"/>
      <use xlink:href="#DejaVuSans-6c" transform="translate(403.759766 0.015625)"/>
      <use xlink:href="#DejaVuSans-64" transform="translate(431.542969 0.015625)"/>
      <use xlink:href="#DejaVuSans-20" transform="translate(495.019531 0.015625)"/>
      <use xlink:href="#DejaVuSans-Oblique-78" transform="translate(526.806641 0.015625)"/>
     </g>
    </g>
   </g>
   <g id="matplotlib.axis_2">
    <g id="ytick_1">
     <g id="line2d_7">
      <defs>
       <path id="m67c41c91cf" d="M 0 0 
L -3.5 0 
" style="stroke: #000000; stroke-width: 0.8"/>
      </defs>
      <g>
       <use xlink:href="#m67c41c91cf" x="63" y="423.703636" style="stroke: #000000; stroke-width: 0.8"/>
      </g>
     </g>
     <g id="text_8">
      <!-- 0.0 -->
      <g transform="translate(32.145313 429.402464)scale(0.15 -0.15)">
       <use xlink:href="#DejaVuSans-30"/>
       <use xlink:href="#DejaVuSans-2e" x="63.623047"/>
       <use xlink:href="#DejaVuSans-30" x="95.410156"/>
      </g>
     </g>
    </g>
    <g id="ytick_2">
     <g id="line2d_8">
      <g>
       <use xlink:href="#m67c41c91cf" x="63" y="354.518182" style="stroke: #000000; stroke-width: 0.8"/>
      </g>
     </g>
     <g id="text_9">
      <!-- 0.2 -->
      <g transform="translate(32.145313 360.21701)scale(0.15 -0.15)">
       <use xlink:href="#DejaVuSans-30"/>
       <use xlink:href="#DejaVuSans-2e" x="63.623047"/>
       <use xlink:href="#DejaVuSans-32" x="95.410156"/>
      </g>
     </g>
    </g>
    <g id="ytick_3">
     <g id="line2d_9">
      <g>
       <use xlink:href="#m67c41c91cf" x="63" y="285.332727" style="stroke: #000000; stroke-width: 0.8"/>
      </g>
     </g>
     <g id="text_10">
      <!-- 0.4 -->
      <g transform="translate(32.145313 291.031555)scale(0.15 -0.15)">
       <use xlink:href="#DejaVuSans-30"/>
       <use xlink:href="#DejaVuSans-2e" x="63.623047"/>
       <use xlink:href="#DejaVuSans-34" x="95.410156"/>
      </g>
     </g>
    </g>
    <g id="ytick_4">
     <g id="line2d_10">
      <g>
       <use xlink:href="#m67c41c91cf" x="63" y="216.147273" style="stroke: #000000; stroke-width: 0.8"/>
      </g>
     </g>
     <g id="text_11">
      <!-- 0.6 -->
      <g transform="translate(32.145313 221.846101)scale(0.15 -0.15)">
       <use xlink:href="#DejaVuSans-30"/>
       <use xlink:href="#DejaVuSans-2e" x="63.623047"/>
       <use xlink:href="#DejaVuSans-36" x="95.410156"/>
      </g>
     </g>
    </g>
    <g id="ytick_5">
     <g id="line2d_11">
      <g>
       <use xlink:href="#m67c41c91cf" x="63" y="146.961818" style="stroke: #000000; stroke-width: 0.8"/>
      </g>
     </g>
     <g id="text_12">
      <!-- 0.8 -->
      <g transform="translate(32.145313 152.660646)scale(0.15 -0.15)">
       <use xlink:href="#DejaVuSans-30"/>
       <use xlink:href="#DejaVuSans-2e" x="63.623047"/>
       <use xlink:href="#DejaVuSans-38" x="95.410156"/>
      </g>
     </g>
    </g>
    <g id="ytick_6">
     <g id="line2d_12">
      <g>
       <use xlink:href="#m67c41c91cf" x="63" y="77.776364" style="stroke: #000000; stroke-width: 0.8"/>
      </g>
     </g>
     <g id="text_13">
      <!-- 1.0 -->
      <g transform="translate(32.145313 83.475192)scale(0.15 -0.15)">
       <use xlink:href="#DejaVuSans-31"/>
       <use xlink:href="#DejaVuSans-2e" x="63.623047"/>
       <use xlink:href="#DejaVuSans-30" x="95.410156"/>
      </g>
     </g>
    </g>
   </g>
   <g id="line2d_13">
    <path d="M 80.754545 423.703636 
L 84.341322 423.68587 
L 87.928099 423.632088 
L 91.514876 423.541563 
L 95.101653 423.413553 
L 98.68843 423.247308 
L 102.275207 423.042062 
L 105.861983 422.797043 
L 109.44876 422.511464 
L 113.035537 422.184525 
L 116.622314 421.815417 
L 120.209091 421.403318 
L 123.795868 420.947392 
L 127.382645 420.446792 
L 130.969421 419.900658 
L 134.556198 419.308118 
L 138.142975 418.668284 
L 141.729752 417.980258 
L 145.316529 417.243127 
L 148.903306 416.455966 
L 152.490083 415.617834 
L 156.07686 414.727777 
L 159.663636 413.784828 
L 163.250413 412.788005 
L 166.83719 411.73631 
L 170.423967 410.628732 
L 174.010744 409.464246 
L 177.597521 408.241809 
L 181.184298 406.960365 
L 184.771074 405.618842 
L 188.357851 404.216152 
L 191.944628 402.751192 
L 195.531405 401.222841 
L 199.118182 399.629964 
L 202.704959 397.971407 
L 206.291736 396.246003 
L 209.878512 394.452563 
L 213.465289 392.589885 
L 217.052066 390.656747 
L 220.638843 388.651912 
L 224.22562 386.574121 
L 227.812397 384.422102 
L 231.399174 382.19456 
L 234.98595 379.890184 
L 238.572727 377.507643 
L 242.159504 375.045589 
L 245.746281 372.502651 
L 249.333058 369.877442 
L 252.919835 367.168553 
L 256.506612 364.374556 
L 260.093388 361.494002 
L 263.680165 358.525421 
L 267.266942 355.467322 
L 270.853719 352.318195 
L 274.440496 349.076506 
L 278.027273 345.7407 
L 281.61405 342.3092 
L 285.200826 338.780408 
L 288.787603 335.152701 
L 292.37438 331.424434 
L 295.961157 327.593941 
L 299.547934 323.659529 
L 303.134711 319.619483 
L 306.721488 315.472063 
L 310.308264 311.215507 
L 313.895041 306.848026 
L 317.481818 302.367805 
L 321.068595 297.773007 
L 324.655372 293.061766 
L 328.242149 288.232191 
L 331.828926 283.282367 
L 335.415702 278.210348 
L 339.002479 273.014163 
L 342.589256 267.691816 
L 346.176033 262.241278 
L 349.76281 256.660497 
L 353.349587 250.947389 
L 356.936364 245.099843 
L 360.52314 239.115717 
L 364.109917 232.992842 
L 367.696694 226.729017 
L 371.283471 220.322012 
L 374.870248 213.769563 
L 378.457025 207.069379 
L 382.043802 200.219136 
L 385.630579 193.216477 
L 389.217355 186.059013 
L 392.804132 178.744323 
L 396.390909 171.269953 
L 399.977686 163.633413 
L 403.564463 155.832182 
L 407.15124 147.863703 
L 410.738017 139.725384 
L 414.324793 131.414597 
L 417.91157 122.928679 
L 421.498347 114.264932 
L 425.085124 105.42062 
L 428.671901 96.392968 
L 432.258678 87.179165 
L 435.845455 77.776364 
" clip-path="url(#p4306c99ff9)" style="fill: none; stroke: #1f77b4; stroke-width: 1.5; stroke-linecap: square"/>
   </g>
   <g id="line2d_14">
    <path d="M 80.754545 326.249638 
L 84.341322 326.249697 
L 87.928099 326.250118 
L 91.514876 326.251266 
L 95.101653 326.253518 
L 98.68843 326.257255 
L 102.275207 326.262868 
L 105.861983 326.270755 
L 109.44876 326.28132 
L 113.035537 326.294978 
L 116.622314 326.312151 
L 120.209091 326.333269 
L 123.795868 326.35877 
L 127.382645 326.389101 
L 130.969421 326.424718 
L 134.556198 326.466085 
L 138.142975 326.513675 
L 141.729752 326.567971 
L 145.316529 326.629464 
L 148.903306 326.698655 
L 152.490083 326.776054 
L 156.07686 326.86218 
L 159.663636 326.957562 
L 163.250413 327.062741 
L 166.83719 327.178265 
L 170.423967 327.304693 
L 174.010744 327.442596 
L 177.597521 327.592553 
L 181.184298 327.755155 
L 184.771074 327.931003 
L 188.357851 328.12071 
L 191.944628 328.324899 
L 195.531405 328.544205 
L 199.118182 328.779274 
L 202.704959 329.030763 
L 206.291736 329.299342 
L 209.878512 329.585692 
L 213.465289 329.890506 
L 217.052066 330.21449 
L 220.638843 330.558361 
L 224.22562 330.922851 
L 227.812397 331.308702 
L 231.399174 331.716672 
L 234.98595 332.147528 
L 238.572727 332.602055 
L 242.159504 333.081048 
L 245.746281 333.585318 
L 249.333058 334.115689 
L 252.919835 334.672998 
L 256.506612 335.258098 
L 260.093388 335.871857 
L 263.680165 336.515155 
L 267.266942 337.18889 
L 270.853719 337.893973 
L 274.440496 338.631331 
L 278.027273 339.401909 
L 281.61405 340.206663 
L 285.200826 341.046568 
L 288.787603 341.922616 
L 292.37438 342.835814 
L 295.961157 343.787187 
L 299.547934 344.777774 
L 303.134711 345.808636 
L 306.721488 346.880846 
L 310.308264 347.995499 
L 313.895041 349.153707 
L 317.481818 350.356598 
L 321.068595 351.605322 
L 324.655372 352.901044 
L 328.242149 354.24495 
L 331.828926 355.638245 
L 335.415702 357.082155 
L 339.002479 358.577922 
L 342.589256 360.126811 
L 346.176033 361.730107 
L 349.76281 363.389116 
L 353.349587 365.105162 
L 356.936364 366.879593 
L 360.52314 368.713779 
L 364.109917 370.609109 
L 367.696694 372.566997 
L 371.283471 374.588877 
L 374.870248 376.676206 
L 378.457025 378.830467 
L 382.043802 381.053161 
L 385.630579 383.345818 
L 389.217355 385.709989 
L 392.804132 388.147249 
L 396.390909 390.659199 
L 399.977686 393.247465 
L 403.564463 395.913698 
L 407.15124 398.659573 
L 410.738017 401.486794 
L 414.324793 404.397088 
L 417.91157 407.392212 
L 421.498347 410.473949 
L 425.085124 413.644107 
L 428.671901 416.904526 
L 432.258678 420.257071 
L 435.845455 423.703636 
" clip-path="url(#p4306c99ff9)" style="fill: none; stroke: #ff7f0e; stroke-width: 1.5; stroke-linecap: square"/>
   </g>
   <g id="patch_3">
    <path d="M 63 441 
L 63 60.48 
" style="fill: none; stroke: #000000; stroke-width: 0.8; stroke-linejoin: miter; stroke-linecap: square"/>
   </g>
   <g id="patch_4">
    <path d="M 453.6 441 
L 453.6 60.48 
" style="fill: none; stroke: #000000; stroke-width: 0.8; stroke-linejoin: miter; stroke-linecap: square"/>
   </g>
   <g id="patch_5">
    <path d="M 63 441 
L 453.6 441 
" style="fill: none; stroke: #000000; stroke-width: 0.8; stroke-linejoin: miter; stroke-linecap: square"/>
   </g>
   <g id="patch_6">
    <path d="M 63 60.48 
L 453.6 60.48 
" style="fill: none; stroke: #000000; stroke-width: 0.8; stroke-linejoin: miter; stroke-linecap: square"/>
   </g>
   <g id="legend_1">
    <g id="patch_7">
     <path d="M 73.5 116.514375 
L 281.25 116.514375 
Q 284.25 116.514375 284.25 113.514375 
L 284.25 70.98 
Q 284.25 67.98 281.25 67.98 
L 73.5 67.98 
Q 70.5 67.98 70.5 70.98 
L 70.5 113.514375 
Q 70.5 116.514375 73.5 116.514375 
z
" style="fill: #ffffff; opacity: 0.8; stroke: #cccccc; stroke-linejoin: miter"/>
    </g>
    <g id="line2d_15">
     <path d="M 76.5 80.127656 
L 91.5 80.127656 
L 106.5 80.127656 
" style="fill: none; stroke: #1f77b4; stroke-width: 1.5; stroke-linecap: square"/>
    </g>
    <g id="text_14">
     <!-- $1 - (1-x) e^x$ -->
     <g transform="translate(118.5 85.377656)scale(0.15 -0.15)">
      <defs>
       <path id="DejaVuSans-2212" d="M 678 2272 
L 4684 2272 
L 4684 1741 
L 678 1741 
L 678 2272 
z
" transform="scale(0.015625)"/>
       <path id="DejaVuSans-28" d="M 1984 4856 
Q 1566 4138 1362 3434 
Q 1159 2731 1159 2009 
Q 1159 1288 1364 580 
Q 1569 -128 1984 -844 
L 1484 -844 
Q 1016 -109 783 600 
Q 550 1309 550 2009 
Q 550 2706 781 3412 
Q 1013 4119 1484 4856 
L 1984 4856 
z
" transform="scale(0.015625)"/>
       <path id="DejaVuSans-29" d="M 513 4856 
L 1013 4856 
Q 1481 4119 1714 3412 
Q 1947 2706 1947 2009 
Q 1947 1309 1714 600 
Q 1481 -109 1013 -844 
L 513 -844 
Q 928 -128 1133 580 
Q 1338 1288 1338 2009 
Q 1338 2731 1133 3434 
Q 928 4138 513 4856 
z
" transform="scale(0.015625)"/>
       <path id="DejaVuSans-Oblique-65" d="M 3078 2063 
Q 3088 2113 3092 2166 
Q 3097 2219 3097 2272 
Q 3097 2653 2873 2875 
Q 2650 3097 2266 3097 
Q 1838 3097 1509 2826 
Q 1181 2556 1013 2059 
L 3078 2063 
z
M 3578 1613 
L 903 1613 
Q 884 1494 878 1425 
Q 872 1356 872 1306 
Q 872 872 1139 634 
Q 1406 397 1894 397 
Q 2269 397 2603 481 
Q 2938 566 3225 728 
L 3116 159 
Q 2806 34 2476 -28 
Q 2147 -91 1806 -91 
Q 1078 -91 686 257 
Q 294 606 294 1247 
Q 294 1794 489 2264 
Q 684 2734 1063 3103 
Q 1306 3334 1642 3459 
Q 1978 3584 2356 3584 
Q 2950 3584 3301 3228 
Q 3653 2872 3653 2272 
Q 3653 2128 3634 1964 
Q 3616 1800 3578 1613 
z
" transform="scale(0.015625)"/>
      </defs>
      <use xlink:href="#DejaVuSans-31" transform="translate(0 0.4375)"/>
      <use xlink:href="#DejaVuSans-2212" transform="translate(83.105469 0.4375)"/>
      <use xlink:href="#DejaVuSans-28" transform="translate(186.376953 0.4375)"/>
      <use xlink:href="#DejaVuSans-31" transform="translate(225.390625 0.4375)"/>
      <use xlink:href="#DejaVuSans-2212" transform="translate(308.496094 0.4375)"/>
      <use xlink:href="#DejaVuSans-Oblique-78" transform="translate(411.767578 0.4375)"/>
      <use xlink:href="#DejaVuSans-29" transform="translate(470.947266 0.4375)"/>
      <use xlink:href="#DejaVuSans-Oblique-65" transform="translate(509.960938 0.4375)"/>
      <use xlink:href="#DejaVuSans-Oblique-78" transform="translate(576.134271 38.71875)scale(0.7)"/>
     </g>
    </g>
    <g id="line2d_16">
     <path d="M 76.5 102.144844 
L 91.5 102.144844 
L 106.5 102.144844 
" style="fill: none; stroke: #ff7f0e; stroke-width: 1.5; stroke-linecap: square"/>
    </g>
    <g id="text_15">
     <!-- $(1-x) - e^x(x-2)-e$ -->
     <g transform="translate(118.5 107.394844)scale(0.15 -0.15)">
      <use xlink:href="#DejaVuSans-28" transform="translate(0 0.4375)"/>
      <use xlink:href="#DejaVuSans-31" transform="translate(39.013672 0.4375)"/>
      <use xlink:href="#DejaVuSans-2212" transform="translate(122.119141 0.4375)"/>
      <use xlink:href="#DejaVuSans-Oblique-78" transform="translate(225.390625 0.4375)"/>
      <use xlink:href="#DejaVuSans-29" transform="translate(284.570312 0.4375)"/>
      <use xlink:href="#DejaVuSans-2212" transform="translate(343.066406 0.4375)"/>
      <use xlink:href="#DejaVuSans-Oblique-65" transform="translate(446.337891 0.4375)"/>
      <use xlink:href="#DejaVuSans-Oblique-78" transform="translate(512.511224 38.71875)scale(0.7)"/>
      <use xlink:href="#DejaVuSans-28" transform="translate(556.67138 0.4375)"/>
      <use xlink:href="#DejaVuSans-Oblique-78" transform="translate(595.685052 0.4375)"/>
      <use xlink:href="#DejaVuSans-2212" transform="translate(674.347161 0.4375)"/>
      <use xlink:href="#DejaVuSans-32" transform="translate(777.618646 0.4375)"/>
      <use xlink:href="#DejaVuSans-29" transform="translate(841.241693 0.4375)"/>
      <use xlink:href="#DejaVuSans-2212" transform="translate(899.737786 0.4375)"/>
      <use xlink:href="#DejaVuSans-Oblique-65" transform="translate(1003.009271 0.4375)"/>
     </g>
    </g>
   </g>
  </g>
 </g>
 <defs>
  <clipPath id="p4306c99ff9">
   <rect x="63" y="60.48" width="390.6" height="380.52"/>
  </clipPath>
 </defs>
</svg>
