<?xml version="1.0" encoding="utf-8" standalone="no"?>
<!DOCTYPE svg PUBLIC "-//W3C//DTD SVG 1.1//EN"
  "http://www.w3.org/Graphics/SVG/1.1/DTD/svg11.dtd">
<svg xmlns:xlink="http://www.w3.org/1999/xlink" width="1080pt" height="504pt" viewBox="0 0 1080 504" xmlns="http://www.w3.org/2000/svg" version="1.1">
 <metadata>
  <rdf:RDF xmlns:dc="http://purl.org/dc/elements/1.1/" xmlns:cc="http://creativecommons.org/ns#" xmlns:rdf="http://www.w3.org/1999/02/22-rdf-syntax-ns#">
   <cc:Work>
    <dc:type rdf:resource="http://purl.org/dc/dcmitype/StillImage"/>
    <dc:date>2022-03-01T17:40:57.700319</dc:date>
    <dc:format>image/svg+xml</dc:format>
    <dc:creator>
     <cc:Agent>
      <dc:title>Matplotlib v3.5.1, https://matplotlib.org/</dc:title>
     </cc:Agent>
    </dc:creator>
   </cc:Work>
  </rdf:RDF>
 </metadata>
 <defs>
  <style type="text/css">*{stroke-linejoin: round; stroke-linecap: butt}</style>
 </defs>
 <g id="figure_1">
  <g id="patch_1">
   <path d="M 0 504 
L 1080 504 
L 1080 0 
L 0 0 
L 0 504 
z
" style="fill: none"/>
  </g>
  <g id="axes_1">
   <g id="patch_2">
    <path d="M 135 441 
L 316.956522 441 
L 316.956522 60.48 
L 135 60.48 
L 135 441 
z
" style="fill: none"/>
   </g>
   <g id="matplotlib.axis_1">
    <g id="xtick_1">
     <g id="line2d_1">
      <defs>
       <path id="m315064989f" d="M 0 0 
L 0 3.5 
" style="stroke: #000000; stroke-width: 0.8"/>
      </defs>
      <g>
       <use xlink:href="#m315064989f" x="143.270751" y="441" style="stroke: #000000; stroke-width: 0.8"/>
      </g>
     </g>
     <g id="text_1">
      <!-- 0.0 -->
      <g transform="translate(135.319188 455.598437)scale(0.1 -0.1)">
       <defs>
        <path id="DejaVuSans-30" d="M 2034 4250 
Q 1547 4250 1301 3770 
Q 1056 3291 1056 2328 
Q 1056 1369 1301 889 
Q 1547 409 2034 409 
Q 2525 409 2770 889 
Q 3016 1369 3016 2328 
Q 3016 3291 2770 3770 
Q 2525 4250 2034 4250 
z
M 2034 4750 
Q 2819 4750 3233 4129 
Q 3647 3509 3647 2328 
Q 3647 1150 3233 529 
Q 2819 -91 2034 -91 
Q 1250 -91 836 529 
Q 422 1150 422 2328 
Q 422 3509 836 4129 
Q 1250 4750 2034 4750 
z
" transform="scale(0.015625)"/>
        <path id="DejaVuSans-2e" d="M 684 794 
L 1344 794 
L 1344 0 
L 684 0 
L 684 794 
z
" transform="scale(0.015625)"/>
       </defs>
       <use xlink:href="#DejaVuSans-30"/>
       <use xlink:href="#DejaVuSans-2e" x="63.623047"/>
       <use xlink:href="#DejaVuSans-30" x="95.410156"/>
      </g>
     </g>
    </g>
    <g id="xtick_2">
     <g id="line2d_2">
      <g>
       <use xlink:href="#m315064989f" x="176.353755" y="441" style="stroke: #000000; stroke-width: 0.8"/>
      </g>
     </g>
     <g id="text_2">
      <!-- 0.2 -->
      <g transform="translate(168.402192 455.598437)scale(0.1 -0.1)">
       <defs>
        <path id="DejaVuSans-32" d="M 1228 531 
L 3431 531 
L 3431 0 
L 469 0 
L 469 531 
Q 828 903 1448 1529 
Q 2069 2156 2228 2338 
Q 2531 2678 2651 2914 
Q 2772 3150 2772 3378 
Q 2772 3750 2511 3984 
Q 2250 4219 1831 4219 
Q 1534 4219 1204 4116 
Q 875 4013 500 3803 
L 500 4441 
Q 881 4594 1212 4672 
Q 1544 4750 1819 4750 
Q 2544 4750 2975 4387 
Q 3406 4025 3406 3419 
Q 3406 3131 3298 2873 
Q 3191 2616 2906 2266 
Q 2828 2175 2409 1742 
Q 1991 1309 1228 531 
z
" transform="scale(0.015625)"/>
       </defs>
       <use xlink:href="#DejaVuSans-30"/>
       <use xlink:href="#DejaVuSans-2e" x="63.623047"/>
       <use xlink:href="#DejaVuSans-32" x="95.410156"/>
      </g>
     </g>
    </g>
    <g id="xtick_3">
     <g id="line2d_3">
      <g>
       <use xlink:href="#m315064989f" x="209.436759" y="441" style="stroke: #000000; stroke-width: 0.8"/>
      </g>
     </g>
     <g id="text_3">
      <!-- 0.4 -->
      <g transform="translate(201.485196 455.598437)scale(0.1 -0.1)">
       <defs>
        <path id="DejaVuSans-34" d="M 2419 4116 
L 825 1625 
L 2419 1625 
L 2419 4116 
z
M 2253 4666 
L 3047 4666 
L 3047 1625 
L 3713 1625 
L 3713 1100 
L 3047 1100 
L 3047 0 
L 2419 0 
L 2419 1100 
L 313 1100 
L 313 1709 
L 2253 4666 
z
" transform="scale(0.015625)"/>
       </defs>
       <use xlink:href="#DejaVuSans-30"/>
       <use xlink:href="#DejaVuSans-2e" x="63.623047"/>
       <use xlink:href="#DejaVuSans-34" x="95.410156"/>
      </g>
     </g>
    </g>
    <g id="xtick_4">
     <g id="line2d_4">
      <g>
       <use xlink:href="#m315064989f" x="242.519763" y="441" style="stroke: #000000; stroke-width: 0.8"/>
      </g>
     </g>
     <g id="text_4">
      <!-- 0.6 -->
      <g transform="translate(234.5682 455.598437)scale(0.1 -0.1)">
       <defs>
        <path id="DejaVuSans-36" d="M 2113 2584 
Q 1688 2584 1439 2293 
Q 1191 2003 1191 1497 
Q 1191 994 1439 701 
Q 1688 409 2113 409 
Q 2538 409 2786 701 
Q 3034 994 3034 1497 
Q 3034 2003 2786 2293 
Q 2538 2584 2113 2584 
z
M 3366 4563 
L 3366 3988 
Q 3128 4100 2886 4159 
Q 2644 4219 2406 4219 
Q 1781 4219 1451 3797 
Q 1122 3375 1075 2522 
Q 1259 2794 1537 2939 
Q 1816 3084 2150 3084 
Q 2853 3084 3261 2657 
Q 3669 2231 3669 1497 
Q 3669 778 3244 343 
Q 2819 -91 2113 -91 
Q 1303 -91 875 529 
Q 447 1150 447 2328 
Q 447 3434 972 4092 
Q 1497 4750 2381 4750 
Q 2619 4750 2861 4703 
Q 3103 4656 3366 4563 
z
" transform="scale(0.015625)"/>
       </defs>
       <use xlink:href="#DejaVuSans-30"/>
       <use xlink:href="#DejaVuSans-2e" x="63.623047"/>
       <use xlink:href="#DejaVuSans-36" x="95.410156"/>
      </g>
     </g>
    </g>
    <g id="xtick_5">
     <g id="line2d_5">
      <g>
       <use xlink:href="#m315064989f" x="275.602767" y="441" style="stroke: #000000; stroke-width: 0.8"/>
      </g>
     </g>
     <g id="text_5">
      <!-- 0.8 -->
      <g transform="translate(267.651204 455.598437)scale(0.1 -0.1)">
       <defs>
        <path id="DejaVuSans-38" d="M 2034 2216 
Q 1584 2216 1326 1975 
Q 1069 1734 1069 1313 
Q 1069 891 1326 650 
Q 1584 409 2034 409 
Q 2484 409 2743 651 
Q 3003 894 3003 1313 
Q 3003 1734 2745 1975 
Q 2488 2216 2034 2216 
z
M 1403 2484 
Q 997 2584 770 2862 
Q 544 3141 544 3541 
Q 544 4100 942 4425 
Q 1341 4750 2034 4750 
Q 2731 4750 3128 4425 
Q 3525 4100 3525 3541 
Q 3525 3141 3298 2862 
Q 3072 2584 2669 2484 
Q 3125 2378 3379 2068 
Q 3634 1759 3634 1313 
Q 3634 634 3220 271 
Q 2806 -91 2034 -91 
Q 1263 -91 848 271 
Q 434 634 434 1313 
Q 434 1759 690 2068 
Q 947 2378 1403 2484 
z
M 1172 3481 
Q 1172 3119 1398 2916 
Q 1625 2713 2034 2713 
Q 2441 2713 2670 2916 
Q 2900 3119 2900 3481 
Q 2900 3844 2670 4047 
Q 2441 4250 2034 4250 
Q 1625 4250 1398 4047 
Q 1172 3844 1172 3481 
z
" transform="scale(0.015625)"/>
       </defs>
       <use xlink:href="#DejaVuSans-30"/>
       <use xlink:href="#DejaVuSans-2e" x="63.623047"/>
       <use xlink:href="#DejaVuSans-38" x="95.410156"/>
      </g>
     </g>
    </g>
    <g id="xtick_6">
     <g id="line2d_6">
      <g>
       <use xlink:href="#m315064989f" x="308.685771" y="441" style="stroke: #000000; stroke-width: 0.8"/>
      </g>
     </g>
     <g id="text_6">
      <!-- 1.0 -->
      <g transform="translate(300.734208 455.598437)scale(0.1 -0.1)">
       <defs>
        <path id="DejaVuSans-31" d="M 794 531 
L 1825 531 
L 1825 4091 
L 703 3866 
L 703 4441 
L 1819 4666 
L 2450 4666 
L 2450 531 
L 3481 531 
L 3481 0 
L 794 0 
L 794 531 
z
" transform="scale(0.015625)"/>
       </defs>
       <use xlink:href="#DejaVuSans-31"/>
       <use xlink:href="#DejaVuSans-2e" x="63.623047"/>
       <use xlink:href="#DejaVuSans-30" x="95.410156"/>
      </g>
     </g>
    </g>
    <g id="text_7">
     <!-- Threshold $x$ -->
     <g transform="translate(190.818261 470.79625)scale(0.12 -0.12)">
      <defs>
       <path id="DejaVuSans-54" d="M -19 4666 
L 3928 4666 
L 3928 4134 
L 2272 4134 
L 2272 0 
L 1638 0 
L 1638 4134 
L -19 4134 
L -19 4666 
z
" transform="scale(0.015625)"/>
       <path id="DejaVuSans-68" d="M 3513 2113 
L 3513 0 
L 2938 0 
L 2938 2094 
Q 2938 2591 2744 2837 
Q 2550 3084 2163 3084 
Q 1697 3084 1428 2787 
Q 1159 2491 1159 1978 
L 1159 0 
L 581 0 
L 581 4863 
L 1159 4863 
L 1159 2956 
Q 1366 3272 1645 3428 
Q 1925 3584 2291 3584 
Q 2894 3584 3203 3211 
Q 3513 2838 3513 2113 
z
" transform="scale(0.015625)"/>
       <path id="DejaVuSans-72" d="M 2631 2963 
Q 2534 3019 2420 3045 
Q 2306 3072 2169 3072 
Q 1681 3072 1420 2755 
Q 1159 2438 1159 1844 
L 1159 0 
L 581 0 
L 581 3500 
L 1159 3500 
L 1159 2956 
Q 1341 3275 1631 3429 
Q 1922 3584 2338 3584 
Q 2397 3584 2469 3576 
Q 2541 3569 2628 3553 
L 2631 2963 
z
" transform="scale(0.015625)"/>
       <path id="DejaVuSans-65" d="M 3597 1894 
L 3597 1613 
L 953 1613 
Q 991 1019 1311 708 
Q 1631 397 2203 397 
Q 2534 397 2845 478 
Q 3156 559 3463 722 
L 3463 178 
Q 3153 47 2828 -22 
Q 2503 -91 2169 -91 
Q 1331 -91 842 396 
Q 353 884 353 1716 
Q 353 2575 817 3079 
Q 1281 3584 2069 3584 
Q 2775 3584 3186 3129 
Q 3597 2675 3597 1894 
z
M 3022 2063 
Q 3016 2534 2758 2815 
Q 2500 3097 2075 3097 
Q 1594 3097 1305 2825 
Q 1016 2553 972 2059 
L 3022 2063 
z
" transform="scale(0.015625)"/>
       <path id="DejaVuSans-73" d="M 2834 3397 
L 2834 2853 
Q 2591 2978 2328 3040 
Q 2066 3103 1784 3103 
Q 1356 3103 1142 2972 
Q 928 2841 928 2578 
Q 928 2378 1081 2264 
Q 1234 2150 1697 2047 
L 1894 2003 
Q 2506 1872 2764 1633 
Q 3022 1394 3022 966 
Q 3022 478 2636 193 
Q 2250 -91 1575 -91 
Q 1294 -91 989 -36 
Q 684 19 347 128 
L 347 722 
Q 666 556 975 473 
Q 1284 391 1588 391 
Q 1994 391 2212 530 
Q 2431 669 2431 922 
Q 2431 1156 2273 1281 
Q 2116 1406 1581 1522 
L 1381 1569 
Q 847 1681 609 1914 
Q 372 2147 372 2553 
Q 372 3047 722 3315 
Q 1072 3584 1716 3584 
Q 2034 3584 2315 3537 
Q 2597 3491 2834 3397 
z
" transform="scale(0.015625)"/>
       <path id="DejaVuSans-6f" d="M 1959 3097 
Q 1497 3097 1228 2736 
Q 959 2375 959 1747 
Q 959 1119 1226 758 
Q 1494 397 1959 397 
Q 2419 397 2687 759 
Q 2956 1122 2956 1747 
Q 2956 2369 2687 2733 
Q 2419 3097 1959 3097 
z
M 1959 3584 
Q 2709 3584 3137 3096 
Q 3566 2609 3566 1747 
Q 3566 888 3137 398 
Q 2709 -91 1959 -91 
Q 1206 -91 779 398 
Q 353 888 353 1747 
Q 353 2609 779 3096 
Q 1206 3584 1959 3584 
z
" transform="scale(0.015625)"/>
       <path id="DejaVuSans-6c" d="M 603 4863 
L 1178 4863 
L 1178 0 
L 603 0 
L 603 4863 
z
" transform="scale(0.015625)"/>
       <path id="DejaVuSans-64" d="M 2906 2969 
L 2906 4863 
L 3481 4863 
L 3481 0 
L 2906 0 
L 2906 525 
Q 2725 213 2448 61 
Q 2172 -91 1784 -91 
Q 1150 -91 751 415 
Q 353 922 353 1747 
Q 353 2572 751 3078 
Q 1150 3584 1784 3584 
Q 2172 3584 2448 3432 
Q 2725 3281 2906 2969 
z
M 947 1747 
Q 947 1113 1208 752 
Q 1469 391 1925 391 
Q 2381 391 2643 752 
Q 2906 1113 2906 1747 
Q 2906 2381 2643 2742 
Q 2381 3103 1925 3103 
Q 1469 3103 1208 2742 
Q 947 2381 947 1747 
z
" transform="scale(0.015625)"/>
       <path id="DejaVuSans-20" transform="scale(0.015625)"/>
       <path id="DejaVuSans-Oblique-78" d="M 3841 3500 
L 2234 1784 
L 3219 0 
L 2559 0 
L 1819 1388 
L 531 0 
L -166 0 
L 1556 1844 
L 641 3500 
L 1300 3500 
L 1972 2234 
L 3144 3500 
L 3841 3500 
z
" transform="scale(0.015625)"/>
      </defs>
      <use xlink:href="#DejaVuSans-54" transform="translate(0 0.015625)"/>
      <use xlink:href="#DejaVuSans-68" transform="translate(61.083984 0.015625)"/>
      <use xlink:href="#DejaVuSans-72" transform="translate(124.462891 0.015625)"/>
      <use xlink:href="#DejaVuSans-65" transform="translate(165.576172 0.015625)"/>
      <use xlink:href="#DejaVuSans-73" transform="translate(227.099609 0.015625)"/>
      <use xlink:href="#DejaVuSans-68" transform="translate(279.199219 0.015625)"/>
      <use xlink:href="#DejaVuSans-6f" transform="translate(342.578125 0.015625)"/>
      <use xlink:href="#DejaVuSans-6c" transform="translate(403.759766 0.015625)"/>
      <use xlink:href="#DejaVuSans-64" transform="translate(431.542969 0.015625)"/>
      <use xlink:href="#DejaVuSans-20" transform="translate(495.019531 0.015625)"/>
      <use xlink:href="#DejaVuSans-Oblique-78" transform="translate(526.806641 0.015625)"/>
     </g>
    </g>
   </g>
   <g id="matplotlib.axis_2">
    <g id="ytick_1">
     <g id="line2d_7">
      <defs>
       <path id="mc47099b759" d="M 0 0 
L -3.5 0 
" style="stroke: #000000; stroke-width: 0.8"/>
      </defs>
      <g>
       <use xlink:href="#mc47099b759" x="135" y="406.407273" style="stroke: #000000; stroke-width: 0.8"/>
      </g>
     </g>
     <g id="text_8">
      <!-- 0.0 -->
      <g transform="translate(112.096875 410.206491)scale(0.1 -0.1)">
       <use xlink:href="#DejaVuSans-30"/>
       <use xlink:href="#DejaVuSans-2e" x="63.623047"/>
       <use xlink:href="#DejaVuSans-30" x="95.410156"/>
      </g>
     </g>
    </g>
    <g id="ytick_2">
     <g id="line2d_8">
      <g>
       <use xlink:href="#mc47099b759" x="135" y="337.221818" style="stroke: #000000; stroke-width: 0.8"/>
      </g>
     </g>
     <g id="text_9">
      <!-- 0.1 -->
      <g transform="translate(112.096875 341.021037)scale(0.1 -0.1)">
       <use xlink:href="#DejaVuSans-30"/>
       <use xlink:href="#DejaVuSans-2e" x="63.623047"/>
       <use xlink:href="#DejaVuSans-31" x="95.410156"/>
      </g>
     </g>
    </g>
    <g id="ytick_3">
     <g id="line2d_9">
      <g>
       <use xlink:href="#mc47099b759" x="135" y="268.036364" style="stroke: #000000; stroke-width: 0.8"/>
      </g>
     </g>
     <g id="text_10">
      <!-- 0.2 -->
      <g transform="translate(112.096875 271.835582)scale(0.1 -0.1)">
       <use xlink:href="#DejaVuSans-30"/>
       <use xlink:href="#DejaVuSans-2e" x="63.623047"/>
       <use xlink:href="#DejaVuSans-32" x="95.410156"/>
      </g>
     </g>
    </g>
    <g id="ytick_4">
     <g id="line2d_10">
      <g>
       <use xlink:href="#mc47099b759" x="135" y="198.850909" style="stroke: #000000; stroke-width: 0.8"/>
      </g>
     </g>
     <g id="text_11">
      <!-- 0.3 -->
      <g transform="translate(112.096875 202.650128)scale(0.1 -0.1)">
       <defs>
        <path id="DejaVuSans-33" d="M 2597 2516 
Q 3050 2419 3304 2112 
Q 3559 1806 3559 1356 
Q 3559 666 3084 287 
Q 2609 -91 1734 -91 
Q 1441 -91 1130 -33 
Q 819 25 488 141 
L 488 750 
Q 750 597 1062 519 
Q 1375 441 1716 441 
Q 2309 441 2620 675 
Q 2931 909 2931 1356 
Q 2931 1769 2642 2001 
Q 2353 2234 1838 2234 
L 1294 2234 
L 1294 2753 
L 1863 2753 
Q 2328 2753 2575 2939 
Q 2822 3125 2822 3475 
Q 2822 3834 2567 4026 
Q 2313 4219 1838 4219 
Q 1578 4219 1281 4162 
Q 984 4106 628 3988 
L 628 4550 
Q 988 4650 1302 4700 
Q 1616 4750 1894 4750 
Q 2613 4750 3031 4423 
Q 3450 4097 3450 3541 
Q 3450 3153 3228 2886 
Q 3006 2619 2597 2516 
z
" transform="scale(0.015625)"/>
       </defs>
       <use xlink:href="#DejaVuSans-30"/>
       <use xlink:href="#DejaVuSans-2e" x="63.623047"/>
       <use xlink:href="#DejaVuSans-33" x="95.410156"/>
      </g>
     </g>
    </g>
    <g id="ytick_5">
     <g id="line2d_11">
      <g>
       <use xlink:href="#mc47099b759" x="135" y="129.665455" style="stroke: #000000; stroke-width: 0.8"/>
      </g>
     </g>
     <g id="text_12">
      <!-- 0.4 -->
      <g transform="translate(112.096875 133.464673)scale(0.1 -0.1)">
       <use xlink:href="#DejaVuSans-30"/>
       <use xlink:href="#DejaVuSans-2e" x="63.623047"/>
       <use xlink:href="#DejaVuSans-34" x="95.410156"/>
      </g>
     </g>
    </g>
    <g id="ytick_6">
     <g id="line2d_12">
      <g>
       <use xlink:href="#mc47099b759" x="135" y="60.48" style="stroke: #000000; stroke-width: 0.8"/>
      </g>
     </g>
     <g id="text_13">
      <!-- 0.5 -->
      <g transform="translate(112.096875 64.279219)scale(0.1 -0.1)">
       <defs>
        <path id="DejaVuSans-35" d="M 691 4666 
L 3169 4666 
L 3169 4134 
L 1269 4134 
L 1269 2991 
Q 1406 3038 1543 3061 
Q 1681 3084 1819 3084 
Q 2600 3084 3056 2656 
Q 3513 2228 3513 1497 
Q 3513 744 3044 326 
Q 2575 -91 1722 -91 
Q 1428 -91 1123 -41 
Q 819 9 494 109 
L 494 744 
Q 775 591 1075 516 
Q 1375 441 1709 441 
Q 2250 441 2565 725 
Q 2881 1009 2881 1497 
Q 2881 1984 2565 2268 
Q 2250 2553 1709 2553 
Q 1456 2553 1204 2497 
Q 953 2441 691 2322 
L 691 4666 
z
" transform="scale(0.015625)"/>
       </defs>
       <use xlink:href="#DejaVuSans-30"/>
       <use xlink:href="#DejaVuSans-2e" x="63.623047"/>
       <use xlink:href="#DejaVuSans-35" x="95.410156"/>
      </g>
     </g>
    </g>
   </g>
   <g id="line2d_13">
    <path d="M 143.270751 211.499275 
L 144.94161 211.499395 
L 146.612469 211.500236 
L 148.283327 211.502533 
L 149.954186 211.507036 
L 151.625045 211.514511 
L 153.295904 211.525737 
L 154.966762 211.541509 
L 156.637621 211.56264 
L 158.30848 211.589956 
L 159.979339 211.624302 
L 161.650198 211.666537 
L 163.321056 211.717539 
L 164.991915 211.778202 
L 166.662774 211.849435 
L 168.333633 211.93217 
L 170.004492 212.027351 
L 171.67535 212.135943 
L 173.346209 212.258929 
L 175.017068 212.39731 
L 176.687927 212.552107 
L 178.358785 212.724359 
L 180.029644 212.915124 
L 181.700503 213.125482 
L 183.371362 213.35653 
L 185.042221 213.609386 
L 186.713079 213.885192 
L 188.383938 214.185106 
L 190.054797 214.510309 
L 191.725656 214.862006 
L 193.396515 215.24142 
L 195.067373 215.649798 
L 196.738232 216.08841 
L 198.409091 216.558548 
L 200.07995 217.061526 
L 201.750808 217.598684 
L 203.421667 218.171384 
L 205.092526 218.781012 
L 206.763385 219.42898 
L 208.434244 220.116723 
L 210.105102 220.845702 
L 211.775961 221.617405 
L 213.44682 222.433343 
L 215.117679 223.295057 
L 216.788538 224.20411 
L 218.459396 225.162097 
L 220.130255 226.170637 
L 221.801114 227.231378 
L 223.471973 228.345996 
L 225.142831 229.516196 
L 226.81369 230.743713 
L 228.484549 232.03031 
L 230.155408 233.377779 
L 231.826267 234.787946 
L 233.497125 236.262663 
L 235.167984 237.803817 
L 236.838843 239.413325 
L 238.509702 241.093136 
L 240.180561 242.845233 
L 241.851419 244.671629 
L 243.522278 246.574374 
L 245.193137 248.555549 
L 246.863996 250.617271 
L 248.534854 252.761692 
L 250.205713 254.990999 
L 251.876572 257.307414 
L 253.547431 259.713197 
L 255.21829 262.210643 
L 256.889148 264.802087 
L 258.560007 267.4899 
L 260.230866 270.276491 
L 261.901725 273.164309 
L 263.572584 276.155844 
L 265.243442 279.253622 
L 266.914301 282.460215 
L 268.58516 285.778231 
L 270.256019 289.210324 
L 271.926877 292.759187 
L 273.597736 296.427558 
L 275.268595 300.218219 
L 276.939454 304.133994 
L 278.610313 308.177753 
L 280.281171 312.352413 
L 281.95203 316.660933 
L 283.622889 321.106323 
L 285.293748 325.691636 
L 286.964607 330.419977 
L 288.635465 335.294498 
L 290.306324 340.318399 
L 291.977183 345.494931 
L 293.648042 350.827396 
L 295.3189 356.319146 
L 296.989759 361.973587 
L 298.660618 367.794176 
L 300.331477 373.784425 
L 302.002336 379.947897 
L 303.673194 386.288214 
L 305.344053 392.809052 
L 307.014912 399.514141 
L 308.685771 406.407273 
" clip-path="url(#pbaf0867372)" style="fill: none; stroke: #1f77b4; stroke-width: 1.5; stroke-linecap: square"/>
   </g>
   <g id="line2d_14">
    <path d="M 143.270751 406.407273 
L 144.94161 406.371739 
L 146.612469 406.264176 
L 148.283327 406.083126 
L 149.954186 405.827107 
L 151.625045 405.494615 
L 153.295904 405.084125 
L 154.966762 404.594087 
L 156.637621 404.022927 
L 158.30848 403.36905 
L 159.979339 402.630835 
L 161.650198 401.806636 
L 163.321056 400.894784 
L 164.991915 399.893585 
L 166.662774 398.801317 
L 168.333633 397.616235 
L 170.004492 396.336568 
L 171.67535 394.960516 
L 173.346209 393.486255 
L 175.017068 391.911932 
L 176.687927 390.235668 
L 178.358785 388.455555 
L 180.029644 386.569657 
L 181.700503 384.57601 
L 183.371362 382.47262 
L 185.042221 380.257464 
L 186.713079 377.928491 
L 188.383938 375.483617 
L 190.054797 372.920729 
L 191.725656 370.237684 
L 193.396515 367.432304 
L 195.067373 364.502383 
L 196.738232 361.445682 
L 198.409091 358.259927 
L 200.07995 354.942815 
L 201.750808 351.492005 
L 203.421667 347.905126 
L 205.092526 344.17977 
L 206.763385 340.313494 
L 208.434244 336.303823 
L 210.105102 332.148242 
L 211.775961 327.844203 
L 213.44682 323.389119 
L 215.117679 318.780367 
L 216.788538 314.015286 
L 218.459396 309.091177 
L 220.130255 304.005302 
L 221.801114 298.754884 
L 223.471973 293.337107 
L 225.142831 287.749112 
L 226.81369 281.988003 
L 228.484549 276.050841 
L 230.155408 269.934644 
L 231.826267 263.63639 
L 233.497125 257.153012 
L 235.167984 250.4814 
L 236.838843 243.618401 
L 238.509702 236.560816 
L 240.180561 229.305402 
L 241.851419 221.848869 
L 243.522278 214.187882 
L 245.193137 206.319057 
L 246.863996 198.238965 
L 248.534854 189.944127 
L 250.205713 181.431015 
L 251.876572 172.696051 
L 253.547431 163.73561 
L 255.21829 154.546014 
L 256.889148 145.123532 
L 258.560007 135.464383 
L 260.230866 125.564733 
L 261.901725 115.420695 
L 263.572584 105.028327 
L 265.243442 94.383631 
L 266.914301 83.482557 
L 268.58516 72.320994 
L 270.256019 60.894778 
L 271.926877 49.199686 
L 273.597736 37.231435 
L 275.268595 24.985685 
L 276.939454 12.458035 
L 278.610313 -0.355977 
L 278.692425 -1 
" clip-path="url(#pbaf0867372)" style="fill: none; stroke: #ff7f0e; stroke-width: 1.5; stroke-linecap: square"/>
   </g>
   <g id="patch_3">
    <path d="M 135 441 
L 135 60.48 
" style="fill: none; stroke: #000000; stroke-width: 0.8; stroke-linejoin: miter; stroke-linecap: square"/>
   </g>
   <g id="patch_4">
    <path d="M 316.956522 441 
L 316.956522 60.48 
" style="fill: none; stroke: #000000; stroke-width: 0.8; stroke-linejoin: miter; stroke-linecap: square"/>
   </g>
   <g id="patch_5">
    <path d="M 135 441 
L 316.956522 441 
" style="fill: none; stroke: #000000; stroke-width: 0.8; stroke-linejoin: miter; stroke-linecap: square"/>
   </g>
   <g id="patch_6">
    <path d="M 135 60.48 
L 316.956522 60.48 
" style="fill: none; stroke: #000000; stroke-width: 0.8; stroke-linejoin: miter; stroke-linecap: square"/>
   </g>
   <g id="text_14">
    <!-- Grafical solution for n=2 -->
    <g transform="translate(152.386386 54.48)scale(0.12 -0.12)">
     <defs>
      <path id="DejaVuSans-47" d="M 3809 666 
L 3809 1919 
L 2778 1919 
L 2778 2438 
L 4434 2438 
L 4434 434 
Q 4069 175 3628 42 
Q 3188 -91 2688 -91 
Q 1594 -91 976 548 
Q 359 1188 359 2328 
Q 359 3472 976 4111 
Q 1594 4750 2688 4750 
Q 3144 4750 3555 4637 
Q 3966 4525 4313 4306 
L 4313 3634 
Q 3963 3931 3569 4081 
Q 3175 4231 2741 4231 
Q 1884 4231 1454 3753 
Q 1025 3275 1025 2328 
Q 1025 1384 1454 906 
Q 1884 428 2741 428 
Q 3075 428 3337 486 
Q 3600 544 3809 666 
z
" transform="scale(0.015625)"/>
      <path id="DejaVuSans-61" d="M 2194 1759 
Q 1497 1759 1228 1600 
Q 959 1441 959 1056 
Q 959 750 1161 570 
Q 1363 391 1709 391 
Q 2188 391 2477 730 
Q 2766 1069 2766 1631 
L 2766 1759 
L 2194 1759 
z
M 3341 1997 
L 3341 0 
L 2766 0 
L 2766 531 
Q 2569 213 2275 61 
Q 1981 -91 1556 -91 
Q 1019 -91 701 211 
Q 384 513 384 1019 
Q 384 1609 779 1909 
Q 1175 2209 1959 2209 
L 2766 2209 
L 2766 2266 
Q 2766 2663 2505 2880 
Q 2244 3097 1772 3097 
Q 1472 3097 1187 3025 
Q 903 2953 641 2809 
L 641 3341 
Q 956 3463 1253 3523 
Q 1550 3584 1831 3584 
Q 2591 3584 2966 3190 
Q 3341 2797 3341 1997 
z
" transform="scale(0.015625)"/>
      <path id="DejaVuSans-66" d="M 2375 4863 
L 2375 4384 
L 1825 4384 
Q 1516 4384 1395 4259 
Q 1275 4134 1275 3809 
L 1275 3500 
L 2222 3500 
L 2222 3053 
L 1275 3053 
L 1275 0 
L 697 0 
L 697 3053 
L 147 3053 
L 147 3500 
L 697 3500 
L 697 3744 
Q 697 4328 969 4595 
Q 1241 4863 1831 4863 
L 2375 4863 
z
" transform="scale(0.015625)"/>
      <path id="DejaVuSans-69" d="M 603 3500 
L 1178 3500 
L 1178 0 
L 603 0 
L 603 3500 
z
M 603 4863 
L 1178 4863 
L 1178 4134 
L 603 4134 
L 603 4863 
z
" transform="scale(0.015625)"/>
      <path id="DejaVuSans-63" d="M 3122 3366 
L 3122 2828 
Q 2878 2963 2633 3030 
Q 2388 3097 2138 3097 
Q 1578 3097 1268 2742 
Q 959 2388 959 1747 
Q 959 1106 1268 751 
Q 1578 397 2138 397 
Q 2388 397 2633 464 
Q 2878 531 3122 666 
L 3122 134 
Q 2881 22 2623 -34 
Q 2366 -91 2075 -91 
Q 1284 -91 818 406 
Q 353 903 353 1747 
Q 353 2603 823 3093 
Q 1294 3584 2113 3584 
Q 2378 3584 2631 3529 
Q 2884 3475 3122 3366 
z
" transform="scale(0.015625)"/>
      <path id="DejaVuSans-75" d="M 544 1381 
L 544 3500 
L 1119 3500 
L 1119 1403 
Q 1119 906 1312 657 
Q 1506 409 1894 409 
Q 2359 409 2629 706 
Q 2900 1003 2900 1516 
L 2900 3500 
L 3475 3500 
L 3475 0 
L 2900 0 
L 2900 538 
Q 2691 219 2414 64 
Q 2138 -91 1772 -91 
Q 1169 -91 856 284 
Q 544 659 544 1381 
z
M 1991 3584 
L 1991 3584 
z
" transform="scale(0.015625)"/>
      <path id="DejaVuSans-74" d="M 1172 4494 
L 1172 3500 
L 2356 3500 
L 2356 3053 
L 1172 3053 
L 1172 1153 
Q 1172 725 1289 603 
Q 1406 481 1766 481 
L 2356 481 
L 2356 0 
L 1766 0 
Q 1100 0 847 248 
Q 594 497 594 1153 
L 594 3053 
L 172 3053 
L 172 3500 
L 594 3500 
L 594 4494 
L 1172 4494 
z
" transform="scale(0.015625)"/>
      <path id="DejaVuSans-6e" d="M 3513 2113 
L 3513 0 
L 2938 0 
L 2938 2094 
Q 2938 2591 2744 2837 
Q 2550 3084 2163 3084 
Q 1697 3084 1428 2787 
Q 1159 2491 1159 1978 
L 1159 0 
L 581 0 
L 581 3500 
L 1159 3500 
L 1159 2956 
Q 1366 3272 1645 3428 
Q 1925 3584 2291 3584 
Q 2894 3584 3203 3211 
Q 3513 2838 3513 2113 
z
" transform="scale(0.015625)"/>
      <path id="DejaVuSans-3d" d="M 678 2906 
L 4684 2906 
L 4684 2381 
L 678 2381 
L 678 2906 
z
M 678 1631 
L 4684 1631 
L 4684 1100 
L 678 1100 
L 678 1631 
z
" transform="scale(0.015625)"/>
     </defs>
     <use xlink:href="#DejaVuSans-47"/>
     <use xlink:href="#DejaVuSans-72" x="77.490234"/>
     <use xlink:href="#DejaVuSans-61" x="118.603516"/>
     <use xlink:href="#DejaVuSans-66" x="179.882812"/>
     <use xlink:href="#DejaVuSans-69" x="215.087891"/>
     <use xlink:href="#DejaVuSans-63" x="242.871094"/>
     <use xlink:href="#DejaVuSans-61" x="297.851562"/>
     <use xlink:href="#DejaVuSans-6c" x="359.130859"/>
     <use xlink:href="#DejaVuSans-20" x="386.914062"/>
     <use xlink:href="#DejaVuSans-73" x="418.701172"/>
     <use xlink:href="#DejaVuSans-6f" x="470.800781"/>
     <use xlink:href="#DejaVuSans-6c" x="531.982422"/>
     <use xlink:href="#DejaVuSans-75" x="559.765625"/>
     <use xlink:href="#DejaVuSans-74" x="623.144531"/>
     <use xlink:href="#DejaVuSans-69" x="662.353516"/>
     <use xlink:href="#DejaVuSans-6f" x="690.136719"/>
     <use xlink:href="#DejaVuSans-6e" x="751.318359"/>
     <use xlink:href="#DejaVuSans-20" x="814.697266"/>
     <use xlink:href="#DejaVuSans-66" x="846.484375"/>
     <use xlink:href="#DejaVuSans-6f" x="881.689453"/>
     <use xlink:href="#DejaVuSans-72" x="942.871094"/>
     <use xlink:href="#DejaVuSans-20" x="983.984375"/>
     <use xlink:href="#DejaVuSans-6e" x="1015.771484"/>
     <use xlink:href="#DejaVuSans-3d" x="1079.150391"/>
     <use xlink:href="#DejaVuSans-32" x="1162.939453"/>
    </g>
   </g>
  </g>
  <g id="axes_2">
   <g id="patch_7">
    <path d="M 353.347826 441 
L 535.304348 441 
L 535.304348 60.48 
L 353.347826 60.48 
L 353.347826 441 
z
" style="fill: none"/>
   </g>
   <g id="matplotlib.axis_3">
    <g id="xtick_7">
     <g id="line2d_15">
      <g>
       <use xlink:href="#m315064989f" x="361.618577" y="441" style="stroke: #000000; stroke-width: 0.8"/>
      </g>
     </g>
     <g id="text_15">
      <!-- 0.0 -->
      <g transform="translate(353.667015 455.598437)scale(0.1 -0.1)">
       <use xlink:href="#DejaVuSans-30"/>
       <use xlink:href="#DejaVuSans-2e" x="63.623047"/>
       <use xlink:href="#DejaVuSans-30" x="95.410156"/>
      </g>
     </g>
    </g>
    <g id="xtick_8">
     <g id="line2d_16">
      <g>
       <use xlink:href="#m315064989f" x="394.701581" y="441" style="stroke: #000000; stroke-width: 0.8"/>
      </g>
     </g>
     <g id="text_16">
      <!-- 0.2 -->
      <g transform="translate(386.750019 455.598437)scale(0.1 -0.1)">
       <use xlink:href="#DejaVuSans-30"/>
       <use xlink:href="#DejaVuSans-2e" x="63.623047"/>
       <use xlink:href="#DejaVuSans-32" x="95.410156"/>
      </g>
     </g>
    </g>
    <g id="xtick_9">
     <g id="line2d_17">
      <g>
       <use xlink:href="#m315064989f" x="427.784585" y="441" style="stroke: #000000; stroke-width: 0.8"/>
      </g>
     </g>
     <g id="text_17">
      <!-- 0.4 -->
      <g transform="translate(419.833022 455.598437)scale(0.1 -0.1)">
       <use xlink:href="#DejaVuSans-30"/>
       <use xlink:href="#DejaVuSans-2e" x="63.623047"/>
       <use xlink:href="#DejaVuSans-34" x="95.410156"/>
      </g>
     </g>
    </g>
    <g id="xtick_10">
     <g id="line2d_18">
      <g>
       <use xlink:href="#m315064989f" x="460.867589" y="441" style="stroke: #000000; stroke-width: 0.8"/>
      </g>
     </g>
     <g id="text_18">
      <!-- 0.6 -->
      <g transform="translate(452.916026 455.598437)scale(0.1 -0.1)">
       <use xlink:href="#DejaVuSans-30"/>
       <use xlink:href="#DejaVuSans-2e" x="63.623047"/>
       <use xlink:href="#DejaVuSans-36" x="95.410156"/>
      </g>
     </g>
    </g>
    <g id="xtick_11">
     <g id="line2d_19">
      <g>
       <use xlink:href="#m315064989f" x="493.950593" y="441" style="stroke: #000000; stroke-width: 0.8"/>
      </g>
     </g>
     <g id="text_19">
      <!-- 0.8 -->
      <g transform="translate(485.99903 455.598437)scale(0.1 -0.1)">
       <use xlink:href="#DejaVuSans-30"/>
       <use xlink:href="#DejaVuSans-2e" x="63.623047"/>
       <use xlink:href="#DejaVuSans-38" x="95.410156"/>
      </g>
     </g>
    </g>
    <g id="xtick_12">
     <g id="line2d_20">
      <g>
       <use xlink:href="#m315064989f" x="527.033597" y="441" style="stroke: #000000; stroke-width: 0.8"/>
      </g>
     </g>
     <g id="text_20">
      <!-- 1.0 -->
      <g transform="translate(519.082034 455.598437)scale(0.1 -0.1)">
       <use xlink:href="#DejaVuSans-31"/>
       <use xlink:href="#DejaVuSans-2e" x="63.623047"/>
       <use xlink:href="#DejaVuSans-30" x="95.410156"/>
      </g>
     </g>
    </g>
    <g id="text_21">
     <!-- Threshold $x$ -->
     <g transform="translate(409.166087 470.79625)scale(0.12 -0.12)">
      <use xlink:href="#DejaVuSans-54" transform="translate(0 0.015625)"/>
      <use xlink:href="#DejaVuSans-68" transform="translate(61.083984 0.015625)"/>
      <use xlink:href="#DejaVuSans-72" transform="translate(124.462891 0.015625)"/>
      <use xlink:href="#DejaVuSans-65" transform="translate(165.576172 0.015625)"/>
      <use xlink:href="#DejaVuSans-73" transform="translate(227.099609 0.015625)"/>
      <use xlink:href="#DejaVuSans-68" transform="translate(279.199219 0.015625)"/>
      <use xlink:href="#DejaVuSans-6f" transform="translate(342.578125 0.015625)"/>
      <use xlink:href="#DejaVuSans-6c" transform="translate(403.759766 0.015625)"/>
      <use xlink:href="#DejaVuSans-64" transform="translate(431.542969 0.015625)"/>
      <use xlink:href="#DejaVuSans-20" transform="translate(495.019531 0.015625)"/>
      <use xlink:href="#DejaVuSans-Oblique-78" transform="translate(526.806641 0.015625)"/>
     </g>
    </g>
   </g>
   <g id="matplotlib.axis_4">
    <g id="ytick_7">
     <g id="line2d_21">
      <g>
       <use xlink:href="#mc47099b759" x="353.347826" y="406.407273" style="stroke: #000000; stroke-width: 0.8"/>
      </g>
     </g>
     <g id="text_22">
      <!-- 0.0 -->
      <g transform="translate(330.444701 410.206491)scale(0.1 -0.1)">
       <use xlink:href="#DejaVuSans-30"/>
       <use xlink:href="#DejaVuSans-2e" x="63.623047"/>
       <use xlink:href="#DejaVuSans-30" x="95.410156"/>
      </g>
     </g>
    </g>
    <g id="ytick_8">
     <g id="line2d_22">
      <g>
       <use xlink:href="#mc47099b759" x="353.347826" y="337.221818" style="stroke: #000000; stroke-width: 0.8"/>
      </g>
     </g>
     <g id="text_23">
      <!-- 0.1 -->
      <g transform="translate(330.444701 341.021037)scale(0.1 -0.1)">
       <use xlink:href="#DejaVuSans-30"/>
       <use xlink:href="#DejaVuSans-2e" x="63.623047"/>
       <use xlink:href="#DejaVuSans-31" x="95.410156"/>
      </g>
     </g>
    </g>
    <g id="ytick_9">
     <g id="line2d_23">
      <g>
       <use xlink:href="#mc47099b759" x="353.347826" y="268.036364" style="stroke: #000000; stroke-width: 0.8"/>
      </g>
     </g>
     <g id="text_24">
      <!-- 0.2 -->
      <g transform="translate(330.444701 271.835582)scale(0.1 -0.1)">
       <use xlink:href="#DejaVuSans-30"/>
       <use xlink:href="#DejaVuSans-2e" x="63.623047"/>
       <use xlink:href="#DejaVuSans-32" x="95.410156"/>
      </g>
     </g>
    </g>
    <g id="ytick_10">
     <g id="line2d_24">
      <g>
       <use xlink:href="#mc47099b759" x="353.347826" y="198.850909" style="stroke: #000000; stroke-width: 0.8"/>
      </g>
     </g>
     <g id="text_25">
      <!-- 0.3 -->
      <g transform="translate(330.444701 202.650128)scale(0.1 -0.1)">
       <use xlink:href="#DejaVuSans-30"/>
       <use xlink:href="#DejaVuSans-2e" x="63.623047"/>
       <use xlink:href="#DejaVuSans-33" x="95.410156"/>
      </g>
     </g>
    </g>
    <g id="ytick_11">
     <g id="line2d_25">
      <g>
       <use xlink:href="#mc47099b759" x="353.347826" y="129.665455" style="stroke: #000000; stroke-width: 0.8"/>
      </g>
     </g>
     <g id="text_26">
      <!-- 0.4 -->
      <g transform="translate(330.444701 133.464673)scale(0.1 -0.1)">
       <use xlink:href="#DejaVuSans-30"/>
       <use xlink:href="#DejaVuSans-2e" x="63.623047"/>
       <use xlink:href="#DejaVuSans-34" x="95.410156"/>
      </g>
     </g>
    </g>
    <g id="ytick_12">
     <g id="line2d_26">
      <g>
       <use xlink:href="#mc47099b759" x="353.347826" y="60.48" style="stroke: #000000; stroke-width: 0.8"/>
      </g>
     </g>
     <g id="text_27">
      <!-- 0.5 -->
      <g transform="translate(330.444701 64.279219)scale(0.1 -0.1)">
       <use xlink:href="#DejaVuSans-30"/>
       <use xlink:href="#DejaVuSans-2e" x="63.623047"/>
       <use xlink:href="#DejaVuSans-35" x="95.410156"/>
      </g>
     </g>
    </g>
   </g>
   <g id="line2d_27">
    <path d="M 361.618577 295.225993 
L 363.289436 295.225993 
L 364.960295 295.225993 
L 366.631153 295.225994 
L 368.302012 295.225997 
L 369.972871 295.226005 
L 371.64373 295.226023 
L 373.314589 295.226059 
L 374.985447 295.226123 
L 376.656306 295.226231 
L 378.327165 295.2264 
L 379.998024 295.226656 
L 381.668883 295.227029 
L 383.339741 295.227557 
L 385.0106 295.228285 
L 386.681459 295.229266 
L 388.352318 295.230564 
L 390.023176 295.232254 
L 391.694035 295.234421 
L 393.364894 295.237164 
L 395.035753 295.240596 
L 396.706612 295.244846 
L 398.37747 295.250058 
L 400.048329 295.256394 
L 401.719188 295.264038 
L 403.390047 295.273193 
L 405.060905 295.284085 
L 406.731764 295.296963 
L 408.402623 295.312104 
L 410.073482 295.329813 
L 411.744341 295.350421 
L 413.415199 295.374296 
L 415.086058 295.401836 
L 416.756917 295.433476 
L 418.427776 295.46969 
L 420.098635 295.510993 
L 421.769493 295.557941 
L 423.440352 295.611138 
L 425.111211 295.671236 
L 426.78207 295.738937 
L 428.452928 295.815 
L 430.123787 295.900238 
L 431.794646 295.995528 
L 433.465505 296.101808 
L 435.136364 296.220085 
L 436.807222 296.351437 
L 438.478081 296.497016 
L 440.14894 296.658055 
L 441.819799 296.835866 
L 443.490658 297.031853 
L 445.161516 297.247506 
L 446.832375 297.484416 
L 448.503234 297.744273 
L 450.174093 298.028873 
L 451.844951 298.340123 
L 453.51581 298.680047 
L 455.186669 299.050791 
L 456.857528 299.454628 
L 458.528387 299.893967 
L 460.199245 300.371356 
L 461.870104 300.889489 
L 463.540963 301.451214 
L 465.211822 302.059542 
L 466.882681 302.717648 
L 468.553539 303.428884 
L 470.224398 304.196786 
L 471.895257 305.02508 
L 473.566116 305.917692 
L 475.236974 306.878757 
L 476.907833 307.912627 
L 478.578692 309.023882 
L 480.249551 310.217336 
L 481.92041 311.498052 
L 483.591268 312.87135 
L 485.262127 314.342817 
L 486.932986 315.91832 
L 488.603845 317.604016 
L 490.274704 319.406366 
L 491.945562 321.332144 
L 493.616421 323.388455 
L 495.28728 325.582743 
L 496.958139 327.922809 
L 498.628997 330.416823 
L 500.299856 333.073339 
L 501.970715 335.901311 
L 503.641574 338.910108 
L 505.312433 342.109533 
L 506.983291 345.509834 
L 508.65415 349.12173 
L 510.325009 352.956421 
L 511.995868 357.025611 
L 513.666727 361.341528 
L 515.337585 365.916942 
L 517.008444 370.765185 
L 518.679303 375.900176 
L 520.350162 381.33644 
L 522.02102 387.089131 
L 523.691879 393.174059 
L 525.362738 399.60771 
L 527.033597 406.407273 
" clip-path="url(#pfd53dab81b)" style="fill: none; stroke: #1f77b4; stroke-width: 1.5; stroke-linecap: square"/>
   </g>
   <g id="line2d_28">
    <path d="M 361.618577 406.407273 
L 363.289436 406.407271 
L 364.960295 406.407243 
L 366.631153 406.407121 
L 368.302012 406.406786 
L 369.972871 406.406069 
L 371.64373 406.404742 
L 373.314589 406.402521 
L 374.985447 406.399056 
L 376.656306 406.393931 
L 378.327165 406.386659 
L 379.998024 406.37668 
L 381.668883 406.363351 
L 383.339741 406.345948 
L 385.0106 406.323656 
L 386.681459 406.29557 
L 388.352318 406.260683 
L 390.023176 406.217886 
L 391.694035 406.165961 
L 393.364894 406.103575 
L 395.035753 406.029273 
L 396.706612 405.941475 
L 398.37747 405.838467 
L 400.048329 405.718394 
L 401.719188 405.579255 
L 403.390047 405.418897 
L 405.060905 405.235002 
L 406.731764 405.025086 
L 408.402623 404.786486 
L 410.073482 404.516356 
L 411.744341 404.211655 
L 413.415199 403.869138 
L 415.086058 403.485351 
L 416.756917 403.056616 
L 418.427776 402.579025 
L 420.098635 402.048428 
L 421.769493 401.460422 
L 423.440352 400.810342 
L 425.111211 400.093247 
L 426.78207 399.30391 
L 428.452928 398.436806 
L 430.123787 397.486097 
L 431.794646 396.445621 
L 433.465505 395.308878 
L 435.136364 394.069016 
L 436.807222 392.718814 
L 438.478081 391.250671 
L 440.14894 389.656589 
L 441.819799 387.928154 
L 443.490658 386.056523 
L 445.161516 384.032404 
L 446.832375 381.846042 
L 448.503234 379.487195 
L 450.174093 376.945119 
L 451.844951 374.208547 
L 453.51581 371.26567 
L 455.186669 368.104111 
L 456.857528 364.710909 
L 458.528387 361.072494 
L 460.199245 357.174664 
L 461.870104 353.002559 
L 463.540963 348.540638 
L 465.211822 343.772656 
L 466.882681 338.68163 
L 468.553539 333.249819 
L 470.224398 327.458691 
L 471.895257 321.288896 
L 473.566116 314.720235 
L 475.236974 307.731628 
L 476.907833 300.301083 
L 478.578692 292.405663 
L 480.249551 284.021449 
L 481.92041 275.123509 
L 483.591268 265.685855 
L 485.262127 255.681411 
L 486.932986 245.081973 
L 488.603845 233.858166 
L 490.274704 221.979402 
L 491.945562 209.413844 
L 493.616421 196.128351 
L 495.28728 182.088443 
L 496.958139 167.258246 
L 498.628997 151.600447 
L 500.299856 135.076245 
L 501.970715 117.645294 
L 503.641574 99.265658 
L 505.312433 79.893746 
L 506.983291 59.484265 
L 508.65415 37.990154 
L 510.325009 15.362529 
L 511.473152 -1 
" clip-path="url(#pfd53dab81b)" style="fill: none; stroke: #ff7f0e; stroke-width: 1.5; stroke-linecap: square"/>
   </g>
   <g id="patch_8">
    <path d="M 353.347826 441 
L 353.347826 60.48 
" style="fill: none; stroke: #000000; stroke-width: 0.8; stroke-linejoin: miter; stroke-linecap: square"/>
   </g>
   <g id="patch_9">
    <path d="M 535.304348 441 
L 535.304348 60.48 
" style="fill: none; stroke: #000000; stroke-width: 0.8; stroke-linejoin: miter; stroke-linecap: square"/>
   </g>
   <g id="patch_10">
    <path d="M 353.347826 441 
L 535.304348 441 
" style="fill: none; stroke: #000000; stroke-width: 0.8; stroke-linejoin: miter; stroke-linecap: square"/>
   </g>
   <g id="patch_11">
    <path d="M 353.347826 60.48 
L 535.304348 60.48 
" style="fill: none; stroke: #000000; stroke-width: 0.8; stroke-linejoin: miter; stroke-linecap: square"/>
   </g>
   <g id="text_28">
    <!-- Grafical solution for n=3 -->
    <g transform="translate(370.734212 54.48)scale(0.12 -0.12)">
     <use xlink:href="#DejaVuSans-47"/>
     <use xlink:href="#DejaVuSans-72" x="77.490234"/>
     <use xlink:href="#DejaVuSans-61" x="118.603516"/>
     <use xlink:href="#DejaVuSans-66" x="179.882812"/>
     <use xlink:href="#DejaVuSans-69" x="215.087891"/>
     <use xlink:href="#DejaVuSans-63" x="242.871094"/>
     <use xlink:href="#DejaVuSans-61" x="297.851562"/>
     <use xlink:href="#DejaVuSans-6c" x="359.130859"/>
     <use xlink:href="#DejaVuSans-20" x="386.914062"/>
     <use xlink:href="#DejaVuSans-73" x="418.701172"/>
     <use xlink:href="#DejaVuSans-6f" x="470.800781"/>
     <use xlink:href="#DejaVuSans-6c" x="531.982422"/>
     <use xlink:href="#DejaVuSans-75" x="559.765625"/>
     <use xlink:href="#DejaVuSans-74" x="623.144531"/>
     <use xlink:href="#DejaVuSans-69" x="662.353516"/>
     <use xlink:href="#DejaVuSans-6f" x="690.136719"/>
     <use xlink:href="#DejaVuSans-6e" x="751.318359"/>
     <use xlink:href="#DejaVuSans-20" x="814.697266"/>
     <use xlink:href="#DejaVuSans-66" x="846.484375"/>
     <use xlink:href="#DejaVuSans-6f" x="881.689453"/>
     <use xlink:href="#DejaVuSans-72" x="942.871094"/>
     <use xlink:href="#DejaVuSans-20" x="983.984375"/>
     <use xlink:href="#DejaVuSans-6e" x="1015.771484"/>
     <use xlink:href="#DejaVuSans-3d" x="1079.150391"/>
     <use xlink:href="#DejaVuSans-33" x="1162.939453"/>
    </g>
   </g>
  </g>
  <g id="axes_3">
   <g id="patch_12">
    <path d="M 571.695652 441 
L 753.652174 441 
L 753.652174 60.48 
L 571.695652 60.48 
L 571.695652 441 
z
" style="fill: none"/>
   </g>
   <g id="matplotlib.axis_5">
    <g id="xtick_13">
     <g id="line2d_29">
      <g>
       <use xlink:href="#m315064989f" x="579.966403" y="441" style="stroke: #000000; stroke-width: 0.8"/>
      </g>
     </g>
     <g id="text_29">
      <!-- 0.0 -->
      <g transform="translate(572.014841 455.598437)scale(0.1 -0.1)">
       <use xlink:href="#DejaVuSans-30"/>
       <use xlink:href="#DejaVuSans-2e" x="63.623047"/>
       <use xlink:href="#DejaVuSans-30" x="95.410156"/>
      </g>
     </g>
    </g>
    <g id="xtick_14">
     <g id="line2d_30">
      <g>
       <use xlink:href="#m315064989f" x="613.049407" y="441" style="stroke: #000000; stroke-width: 0.8"/>
      </g>
     </g>
     <g id="text_30">
      <!-- 0.2 -->
      <g transform="translate(605.097845 455.598437)scale(0.1 -0.1)">
       <use xlink:href="#DejaVuSans-30"/>
       <use xlink:href="#DejaVuSans-2e" x="63.623047"/>
       <use xlink:href="#DejaVuSans-32" x="95.410156"/>
      </g>
     </g>
    </g>
    <g id="xtick_15">
     <g id="line2d_31">
      <g>
       <use xlink:href="#m315064989f" x="646.132411" y="441" style="stroke: #000000; stroke-width: 0.8"/>
      </g>
     </g>
     <g id="text_31">
      <!-- 0.4 -->
      <g transform="translate(638.180849 455.598437)scale(0.1 -0.1)">
       <use xlink:href="#DejaVuSans-30"/>
       <use xlink:href="#DejaVuSans-2e" x="63.623047"/>
       <use xlink:href="#DejaVuSans-34" x="95.410156"/>
      </g>
     </g>
    </g>
    <g id="xtick_16">
     <g id="line2d_32">
      <g>
       <use xlink:href="#m315064989f" x="679.215415" y="441" style="stroke: #000000; stroke-width: 0.8"/>
      </g>
     </g>
     <g id="text_32">
      <!-- 0.6 -->
      <g transform="translate(671.263853 455.598437)scale(0.1 -0.1)">
       <use xlink:href="#DejaVuSans-30"/>
       <use xlink:href="#DejaVuSans-2e" x="63.623047"/>
       <use xlink:href="#DejaVuSans-36" x="95.410156"/>
      </g>
     </g>
    </g>
    <g id="xtick_17">
     <g id="line2d_33">
      <g>
       <use xlink:href="#m315064989f" x="712.298419" y="441" style="stroke: #000000; stroke-width: 0.8"/>
      </g>
     </g>
     <g id="text_33">
      <!-- 0.8 -->
      <g transform="translate(704.346856 455.598437)scale(0.1 -0.1)">
       <use xlink:href="#DejaVuSans-30"/>
       <use xlink:href="#DejaVuSans-2e" x="63.623047"/>
       <use xlink:href="#DejaVuSans-38" x="95.410156"/>
      </g>
     </g>
    </g>
    <g id="xtick_18">
     <g id="line2d_34">
      <g>
       <use xlink:href="#m315064989f" x="745.381423" y="441" style="stroke: #000000; stroke-width: 0.8"/>
      </g>
     </g>
     <g id="text_34">
      <!-- 1.0 -->
      <g transform="translate(737.42986 455.598437)scale(0.1 -0.1)">
       <use xlink:href="#DejaVuSans-31"/>
       <use xlink:href="#DejaVuSans-2e" x="63.623047"/>
       <use xlink:href="#DejaVuSans-30" x="95.410156"/>
      </g>
     </g>
    </g>
    <g id="text_35">
     <!-- Threshold $x$ -->
     <g transform="translate(627.513913 470.79625)scale(0.12 -0.12)">
      <use xlink:href="#DejaVuSans-54" transform="translate(0 0.015625)"/>
      <use xlink:href="#DejaVuSans-68" transform="translate(61.083984 0.015625)"/>
      <use xlink:href="#DejaVuSans-72" transform="translate(124.462891 0.015625)"/>
      <use xlink:href="#DejaVuSans-65" transform="translate(165.576172 0.015625)"/>
      <use xlink:href="#DejaVuSans-73" transform="translate(227.099609 0.015625)"/>
      <use xlink:href="#DejaVuSans-68" transform="translate(279.199219 0.015625)"/>
      <use xlink:href="#DejaVuSans-6f" transform="translate(342.578125 0.015625)"/>
      <use xlink:href="#DejaVuSans-6c" transform="translate(403.759766 0.015625)"/>
      <use xlink:href="#DejaVuSans-64" transform="translate(431.542969 0.015625)"/>
      <use xlink:href="#DejaVuSans-20" transform="translate(495.019531 0.015625)"/>
      <use xlink:href="#DejaVuSans-Oblique-78" transform="translate(526.806641 0.015625)"/>
     </g>
    </g>
   </g>
   <g id="matplotlib.axis_6">
    <g id="ytick_13">
     <g id="line2d_35">
      <g>
       <use xlink:href="#mc47099b759" x="571.695652" y="406.407273" style="stroke: #000000; stroke-width: 0.8"/>
      </g>
     </g>
     <g id="text_36">
      <!-- 0.0 -->
      <g transform="translate(548.792527 410.206491)scale(0.1 -0.1)">
       <use xlink:href="#DejaVuSans-30"/>
       <use xlink:href="#DejaVuSans-2e" x="63.623047"/>
       <use xlink:href="#DejaVuSans-30" x="95.410156"/>
      </g>
     </g>
    </g>
    <g id="ytick_14">
     <g id="line2d_36">
      <g>
       <use xlink:href="#mc47099b759" x="571.695652" y="337.221818" style="stroke: #000000; stroke-width: 0.8"/>
      </g>
     </g>
     <g id="text_37">
      <!-- 0.1 -->
      <g transform="translate(548.792527 341.021037)scale(0.1 -0.1)">
       <use xlink:href="#DejaVuSans-30"/>
       <use xlink:href="#DejaVuSans-2e" x="63.623047"/>
       <use xlink:href="#DejaVuSans-31" x="95.410156"/>
      </g>
     </g>
    </g>
    <g id="ytick_15">
     <g id="line2d_37">
      <g>
       <use xlink:href="#mc47099b759" x="571.695652" y="268.036364" style="stroke: #000000; stroke-width: 0.8"/>
      </g>
     </g>
     <g id="text_38">
      <!-- 0.2 -->
      <g transform="translate(548.792527 271.835582)scale(0.1 -0.1)">
       <use xlink:href="#DejaVuSans-30"/>
       <use xlink:href="#DejaVuSans-2e" x="63.623047"/>
       <use xlink:href="#DejaVuSans-32" x="95.410156"/>
      </g>
     </g>
    </g>
    <g id="ytick_16">
     <g id="line2d_38">
      <g>
       <use xlink:href="#mc47099b759" x="571.695652" y="198.850909" style="stroke: #000000; stroke-width: 0.8"/>
      </g>
     </g>
     <g id="text_39">
      <!-- 0.3 -->
      <g transform="translate(548.792527 202.650128)scale(0.1 -0.1)">
       <use xlink:href="#DejaVuSans-30"/>
       <use xlink:href="#DejaVuSans-2e" x="63.623047"/>
       <use xlink:href="#DejaVuSans-33" x="95.410156"/>
      </g>
     </g>
    </g>
    <g id="ytick_17">
     <g id="line2d_39">
      <g>
       <use xlink:href="#mc47099b759" x="571.695652" y="129.665455" style="stroke: #000000; stroke-width: 0.8"/>
      </g>
     </g>
     <g id="text_40">
      <!-- 0.4 -->
      <g transform="translate(548.792527 133.464673)scale(0.1 -0.1)">
       <use xlink:href="#DejaVuSans-30"/>
       <use xlink:href="#DejaVuSans-2e" x="63.623047"/>
       <use xlink:href="#DejaVuSans-34" x="95.410156"/>
      </g>
     </g>
    </g>
    <g id="ytick_18">
     <g id="line2d_40">
      <g>
       <use xlink:href="#mc47099b759" x="571.695652" y="60.48" style="stroke: #000000; stroke-width: 0.8"/>
      </g>
     </g>
     <g id="text_41">
      <!-- 0.5 -->
      <g transform="translate(548.792527 64.279219)scale(0.1 -0.1)">
       <use xlink:href="#DejaVuSans-30"/>
       <use xlink:href="#DejaVuSans-2e" x="63.623047"/>
       <use xlink:href="#DejaVuSans-35" x="95.410156"/>
      </g>
     </g>
    </g>
   </g>
   <g id="line2d_41">
    <path d="M 579.966403 328.855912 
L 581.637262 328.855912 
L 583.308121 328.855912 
L 584.97898 328.855912 
L 586.649838 328.855912 
L 588.320697 328.855912 
L 589.991556 328.855912 
L 591.662415 328.855912 
L 593.333273 328.855912 
L 595.004132 328.855912 
L 596.674991 328.855913 
L 598.34585 328.855915 
L 600.016709 328.855918 
L 601.687567 328.855922 
L 603.358426 328.85593 
L 605.029285 328.855941 
L 606.700144 328.855959 
L 608.371003 328.855985 
L 610.041861 328.856024 
L 611.71272 328.856078 
L 613.383579 328.856154 
L 615.054438 328.856259 
L 616.725296 328.856402 
L 618.396155 328.856593 
L 620.067014 328.856846 
L 621.737873 328.857177 
L 623.408732 328.857608 
L 625.07959 328.858161 
L 626.750449 328.858866 
L 628.421308 328.859758 
L 630.092167 328.860878 
L 631.763026 328.862275 
L 633.433884 328.864005 
L 635.104743 328.866135 
L 636.775602 328.868743 
L 638.446461 328.87192 
L 640.117319 328.87577 
L 641.788178 328.880414 
L 643.459037 328.885989 
L 645.129896 328.892656 
L 646.800755 328.900594 
L 648.471613 328.910012 
L 650.142472 328.921143 
L 651.813331 328.934254 
L 653.48419 328.949647 
L 655.155049 328.967661 
L 656.825907 328.98868 
L 658.496766 329.013133 
L 660.167625 329.041505 
L 661.838484 329.074335 
L 663.509342 329.112228 
L 665.180201 329.15586 
L 666.85106 329.205982 
L 668.521919 329.26343 
L 670.192778 329.329132 
L 671.863636 329.404119 
L 673.534495 329.489532 
L 675.205354 329.586631 
L 676.876213 329.696812 
L 678.547072 329.821611 
L 680.21793 329.962722 
L 681.888789 330.12201 
L 683.559648 330.301526 
L 685.230507 330.503519 
L 686.901365 330.730459 
L 688.572224 330.985053 
L 690.243083 331.270262 
L 691.913942 331.589327 
L 693.584801 331.945789 
L 695.255659 332.343512 
L 696.926518 332.786712 
L 698.597377 333.279985 
L 700.268236 333.828333 
L 701.939095 334.437201 
L 703.609953 335.112506 
L 705.280812 335.860678 
L 706.951671 336.688698 
L 708.62253 337.604136 
L 710.293388 338.6152 
L 711.964247 339.730781 
L 713.635106 340.960504 
L 715.305965 342.314782 
L 716.976824 343.804874 
L 718.647682 345.442944 
L 720.318541 347.242127 
L 721.9894 349.216601 
L 723.660259 351.381655 
L 725.331117 353.753773 
L 727.001976 356.350713 
L 728.672835 359.1916 
L 730.343694 362.297015 
L 732.014553 365.689098 
L 733.685411 369.391654 
L 735.35627 373.430264 
L 737.027129 377.832408 
L 738.697988 382.627586 
L 740.368847 387.847459 
L 742.039705 393.525988 
L 743.710564 399.699584 
L 745.381423 406.407273 
" clip-path="url(#p7f0abdc98e)" style="fill: none; stroke: #1f77b4; stroke-width: 1.5; stroke-linecap: square"/>
   </g>
   <g id="line2d_42">
    <path d="M 579.966403 406.407273 
L 581.637262 406.407273 
L 583.308121 406.407273 
L 584.97898 406.407273 
L 586.649838 406.407272 
L 588.320697 406.407271 
L 589.991556 406.407268 
L 591.662415 406.40726 
L 593.333273 406.407244 
L 595.004132 406.407214 
L 596.674991 406.40716 
L 598.34585 406.407069 
L 600.016709 406.406923 
L 601.687567 406.406695 
L 603.358426 406.406353 
L 605.029285 406.405853 
L 606.700144 406.405139 
L 608.371003 406.404139 
L 610.041861 406.402766 
L 611.71272 406.40091 
L 613.383579 406.398437 
L 615.054438 406.395187 
L 616.725296 406.390963 
L 618.396155 406.385535 
L 620.067014 406.378628 
L 621.737873 406.369915 
L 623.408732 406.359019 
L 625.07959 406.345493 
L 626.750449 406.328825 
L 628.421308 406.308417 
L 630.092167 406.283585 
L 631.763026 406.253541 
L 633.433884 406.217386 
L 635.104743 406.174095 
L 636.775602 406.122504 
L 638.446461 406.061294 
L 640.117319 405.988975 
L 641.788178 405.903868 
L 643.459037 405.804085 
L 645.129896 405.687511 
L 646.800755 405.551776 
L 648.471613 405.394235 
L 650.142472 405.211938 
L 651.813331 405.001604 
L 653.48419 404.759591 
L 655.155049 404.481857 
L 656.825907 404.163931 
L 658.496766 403.800871 
L 660.167625 403.38722 
L 661.838484 402.916969 
L 663.509342 402.383501 
L 665.180201 401.779545 
L 666.85106 401.097119 
L 668.521919 400.327472 
L 670.192778 399.461019 
L 671.863636 398.487277 
L 673.534495 397.394788 
L 675.205354 396.171046 
L 676.876213 394.802414 
L 678.547072 393.274033 
L 680.21793 391.56973 
L 681.888789 389.671918 
L 683.559648 387.561488 
L 685.230507 385.217695 
L 686.901365 382.618038 
L 688.572224 379.738127 
L 690.243083 376.551549 
L 691.913942 373.029718 
L 693.584801 369.141721 
L 695.255659 364.854149 
L 696.926518 360.130925 
L 698.597377 354.933112 
L 700.268236 349.218717 
L 701.939095 342.942474 
L 703.609953 336.055627 
L 705.280812 328.505683 
L 706.951671 320.236165 
L 708.62253 311.186341 
L 710.293388 301.290938 
L 711.964247 290.479842 
L 713.635106 278.677777 
L 715.305965 265.803968 
L 716.976824 251.771779 
L 718.647682 236.488332 
L 720.318541 219.854111 
L 721.9894 201.762528 
L 723.660259 182.099477 
L 725.331117 160.742856 
L 727.001976 137.562063 
L 728.672835 112.417461 
L 730.343694 85.159818 
L 732.014553 55.629709 
L 733.685411 23.656886 
L 734.876204 -1 
" clip-path="url(#p7f0abdc98e)" style="fill: none; stroke: #ff7f0e; stroke-width: 1.5; stroke-linecap: square"/>
   </g>
   <g id="patch_13">
    <path d="M 571.695652 441 
L 571.695652 60.48 
" style="fill: none; stroke: #000000; stroke-width: 0.8; stroke-linejoin: miter; stroke-linecap: square"/>
   </g>
   <g id="patch_14">
    <path d="M 753.652174 441 
L 753.652174 60.48 
" style="fill: none; stroke: #000000; stroke-width: 0.8; stroke-linejoin: miter; stroke-linecap: square"/>
   </g>
   <g id="patch_15">
    <path d="M 571.695652 441 
L 753.652174 441 
" style="fill: none; stroke: #000000; stroke-width: 0.8; stroke-linejoin: miter; stroke-linecap: square"/>
   </g>
   <g id="patch_16">
    <path d="M 571.695652 60.48 
L 753.652174 60.48 
" style="fill: none; stroke: #000000; stroke-width: 0.8; stroke-linejoin: miter; stroke-linecap: square"/>
   </g>
   <g id="text_42">
    <!-- Grafical solution for n=4 -->
    <g transform="translate(589.082038 54.48)scale(0.12 -0.12)">
     <use xlink:href="#DejaVuSans-47"/>
     <use xlink:href="#DejaVuSans-72" x="77.490234"/>
     <use xlink:href="#DejaVuSans-61" x="118.603516"/>
     <use xlink:href="#DejaVuSans-66" x="179.882812"/>
     <use xlink:href="#DejaVuSans-69" x="215.087891"/>
     <use xlink:href="#DejaVuSans-63" x="242.871094"/>
     <use xlink:href="#DejaVuSans-61" x="297.851562"/>
     <use xlink:href="#DejaVuSans-6c" x="359.130859"/>
     <use xlink:href="#DejaVuSans-20" x="386.914062"/>
     <use xlink:href="#DejaVuSans-73" x="418.701172"/>
     <use xlink:href="#DejaVuSans-6f" x="470.800781"/>
     <use xlink:href="#DejaVuSans-6c" x="531.982422"/>
     <use xlink:href="#DejaVuSans-75" x="559.765625"/>
     <use xlink:href="#DejaVuSans-74" x="623.144531"/>
     <use xlink:href="#DejaVuSans-69" x="662.353516"/>
     <use xlink:href="#DejaVuSans-6f" x="690.136719"/>
     <use xlink:href="#DejaVuSans-6e" x="751.318359"/>
     <use xlink:href="#DejaVuSans-20" x="814.697266"/>
     <use xlink:href="#DejaVuSans-66" x="846.484375"/>
     <use xlink:href="#DejaVuSans-6f" x="881.689453"/>
     <use xlink:href="#DejaVuSans-72" x="942.871094"/>
     <use xlink:href="#DejaVuSans-20" x="983.984375"/>
     <use xlink:href="#DejaVuSans-6e" x="1015.771484"/>
     <use xlink:href="#DejaVuSans-3d" x="1079.150391"/>
     <use xlink:href="#DejaVuSans-34" x="1162.939453"/>
    </g>
   </g>
  </g>
  <g id="axes_4">
   <g id="patch_17">
    <path d="M 790.043478 441 
L 972 441 
L 972 60.48 
L 790.043478 60.48 
L 790.043478 441 
z
" style="fill: none"/>
   </g>
   <g id="matplotlib.axis_7">
    <g id="xtick_19">
     <g id="line2d_43">
      <g>
       <use xlink:href="#m315064989f" x="798.314229" y="441" style="stroke: #000000; stroke-width: 0.8"/>
      </g>
     </g>
     <g id="text_43">
      <!-- 0.0 -->
      <g transform="translate(790.362667 455.598437)scale(0.1 -0.1)">
       <use xlink:href="#DejaVuSans-30"/>
       <use xlink:href="#DejaVuSans-2e" x="63.623047"/>
       <use xlink:href="#DejaVuSans-30" x="95.410156"/>
      </g>
     </g>
    </g>
    <g id="xtick_20">
     <g id="line2d_44">
      <g>
       <use xlink:href="#m315064989f" x="831.397233" y="441" style="stroke: #000000; stroke-width: 0.8"/>
      </g>
     </g>
     <g id="text_44">
      <!-- 0.2 -->
      <g transform="translate(823.445671 455.598437)scale(0.1 -0.1)">
       <use xlink:href="#DejaVuSans-30"/>
       <use xlink:href="#DejaVuSans-2e" x="63.623047"/>
       <use xlink:href="#DejaVuSans-32" x="95.410156"/>
      </g>
     </g>
    </g>
    <g id="xtick_21">
     <g id="line2d_45">
      <g>
       <use xlink:href="#m315064989f" x="864.480237" y="441" style="stroke: #000000; stroke-width: 0.8"/>
      </g>
     </g>
     <g id="text_45">
      <!-- 0.4 -->
      <g transform="translate(856.528675 455.598437)scale(0.1 -0.1)">
       <use xlink:href="#DejaVuSans-30"/>
       <use xlink:href="#DejaVuSans-2e" x="63.623047"/>
       <use xlink:href="#DejaVuSans-34" x="95.410156"/>
      </g>
     </g>
    </g>
    <g id="xtick_22">
     <g id="line2d_46">
      <g>
       <use xlink:href="#m315064989f" x="897.563241" y="441" style="stroke: #000000; stroke-width: 0.8"/>
      </g>
     </g>
     <g id="text_46">
      <!-- 0.6 -->
      <g transform="translate(889.611679 455.598437)scale(0.1 -0.1)">
       <use xlink:href="#DejaVuSans-30"/>
       <use xlink:href="#DejaVuSans-2e" x="63.623047"/>
       <use xlink:href="#DejaVuSans-36" x="95.410156"/>
      </g>
     </g>
    </g>
    <g id="xtick_23">
     <g id="line2d_47">
      <g>
       <use xlink:href="#m315064989f" x="930.646245" y="441" style="stroke: #000000; stroke-width: 0.8"/>
      </g>
     </g>
     <g id="text_47">
      <!-- 0.8 -->
      <g transform="translate(922.694683 455.598437)scale(0.1 -0.1)">
       <use xlink:href="#DejaVuSans-30"/>
       <use xlink:href="#DejaVuSans-2e" x="63.623047"/>
       <use xlink:href="#DejaVuSans-38" x="95.410156"/>
      </g>
     </g>
    </g>
    <g id="xtick_24">
     <g id="line2d_48">
      <g>
       <use xlink:href="#m315064989f" x="963.729249" y="441" style="stroke: #000000; stroke-width: 0.8"/>
      </g>
     </g>
     <g id="text_48">
      <!-- 1.0 -->
      <g transform="translate(955.777687 455.598437)scale(0.1 -0.1)">
       <use xlink:href="#DejaVuSans-31"/>
       <use xlink:href="#DejaVuSans-2e" x="63.623047"/>
       <use xlink:href="#DejaVuSans-30" x="95.410156"/>
      </g>
     </g>
    </g>
    <g id="text_49">
     <!-- Threshold $x$ -->
     <g transform="translate(845.861739 470.79625)scale(0.12 -0.12)">
      <use xlink:href="#DejaVuSans-54" transform="translate(0 0.015625)"/>
      <use xlink:href="#DejaVuSans-68" transform="translate(61.083984 0.015625)"/>
      <use xlink:href="#DejaVuSans-72" transform="translate(124.462891 0.015625)"/>
      <use xlink:href="#DejaVuSans-65" transform="translate(165.576172 0.015625)"/>
      <use xlink:href="#DejaVuSans-73" transform="translate(227.099609 0.015625)"/>
      <use xlink:href="#DejaVuSans-68" transform="translate(279.199219 0.015625)"/>
      <use xlink:href="#DejaVuSans-6f" transform="translate(342.578125 0.015625)"/>
      <use xlink:href="#DejaVuSans-6c" transform="translate(403.759766 0.015625)"/>
      <use xlink:href="#DejaVuSans-64" transform="translate(431.542969 0.015625)"/>
      <use xlink:href="#DejaVuSans-20" transform="translate(495.019531 0.015625)"/>
      <use xlink:href="#DejaVuSans-Oblique-78" transform="translate(526.806641 0.015625)"/>
     </g>
    </g>
   </g>
   <g id="matplotlib.axis_8">
    <g id="ytick_19">
     <g id="line2d_49">
      <g>
       <use xlink:href="#mc47099b759" x="790.043478" y="406.407273" style="stroke: #000000; stroke-width: 0.8"/>
      </g>
     </g>
     <g id="text_50">
      <!-- 0.0 -->
      <g transform="translate(767.140353 410.206491)scale(0.1 -0.1)">
       <use xlink:href="#DejaVuSans-30"/>
       <use xlink:href="#DejaVuSans-2e" x="63.623047"/>
       <use xlink:href="#DejaVuSans-30" x="95.410156"/>
      </g>
     </g>
    </g>
    <g id="ytick_20">
     <g id="line2d_50">
      <g>
       <use xlink:href="#mc47099b759" x="790.043478" y="337.221818" style="stroke: #000000; stroke-width: 0.8"/>
      </g>
     </g>
     <g id="text_51">
      <!-- 0.1 -->
      <g transform="translate(767.140353 341.021037)scale(0.1 -0.1)">
       <use xlink:href="#DejaVuSans-30"/>
       <use xlink:href="#DejaVuSans-2e" x="63.623047"/>
       <use xlink:href="#DejaVuSans-31" x="95.410156"/>
      </g>
     </g>
    </g>
    <g id="ytick_21">
     <g id="line2d_51">
      <g>
       <use xlink:href="#mc47099b759" x="790.043478" y="268.036364" style="stroke: #000000; stroke-width: 0.8"/>
      </g>
     </g>
     <g id="text_52">
      <!-- 0.2 -->
      <g transform="translate(767.140353 271.835582)scale(0.1 -0.1)">
       <use xlink:href="#DejaVuSans-30"/>
       <use xlink:href="#DejaVuSans-2e" x="63.623047"/>
       <use xlink:href="#DejaVuSans-32" x="95.410156"/>
      </g>
     </g>
    </g>
    <g id="ytick_22">
     <g id="line2d_52">
      <g>
       <use xlink:href="#mc47099b759" x="790.043478" y="198.850909" style="stroke: #000000; stroke-width: 0.8"/>
      </g>
     </g>
     <g id="text_53">
      <!-- 0.3 -->
      <g transform="translate(767.140353 202.650128)scale(0.1 -0.1)">
       <use xlink:href="#DejaVuSans-30"/>
       <use xlink:href="#DejaVuSans-2e" x="63.623047"/>
       <use xlink:href="#DejaVuSans-33" x="95.410156"/>
      </g>
     </g>
    </g>
    <g id="ytick_23">
     <g id="line2d_53">
      <g>
       <use xlink:href="#mc47099b759" x="790.043478" y="129.665455" style="stroke: #000000; stroke-width: 0.8"/>
      </g>
     </g>
     <g id="text_54">
      <!-- 0.4 -->
      <g transform="translate(767.140353 133.464673)scale(0.1 -0.1)">
       <use xlink:href="#DejaVuSans-30"/>
       <use xlink:href="#DejaVuSans-2e" x="63.623047"/>
       <use xlink:href="#DejaVuSans-34" x="95.410156"/>
      </g>
     </g>
    </g>
    <g id="ytick_24">
     <g id="line2d_54">
      <g>
       <use xlink:href="#mc47099b759" x="790.043478" y="60.48" style="stroke: #000000; stroke-width: 0.8"/>
      </g>
     </g>
     <g id="text_55">
      <!-- 0.5 -->
      <g transform="translate(767.140353 64.279219)scale(0.1 -0.1)">
       <use xlink:href="#DejaVuSans-30"/>
       <use xlink:href="#DejaVuSans-2e" x="63.623047"/>
       <use xlink:href="#DejaVuSans-35" x="95.410156"/>
      </g>
     </g>
    </g>
   </g>
   <g id="line2d_55">
    <path d="M 798.314229 346.911152 
L 799.985088 346.911152 
L 801.655947 346.911152 
L 803.326806 346.911152 
L 804.997664 346.911152 
L 806.668523 346.911152 
L 808.339382 346.911152 
L 810.010241 346.911152 
L 811.6811 346.911152 
L 813.351958 346.911152 
L 815.022817 346.911152 
L 816.693676 346.911152 
L 818.364535 346.911152 
L 820.035393 346.911152 
L 821.706252 346.911152 
L 823.377111 346.911153 
L 825.04797 346.911153 
L 826.718829 346.911153 
L 828.389687 346.911154 
L 830.060546 346.911155 
L 831.731405 346.911157 
L 833.402264 346.911159 
L 835.073123 346.911163 
L 836.743981 346.911169 
L 838.41484 346.911177 
L 840.085699 346.911189 
L 841.756558 346.911206 
L 843.427416 346.91123 
L 845.098275 346.911263 
L 846.769134 346.911308 
L 848.439993 346.911369 
L 850.110852 346.911451 
L 851.78171 346.911559 
L 853.452569 346.911703 
L 855.123428 346.911891 
L 856.794287 346.912135 
L 858.465146 346.912451 
L 860.136004 346.912856 
L 861.806863 346.913374 
L 863.477722 346.91403 
L 865.148581 346.914859 
L 866.819439 346.9159 
L 868.490298 346.917201 
L 870.161157 346.918819 
L 871.832016 346.920822 
L 873.502875 346.923293 
L 875.173733 346.926329 
L 876.844592 346.930043 
L 878.515451 346.93457 
L 880.18631 346.940071 
L 881.857169 346.946731 
L 883.528027 346.954768 
L 885.198886 346.964437 
L 886.869745 346.976035 
L 888.540604 346.989907 
L 890.211462 347.006451 
L 891.882321 347.026132 
L 893.55318 347.049482 
L 895.224039 347.077118 
L 896.894898 347.109748 
L 898.565756 347.148184 
L 900.236615 347.193359 
L 901.907474 347.246341 
L 903.578333 347.308347 
L 905.249192 347.380767 
L 906.92005 347.465187 
L 908.590909 347.563405 
L 910.261768 347.677469 
L 911.932627 347.809696 
L 913.603485 347.962714 
L 915.274344 348.139494 
L 916.945203 348.343393 
L 918.616062 348.578196 
L 920.286921 348.848172 
L 921.957779 349.158122 
L 923.628638 349.513447 
L 925.299497 349.920212 
L 926.970356 350.385218 
L 928.641215 350.91609 
L 930.312073 351.521364 
L 931.982932 352.210586 
L 933.653791 352.994421 
L 935.32465 353.884777 
L 936.995508 354.894932 
L 938.666367 356.039683 
L 940.337226 357.335501 
L 942.008085 358.80071 
L 943.678944 360.455673 
L 945.349802 362.323005 
L 947.020661 364.427799 
L 948.69152 366.797878 
L 950.362379 369.464067 
L 952.033238 372.460492 
L 953.704096 375.824908 
L 955.374955 379.59905 
L 957.045814 383.829029 
L 958.716673 388.565747 
L 960.387531 393.865364 
L 962.05839 399.789798 
L 963.729249 406.407273 
" clip-path="url(#p7a4f7964e4)" style="fill: none; stroke: #1f77b4; stroke-width: 1.5; stroke-linecap: square"/>
   </g>
   <g id="line2d_56">
    <path d="M 798.314229 406.407273 
L 799.985088 406.407273 
L 801.655947 406.407273 
L 803.326806 406.407273 
L 804.997664 406.407273 
L 806.668523 406.407273 
L 808.339382 406.407273 
L 810.010241 406.407273 
L 811.6811 406.407273 
L 813.351958 406.407272 
L 815.022817 406.407272 
L 816.693676 406.407271 
L 818.364535 406.40727 
L 820.035393 406.407267 
L 821.706252 406.407263 
L 823.377111 406.407255 
L 825.04797 406.407242 
L 826.718829 406.407221 
L 828.389687 406.407189 
L 830.060546 406.407139 
L 831.731405 406.407066 
L 833.402264 406.406959 
L 835.073123 406.406805 
L 836.743981 406.406587 
L 838.41484 406.406282 
L 840.085699 406.405861 
L 841.756558 406.405286 
L 843.427416 406.404511 
L 845.098275 406.403476 
L 846.769134 406.402105 
L 848.439993 406.400305 
L 850.110852 406.397961 
L 851.78171 406.394933 
L 853.452569 406.391045 
L 855.123428 406.38609 
L 856.794287 406.379811 
L 858.465146 406.371902 
L 860.136004 406.361995 
L 861.806863 406.349649 
L 863.477722 406.334342 
L 865.148581 406.315449 
L 866.819439 406.292238 
L 868.490298 406.26384 
L 870.161157 406.229238 
L 871.832016 406.187237 
L 873.502875 406.136444 
L 875.173733 406.075234 
L 876.844592 406.001717 
L 878.515451 405.913704 
L 880.18631 405.80866 
L 881.857169 405.68366 
L 883.528027 405.535335 
L 885.198886 405.359812 
L 886.869745 405.152647 
L 888.540604 404.908753 
L 890.211462 404.622313 
L 891.882321 404.286694 
L 893.55318 403.894336 
L 895.224039 403.436645 
L 896.894898 402.903863 
L 898.565756 402.284927 
L 900.236615 401.567314 
L 901.907474 400.736868 
L 903.578333 399.77761 
L 905.249192 398.671524 
L 906.92005 397.398329 
L 908.590909 395.935219 
L 910.261768 394.256579 
L 911.932627 392.333675 
L 913.603485 390.13431 
L 915.274344 387.622447 
L 916.945203 384.757795 
L 918.616062 381.49535 
L 920.286921 377.784902 
L 921.957779 373.570479 
L 923.628638 368.789753 
L 925.299497 363.37338 
L 926.970356 357.244281 
L 928.641215 350.316854 
L 930.312073 342.496115 
L 931.982932 333.676758 
L 933.653791 323.742127 
L 935.32465 312.563099 
L 936.995508 299.996861 
L 938.666367 285.885581 
L 940.337226 270.054954 
L 942.008085 252.312624 
L 943.678944 232.446468 
L 945.349802 210.222722 
L 947.020661 185.383948 
L 948.69152 157.646826 
L 950.362379 126.699752 
L 952.033238 92.200228 
L 953.704096 53.772034 
L 955.374955 11.002161 
L 955.796569 -1 
" clip-path="url(#p7a4f7964e4)" style="fill: none; stroke: #ff7f0e; stroke-width: 1.5; stroke-linecap: square"/>
   </g>
   <g id="patch_18">
    <path d="M 790.043478 441 
L 790.043478 60.48 
" style="fill: none; stroke: #000000; stroke-width: 0.8; stroke-linejoin: miter; stroke-linecap: square"/>
   </g>
   <g id="patch_19">
    <path d="M 972 441 
L 972 60.48 
" style="fill: none; stroke: #000000; stroke-width: 0.8; stroke-linejoin: miter; stroke-linecap: square"/>
   </g>
   <g id="patch_20">
    <path d="M 790.043478 441 
L 972 441 
" style="fill: none; stroke: #000000; stroke-width: 0.8; stroke-linejoin: miter; stroke-linecap: square"/>
   </g>
   <g id="patch_21">
    <path d="M 790.043478 60.48 
L 972 60.48 
" style="fill: none; stroke: #000000; stroke-width: 0.8; stroke-linejoin: miter; stroke-linecap: square"/>
   </g>
   <g id="text_56">
    <!-- Grafical solution for n=5 -->
    <g transform="translate(807.429864 54.48)scale(0.12 -0.12)">
     <use xlink:href="#DejaVuSans-47"/>
     <use xlink:href="#DejaVuSans-72" x="77.490234"/>
     <use xlink:href="#DejaVuSans-61" x="118.603516"/>
     <use xlink:href="#DejaVuSans-66" x="179.882812"/>
     <use xlink:href="#DejaVuSans-69" x="215.087891"/>
     <use xlink:href="#DejaVuSans-63" x="242.871094"/>
     <use xlink:href="#DejaVuSans-61" x="297.851562"/>
     <use xlink:href="#DejaVuSans-6c" x="359.130859"/>
     <use xlink:href="#DejaVuSans-20" x="386.914062"/>
     <use xlink:href="#DejaVuSans-73" x="418.701172"/>
     <use xlink:href="#DejaVuSans-6f" x="470.800781"/>
     <use xlink:href="#DejaVuSans-6c" x="531.982422"/>
     <use xlink:href="#DejaVuSans-75" x="559.765625"/>
     <use xlink:href="#DejaVuSans-74" x="623.144531"/>
     <use xlink:href="#DejaVuSans-69" x="662.353516"/>
     <use xlink:href="#DejaVuSans-6f" x="690.136719"/>
     <use xlink:href="#DejaVuSans-6e" x="751.318359"/>
     <use xlink:href="#DejaVuSans-20" x="814.697266"/>
     <use xlink:href="#DejaVuSans-66" x="846.484375"/>
     <use xlink:href="#DejaVuSans-6f" x="881.689453"/>
     <use xlink:href="#DejaVuSans-72" x="942.871094"/>
     <use xlink:href="#DejaVuSans-20" x="983.984375"/>
     <use xlink:href="#DejaVuSans-6e" x="1015.771484"/>
     <use xlink:href="#DejaVuSans-3d" x="1079.150391"/>
     <use xlink:href="#DejaVuSans-35" x="1162.939453"/>
    </g>
   </g>
  </g>
  <g id="text_57">
   <!-- Grafical solutions to $[1 - (1-x)e^{x}]^n = \int_{x}^1 [ 1-(1 - x)e^x ]^n dx$ -->
   <g transform="translate(365.94 26.52)scale(0.12 -0.12)">
    <defs>
     <path id="DejaVuSans-5b" d="M 550 4863 
L 1875 4863 
L 1875 4416 
L 1125 4416 
L 1125 -397 
L 1875 -397 
L 1875 -844 
L 550 -844 
L 550 4863 
z
" transform="scale(0.015625)"/>
     <path id="DejaVuSans-2212" d="M 678 2272 
L 4684 2272 
L 4684 1741 
L 678 1741 
L 678 2272 
z
" transform="scale(0.015625)"/>
     <path id="DejaVuSans-28" d="M 1984 4856 
Q 1566 4138 1362 3434 
Q 1159 2731 1159 2009 
Q 1159 1288 1364 580 
Q 1569 -128 1984 -844 
L 1484 -844 
Q 1016 -109 783 600 
Q 550 1309 550 2009 
Q 550 2706 781 3412 
Q 1013 4119 1484 4856 
L 1984 4856 
z
" transform="scale(0.015625)"/>
     <path id="DejaVuSans-29" d="M 513 4856 
L 1013 4856 
Q 1481 4119 1714 3412 
Q 1947 2706 1947 2009 
Q 1947 1309 1714 600 
Q 1481 -109 1013 -844 
L 513 -844 
Q 928 -128 1133 580 
Q 1338 1288 1338 2009 
Q 1338 2731 1133 3434 
Q 928 4138 513 4856 
z
" transform="scale(0.015625)"/>
     <path id="DejaVuSans-Oblique-65" d="M 3078 2063 
Q 3088 2113 3092 2166 
Q 3097 2219 3097 2272 
Q 3097 2653 2873 2875 
Q 2650 3097 2266 3097 
Q 1838 3097 1509 2826 
Q 1181 2556 1013 2059 
L 3078 2063 
z
M 3578 1613 
L 903 1613 
Q 884 1494 878 1425 
Q 872 1356 872 1306 
Q 872 872 1139 634 
Q 1406 397 1894 397 
Q 2269 397 2603 481 
Q 2938 566 3225 728 
L 3116 159 
Q 2806 34 2476 -28 
Q 2147 -91 1806 -91 
Q 1078 -91 686 257 
Q 294 606 294 1247 
Q 294 1794 489 2264 
Q 684 2734 1063 3103 
Q 1306 3334 1642 3459 
Q 1978 3584 2356 3584 
Q 2950 3584 3301 3228 
Q 3653 2872 3653 2272 
Q 3653 2128 3634 1964 
Q 3616 1800 3578 1613 
z
" transform="scale(0.015625)"/>
     <path id="DejaVuSans-5d" d="M 1947 4863 
L 1947 -844 
L 622 -844 
L 622 -397 
L 1369 -397 
L 1369 4416 
L 622 4416 
L 622 4863 
L 1947 4863 
z
" transform="scale(0.015625)"/>
     <path id="DejaVuSans-Oblique-6e" d="M 3566 2113 
L 3156 0 
L 2578 0 
L 2988 2091 
Q 3016 2238 3031 2350 
Q 3047 2463 3047 2528 
Q 3047 2791 2881 2937 
Q 2716 3084 2419 3084 
Q 1956 3084 1622 2776 
Q 1288 2469 1184 1941 
L 800 0 
L 225 0 
L 903 3500 
L 1478 3500 
L 1363 2950 
Q 1603 3253 1940 3418 
Q 2278 3584 2650 3584 
Q 3113 3584 3367 3334 
Q 3622 3084 3622 2631 
Q 3622 2519 3608 2391 
Q 3594 2263 3566 2113 
z
" transform="scale(0.015625)"/>
     <path id="DejaVuSansDisplay-222b" d="M 2134 5525 
Q 2172 6263 2528 6556 
Q 2884 6850 3218 6850 
Q 3553 6850 3833 6575 
Q 4113 6300 4200 5678 
L 3544 5613 
Q 3469 6188 3219 6188 
Q 2906 6188 2869 5413 
L 2581 -597 
Q 2547 -1334 2187 -1628 
Q 1828 -1922 1497 -1922 
Q 1163 -1922 883 -1647 
Q 603 -1372 516 -750 
L 1172 -684 
Q 1247 -1259 1497 -1259 
Q 1809 -1259 1847 -488 
L 2134 5525 
z
" transform="scale(0.015625)"/>
     <path id="DejaVuSans-Oblique-64" d="M 2675 525 
Q 2444 222 2128 65 
Q 1813 -91 1428 -91 
Q 903 -91 598 267 
Q 294 625 294 1247 
Q 294 1766 478 2236 
Q 663 2706 1013 3078 
Q 1244 3325 1534 3454 
Q 1825 3584 2144 3584 
Q 2481 3584 2739 3421 
Q 2997 3259 3138 2956 
L 3513 4863 
L 4091 4863 
L 3144 0 
L 2566 0 
L 2675 525 
z
M 891 1350 
Q 891 897 1095 644 
Q 1300 391 1663 391 
Q 1931 391 2161 520 
Q 2391 650 2566 903 
Q 2750 1166 2856 1509 
Q 2963 1853 2963 2188 
Q 2963 2622 2758 2865 
Q 2553 3109 2194 3109 
Q 1922 3109 1687 2981 
Q 1453 2853 1288 2613 
Q 1106 2353 998 2009 
Q 891 1666 891 1350 
z
" transform="scale(0.015625)"/>
    </defs>
    <use xlink:href="#DejaVuSans-47" transform="translate(0 0.809375)"/>
    <use xlink:href="#DejaVuSans-72" transform="translate(77.490234 0.809375)"/>
    <use xlink:href="#DejaVuSans-61" transform="translate(118.603516 0.809375)"/>
    <use xlink:href="#DejaVuSans-66" transform="translate(179.882812 0.809375)"/>
    <use xlink:href="#DejaVuSans-69" transform="translate(215.087891 0.809375)"/>
    <use xlink:href="#DejaVuSans-63" transform="translate(242.871094 0.809375)"/>
    <use xlink:href="#DejaVuSans-61" transform="translate(297.851562 0.809375)"/>
    <use xlink:href="#DejaVuSans-6c" transform="translate(359.130859 0.809375)"/>
    <use xlink:href="#DejaVuSans-20" transform="translate(386.914062 0.809375)"/>
    <use xlink:href="#DejaVuSans-73" transform="translate(418.701172 0.809375)"/>
    <use xlink:href="#DejaVuSans-6f" transform="translate(470.800781 0.809375)"/>
    <use xlink:href="#DejaVuSans-6c" transform="translate(531.982422 0.809375)"/>
    <use xlink:href="#DejaVuSans-75" transform="translate(559.765625 0.809375)"/>
    <use xlink:href="#DejaVuSans-74" transform="translate(623.144531 0.809375)"/>
    <use xlink:href="#DejaVuSans-69" transform="translate(662.353516 0.809375)"/>
    <use xlink:href="#DejaVuSans-6f" transform="translate(690.136719 0.809375)"/>
    <use xlink:href="#DejaVuSans-6e" transform="translate(751.318359 0.809375)"/>
    <use xlink:href="#DejaVuSans-73" transform="translate(814.697266 0.809375)"/>
    <use xlink:href="#DejaVuSans-20" transform="translate(866.796875 0.809375)"/>
    <use xlink:href="#DejaVuSans-74" transform="translate(898.583984 0.809375)"/>
    <use xlink:href="#DejaVuSans-6f" transform="translate(937.792969 0.809375)"/>
    <use xlink:href="#DejaVuSans-20" transform="translate(998.974609 0.809375)"/>
    <use xlink:href="#DejaVuSans-5b" transform="translate(1030.761719 0.809375)"/>
    <use xlink:href="#DejaVuSans-31" transform="translate(1069.775391 0.809375)"/>
    <use xlink:href="#DejaVuSans-2212" transform="translate(1152.880859 0.809375)"/>
    <use xlink:href="#DejaVuSans-28" transform="translate(1256.152344 0.809375)"/>
    <use xlink:href="#DejaVuSans-31" transform="translate(1295.166016 0.809375)"/>
    <use xlink:href="#DejaVuSans-2212" transform="translate(1378.271484 0.809375)"/>
    <use xlink:href="#DejaVuSans-Oblique-78" transform="translate(1481.542969 0.809375)"/>
    <use xlink:href="#DejaVuSans-29" transform="translate(1540.722656 0.809375)"/>
    <use xlink:href="#DejaVuSans-Oblique-65" transform="translate(1579.736328 0.809375)"/>
    <use xlink:href="#DejaVuSans-Oblique-78" transform="translate(1645.909661 39.090625)scale(0.7)"/>
    <use xlink:href="#DejaVuSans-5d" transform="translate(1690.069818 0.809375)"/>
    <use xlink:href="#DejaVuSans-Oblique-6e" transform="translate(1730.040521 39.090625)scale(0.7)"/>
    <use xlink:href="#DejaVuSans-3d" transform="translate(1796.622552 0.809375)"/>
    <use xlink:href="#DejaVuSansDisplay-222b" transform="translate(1899.894036 0.809375)"/>
    <use xlink:href="#DejaVuSans-31" transform="translate(1986.638177 85.965625)scale(0.7)"/>
    <use xlink:href="#DejaVuSans-Oblique-78" transform="translate(1971.653802 -51.096875)scale(0.7)"/>
    <use xlink:href="#DejaVuSans-5b" transform="translate(2031.17431 0.809375)"/>
    <use xlink:href="#DejaVuSans-31" transform="translate(2070.187982 0.809375)"/>
    <use xlink:href="#DejaVuSans-2212" transform="translate(2153.293451 0.809375)"/>
    <use xlink:href="#DejaVuSans-28" transform="translate(2256.564935 0.809375)"/>
    <use xlink:href="#DejaVuSans-31" transform="translate(2295.578607 0.809375)"/>
    <use xlink:href="#DejaVuSans-2212" transform="translate(2378.684076 0.809375)"/>
    <use xlink:href="#DejaVuSans-Oblique-78" transform="translate(2481.95556 0.809375)"/>
    <use xlink:href="#DejaVuSans-29" transform="translate(2541.135247 0.809375)"/>
    <use xlink:href="#DejaVuSans-Oblique-65" transform="translate(2580.148919 0.809375)"/>
    <use xlink:href="#DejaVuSans-Oblique-78" transform="translate(2646.322253 39.090625)scale(0.7)"/>
    <use xlink:href="#DejaVuSans-5d" transform="translate(2690.482409 0.809375)"/>
    <use xlink:href="#DejaVuSans-Oblique-6e" transform="translate(2730.453112 39.090625)scale(0.7)"/>
    <use xlink:href="#DejaVuSans-Oblique-64" transform="translate(2777.552721 0.809375)"/>
    <use xlink:href="#DejaVuSans-Oblique-78" transform="translate(2841.029284 0.809375)"/>
   </g>
  </g>
 </g>
 <defs>
  <clipPath id="pbaf0867372">
   <rect x="135" y="60.48" width="181.956522" height="380.52"/>
  </clipPath>
  <clipPath id="pfd53dab81b">
   <rect x="353.347826" y="60.48" width="181.956522" height="380.52"/>
  </clipPath>
  <clipPath id="p7f0abdc98e">
   <rect x="571.695652" y="60.48" width="181.956522" height="380.52"/>
  </clipPath>
  <clipPath id="p7a4f7964e4">
   <rect x="790.043478" y="60.48" width="181.956522" height="380.52"/>
  </clipPath>
 </defs>
</svg>
