<?xml version="1.0" encoding="utf-8" standalone="no"?>
<!DOCTYPE svg PUBLIC "-//W3C//DTD SVG 1.1//EN"
  "http://www.w3.org/Graphics/SVG/1.1/DTD/svg11.dtd">
<svg xmlns:xlink="http://www.w3.org/1999/xlink" width="504pt" height="504pt" viewBox="0 0 504 504" xmlns="http://www.w3.org/2000/svg" version="1.1">
 <metadata>
  <rdf:RDF xmlns:dc="http://purl.org/dc/elements/1.1/" xmlns:cc="http://creativecommons.org/ns#" xmlns:rdf="http://www.w3.org/1999/02/22-rdf-syntax-ns#">
   <cc:Work>
    <dc:type rdf:resource="http://purl.org/dc/dcmitype/StillImage"/>
    <dc:date>2023-08-22T15:46:39.958258</dc:date>
    <dc:format>image/svg+xml</dc:format>
    <dc:creator>
     <cc:Agent>
      <dc:title>Matplotlib v3.7.2, https://matplotlib.org/</dc:title>
     </cc:Agent>
    </dc:creator>
   </cc:Work>
  </rdf:RDF>
 </metadata>
 <defs>
  <style type="text/css">*{stroke-linejoin: round; stroke-linecap: butt}</style>
 </defs>
 <g id="figure_1">
  <g id="patch_1">
   <path d="M 0 504 
L 504 504 
L 504 0 
L 0 0 
z
" style="fill: #ffffff"/>
  </g>
  <g id="axes_1">
   <g id="patch_2">
    <path d="M 63 448.56 
L 453.6 448.56 
L 453.6 60.48 
L 63 60.48 
z
" style="fill: #ffffff"/>
   </g>
   <g id="matplotlib.axis_1">
    <g id="xtick_1">
     <g id="line2d_1">
      <path d="M 80.754545 448.56 
L 80.754545 60.48 
" clip-path="url(#pa2ed47fd73)" style="fill: none; stroke: #b0b0b0; stroke-width: 0.8; stroke-linecap: square"/>
     </g>
     <g id="line2d_2">
      <defs>
       <path id="mda83b1b2e4" d="M 0 0 
L 0 4 
" style="stroke: #000000; stroke-width: 1.5"/>
      </defs>
      <g>
       <use xlink:href="#mda83b1b2e4" x="80.754545" y="448.56" style="stroke: #000000; stroke-width: 1.5"/>
      </g>
     </g>
     <g id="text_1">
      <!-- $\mathdefault{0}$ -->
      <g transform="translate(77.096427 466.437725) scale(0.15 -0.15)">
       <defs>
        <path id="CMR17-30" d="M 2688 2025 
C 2688 2416 2682 3080 2413 3591 
C 2176 4039 1798 4198 1466 4198 
C 1158 4198 768 4058 525 3597 
C 269 3118 243 2524 243 2025 
C 243 1661 250 1106 448 619 
C 723 -39 1216 -128 1466 -128 
C 1760 -128 2208 -7 2470 600 
C 2662 1042 2688 1559 2688 2025 
z
M 1466 -26 
C 1056 -26 813 325 723 812 
C 653 1188 653 1738 653 2096 
C 653 2588 653 2997 736 3387 
C 858 3929 1216 4096 1466 4096 
C 1728 4096 2067 3923 2189 3400 
C 2272 3036 2278 2607 2278 2096 
C 2278 1680 2278 1169 2202 792 
C 2067 95 1690 -26 1466 -26 
z
" transform="scale(0.015625)"/>
       </defs>
       <use xlink:href="#CMR17-30" transform="scale(0.996264)"/>
      </g>
     </g>
    </g>
    <g id="xtick_2">
     <g id="line2d_3">
      <path d="M 139.936364 448.56 
L 139.936364 60.48 
" clip-path="url(#pa2ed47fd73)" style="fill: none; stroke: #b0b0b0; stroke-width: 0.8; stroke-linecap: square"/>
     </g>
     <g id="line2d_4">
      <g>
       <use xlink:href="#mda83b1b2e4" x="139.936364" y="448.56" style="stroke: #000000; stroke-width: 1.5"/>
      </g>
     </g>
     <g id="text_2">
      <!-- $\mathdefault{5}$ -->
      <g transform="translate(136.278245 466.437725) scale(0.15 -0.15)">
       <defs>
        <path id="CMR17-35" d="M 730 3692 
C 794 3666 1056 3584 1325 3584 
C 1920 3584 2246 3911 2432 4100 
C 2432 4157 2432 4192 2394 4192 
C 2387 4192 2374 4192 2323 4163 
C 2099 4058 1837 3973 1517 3973 
C 1325 3973 1037 3999 723 4139 
C 653 4171 640 4171 634 4171 
C 602 4171 595 4164 595 4037 
L 595 2203 
C 595 2089 595 2057 659 2057 
C 691 2057 704 2070 736 2114 
C 941 2401 1222 2522 1542 2522 
C 1766 2522 2246 2382 2246 1289 
C 2246 1085 2246 715 2054 421 
C 1894 159 1645 25 1370 25 
C 947 25 518 320 403 814 
C 429 807 480 795 506 795 
C 589 795 749 840 749 1038 
C 749 1210 627 1280 506 1280 
C 358 1280 262 1190 262 1011 
C 262 454 704 -128 1382 -128 
C 2042 -128 2669 440 2669 1264 
C 2669 2030 2170 2624 1549 2624 
C 1222 2624 947 2503 730 2274 
L 730 3692 
z
" transform="scale(0.015625)"/>
       </defs>
       <use xlink:href="#CMR17-35" transform="scale(0.996264)"/>
      </g>
     </g>
    </g>
    <g id="xtick_3">
     <g id="line2d_5">
      <path d="M 199.118182 448.56 
L 199.118182 60.48 
" clip-path="url(#pa2ed47fd73)" style="fill: none; stroke: #b0b0b0; stroke-width: 0.8; stroke-linecap: square"/>
     </g>
     <g id="line2d_6">
      <g>
       <use xlink:href="#mda83b1b2e4" x="199.118182" y="448.56" style="stroke: #000000; stroke-width: 1.5"/>
      </g>
     </g>
     <g id="text_3">
      <!-- $\mathdefault{10}$ -->
      <g transform="translate(191.801944 466.437725) scale(0.15 -0.15)">
       <defs>
        <path id="CMR17-31" d="M 1702 4058 
C 1702 4192 1696 4192 1606 4192 
C 1357 3916 979 3827 621 3827 
C 602 3827 570 3827 563 3808 
C 557 3795 557 3782 557 3648 
C 755 3648 1088 3686 1344 3839 
L 1344 461 
C 1344 236 1331 160 781 160 
L 589 160 
L 589 0 
C 896 0 1216 0 1523 0 
C 1830 0 2150 0 2458 0 
L 2458 160 
L 2266 160 
C 1715 160 1702 230 1702 458 
L 1702 4058 
z
" transform="scale(0.015625)"/>
       </defs>
       <use xlink:href="#CMR17-31" transform="scale(0.996264)"/>
       <use xlink:href="#CMR17-30" transform="translate(45.690477 0) scale(0.996264)"/>
      </g>
     </g>
    </g>
    <g id="xtick_4">
     <g id="line2d_7">
      <path d="M 258.3 448.56 
L 258.3 60.48 
" clip-path="url(#pa2ed47fd73)" style="fill: none; stroke: #b0b0b0; stroke-width: 0.8; stroke-linecap: square"/>
     </g>
     <g id="line2d_8">
      <g>
       <use xlink:href="#mda83b1b2e4" x="258.3" y="448.56" style="stroke: #000000; stroke-width: 1.5"/>
      </g>
     </g>
     <g id="text_4">
      <!-- $\mathdefault{15}$ -->
      <g transform="translate(250.983762 466.437725) scale(0.15 -0.15)">
       <use xlink:href="#CMR17-31" transform="scale(0.996264)"/>
       <use xlink:href="#CMR17-35" transform="translate(45.690477 0) scale(0.996264)"/>
      </g>
     </g>
    </g>
    <g id="xtick_5">
     <g id="line2d_9">
      <path d="M 317.481818 448.56 
L 317.481818 60.48 
" clip-path="url(#pa2ed47fd73)" style="fill: none; stroke: #b0b0b0; stroke-width: 0.8; stroke-linecap: square"/>
     </g>
     <g id="line2d_10">
      <g>
       <use xlink:href="#mda83b1b2e4" x="317.481818" y="448.56" style="stroke: #000000; stroke-width: 1.5"/>
      </g>
     </g>
     <g id="text_5">
      <!-- $\mathdefault{20}$ -->
      <g transform="translate(310.16558 466.437725) scale(0.15 -0.15)">
       <defs>
        <path id="CMR17-32" d="M 2669 989 
L 2554 989 
C 2490 536 2438 459 2413 420 
C 2381 369 1920 369 1830 369 
L 602 369 
C 832 619 1280 1072 1824 1597 
C 2214 1967 2669 2402 2669 3035 
C 2669 3790 2067 4224 1395 4224 
C 691 4224 262 3604 262 3030 
C 262 2780 448 2748 525 2748 
C 589 2748 781 2787 781 3010 
C 781 3207 614 3264 525 3264 
C 486 3264 448 3258 422 3245 
C 544 3790 915 4058 1306 4058 
C 1862 4058 2227 3617 2227 3035 
C 2227 2479 1901 2000 1536 1584 
L 262 146 
L 262 0 
L 2515 0 
L 2669 989 
z
" transform="scale(0.015625)"/>
       </defs>
       <use xlink:href="#CMR17-32" transform="scale(0.996264)"/>
       <use xlink:href="#CMR17-30" transform="translate(45.690477 0) scale(0.996264)"/>
      </g>
     </g>
    </g>
    <g id="xtick_6">
     <g id="line2d_11">
      <path d="M 376.663636 448.56 
L 376.663636 60.48 
" clip-path="url(#pa2ed47fd73)" style="fill: none; stroke: #b0b0b0; stroke-width: 0.8; stroke-linecap: square"/>
     </g>
     <g id="line2d_12">
      <g>
       <use xlink:href="#mda83b1b2e4" x="376.663636" y="448.56" style="stroke: #000000; stroke-width: 1.5"/>
      </g>
     </g>
     <g id="text_6">
      <!-- $\mathdefault{25}$ -->
      <g transform="translate(369.347399 466.437725) scale(0.15 -0.15)">
       <use xlink:href="#CMR17-32" transform="scale(0.996264)"/>
       <use xlink:href="#CMR17-35" transform="translate(45.690477 0) scale(0.996264)"/>
      </g>
     </g>
    </g>
    <g id="xtick_7">
     <g id="line2d_13">
      <path d="M 435.845455 448.56 
L 435.845455 60.48 
" clip-path="url(#pa2ed47fd73)" style="fill: none; stroke: #b0b0b0; stroke-width: 0.8; stroke-linecap: square"/>
     </g>
     <g id="line2d_14">
      <g>
       <use xlink:href="#mda83b1b2e4" x="435.845455" y="448.56" style="stroke: #000000; stroke-width: 1.5"/>
      </g>
     </g>
     <g id="text_7">
      <!-- $\mathdefault{30}$ -->
      <g transform="translate(428.529217 466.437725) scale(0.15 -0.15)">
       <defs>
        <path id="CMR17-33" d="M 1414 2157 
C 1984 2157 2234 1662 2234 1090 
C 2234 320 1824 25 1453 25 
C 1114 25 563 194 390 693 
C 422 680 454 680 486 680 
C 640 680 755 782 755 948 
C 755 1133 614 1216 486 1216 
C 378 1216 211 1165 211 926 
C 211 335 787 -128 1466 -128 
C 2176 -128 2720 430 2720 1085 
C 2720 1707 2208 2157 1600 2227 
C 2086 2328 2554 2756 2554 3329 
C 2554 3820 2048 4179 1472 4179 
C 890 4179 378 3829 378 3329 
C 378 3110 544 3072 627 3072 
C 762 3072 877 3155 877 3321 
C 877 3486 762 3569 627 3569 
C 602 3569 570 3569 544 3557 
C 730 3959 1235 4032 1459 4032 
C 1683 4032 2106 3925 2106 3320 
C 2106 3143 2080 2828 1862 2550 
C 1670 2304 1453 2304 1242 2284 
C 1210 2284 1062 2269 1037 2269 
C 992 2263 966 2257 966 2208 
C 966 2163 973 2157 1101 2157 
L 1414 2157 
z
" transform="scale(0.015625)"/>
       </defs>
       <use xlink:href="#CMR17-33" transform="scale(0.996264)"/>
       <use xlink:href="#CMR17-30" transform="translate(45.690477 0) scale(0.996264)"/>
      </g>
     </g>
    </g>
    <g id="text_8">
     <!-- Jumping time -->
     <g transform="translate(216.603586 483.721194) scale(0.15 -0.15)">
      <defs>
       <path id="CMSS17-4a" d="M 2336 4384 
L 1811 4384 
L 1811 940 
C 1811 636 1683 261 1107 261 
C 781 261 506 414 333 604 
L 250 140 
C 646 -71 1011 -128 1280 -128 
C 1901 -128 2336 228 2336 920 
L 2336 4384 
z
" transform="scale(0.015625)"/>
       <path id="CMSS17-75" d="M 2618 2739 
L 2131 2739 
L 2131 972 
C 2131 498 1786 306 1421 306 
C 998 306 960 447 960 709 
L 960 2739 
L 474 2739 
L 474 678 
C 474 179 646 -64 1088 -64 
C 1306 -64 1798 -13 2144 306 
L 2144 0 
L 2618 0 
L 2618 2739 
z
" transform="scale(0.015625)"/>
       <path id="CMSS17-6d" d="M 4288 1877 
C 4288 2308 4179 2816 3462 2816 
C 2982 2816 2694 2516 2566 2331 
C 2451 2670 2182 2816 1798 2816 
C 1363 2816 1088 2568 941 2389 
L 941 2758 
L 474 2758 
L 474 0 
L 960 0 
L 960 1559 
C 960 1939 1101 2428 1555 2428 
C 2138 2428 2138 2016 2138 1829 
L 2138 0 
L 2624 0 
L 2624 1559 
C 2624 1939 2765 2428 3219 2428 
C 3802 2428 3802 2016 3802 1829 
L 3802 0 
L 4288 0 
L 4288 1877 
z
" transform="scale(0.015625)"/>
       <path id="CMSS17-70" d="M 966 333 
C 1178 129 1466 -5 1773 -5 
C 2368 -5 2880 603 2880 1412 
C 2880 2159 2496 2816 1946 2816 
C 1626 2816 1242 2702 954 2472 
L 954 2765 
L 480 2765 
L 480 -1216 
L 966 -1216 
L 966 333 
z
M 966 2100 
C 1018 2176 1235 2415 1587 2415 
C 2035 2415 2394 1960 2394 1412 
C 2394 787 1958 384 1530 384 
C 1402 384 1267 415 1139 523 
C 966 674 966 768 966 857 
L 966 2100 
z
" transform="scale(0.015625)"/>
       <path id="CMSS17-69" d="M 979 4183 
L 442 4183 
L 442 3648 
L 979 3648 
L 979 4183 
z
M 947 2739 
L 474 2739 
L 474 0 
L 947 0 
L 947 2739 
z
" transform="scale(0.015625)"/>
       <path id="CMSS17-6e" d="M 2618 1877 
C 2618 2283 2522 2816 1798 2816 
C 1389 2816 1120 2606 941 2389 
L 941 2758 
L 474 2758 
L 474 0 
L 960 0 
L 960 1559 
C 960 1964 1114 2428 1549 2428 
C 2112 2428 2131 2048 2131 1829 
L 2131 0 
L 2618 0 
L 2618 1877 
z
" transform="scale(0.015625)"/>
       <path id="CMSS17-67" d="M 2848 2808 
C 2483 2808 2170 2738 1914 2617 
C 1702 2777 1485 2808 1338 2808 
C 781 2808 358 2349 358 1814 
C 358 1468 550 1207 563 1195 
C 448 1035 384 863 384 672 
C 384 448 474 289 544 200 
C 211 -3 166 -314 166 -435 
C 166 -898 749 -1280 1498 -1280 
C 2253 -1280 2835 -898 2835 -428 
C 2835 448 1856 448 1587 448 
L 1069 448 
C 973 448 717 448 717 791 
C 717 921 774 1004 781 1010 
C 877 940 1075 832 1338 832 
C 1869 832 2310 1278 2310 1827 
C 2310 2132 2170 2355 2112 2432 
L 2131 2432 
C 2150 2432 2419 2432 2515 2432 
C 2720 2432 2739 2429 2918 2419 
L 2848 2808 
z
M 1338 1182 
C 1120 1182 813 1315 813 1823 
C 813 2375 1165 2464 1331 2464 
C 1549 2464 1856 2331 1856 1823 
C 1856 1271 1504 1182 1338 1182 
z
M 1581 -10 
C 1734 -10 2381 -10 2381 -442 
C 2381 -714 1984 -929 1504 -929 
C 1018 -929 621 -720 621 -435 
C 621 -403 621 -10 1062 -10 
L 1581 -10 
z
" transform="scale(0.015625)"/>
       <path id="CMSS17-74" d="M 1069 2368 
L 1901 2368 
L 1901 2737 
L 1069 2737 
L 1069 3520 
L 614 3520 
L 614 2737 
L 109 2737 
L 109 2368 
L 602 2368 
L 602 749 
C 602 384 685 -64 1107 -64 
C 1427 -64 1722 25 2003 172 
L 1901 548 
C 1747 414 1562 337 1363 337 
C 1082 337 1069 696 1069 856 
L 1069 2368 
z
" transform="scale(0.015625)"/>
       <path id="CMSS17-65" d="M 2502 1377 
C 2502 1590 2490 2003 2285 2345 
C 2061 2713 1696 2816 1421 2816 
C 755 2816 192 2188 192 1375 
C 192 582 774 -64 1510 -64 
C 1798 -64 2150 19 2470 248 
C 2470 274 2458 414 2451 420 
C 2451 433 2432 630 2432 656 
C 2125 407 1773 325 1517 325 
C 1107 325 666 667 646 1377 
L 2502 1377 
z
M 698 1728 
C 781 2084 1062 2421 1421 2421 
C 1517 2421 1965 2421 2080 1728 
L 698 1728 
z
" transform="scale(0.015625)"/>
      </defs>
      <use xlink:href="#CMSS17-4a" transform="scale(0.996264)"/>
      <use xlink:href="#CMSS17-75" transform="translate(44.121076 0) scale(0.996264)"/>
      <use xlink:href="#CMSS17-6d" transform="translate(92.326019 0) scale(0.996264)"/>
      <use xlink:href="#CMSS17-70" transform="translate(166.555273 0) scale(0.996264)"/>
      <use xlink:href="#CMSS17-69" transform="translate(214.760216 0) scale(0.996264)"/>
      <use xlink:href="#CMSS17-6e" transform="translate(236.940939 0) scale(0.996264)"/>
      <use xlink:href="#CMSS17-67" transform="translate(285.145882 0) scale(0.996264)"/>
      <use xlink:href="#CMSS17-74" transform="translate(363.218619 0) scale(0.996264)"/>
      <use xlink:href="#CMSS17-69" transform="translate(397.050185 0) scale(0.996264)"/>
      <use xlink:href="#CMSS17-6d" transform="translate(419.230908 0) scale(0.996264)"/>
      <use xlink:href="#CMSS17-65" transform="translate(493.460163 0) scale(0.996264)"/>
     </g>
    </g>
   </g>
   <g id="matplotlib.axis_2">
    <g id="ytick_1">
     <g id="line2d_15">
      <path d="M 63 405.058574 
L 453.6 405.058574 
" clip-path="url(#pa2ed47fd73)" style="fill: none; stroke: #b0b0b0; stroke-width: 0.8; stroke-linecap: square"/>
     </g>
     <g id="line2d_16">
      <defs>
       <path id="m7924ef9383" d="M 0 0 
L -4 0 
" style="stroke: #000000; stroke-width: 1.5"/>
      </defs>
      <g>
       <use xlink:href="#m7924ef9383" x="63" y="405.058574" style="stroke: #000000; stroke-width: 1.5"/>
      </g>
     </g>
     <g id="text_9">
      <!-- $\mathdefault{−1.5}$ -->
      <g transform="translate(25.179832 410.247436) scale(0.15 -0.15)">
       <defs>
        <path id="CMSY10-0" d="M 4218 1472 
C 4326 1472 4442 1472 4442 1600 
C 4442 1728 4326 1728 4218 1728 
L 755 1728 
C 646 1728 531 1728 531 1600 
C 531 1472 646 1472 755 1472 
L 4218 1472 
z
" transform="scale(0.015625)"/>
        <path id="CMMI12-3a" d="M 1178 307 
C 1178 492 1024 619 870 619 
C 685 619 557 466 557 313 
C 557 128 710 0 864 0 
C 1050 0 1178 153 1178 307 
z
" transform="scale(0.015625)"/>
       </defs>
       <use xlink:href="#CMSY10-0" transform="scale(0.996264)"/>
       <use xlink:href="#CMR17-31" transform="translate(77.487468 0) scale(0.996264)"/>
       <use xlink:href="#CMMI12-3a" transform="translate(123.177945 0) scale(0.996264)"/>
       <use xlink:href="#CMR17-35" transform="translate(150.275122 0) scale(0.996264)"/>
      </g>
     </g>
    </g>
    <g id="ytick_2">
     <g id="line2d_17">
      <path d="M 63 356.946482 
L 453.6 356.946482 
" clip-path="url(#pa2ed47fd73)" style="fill: none; stroke: #b0b0b0; stroke-width: 0.8; stroke-linecap: square"/>
     </g>
     <g id="line2d_18">
      <g>
       <use xlink:href="#m7924ef9383" x="63" y="356.946482" style="stroke: #000000; stroke-width: 1.5"/>
      </g>
     </g>
     <g id="text_10">
      <!-- $\mathdefault{−1.0}$ -->
      <g transform="translate(25.179832 362.135345) scale(0.15 -0.15)">
       <use xlink:href="#CMSY10-0" transform="scale(0.996264)"/>
       <use xlink:href="#CMR17-31" transform="translate(77.487468 0) scale(0.996264)"/>
       <use xlink:href="#CMMI12-3a" transform="translate(123.177945 0) scale(0.996264)"/>
       <use xlink:href="#CMR17-30" transform="translate(150.275122 0) scale(0.996264)"/>
      </g>
     </g>
    </g>
    <g id="ytick_3">
     <g id="line2d_19">
      <path d="M 63 308.834391 
L 453.6 308.834391 
" clip-path="url(#pa2ed47fd73)" style="fill: none; stroke: #b0b0b0; stroke-width: 0.8; stroke-linecap: square"/>
     </g>
     <g id="line2d_20">
      <g>
       <use xlink:href="#m7924ef9383" x="63" y="308.834391" style="stroke: #000000; stroke-width: 1.5"/>
      </g>
     </g>
     <g id="text_11">
      <!-- $\mathdefault{−0.5}$ -->
      <g transform="translate(25.179832 314.023253) scale(0.15 -0.15)">
       <use xlink:href="#CMSY10-0" transform="scale(0.996264)"/>
       <use xlink:href="#CMR17-30" transform="translate(77.487468 0) scale(0.996264)"/>
       <use xlink:href="#CMMI12-3a" transform="translate(123.177945 0) scale(0.996264)"/>
       <use xlink:href="#CMR17-35" transform="translate(150.275122 0) scale(0.996264)"/>
      </g>
     </g>
    </g>
    <g id="ytick_4">
     <g id="line2d_21">
      <path d="M 63 260.7223 
L 453.6 260.7223 
" clip-path="url(#pa2ed47fd73)" style="fill: none; stroke: #b0b0b0; stroke-width: 0.8; stroke-linecap: square"/>
     </g>
     <g id="line2d_22">
      <g>
       <use xlink:href="#m7924ef9383" x="63" y="260.7223" style="stroke: #000000; stroke-width: 1.5"/>
      </g>
     </g>
     <g id="text_12">
      <!-- $\mathdefault{0.0}$ -->
      <g transform="translate(36.802948 265.911162) scale(0.15 -0.15)">
       <use xlink:href="#CMR17-30" transform="scale(0.996264)"/>
       <use xlink:href="#CMMI12-3a" transform="translate(45.690477 0) scale(0.996264)"/>
       <use xlink:href="#CMR17-30" transform="translate(72.787654 0) scale(0.996264)"/>
      </g>
     </g>
    </g>
    <g id="ytick_5">
     <g id="line2d_23">
      <path d="M 63 212.610208 
L 453.6 212.610208 
" clip-path="url(#pa2ed47fd73)" style="fill: none; stroke: #b0b0b0; stroke-width: 0.8; stroke-linecap: square"/>
     </g>
     <g id="line2d_24">
      <g>
       <use xlink:href="#m7924ef9383" x="63" y="212.610208" style="stroke: #000000; stroke-width: 1.5"/>
      </g>
     </g>
     <g id="text_13">
      <!-- $\mathdefault{0.5}$ -->
      <g transform="translate(36.802948 217.799071) scale(0.15 -0.15)">
       <use xlink:href="#CMR17-30" transform="scale(0.996264)"/>
       <use xlink:href="#CMMI12-3a" transform="translate(45.690477 0) scale(0.996264)"/>
       <use xlink:href="#CMR17-35" transform="translate(72.787654 0) scale(0.996264)"/>
      </g>
     </g>
    </g>
    <g id="ytick_6">
     <g id="line2d_25">
      <path d="M 63 164.498117 
L 453.6 164.498117 
" clip-path="url(#pa2ed47fd73)" style="fill: none; stroke: #b0b0b0; stroke-width: 0.8; stroke-linecap: square"/>
     </g>
     <g id="line2d_26">
      <g>
       <use xlink:href="#m7924ef9383" x="63" y="164.498117" style="stroke: #000000; stroke-width: 1.5"/>
      </g>
     </g>
     <g id="text_14">
      <!-- $\mathdefault{1.0}$ -->
      <g transform="translate(36.802948 169.686979) scale(0.15 -0.15)">
       <use xlink:href="#CMR17-31" transform="scale(0.996264)"/>
       <use xlink:href="#CMMI12-3a" transform="translate(45.690477 0) scale(0.996264)"/>
       <use xlink:href="#CMR17-30" transform="translate(72.787654 0) scale(0.996264)"/>
      </g>
     </g>
    </g>
    <g id="ytick_7">
     <g id="line2d_27">
      <path d="M 63 116.386025 
L 453.6 116.386025 
" clip-path="url(#pa2ed47fd73)" style="fill: none; stroke: #b0b0b0; stroke-width: 0.8; stroke-linecap: square"/>
     </g>
     <g id="line2d_28">
      <g>
       <use xlink:href="#m7924ef9383" x="63" y="116.386025" style="stroke: #000000; stroke-width: 1.5"/>
      </g>
     </g>
     <g id="text_15">
      <!-- $\mathdefault{1.5}$ -->
      <g transform="translate(36.802948 121.574888) scale(0.15 -0.15)">
       <use xlink:href="#CMR17-31" transform="scale(0.996264)"/>
       <use xlink:href="#CMMI12-3a" transform="translate(45.690477 0) scale(0.996264)"/>
       <use xlink:href="#CMR17-35" transform="translate(72.787654 0) scale(0.996264)"/>
      </g>
     </g>
    </g>
    <g id="ytick_8">
     <g id="line2d_29">
      <path d="M 63 68.273934 
L 453.6 68.273934 
" clip-path="url(#pa2ed47fd73)" style="fill: none; stroke: #b0b0b0; stroke-width: 0.8; stroke-linecap: square"/>
     </g>
     <g id="line2d_30">
      <g>
       <use xlink:href="#m7924ef9383" x="63" y="68.273934" style="stroke: #000000; stroke-width: 1.5"/>
      </g>
     </g>
     <g id="text_16">
      <!-- $\mathdefault{2.0}$ -->
      <g transform="translate(36.802948 73.462796) scale(0.15 -0.15)">
       <use xlink:href="#CMR17-32" transform="scale(0.996264)"/>
       <use xlink:href="#CMMI12-3a" transform="translate(45.690477 0) scale(0.996264)"/>
       <use xlink:href="#CMR17-30" transform="translate(72.787654 0) scale(0.996264)"/>
      </g>
     </g>
    </g>
    <g id="text_17">
     <!-- Traveled distance -->
     <g transform="translate(18.274088 307.331729) rotate(-90) scale(0.15 -0.15)">
      <defs>
       <path id="CMSS17-54" d="M 2317 3968 
L 2848 3968 
C 2925 3968 3002 3968 3078 3968 
L 3878 3968 
L 3878 4376 
L 218 4376 
L 218 3968 
L 1018 3968 
C 1094 3968 1171 3968 1248 3968 
L 1779 3968 
L 1779 -32 
L 2317 -32 
L 2317 3968 
z
" transform="scale(0.015625)"/>
       <path id="CMSS17-72" d="M 954 1363 
C 954 1965 1395 2368 1958 2368 
L 1958 2789 
C 1549 2789 1165 2585 934 2253 
L 934 2758 
L 480 2758 
L 480 0 
L 954 0 
L 954 1363 
z
" transform="scale(0.015625)"/>
       <path id="CMSS17-61" d="M 2406 1791 
C 2406 2392 1978 2808 1402 2808 
C 1120 2808 813 2757 461 2553 
L 499 2135 
C 659 2248 934 2432 1395 2432 
C 1722 2432 1920 2180 1920 1782 
L 1920 1536 
C 896 1536 256 1238 256 726 
C 256 461 416 -64 947 -64 
C 1043 -64 1562 -64 1933 217 
L 1933 -19 
L 2406 -19 
L 2406 1791 
z
M 1920 816 
C 1920 701 1920 548 1728 434 
C 1562 325 1350 325 1261 325 
C 941 325 723 511 723 744 
C 723 1211 1722 1211 1920 1211 
L 1920 816 
z
" transform="scale(0.015625)"/>
       <path id="CMSS17-76" d="M 2675 2752 
L 2176 2752 
L 1747 1556 
C 1613 1165 1421 627 1389 352 
L 1382 352 
C 1370 468 1318 634 1286 749 
C 1248 890 1197 1056 1158 1172 
L 595 2752 
L 83 2752 
L 1094 0 
L 1664 0 
L 2675 2752 
z
" transform="scale(0.015625)"/>
       <path id="CMSS17-6c" d="M 947 4416 
L 474 4416 
L 474 0 
L 947 0 
L 947 4416 
z
" transform="scale(0.015625)"/>
       <path id="CMSS17-64" d="M 2611 4416 
L 2138 4416 
L 2138 2438 
C 1939 2603 1613 2756 1254 2756 
C 672 2756 211 2131 211 1347 
C 211 562 666 -64 1235 -64 
C 1677 -64 1971 172 2125 306 
L 2125 -13 
L 2611 -13 
L 2611 4416 
z
M 2125 836 
C 2125 747 2125 653 1926 482 
C 1798 375 1645 325 1498 325 
C 1152 325 698 576 698 1340 
C 698 2134 1210 2368 1562 2368 
C 1798 2368 1990 2254 2125 2065 
L 2125 836 
z
" transform="scale(0.015625)"/>
       <path id="CMSS17-73" d="M 2061 2627 
C 1683 2807 1389 2807 1197 2807 
C 742 2807 198 2648 198 2003 
C 198 1359 902 1218 1094 1179 
C 1389 1122 1715 1058 1715 740 
C 1715 337 1254 337 1171 337 
C 915 337 563 407 243 638 
L 166 210 
C 531 0 883 -64 1178 -64 
C 1965 -64 2163 416 2163 781 
C 2163 1094 1984 1305 1862 1401 
C 1651 1568 1574 1587 1050 1696 
C 960 1709 646 1779 646 2066 
C 646 2432 1050 2432 1139 2432 
C 1555 2432 1811 2303 1984 2208 
L 2061 2627 
z
" transform="scale(0.015625)"/>
       <path id="CMSS17-63" d="M 2464 2541 
C 2464 2585 2170 2714 2093 2739 
C 1882 2816 1613 2816 1542 2816 
C 710 2816 211 2093 211 1363 
C 211 595 768 -64 1517 -64 
C 1946 -64 2253 76 2502 242 
L 2464 664 
C 2189 453 1869 337 1523 337 
C 1024 337 698 774 698 1369 
C 698 1831 909 2414 1549 2414 
C 1901 2414 2099 2343 2394 2145 
L 2464 2541 
z
" transform="scale(0.015625)"/>
      </defs>
      <use xlink:href="#CMSS17-54" transform="scale(0.996264)"/>
      <use xlink:href="#CMSS17-72" transform="translate(56.012199 0) scale(0.996264)"/>
      <use xlink:href="#CMSS17-61" transform="translate(87.921971 0) scale(0.996264)"/>
      <use xlink:href="#CMSS17-76" transform="translate(132.843892 0) scale(0.996264)"/>
      <use xlink:href="#CMSS17-65" transform="translate(175.844033 0) scale(0.996264)"/>
      <use xlink:href="#CMSS17-6c" transform="translate(217.482855 0) scale(0.996264)"/>
      <use xlink:href="#CMSS17-65" transform="translate(239.663578 0) scale(0.996264)"/>
      <use xlink:href="#CMSS17-64" transform="translate(281.302401 0) scale(0.996264)"/>
      <use xlink:href="#CMSS17-64" transform="translate(360.736456 0) scale(0.996264)"/>
      <use xlink:href="#CMSS17-69" transform="translate(408.9414 0) scale(0.996264)"/>
      <use xlink:href="#CMSS17-73" transform="translate(431.122123 0) scale(0.996264)"/>
      <use xlink:href="#CMSS17-74" transform="translate(467.035665 0) scale(0.996264)"/>
      <use xlink:href="#CMSS17-61" transform="translate(500.867231 0) scale(0.996264)"/>
      <use xlink:href="#CMSS17-6e" transform="translate(545.789152 0) scale(0.996264)"/>
      <use xlink:href="#CMSS17-63" transform="translate(593.994095 0) scale(0.996264)"/>
      <use xlink:href="#CMSS17-65" transform="translate(635.632917 0) scale(0.996264)"/>
     </g>
    </g>
   </g>
   <g id="line2d_31">
    <path d="M 80.754545 260.7223 
L 82.139538 260.61105 
L 83.631069 260.261456 
L 85.51324 259.571855 
L 89.774757 257.900146 
L 91.124237 257.670096 
L 92.296154 257.692982 
L 93.397046 257.933517 
L 94.533451 258.417266 
L 95.74088 259.18748 
L 97.090361 260.324794 
L 98.83048 262.104528 
L 101.422903 265.092235 
L 103.376099 267.165763 
L 104.654554 268.208371 
L 105.68442 268.77176 
L 106.572236 269.015405 
L 107.389027 269.017728 
L 108.205818 268.793427 
L 109.022609 268.336413 
L 109.910425 267.578201 
L 110.904779 266.422639 
L 112.076696 264.693288 
L 113.532714 262.116494 
L 115.805523 257.577605 
L 119.143712 250.83642 
L 120.386654 248.853006 
L 121.381008 247.663674 
L 122.197799 247.012508 
L 122.908052 246.71537 
L 123.547279 246.677238 
L 124.186507 246.864676 
L 124.861247 247.310626 
L 125.607013 248.096831 
L 126.423803 249.296796 
L 127.382645 251.119201 
L 128.554562 253.858941 
L 130.117118 258.129595 
L 132.958129 266.656643 
L 135.51504 274.249004 
L 136.757982 277.270547 
L 137.716824 279.07133 
L 138.498102 280.113987 
L 139.172842 280.667712 
L 139.741044 280.866619 
L 140.273734 280.822253 
L 140.806423 280.550537 
L 141.410138 279.967781 
L 142.084878 278.978115 
L 142.866157 277.408377 
L 143.789485 275.02237 
L 144.92589 271.429651 
L 146.488446 265.682846 
L 149.755609 252.609745 
L 152.241494 242.768788 
L 153.448924 238.852777 
L 154.372253 236.529542 
L 155.153531 235.128168 
L 155.792758 234.415243 
L 156.325448 234.139981 
L 156.787112 234.144216 
L 157.248777 234.377338 
L 157.745954 234.88443 
L 158.349669 235.851302 
L 159.059921 237.46166 
L 159.876712 239.895698 
L 160.906579 243.726654 
L 162.256059 249.70226 
L 165.097071 263.645487 
L 169.855765 287.013378 
L 170.850119 290.457709 
L 171.631397 292.444141 
L 172.270624 293.526778 
L 172.803314 294.025913 
L 173.229466 294.150399 
L 173.620105 294.04575 
L 174.046256 293.69168 
L 174.543433 292.96453 
L 175.147148 291.638324 
L 175.857401 289.488905 
L 176.709705 286.151595 
L 177.775084 281.019356 
L 179.266615 272.625548 
L 183.457107 247.145748 
L 185.871966 232.506812 
L 187.043883 226.732914 
L 187.9317 223.384492 
L 188.641952 221.491811 
L 189.210155 220.53954 
L 189.671819 220.155783 
L 190.062458 220.112204 
L 190.417584 220.29886 
L 190.843736 220.807262 
L 191.340913 221.787407 
L 191.944628 223.519288 
L 192.654881 226.268209 
L 193.542697 230.658889 
L 194.679102 237.501414 
L 196.454734 249.774554 
L 203.592775 299.999354 
L 204.516103 304.424741 
L 205.261869 306.985351 
L 205.830071 308.246031 
L 206.291736 308.800634 
L 206.646862 308.931362 
L 206.966476 308.825974 
L 207.321602 308.460388 
L 207.747754 307.678983 
L 208.280443 306.18845 
L 208.919671 303.68253 
L 209.700949 299.653054 
L 210.695303 293.237077 
L 212.044784 282.924319 
L 217.016553 241.792801 
L 219.573464 220.347026 
L 220.674356 212.935501 
L 221.526659 208.583351 
L 222.201399 206.188897 
L 222.734089 205.026875 
L 223.124728 204.60506 
L 223.444342 204.537384 
L 223.763955 204.721686 
L 224.119082 205.221839 
L 224.545234 206.227855 
L 225.077923 208.09054 
L 225.752663 211.359833 
L 226.569454 216.532363 
L 227.599321 224.583821 
L 229.161877 238.814723 
L 237.081196 313.137167 
L 238.004525 319.219438 
L 238.714778 322.588874 
L 239.28298 324.347873 
L 239.709132 325.082919 
L 240.028746 325.294903 
L 240.312847 325.235895 
L 240.632461 324.890251 
L 241.0231 324.068562 
L 241.520277 322.400184 
L 242.123991 319.477973 
L 242.869757 314.62639 
L 243.793086 307.012313 
L 245.071541 294.392785 
L 251.144203 229.422844 
L 253.239448 206.698412 
L 254.304828 197.424593 
L 255.121619 192.095672 
L 255.760846 189.23698 
L 256.258023 187.891548 
L 256.648662 187.399728 
L 256.932763 187.361041 
L 257.216864 187.592802 
L 257.536478 188.176139 
L 257.96263 189.478745 
L 258.49532 191.925112 
L 259.134547 195.987581 
L 259.951338 202.763091 
L 261.016717 213.705966 
L 262.721324 233.954938 
L 265.100671 261.767581 
L 266.450151 277.314402 
L 270.924744 330.753906 
L 271.777048 337.362913 
L 272.416275 340.811647 
L 272.948965 342.584174 
L 273.339604 343.213272 
L 273.623705 343.305908 
L 273.872294 343.132959 
L 274.191907 342.562546 
L 274.582546 341.338913 
L 275.079723 338.96569 
L 275.683438 334.920656 
L 276.429204 328.33801 
L 277.388045 317.769931 
L 278.808551 299.351121 
L 281.791613 260.271833 
L 283.176606 242.81957 
L 285.413902 211.123864 
L 287.011971 189.932364 
L 288.006325 179.439582 
L 288.752091 173.622905 
L 289.355806 170.446137 
L 289.81747 169.023461 
L 290.172596 168.547374 
L 290.421185 168.539338 
L 290.669773 168.800377 
L 290.989387 169.530235 
L 291.415539 171.184303 
L 291.948228 174.311201 
L 292.587456 179.516374 
L 293.404247 188.19177 
L 294.469626 202.136228 
L 296.422821 231.342733 
L 298.340504 258.627203 
L 300.116136 283.071819 
L 302.530996 321.098652 
L 303.951502 341.496994 
L 304.910343 352.303492 
L 305.656108 358.348154 
L 306.224311 361.335407 
L 306.650462 362.58722 
L 306.970076 362.951337 
L 307.183152 362.916956 
L 307.43174 362.595835 
L 307.751354 361.739985 
L 308.177506 359.834658 
L 308.710196 356.26639 
L 309.349423 350.362124 
L 310.166214 340.571029 
L 311.267106 324.361878 
L 318.795786 203.01506 
L 320.535905 174.269865 
L 321.530259 161.27601 
L 322.276025 154.121439 
L 322.87974 150.265323 
L 323.341404 148.586353 
L 323.661018 148.093682 
L 323.874094 148.074116 
L 324.08717 148.302628 
L 324.371271 148.992453 
L 324.76191 150.652416 
L 325.259087 153.925239 
L 325.862802 159.549482 
L 326.608567 168.731901 
L 327.602921 184.043737 
L 329.20099 212.766569 
L 331.367261 250.953396 
L 334.314811 299.771388 
L 337.688512 361.563427 
L 338.576328 373.117983 
L 339.251068 379.371207 
L 339.783757 382.54997 
L 340.209909 383.903954 
L 340.49401 384.202959 
L 340.671574 384.142186 
L 340.884649 383.817371 
L 341.204263 382.816825 
L 341.594902 380.76809 
L 342.092079 376.886838 
L 342.731307 369.931377 
L 343.512585 358.787474 
L 344.577964 340.008818 
L 349.336658 251.284763 
L 350.579601 228.406329 
L 352.568309 186.854535 
L 354.166378 155.463782 
L 355.125219 140.708304 
L 355.870984 132.432219 
L 356.439187 128.328856 
L 356.865338 126.596683 
L 357.184952 126.079279 
L 357.362515 126.08484 
L 357.575591 126.368607 
L 357.859692 127.21611 
L 358.250331 129.247854 
L 358.747508 133.246226 
L 359.351223 140.109266 
L 360.096989 151.300295 
L 361.091343 169.912495 
L 362.831462 207.667592 
L 364.67812 246.064725 
L 368.122846 312.903132 
L 371.105908 378.392641 
L 371.993724 392.642671 
L 372.703977 400.797944 
L 373.236666 404.745465 
L 373.662818 406.475634 
L 373.946919 406.904034 
L 374.124482 406.874211 
L 374.337558 406.53561 
L 374.621659 405.571636 
L 375.012299 403.299997 
L 375.509475 398.866782 
L 376.11319 391.29248 
L 376.858956 378.978771 
L 377.85331 358.557662 
L 379.699967 314.830716 
L 381.404574 276.777056 
L 382.931618 248.208916 
L 384.103535 223.177116 
L 385.843654 180.443317 
L 387.619286 138.419664 
L 388.578128 120.648284 
L 389.323893 110.623929 
L 389.892096 105.600653 
L 390.318247 103.428934 
L 390.637861 102.727105 
L 390.815424 102.684728 
L 390.992987 102.891456 
L 391.241576 103.598998 
L 391.596702 105.45036 
L 392.058367 109.30748 
L 392.626569 116.209062 
L 393.336822 127.890002 
L 394.224638 146.458975 
L 395.574118 180.026892 
L 397.953465 239.313756 
L 399.160895 263.661509 
L 400.226274 285.810062 
L 401.50473 317.37098 
L 404.807405 401.792141 
L 405.659709 416.878301 
L 406.334449 425.187625 
L 406.831626 429.015923 
L 407.222265 430.587674 
L 407.470853 430.916035 
L 407.648417 430.828305 
L 407.861493 430.368112 
L 408.145594 429.154089 
L 408.536233 426.376416 
L 409.03341 421.033895 
L 409.637125 411.975713 
L 410.418403 396.531788 
L 411.448269 371.21072 
L 415.532223 265.122625 
L 417.130292 230.3935 
L 418.408747 195.998474 
L 421.462834 111.452272 
L 422.315138 94.67207 
L 422.989878 85.245834 
L 423.522568 80.506238 
L 423.913207 78.627927 
L 424.197308 78.130386 
L 424.374871 78.193839 
L 424.587947 78.650815 
L 424.872048 79.90477 
L 425.262687 82.820366 
L 425.759864 88.477944 
L 426.363579 98.126892 
L 427.109345 113.817967 
L 428.103699 139.848314 
L 430.41202 208.688233 
L 431.761501 244.333757 
L 434.815588 319.129788 
L 435.845455 351.022346 
L 435.845455 351.022346 
" clip-path="url(#pa2ed47fd73)" style="fill: none; stroke: #000000; stroke-width: 1.5; stroke-linecap: square"/>
   </g>
   <g id="patch_3">
    <path d="M 63 448.56 
L 63 60.48 
" style="fill: none; stroke: #000000; stroke-width: 1.5; stroke-linejoin: miter; stroke-linecap: square"/>
   </g>
   <g id="patch_4">
    <path d="M 453.6 448.56 
L 453.6 60.48 
" style="fill: none; stroke: #000000; stroke-width: 1.5; stroke-linejoin: miter; stroke-linecap: square"/>
   </g>
   <g id="patch_5">
    <path d="M 63 448.56 
L 453.6 448.56 
" style="fill: none; stroke: #000000; stroke-width: 1.5; stroke-linejoin: miter; stroke-linecap: square"/>
   </g>
   <g id="patch_6">
    <path d="M 63 60.48 
L 453.6 60.48 
" style="fill: none; stroke: #000000; stroke-width: 1.5; stroke-linejoin: miter; stroke-linecap: square"/>
   </g>
  </g>
 </g>
 <defs>
  <clipPath id="pa2ed47fd73">
   <rect x="63" y="60.48" width="390.6" height="388.08"/>
  </clipPath>
 </defs>
</svg>
