<?xml version="1.0" encoding="utf-8" standalone="no"?>
<!DOCTYPE svg PUBLIC "-//W3C//DTD SVG 1.1//EN"
  "http://www.w3.org/Graphics/SVG/1.1/DTD/svg11.dtd">
<svg xmlns:xlink="http://www.w3.org/1999/xlink" width="504pt" height="504pt" viewBox="0 0 504 504" xmlns="http://www.w3.org/2000/svg" version="1.1">
 <metadata>
  <rdf:RDF xmlns:dc="http://purl.org/dc/elements/1.1/" xmlns:cc="http://creativecommons.org/ns#" xmlns:rdf="http://www.w3.org/1999/02/22-rdf-syntax-ns#">
   <cc:Work>
    <dc:type rdf:resource="http://purl.org/dc/dcmitype/StillImage"/>
    <dc:date>2023-08-29T17:37:38.125545</dc:date>
    <dc:format>image/svg+xml</dc:format>
    <dc:creator>
     <cc:Agent>
      <dc:title>Matplotlib v3.7.2, https://matplotlib.org/</dc:title>
     </cc:Agent>
    </dc:creator>
   </cc:Work>
  </rdf:RDF>
 </metadata>
 <defs>
  <style type="text/css">*{stroke-linejoin: round; stroke-linecap: butt}</style>
 </defs>
 <g id="figure_1">
  <g id="patch_1">
   <path d="M 0 504 
L 504 504 
L 504 0 
L 0 0 
z
" style="fill: #ffffff"/>
  </g>
  <g id="axes_1">
   <g id="patch_2">
    <path d="M 63 448.56 
L 453.6 448.56 
L 453.6 60.48 
L 63 60.48 
z
" style="fill: #ffffff"/>
   </g>
   <g id="matplotlib.axis_1">
    <g id="xtick_1">
     <g id="line2d_1">
      <path d="M 80.754545 448.56 
L 80.754545 60.48 
" clip-path="url(#peb268ba6f9)" style="fill: none; stroke: #b0b0b0; stroke-width: 0.8; stroke-linecap: square"/>
     </g>
     <g id="line2d_2">
      <defs>
       <path id="m975c37b1fb" d="M 0 0 
L 0 4 
" style="stroke: #000000; stroke-width: 1.5"/>
      </defs>
      <g>
       <use xlink:href="#m975c37b1fb" x="80.754545" y="448.56" style="stroke: #000000; stroke-width: 1.5"/>
      </g>
     </g>
     <g id="text_1">
      <!-- $\mathdefault{0}$ -->
      <g transform="translate(77.096427 466.437725) scale(0.15 -0.15)">
       <defs>
        <path id="CMR17-30" d="M 2688 2025 
C 2688 2416 2682 3080 2413 3591 
C 2176 4039 1798 4198 1466 4198 
C 1158 4198 768 4058 525 3597 
C 269 3118 243 2524 243 2025 
C 243 1661 250 1106 448 619 
C 723 -39 1216 -128 1466 -128 
C 1760 -128 2208 -7 2470 600 
C 2662 1042 2688 1559 2688 2025 
z
M 1466 -26 
C 1056 -26 813 325 723 812 
C 653 1188 653 1738 653 2096 
C 653 2588 653 2997 736 3387 
C 858 3929 1216 4096 1466 4096 
C 1728 4096 2067 3923 2189 3400 
C 2272 3036 2278 2607 2278 2096 
C 2278 1680 2278 1169 2202 792 
C 2067 95 1690 -26 1466 -26 
z
" transform="scale(0.015625)"/>
       </defs>
       <use xlink:href="#CMR17-30" transform="scale(0.996264)"/>
      </g>
     </g>
    </g>
    <g id="xtick_2">
     <g id="line2d_3">
      <path d="M 139.936364 448.56 
L 139.936364 60.48 
" clip-path="url(#peb268ba6f9)" style="fill: none; stroke: #b0b0b0; stroke-width: 0.8; stroke-linecap: square"/>
     </g>
     <g id="line2d_4">
      <g>
       <use xlink:href="#m975c37b1fb" x="139.936364" y="448.56" style="stroke: #000000; stroke-width: 1.5"/>
      </g>
     </g>
     <g id="text_2">
      <!-- $\mathdefault{5}$ -->
      <g transform="translate(136.278245 466.437725) scale(0.15 -0.15)">
       <defs>
        <path id="CMR17-35" d="M 730 3692 
C 794 3666 1056 3584 1325 3584 
C 1920 3584 2246 3911 2432 4100 
C 2432 4157 2432 4192 2394 4192 
C 2387 4192 2374 4192 2323 4163 
C 2099 4058 1837 3973 1517 3973 
C 1325 3973 1037 3999 723 4139 
C 653 4171 640 4171 634 4171 
C 602 4171 595 4164 595 4037 
L 595 2203 
C 595 2089 595 2057 659 2057 
C 691 2057 704 2070 736 2114 
C 941 2401 1222 2522 1542 2522 
C 1766 2522 2246 2382 2246 1289 
C 2246 1085 2246 715 2054 421 
C 1894 159 1645 25 1370 25 
C 947 25 518 320 403 814 
C 429 807 480 795 506 795 
C 589 795 749 840 749 1038 
C 749 1210 627 1280 506 1280 
C 358 1280 262 1190 262 1011 
C 262 454 704 -128 1382 -128 
C 2042 -128 2669 440 2669 1264 
C 2669 2030 2170 2624 1549 2624 
C 1222 2624 947 2503 730 2274 
L 730 3692 
z
" transform="scale(0.015625)"/>
       </defs>
       <use xlink:href="#CMR17-35" transform="scale(0.996264)"/>
      </g>
     </g>
    </g>
    <g id="xtick_3">
     <g id="line2d_5">
      <path d="M 199.118182 448.56 
L 199.118182 60.48 
" clip-path="url(#peb268ba6f9)" style="fill: none; stroke: #b0b0b0; stroke-width: 0.8; stroke-linecap: square"/>
     </g>
     <g id="line2d_6">
      <g>
       <use xlink:href="#m975c37b1fb" x="199.118182" y="448.56" style="stroke: #000000; stroke-width: 1.5"/>
      </g>
     </g>
     <g id="text_3">
      <!-- $\mathdefault{10}$ -->
      <g transform="translate(191.801944 466.437725) scale(0.15 -0.15)">
       <defs>
        <path id="CMR17-31" d="M 1702 4058 
C 1702 4192 1696 4192 1606 4192 
C 1357 3916 979 3827 621 3827 
C 602 3827 570 3827 563 3808 
C 557 3795 557 3782 557 3648 
C 755 3648 1088 3686 1344 3839 
L 1344 461 
C 1344 236 1331 160 781 160 
L 589 160 
L 589 0 
C 896 0 1216 0 1523 0 
C 1830 0 2150 0 2458 0 
L 2458 160 
L 2266 160 
C 1715 160 1702 230 1702 458 
L 1702 4058 
z
" transform="scale(0.015625)"/>
       </defs>
       <use xlink:href="#CMR17-31" transform="scale(0.996264)"/>
       <use xlink:href="#CMR17-30" transform="translate(45.690477 0) scale(0.996264)"/>
      </g>
     </g>
    </g>
    <g id="xtick_4">
     <g id="line2d_7">
      <path d="M 258.3 448.56 
L 258.3 60.48 
" clip-path="url(#peb268ba6f9)" style="fill: none; stroke: #b0b0b0; stroke-width: 0.8; stroke-linecap: square"/>
     </g>
     <g id="line2d_8">
      <g>
       <use xlink:href="#m975c37b1fb" x="258.3" y="448.56" style="stroke: #000000; stroke-width: 1.5"/>
      </g>
     </g>
     <g id="text_4">
      <!-- $\mathdefault{15}$ -->
      <g transform="translate(250.983762 466.437725) scale(0.15 -0.15)">
       <use xlink:href="#CMR17-31" transform="scale(0.996264)"/>
       <use xlink:href="#CMR17-35" transform="translate(45.690477 0) scale(0.996264)"/>
      </g>
     </g>
    </g>
    <g id="xtick_5">
     <g id="line2d_9">
      <path d="M 317.481818 448.56 
L 317.481818 60.48 
" clip-path="url(#peb268ba6f9)" style="fill: none; stroke: #b0b0b0; stroke-width: 0.8; stroke-linecap: square"/>
     </g>
     <g id="line2d_10">
      <g>
       <use xlink:href="#m975c37b1fb" x="317.481818" y="448.56" style="stroke: #000000; stroke-width: 1.5"/>
      </g>
     </g>
     <g id="text_5">
      <!-- $\mathdefault{20}$ -->
      <g transform="translate(310.16558 466.437725) scale(0.15 -0.15)">
       <defs>
        <path id="CMR17-32" d="M 2669 989 
L 2554 989 
C 2490 536 2438 459 2413 420 
C 2381 369 1920 369 1830 369 
L 602 369 
C 832 619 1280 1072 1824 1597 
C 2214 1967 2669 2402 2669 3035 
C 2669 3790 2067 4224 1395 4224 
C 691 4224 262 3604 262 3030 
C 262 2780 448 2748 525 2748 
C 589 2748 781 2787 781 3010 
C 781 3207 614 3264 525 3264 
C 486 3264 448 3258 422 3245 
C 544 3790 915 4058 1306 4058 
C 1862 4058 2227 3617 2227 3035 
C 2227 2479 1901 2000 1536 1584 
L 262 146 
L 262 0 
L 2515 0 
L 2669 989 
z
" transform="scale(0.015625)"/>
       </defs>
       <use xlink:href="#CMR17-32" transform="scale(0.996264)"/>
       <use xlink:href="#CMR17-30" transform="translate(45.690477 0) scale(0.996264)"/>
      </g>
     </g>
    </g>
    <g id="xtick_6">
     <g id="line2d_11">
      <path d="M 376.663636 448.56 
L 376.663636 60.48 
" clip-path="url(#peb268ba6f9)" style="fill: none; stroke: #b0b0b0; stroke-width: 0.8; stroke-linecap: square"/>
     </g>
     <g id="line2d_12">
      <g>
       <use xlink:href="#m975c37b1fb" x="376.663636" y="448.56" style="stroke: #000000; stroke-width: 1.5"/>
      </g>
     </g>
     <g id="text_6">
      <!-- $\mathdefault{25}$ -->
      <g transform="translate(369.347399 466.437725) scale(0.15 -0.15)">
       <use xlink:href="#CMR17-32" transform="scale(0.996264)"/>
       <use xlink:href="#CMR17-35" transform="translate(45.690477 0) scale(0.996264)"/>
      </g>
     </g>
    </g>
    <g id="xtick_7">
     <g id="line2d_13">
      <path d="M 435.845455 448.56 
L 435.845455 60.48 
" clip-path="url(#peb268ba6f9)" style="fill: none; stroke: #b0b0b0; stroke-width: 0.8; stroke-linecap: square"/>
     </g>
     <g id="line2d_14">
      <g>
       <use xlink:href="#m975c37b1fb" x="435.845455" y="448.56" style="stroke: #000000; stroke-width: 1.5"/>
      </g>
     </g>
     <g id="text_7">
      <!-- $\mathdefault{30}$ -->
      <g transform="translate(428.529217 466.437725) scale(0.15 -0.15)">
       <defs>
        <path id="CMR17-33" d="M 1414 2157 
C 1984 2157 2234 1662 2234 1090 
C 2234 320 1824 25 1453 25 
C 1114 25 563 194 390 693 
C 422 680 454 680 486 680 
C 640 680 755 782 755 948 
C 755 1133 614 1216 486 1216 
C 378 1216 211 1165 211 926 
C 211 335 787 -128 1466 -128 
C 2176 -128 2720 430 2720 1085 
C 2720 1707 2208 2157 1600 2227 
C 2086 2328 2554 2756 2554 3329 
C 2554 3820 2048 4179 1472 4179 
C 890 4179 378 3829 378 3329 
C 378 3110 544 3072 627 3072 
C 762 3072 877 3155 877 3321 
C 877 3486 762 3569 627 3569 
C 602 3569 570 3569 544 3557 
C 730 3959 1235 4032 1459 4032 
C 1683 4032 2106 3925 2106 3320 
C 2106 3143 2080 2828 1862 2550 
C 1670 2304 1453 2304 1242 2284 
C 1210 2284 1062 2269 1037 2269 
C 992 2263 966 2257 966 2208 
C 966 2163 973 2157 1101 2157 
L 1414 2157 
z
" transform="scale(0.015625)"/>
       </defs>
       <use xlink:href="#CMR17-33" transform="scale(0.996264)"/>
       <use xlink:href="#CMR17-30" transform="translate(45.690477 0) scale(0.996264)"/>
      </g>
     </g>
    </g>
    <g id="text_8">
     <!-- Jumping time -->
     <g transform="translate(216.603586 483.721194) scale(0.15 -0.15)">
      <defs>
       <path id="CMSS17-4a" d="M 2336 4384 
L 1811 4384 
L 1811 940 
C 1811 636 1683 261 1107 261 
C 781 261 506 414 333 604 
L 250 140 
C 646 -71 1011 -128 1280 -128 
C 1901 -128 2336 228 2336 920 
L 2336 4384 
z
" transform="scale(0.015625)"/>
       <path id="CMSS17-75" d="M 2618 2739 
L 2131 2739 
L 2131 972 
C 2131 498 1786 306 1421 306 
C 998 306 960 447 960 709 
L 960 2739 
L 474 2739 
L 474 678 
C 474 179 646 -64 1088 -64 
C 1306 -64 1798 -13 2144 306 
L 2144 0 
L 2618 0 
L 2618 2739 
z
" transform="scale(0.015625)"/>
       <path id="CMSS17-6d" d="M 4288 1877 
C 4288 2308 4179 2816 3462 2816 
C 2982 2816 2694 2516 2566 2331 
C 2451 2670 2182 2816 1798 2816 
C 1363 2816 1088 2568 941 2389 
L 941 2758 
L 474 2758 
L 474 0 
L 960 0 
L 960 1559 
C 960 1939 1101 2428 1555 2428 
C 2138 2428 2138 2016 2138 1829 
L 2138 0 
L 2624 0 
L 2624 1559 
C 2624 1939 2765 2428 3219 2428 
C 3802 2428 3802 2016 3802 1829 
L 3802 0 
L 4288 0 
L 4288 1877 
z
" transform="scale(0.015625)"/>
       <path id="CMSS17-70" d="M 966 333 
C 1178 129 1466 -5 1773 -5 
C 2368 -5 2880 603 2880 1412 
C 2880 2159 2496 2816 1946 2816 
C 1626 2816 1242 2702 954 2472 
L 954 2765 
L 480 2765 
L 480 -1216 
L 966 -1216 
L 966 333 
z
M 966 2100 
C 1018 2176 1235 2415 1587 2415 
C 2035 2415 2394 1960 2394 1412 
C 2394 787 1958 384 1530 384 
C 1402 384 1267 415 1139 523 
C 966 674 966 768 966 857 
L 966 2100 
z
" transform="scale(0.015625)"/>
       <path id="CMSS17-69" d="M 979 4183 
L 442 4183 
L 442 3648 
L 979 3648 
L 979 4183 
z
M 947 2739 
L 474 2739 
L 474 0 
L 947 0 
L 947 2739 
z
" transform="scale(0.015625)"/>
       <path id="CMSS17-6e" d="M 2618 1877 
C 2618 2283 2522 2816 1798 2816 
C 1389 2816 1120 2606 941 2389 
L 941 2758 
L 474 2758 
L 474 0 
L 960 0 
L 960 1559 
C 960 1964 1114 2428 1549 2428 
C 2112 2428 2131 2048 2131 1829 
L 2131 0 
L 2618 0 
L 2618 1877 
z
" transform="scale(0.015625)"/>
       <path id="CMSS17-67" d="M 2848 2808 
C 2483 2808 2170 2738 1914 2617 
C 1702 2777 1485 2808 1338 2808 
C 781 2808 358 2349 358 1814 
C 358 1468 550 1207 563 1195 
C 448 1035 384 863 384 672 
C 384 448 474 289 544 200 
C 211 -3 166 -314 166 -435 
C 166 -898 749 -1280 1498 -1280 
C 2253 -1280 2835 -898 2835 -428 
C 2835 448 1856 448 1587 448 
L 1069 448 
C 973 448 717 448 717 791 
C 717 921 774 1004 781 1010 
C 877 940 1075 832 1338 832 
C 1869 832 2310 1278 2310 1827 
C 2310 2132 2170 2355 2112 2432 
L 2131 2432 
C 2150 2432 2419 2432 2515 2432 
C 2720 2432 2739 2429 2918 2419 
L 2848 2808 
z
M 1338 1182 
C 1120 1182 813 1315 813 1823 
C 813 2375 1165 2464 1331 2464 
C 1549 2464 1856 2331 1856 1823 
C 1856 1271 1504 1182 1338 1182 
z
M 1581 -10 
C 1734 -10 2381 -10 2381 -442 
C 2381 -714 1984 -929 1504 -929 
C 1018 -929 621 -720 621 -435 
C 621 -403 621 -10 1062 -10 
L 1581 -10 
z
" transform="scale(0.015625)"/>
       <path id="CMSS17-74" d="M 1069 2368 
L 1901 2368 
L 1901 2737 
L 1069 2737 
L 1069 3520 
L 614 3520 
L 614 2737 
L 109 2737 
L 109 2368 
L 602 2368 
L 602 749 
C 602 384 685 -64 1107 -64 
C 1427 -64 1722 25 2003 172 
L 1901 548 
C 1747 414 1562 337 1363 337 
C 1082 337 1069 696 1069 856 
L 1069 2368 
z
" transform="scale(0.015625)"/>
       <path id="CMSS17-65" d="M 2502 1377 
C 2502 1590 2490 2003 2285 2345 
C 2061 2713 1696 2816 1421 2816 
C 755 2816 192 2188 192 1375 
C 192 582 774 -64 1510 -64 
C 1798 -64 2150 19 2470 248 
C 2470 274 2458 414 2451 420 
C 2451 433 2432 630 2432 656 
C 2125 407 1773 325 1517 325 
C 1107 325 666 667 646 1377 
L 2502 1377 
z
M 698 1728 
C 781 2084 1062 2421 1421 2421 
C 1517 2421 1965 2421 2080 1728 
L 698 1728 
z
" transform="scale(0.015625)"/>
      </defs>
      <use xlink:href="#CMSS17-4a" transform="scale(0.996264)"/>
      <use xlink:href="#CMSS17-75" transform="translate(44.121076 0) scale(0.996264)"/>
      <use xlink:href="#CMSS17-6d" transform="translate(92.326019 0) scale(0.996264)"/>
      <use xlink:href="#CMSS17-70" transform="translate(166.555273 0) scale(0.996264)"/>
      <use xlink:href="#CMSS17-69" transform="translate(214.760216 0) scale(0.996264)"/>
      <use xlink:href="#CMSS17-6e" transform="translate(236.940939 0) scale(0.996264)"/>
      <use xlink:href="#CMSS17-67" transform="translate(285.145882 0) scale(0.996264)"/>
      <use xlink:href="#CMSS17-74" transform="translate(363.218619 0) scale(0.996264)"/>
      <use xlink:href="#CMSS17-69" transform="translate(397.050185 0) scale(0.996264)"/>
      <use xlink:href="#CMSS17-6d" transform="translate(419.230908 0) scale(0.996264)"/>
      <use xlink:href="#CMSS17-65" transform="translate(493.460163 0) scale(0.996264)"/>
     </g>
    </g>
   </g>
   <g id="matplotlib.axis_2">
    <g id="ytick_1">
     <g id="line2d_15">
      <path d="M 63 435.384371 
L 453.6 435.384371 
" clip-path="url(#peb268ba6f9)" style="fill: none; stroke: #b0b0b0; stroke-width: 0.8; stroke-linecap: square"/>
     </g>
     <g id="line2d_16">
      <defs>
       <path id="md4800dc74e" d="M 0 0 
L -4 0 
" style="stroke: #000000; stroke-width: 1.5"/>
      </defs>
      <g>
       <use xlink:href="#md4800dc74e" x="63" y="435.384371" style="stroke: #000000; stroke-width: 1.5"/>
      </g>
     </g>
     <g id="text_9">
      <!-- $\mathdefault{−3}$ -->
      <g transform="translate(36.560647 440.573233) scale(0.15 -0.15)">
       <defs>
        <path id="CMSY10-0" d="M 4218 1472 
C 4326 1472 4442 1472 4442 1600 
C 4442 1728 4326 1728 4218 1728 
L 755 1728 
C 646 1728 531 1728 531 1600 
C 531 1472 646 1472 755 1472 
L 4218 1472 
z
" transform="scale(0.015625)"/>
       </defs>
       <use xlink:href="#CMSY10-0" transform="scale(0.996264)"/>
       <use xlink:href="#CMR17-33" transform="translate(77.487468 0) scale(0.996264)"/>
      </g>
     </g>
    </g>
    <g id="ytick_2">
     <g id="line2d_17">
      <path d="M 63 378.900106 
L 453.6 378.900106 
" clip-path="url(#peb268ba6f9)" style="fill: none; stroke: #b0b0b0; stroke-width: 0.8; stroke-linecap: square"/>
     </g>
     <g id="line2d_18">
      <g>
       <use xlink:href="#md4800dc74e" x="63" y="378.900106" style="stroke: #000000; stroke-width: 1.5"/>
      </g>
     </g>
     <g id="text_10">
      <!-- $\mathdefault{−2}$ -->
      <g transform="translate(36.560647 384.088969) scale(0.15 -0.15)">
       <use xlink:href="#CMSY10-0" transform="scale(0.996264)"/>
       <use xlink:href="#CMR17-32" transform="translate(77.487468 0) scale(0.996264)"/>
      </g>
     </g>
    </g>
    <g id="ytick_3">
     <g id="line2d_19">
      <path d="M 63 322.415842 
L 453.6 322.415842 
" clip-path="url(#peb268ba6f9)" style="fill: none; stroke: #b0b0b0; stroke-width: 0.8; stroke-linecap: square"/>
     </g>
     <g id="line2d_20">
      <g>
       <use xlink:href="#md4800dc74e" x="63" y="322.415842" style="stroke: #000000; stroke-width: 1.5"/>
      </g>
     </g>
     <g id="text_11">
      <!-- $\mathdefault{−1}$ -->
      <g transform="translate(36.560647 327.604704) scale(0.15 -0.15)">
       <use xlink:href="#CMSY10-0" transform="scale(0.996264)"/>
       <use xlink:href="#CMR17-31" transform="translate(77.487468 0) scale(0.996264)"/>
      </g>
     </g>
    </g>
    <g id="ytick_4">
     <g id="line2d_21">
      <path d="M 63 265.931578 
L 453.6 265.931578 
" clip-path="url(#peb268ba6f9)" style="fill: none; stroke: #b0b0b0; stroke-width: 0.8; stroke-linecap: square"/>
     </g>
     <g id="line2d_22">
      <g>
       <use xlink:href="#md4800dc74e" x="63" y="265.931578" style="stroke: #000000; stroke-width: 1.5"/>
      </g>
     </g>
     <g id="text_12">
      <!-- $\mathdefault{0}$ -->
      <g transform="translate(48.183762 271.12044) scale(0.15 -0.15)">
       <use xlink:href="#CMR17-30" transform="scale(0.996264)"/>
      </g>
     </g>
    </g>
    <g id="ytick_5">
     <g id="line2d_23">
      <path d="M 63 209.447313 
L 453.6 209.447313 
" clip-path="url(#peb268ba6f9)" style="fill: none; stroke: #b0b0b0; stroke-width: 0.8; stroke-linecap: square"/>
     </g>
     <g id="line2d_24">
      <g>
       <use xlink:href="#md4800dc74e" x="63" y="209.447313" style="stroke: #000000; stroke-width: 1.5"/>
      </g>
     </g>
     <g id="text_13">
      <!-- $\mathdefault{1}$ -->
      <g transform="translate(48.183762 214.636176) scale(0.15 -0.15)">
       <use xlink:href="#CMR17-31" transform="scale(0.996264)"/>
      </g>
     </g>
    </g>
    <g id="ytick_6">
     <g id="line2d_25">
      <path d="M 63 152.963049 
L 453.6 152.963049 
" clip-path="url(#peb268ba6f9)" style="fill: none; stroke: #b0b0b0; stroke-width: 0.8; stroke-linecap: square"/>
     </g>
     <g id="line2d_26">
      <g>
       <use xlink:href="#md4800dc74e" x="63" y="152.963049" style="stroke: #000000; stroke-width: 1.5"/>
      </g>
     </g>
     <g id="text_14">
      <!-- $\mathdefault{2}$ -->
      <g transform="translate(48.183762 158.151911) scale(0.15 -0.15)">
       <use xlink:href="#CMR17-32" transform="scale(0.996264)"/>
      </g>
     </g>
    </g>
    <g id="ytick_7">
     <g id="line2d_27">
      <path d="M 63 96.478785 
L 453.6 96.478785 
" clip-path="url(#peb268ba6f9)" style="fill: none; stroke: #b0b0b0; stroke-width: 0.8; stroke-linecap: square"/>
     </g>
     <g id="line2d_28">
      <g>
       <use xlink:href="#md4800dc74e" x="63" y="96.478785" style="stroke: #000000; stroke-width: 1.5"/>
      </g>
     </g>
     <g id="text_15">
      <!-- $\mathdefault{3}$ -->
      <g transform="translate(48.183762 101.667647) scale(0.15 -0.15)">
       <use xlink:href="#CMR17-33" transform="scale(0.996264)"/>
      </g>
     </g>
    </g>
    <g id="text_16">
     <!-- Traveled distance -->
     <g transform="translate(29.654902 307.331729) rotate(-90) scale(0.15 -0.15)">
      <defs>
       <path id="CMSS17-54" d="M 2317 3968 
L 2848 3968 
C 2925 3968 3002 3968 3078 3968 
L 3878 3968 
L 3878 4376 
L 218 4376 
L 218 3968 
L 1018 3968 
C 1094 3968 1171 3968 1248 3968 
L 1779 3968 
L 1779 -32 
L 2317 -32 
L 2317 3968 
z
" transform="scale(0.015625)"/>
       <path id="CMSS17-72" d="M 954 1363 
C 954 1965 1395 2368 1958 2368 
L 1958 2789 
C 1549 2789 1165 2585 934 2253 
L 934 2758 
L 480 2758 
L 480 0 
L 954 0 
L 954 1363 
z
" transform="scale(0.015625)"/>
       <path id="CMSS17-61" d="M 2406 1791 
C 2406 2392 1978 2808 1402 2808 
C 1120 2808 813 2757 461 2553 
L 499 2135 
C 659 2248 934 2432 1395 2432 
C 1722 2432 1920 2180 1920 1782 
L 1920 1536 
C 896 1536 256 1238 256 726 
C 256 461 416 -64 947 -64 
C 1043 -64 1562 -64 1933 217 
L 1933 -19 
L 2406 -19 
L 2406 1791 
z
M 1920 816 
C 1920 701 1920 548 1728 434 
C 1562 325 1350 325 1261 325 
C 941 325 723 511 723 744 
C 723 1211 1722 1211 1920 1211 
L 1920 816 
z
" transform="scale(0.015625)"/>
       <path id="CMSS17-76" d="M 2675 2752 
L 2176 2752 
L 1747 1556 
C 1613 1165 1421 627 1389 352 
L 1382 352 
C 1370 468 1318 634 1286 749 
C 1248 890 1197 1056 1158 1172 
L 595 2752 
L 83 2752 
L 1094 0 
L 1664 0 
L 2675 2752 
z
" transform="scale(0.015625)"/>
       <path id="CMSS17-6c" d="M 947 4416 
L 474 4416 
L 474 0 
L 947 0 
L 947 4416 
z
" transform="scale(0.015625)"/>
       <path id="CMSS17-64" d="M 2611 4416 
L 2138 4416 
L 2138 2438 
C 1939 2603 1613 2756 1254 2756 
C 672 2756 211 2131 211 1347 
C 211 562 666 -64 1235 -64 
C 1677 -64 1971 172 2125 306 
L 2125 -13 
L 2611 -13 
L 2611 4416 
z
M 2125 836 
C 2125 747 2125 653 1926 482 
C 1798 375 1645 325 1498 325 
C 1152 325 698 576 698 1340 
C 698 2134 1210 2368 1562 2368 
C 1798 2368 1990 2254 2125 2065 
L 2125 836 
z
" transform="scale(0.015625)"/>
       <path id="CMSS17-73" d="M 2061 2627 
C 1683 2807 1389 2807 1197 2807 
C 742 2807 198 2648 198 2003 
C 198 1359 902 1218 1094 1179 
C 1389 1122 1715 1058 1715 740 
C 1715 337 1254 337 1171 337 
C 915 337 563 407 243 638 
L 166 210 
C 531 0 883 -64 1178 -64 
C 1965 -64 2163 416 2163 781 
C 2163 1094 1984 1305 1862 1401 
C 1651 1568 1574 1587 1050 1696 
C 960 1709 646 1779 646 2066 
C 646 2432 1050 2432 1139 2432 
C 1555 2432 1811 2303 1984 2208 
L 2061 2627 
z
" transform="scale(0.015625)"/>
       <path id="CMSS17-63" d="M 2464 2541 
C 2464 2585 2170 2714 2093 2739 
C 1882 2816 1613 2816 1542 2816 
C 710 2816 211 2093 211 1363 
C 211 595 768 -64 1517 -64 
C 1946 -64 2253 76 2502 242 
L 2464 664 
C 2189 453 1869 337 1523 337 
C 1024 337 698 774 698 1369 
C 698 1831 909 2414 1549 2414 
C 1901 2414 2099 2343 2394 2145 
L 2464 2541 
z
" transform="scale(0.015625)"/>
      </defs>
      <use xlink:href="#CMSS17-54" transform="scale(0.996264)"/>
      <use xlink:href="#CMSS17-72" transform="translate(56.012199 0) scale(0.996264)"/>
      <use xlink:href="#CMSS17-61" transform="translate(87.921971 0) scale(0.996264)"/>
      <use xlink:href="#CMSS17-76" transform="translate(132.843892 0) scale(0.996264)"/>
      <use xlink:href="#CMSS17-65" transform="translate(175.844033 0) scale(0.996264)"/>
      <use xlink:href="#CMSS17-6c" transform="translate(217.482855 0) scale(0.996264)"/>
      <use xlink:href="#CMSS17-65" transform="translate(239.663578 0) scale(0.996264)"/>
      <use xlink:href="#CMSS17-64" transform="translate(281.302401 0) scale(0.996264)"/>
      <use xlink:href="#CMSS17-64" transform="translate(360.736456 0) scale(0.996264)"/>
      <use xlink:href="#CMSS17-69" transform="translate(408.9414 0) scale(0.996264)"/>
      <use xlink:href="#CMSS17-73" transform="translate(431.122123 0) scale(0.996264)"/>
      <use xlink:href="#CMSS17-74" transform="translate(467.035665 0) scale(0.996264)"/>
      <use xlink:href="#CMSS17-61" transform="translate(500.867231 0) scale(0.996264)"/>
      <use xlink:href="#CMSS17-6e" transform="translate(545.789152 0) scale(0.996264)"/>
      <use xlink:href="#CMSS17-63" transform="translate(593.994095 0) scale(0.996264)"/>
      <use xlink:href="#CMSS17-65" transform="translate(635.632917 0) scale(0.996264)"/>
     </g>
    </g>
   </g>
   <g id="line2d_29">
    <path d="M 80.754545 265.931578 
L 80.896596 265.05158 
L 85.442214 264.960494 
L 90.09437 261.86709 
L 91.230775 261.477725 
L 92.225129 261.364369 
L 93.148458 261.476925 
L 94.071786 261.814802 
L 95.030628 262.409874 
L 96.060494 263.319533 
L 97.232411 264.666719 
L 97.516513 265.037681 
L 97.658563 266.041222 
L 99.718296 267.912597 
L 103.6602 271.611327 
L 104.938655 272.459277 
L 105.968521 272.892739 
L 106.89185 273.051286 
L 107.779666 272.975163 
L 108.63197 272.679619 
L 109.519786 272.137918 
L 110.51414 271.258718 
L 111.650544 269.936784 
L 113.035537 267.961058 
L 114.27848 265.966197 
L 114.42053 264.979028 
L 115.166296 264.435549 
L 119.25025 253.327514 
L 120.457679 250.785352 
L 121.416521 249.238445 
L 122.233312 248.315893 
L 122.908052 247.858997 
L 123.511767 247.700097 
L 124.079969 247.774739 
L 124.648171 248.071515 
L 125.287399 248.672731 
L 125.997652 249.669543 
L 126.814442 251.229999 
L 127.737771 253.493302 
L 128.838663 256.806023 
L 130.223656 261.734396 
L 131.040447 264.926099 
L 131.182497 266.206259 
L 133.63287 272.578856 
L 135.905679 278.340098 
L 137.113109 280.829608 
L 138.036437 282.275453 
L 138.817715 283.113003 
L 139.456943 283.501732 
L 140.025145 283.607692 
L 140.593348 283.48031 
L 141.16155 283.117056 
L 141.800777 282.429824 
L 142.546543 281.270524 
L 143.398846 279.513507 
L 144.464226 276.768871 
L 145.884731 272.433543 
L 147.837927 265.952536 
L 147.979977 264.889072 
L 148.299591 264.362889 
L 151.77983 246.127191 
L 153.093798 240.476543 
L 154.123664 236.963157 
L 154.940455 234.887474 
L 155.615195 233.709717 
L 156.183397 233.123067 
L 156.645062 232.930714 
L 157.071213 232.984505 
L 157.497365 233.262591 
L 157.994542 233.870498 
L 158.562744 234.934612 
L 159.237485 236.694937 
L 160.054275 239.506848 
L 161.013117 243.667614 
L 162.185034 249.813831 
L 163.712078 259.110387 
L 164.599894 264.939813 
L 164.741944 266.448214 
L 166.588602 274.498895 
L 169.678201 288.094714 
L 170.779093 291.886701 
L 171.631397 294.08065 
L 172.306137 295.258919 
L 172.838827 295.802971 
L 173.300491 295.983855 
L 173.726643 295.905174 
L 174.152794 295.588915 
L 174.649971 294.922237 
L 175.253686 293.694402 
L 175.963939 291.699334 
L 176.851755 288.467799 
L 177.98816 283.396291 
L 179.834817 273.942403 
L 181.361861 266.067012 
L 181.503911 264.84559 
L 181.681475 264.462331 
L 185.161713 237.300134 
L 186.511194 228.56732 
L 187.54106 223.268037 
L 188.357851 220.136631 
L 189.032591 218.368551 
L 189.565281 217.537214 
L 189.991433 217.245683 
L 190.346559 217.261396 
L 190.701686 217.514005 
L 191.127837 218.129382 
L 191.625014 219.272632 
L 192.228729 221.25892 
L 192.974495 224.567961 
L 193.862311 229.620843 
L 194.963203 237.298071 
L 196.383708 248.91574 
L 198.15934 265.031576 
L 198.301391 266.736702 
L 199.721897 275.478834 
L 204.018926 302.857446 
L 204.906742 306.69223 
L 205.616995 308.841936 
L 206.149685 309.846772 
L 206.575837 310.251331 
L 206.930963 310.309249 
L 207.250577 310.141889 
L 207.641216 309.655178 
L 208.10288 308.685479 
L 208.671083 306.926301 
L 209.381335 303.913375 
L 210.269151 299.050902 
L 211.441069 291.256499 
L 214.921308 266.015441 
L 215.063358 264.742176 
L 215.169896 264.286901 
L 218.863211 225.902019 
L 220.177179 214.592366 
L 221.171533 207.815775 
L 221.952811 203.88265 
L 222.592038 201.709839 
L 223.089215 200.720172 
L 223.479854 200.388998 
L 223.763955 200.399023 
L 224.083569 200.664223 
L 224.474208 201.352567 
L 224.935873 202.675945 
L 225.504075 205.040263 
L 226.214328 209.070299 
L 227.066631 215.318532 
L 228.13201 224.912952 
L 229.552516 239.887178 
L 231.683275 264.77472 
L 231.825325 266.810852 
L 233.032755 276.436729 
L 234.808387 292.565211 
L 237.010171 312.228141 
L 238.040038 319.446994 
L 238.821316 323.449519 
L 239.425031 325.495416 
L 239.886695 326.387296 
L 240.241821 326.65998 
L 240.525923 326.614863 
L 240.810024 326.334706 
L 241.16515 325.655564 
L 241.626814 324.235941 
L 242.195017 321.689906 
L 242.90527 317.370313 
L 243.793086 310.472551 
L 245.036028 298.889293 
L 248.587292 264.727758 
L 248.658318 264.412191 
L 252.777784 210.768364 
L 254.020727 197.616621 
L 254.944055 190.025263 
L 255.654308 185.79252 
L 256.22251 183.542511 
L 256.684175 182.506419 
L 257.003789 182.218012 
L 257.252377 182.239448 
L 257.536478 182.528229 
L 257.891605 183.284492 
L 258.317756 184.764642 
L 258.850446 187.468138 
L 259.525186 192.175898 
L 260.341977 199.592251 
L 261.371844 211.126402 
L 262.827862 230.217219 
L 265.242722 264.927645 
L 265.420285 267.453661 
L 266.592202 279.161989 
L 268.083733 296.521305 
L 270.782694 328.273808 
L 271.741535 336.762432 
L 272.451788 341.303402 
L 273.01999 343.684574 
L 273.446142 344.684629 
L 273.765756 344.97731 
L 274.014344 344.93021 
L 274.298445 344.581035 
L 274.653572 343.703654 
L 275.115236 341.843481 
L 275.683438 338.483074 
L 276.393691 332.760037 
L 277.281507 323.613886 
L 278.559962 307.869224 
L 281.365461 272.817797 
L 282.466353 259.706707 
L 286.834408 191.198157 
L 287.9353 177.750395 
L 288.752091 170.177618 
L 289.426831 165.798426 
L 289.95952 163.661135 
L 290.35016 162.869907 
L 290.634261 162.715654 
L 290.847337 162.834475 
L 291.131438 163.30588 
L 291.486564 164.395619 
L 291.948228 166.630588 
L 292.516431 170.606454 
L 293.226684 177.343005 
L 294.1145 188.155276 
L 295.286417 205.472002 
L 297.275125 238.772417 
L 299.22832 270.658797 
L 300.329212 284.445762 
L 301.714205 304.826062 
L 304.377653 344.634587 
L 305.300982 354.931228 
L 306.011235 360.615504 
L 306.579437 363.548546 
L 307.005589 364.742358 
L 307.28969 365.045013 
L 307.502766 365.010155 
L 307.751354 364.684978 
L 308.070968 363.817899 
L 308.49712 361.885504 
L 309.029809 358.260227 
L 309.669037 352.248984 
L 310.485828 342.268651 
L 311.58672 325.817443 
L 314.995933 272.93605 
L 315.990287 258.916968 
L 321.033082 166.337514 
L 321.956411 154.447546 
L 322.666664 147.802502 
L 323.234866 144.256023 
L 323.696531 142.60294 
L 324.016144 142.121721 
L 324.22922 142.10585 
L 324.442296 142.334841 
L 324.726397 143.020908 
L 325.117036 144.670524 
L 325.614213 147.932138 
L 326.217928 153.572904 
L 326.963694 162.878191 
L 327.887022 177.407479 
L 329.20099 201.952249 
L 332.929818 273.535269 
L 333.959684 289.177571 
L 335.273652 312.890892 
L 337.972613 362.571949 
L 338.860429 374.536748 
L 339.570682 381.348353 
L 340.103371 384.643563 
L 340.529523 386.098455 
L 340.813624 386.471146 
L 341.0267 386.434089 
L 341.239776 386.124884 
L 341.523877 385.289685 
L 341.914516 383.357507 
L 342.411693 379.611332 
L 343.015408 373.210826 
L 343.761173 362.764457 
L 344.755527 345.356284 
L 348.803969 270.169966 
L 349.443196 259.76039 
L 352.355233 195.037672 
L 354.166378 156.483388 
L 355.160732 139.666753 
L 355.94201 129.829424 
L 356.581237 124.335561 
L 357.078414 121.756775 
L 357.433541 120.848804 
L 357.682129 120.682145 
L 357.859692 120.800712 
L 358.108281 121.299936 
L 358.427895 122.512513 
L 358.854046 125.12183 
L 359.386736 129.950021 
L 360.025964 137.943719 
L 360.807242 150.670373 
L 361.837108 171.413942 
L 363.648253 213.401102 
L 366.098625 268.928278 
L 367.021954 283.84173 
L 368.087333 304.900799 
L 369.756427 343.261727 
L 371.283471 376.555607 
L 372.2068 392.225934 
L 372.917053 400.986809 
L 373.485255 405.685611 
L 373.946919 407.918512 
L 374.266533 408.614466 
L 374.479609 408.688543 
L 374.657172 408.511084 
L 374.905761 407.896769 
L 375.260887 406.279259 
L 375.687039 403.19604 
L 376.219728 397.621889 
L 376.894469 387.945954 
L 377.711259 372.758127 
L 378.847664 347.040498 
L 381.475599 286.312461 
L 382.505466 268.249627 
L 382.931618 260.239162 
L 385.310965 200.285454 
L 387.725824 139.339612 
L 388.684666 120.680353 
L 389.465944 109.456495 
L 390.105171 103.242709 
L 390.602348 100.332221 
L 390.957475 99.298936 
L 391.206063 99.097732 
L 391.383627 99.218274 
L 391.632215 99.758018 
L 391.951829 101.089405 
L 392.377981 103.98124 
L 392.91067 109.382205 
L 393.549898 118.424121 
L 394.331176 133.008953 
L 395.32553 156.191968 
L 397.101162 204.04945 
L 399.516022 267.256183 
L 400.368325 282.284349 
L 401.327166 303.308728 
L 402.605621 336.84786 
L 404.73638 392.93202 
L 405.659709 411.253684 
L 406.405474 421.883133 
L 407.009189 427.530464 
L 407.470853 430.022063 
L 407.790467 430.812529 
L 408.003543 430.912999 
L 408.181106 430.735255 
L 408.429695 430.085816 
L 408.749309 428.561475 
L 409.17546 425.317635 
L 409.70815 419.315307 
L 410.347377 409.30408 
L 411.128656 393.188016 
L 412.158522 366.743099 
L 415.212609 284.754027 
L 416.242476 264.82019 
L 416.313501 263.862925 
L 418.479773 203.179026 
L 421.427322 118.23554 
L 422.315138 99.70648 
L 423.060903 88.438986 
L 423.664618 82.331617 
L 424.161795 79.327432 
L 424.516922 78.294881 
L 424.76551 78.123319 
L 424.943073 78.279358 
L 425.191662 78.889656 
L 425.511276 80.351206 
L 425.937427 83.499549 
L 426.470117 89.393758 
L 427.073832 98.726122 
L 427.819597 114.03182 
L 428.742926 138.020677 
L 430.234457 183.694507 
L 432.471754 250.913335 
L 433.324057 272.155995 
L 434.17636 290.328342 
L 435.135202 315.882949 
L 435.845455 337.60726 
L 435.845455 337.60726 
" clip-path="url(#peb268ba6f9)" style="fill: none; stroke: #000000; stroke-width: 1.5; stroke-linecap: square"/>
   </g>
   <g id="patch_3">
    <path d="M 63 448.56 
L 63 60.48 
" style="fill: none; stroke: #000000; stroke-width: 1.5; stroke-linejoin: miter; stroke-linecap: square"/>
   </g>
   <g id="patch_4">
    <path d="M 453.6 448.56 
L 453.6 60.48 
" style="fill: none; stroke: #000000; stroke-width: 1.5; stroke-linejoin: miter; stroke-linecap: square"/>
   </g>
   <g id="patch_5">
    <path d="M 63 448.56 
L 453.6 448.56 
" style="fill: none; stroke: #000000; stroke-width: 1.5; stroke-linejoin: miter; stroke-linecap: square"/>
   </g>
   <g id="patch_6">
    <path d="M 63 60.48 
L 453.6 60.48 
" style="fill: none; stroke: #000000; stroke-width: 1.5; stroke-linejoin: miter; stroke-linecap: square"/>
   </g>
  </g>
 </g>
 <defs>
  <clipPath id="peb268ba6f9">
   <rect x="63" y="60.48" width="390.6" height="388.08"/>
  </clipPath>
 </defs>
</svg>
