<?xml version="1.0" encoding="utf-8" standalone="no"?>
<!DOCTYPE svg PUBLIC "-//W3C//DTD SVG 1.1//EN"
  "http://www.w3.org/Graphics/SVG/1.1/DTD/svg11.dtd">
<svg xmlns:xlink="http://www.w3.org/1999/xlink" width="504pt" height="504pt" viewBox="0 0 504 504" xmlns="http://www.w3.org/2000/svg" version="1.1">
 <metadata>
  <rdf:RDF xmlns:dc="http://purl.org/dc/elements/1.1/" xmlns:cc="http://creativecommons.org/ns#" xmlns:rdf="http://www.w3.org/1999/02/22-rdf-syntax-ns#">
   <cc:Work>
    <dc:type rdf:resource="http://purl.org/dc/dcmitype/StillImage"/>
    <dc:date>2023-08-22T15:13:55.915753</dc:date>
    <dc:format>image/svg+xml</dc:format>
    <dc:creator>
     <cc:Agent>
      <dc:title>Matplotlib v3.7.2, https://matplotlib.org/</dc:title>
     </cc:Agent>
    </dc:creator>
   </cc:Work>
  </rdf:RDF>
 </metadata>
 <defs>
  <style type="text/css">*{stroke-linejoin: round; stroke-linecap: butt}</style>
 </defs>
 <g id="figure_1">
  <g id="patch_1">
   <path d="M 0 504 
L 504 504 
L 504 0 
L 0 0 
z
" style="fill: #ffffff"/>
  </g>
  <g id="axes_1">
   <g id="patch_2">
    <path d="M 63 448.56 
L 453.6 448.56 
L 453.6 60.48 
L 63 60.48 
z
" style="fill: #ffffff"/>
   </g>
   <g id="matplotlib.axis_1">
    <g id="xtick_1">
     <g id="line2d_1">
      <path d="M 80.754545 448.56 
L 80.754545 60.48 
" clip-path="url(#p3de62690d2)" style="fill: none; stroke: #b0b0b0; stroke-width: 0.8; stroke-linecap: square"/>
     </g>
     <g id="line2d_2">
      <defs>
       <path id="m54a59d5368" d="M 0 0 
L 0 4 
" style="stroke: #000000; stroke-width: 1.5"/>
      </defs>
      <g>
       <use xlink:href="#m54a59d5368" x="80.754545" y="448.56" style="stroke: #000000; stroke-width: 1.5"/>
      </g>
     </g>
     <g id="text_1">
      <!-- $\mathdefault{0}$ -->
      <g transform="translate(77.096427 466.437725) scale(0.15 -0.15)">
       <defs>
        <path id="CMR17-30" d="M 2688 2025 
C 2688 2416 2682 3080 2413 3591 
C 2176 4039 1798 4198 1466 4198 
C 1158 4198 768 4058 525 3597 
C 269 3118 243 2524 243 2025 
C 243 1661 250 1106 448 619 
C 723 -39 1216 -128 1466 -128 
C 1760 -128 2208 -7 2470 600 
C 2662 1042 2688 1559 2688 2025 
z
M 1466 -26 
C 1056 -26 813 325 723 812 
C 653 1188 653 1738 653 2096 
C 653 2588 653 2997 736 3387 
C 858 3929 1216 4096 1466 4096 
C 1728 4096 2067 3923 2189 3400 
C 2272 3036 2278 2607 2278 2096 
C 2278 1680 2278 1169 2202 792 
C 2067 95 1690 -26 1466 -26 
z
" transform="scale(0.015625)"/>
       </defs>
       <use xlink:href="#CMR17-30" transform="scale(0.996264)"/>
      </g>
     </g>
    </g>
    <g id="xtick_2">
     <g id="line2d_3">
      <path d="M 139.936364 448.56 
L 139.936364 60.48 
" clip-path="url(#p3de62690d2)" style="fill: none; stroke: #b0b0b0; stroke-width: 0.8; stroke-linecap: square"/>
     </g>
     <g id="line2d_4">
      <g>
       <use xlink:href="#m54a59d5368" x="139.936364" y="448.56" style="stroke: #000000; stroke-width: 1.5"/>
      </g>
     </g>
     <g id="text_2">
      <!-- $\mathdefault{5}$ -->
      <g transform="translate(136.278245 466.437725) scale(0.15 -0.15)">
       <defs>
        <path id="CMR17-35" d="M 730 3692 
C 794 3666 1056 3584 1325 3584 
C 1920 3584 2246 3911 2432 4100 
C 2432 4157 2432 4192 2394 4192 
C 2387 4192 2374 4192 2323 4163 
C 2099 4058 1837 3973 1517 3973 
C 1325 3973 1037 3999 723 4139 
C 653 4171 640 4171 634 4171 
C 602 4171 595 4164 595 4037 
L 595 2203 
C 595 2089 595 2057 659 2057 
C 691 2057 704 2070 736 2114 
C 941 2401 1222 2522 1542 2522 
C 1766 2522 2246 2382 2246 1289 
C 2246 1085 2246 715 2054 421 
C 1894 159 1645 25 1370 25 
C 947 25 518 320 403 814 
C 429 807 480 795 506 795 
C 589 795 749 840 749 1038 
C 749 1210 627 1280 506 1280 
C 358 1280 262 1190 262 1011 
C 262 454 704 -128 1382 -128 
C 2042 -128 2669 440 2669 1264 
C 2669 2030 2170 2624 1549 2624 
C 1222 2624 947 2503 730 2274 
L 730 3692 
z
" transform="scale(0.015625)"/>
       </defs>
       <use xlink:href="#CMR17-35" transform="scale(0.996264)"/>
      </g>
     </g>
    </g>
    <g id="xtick_3">
     <g id="line2d_5">
      <path d="M 199.118182 448.56 
L 199.118182 60.48 
" clip-path="url(#p3de62690d2)" style="fill: none; stroke: #b0b0b0; stroke-width: 0.8; stroke-linecap: square"/>
     </g>
     <g id="line2d_6">
      <g>
       <use xlink:href="#m54a59d5368" x="199.118182" y="448.56" style="stroke: #000000; stroke-width: 1.5"/>
      </g>
     </g>
     <g id="text_3">
      <!-- $\mathdefault{10}$ -->
      <g transform="translate(191.801944 466.437725) scale(0.15 -0.15)">
       <defs>
        <path id="CMR17-31" d="M 1702 4058 
C 1702 4192 1696 4192 1606 4192 
C 1357 3916 979 3827 621 3827 
C 602 3827 570 3827 563 3808 
C 557 3795 557 3782 557 3648 
C 755 3648 1088 3686 1344 3839 
L 1344 461 
C 1344 236 1331 160 781 160 
L 589 160 
L 589 0 
C 896 0 1216 0 1523 0 
C 1830 0 2150 0 2458 0 
L 2458 160 
L 2266 160 
C 1715 160 1702 230 1702 458 
L 1702 4058 
z
" transform="scale(0.015625)"/>
       </defs>
       <use xlink:href="#CMR17-31" transform="scale(0.996264)"/>
       <use xlink:href="#CMR17-30" transform="translate(45.690477 0) scale(0.996264)"/>
      </g>
     </g>
    </g>
    <g id="xtick_4">
     <g id="line2d_7">
      <path d="M 258.3 448.56 
L 258.3 60.48 
" clip-path="url(#p3de62690d2)" style="fill: none; stroke: #b0b0b0; stroke-width: 0.8; stroke-linecap: square"/>
     </g>
     <g id="line2d_8">
      <g>
       <use xlink:href="#m54a59d5368" x="258.3" y="448.56" style="stroke: #000000; stroke-width: 1.5"/>
      </g>
     </g>
     <g id="text_4">
      <!-- $\mathdefault{15}$ -->
      <g transform="translate(250.983762 466.437725) scale(0.15 -0.15)">
       <use xlink:href="#CMR17-31" transform="scale(0.996264)"/>
       <use xlink:href="#CMR17-35" transform="translate(45.690477 0) scale(0.996264)"/>
      </g>
     </g>
    </g>
    <g id="xtick_5">
     <g id="line2d_9">
      <path d="M 317.481818 448.56 
L 317.481818 60.48 
" clip-path="url(#p3de62690d2)" style="fill: none; stroke: #b0b0b0; stroke-width: 0.8; stroke-linecap: square"/>
     </g>
     <g id="line2d_10">
      <g>
       <use xlink:href="#m54a59d5368" x="317.481818" y="448.56" style="stroke: #000000; stroke-width: 1.5"/>
      </g>
     </g>
     <g id="text_5">
      <!-- $\mathdefault{20}$ -->
      <g transform="translate(310.16558 466.437725) scale(0.15 -0.15)">
       <defs>
        <path id="CMR17-32" d="M 2669 989 
L 2554 989 
C 2490 536 2438 459 2413 420 
C 2381 369 1920 369 1830 369 
L 602 369 
C 832 619 1280 1072 1824 1597 
C 2214 1967 2669 2402 2669 3035 
C 2669 3790 2067 4224 1395 4224 
C 691 4224 262 3604 262 3030 
C 262 2780 448 2748 525 2748 
C 589 2748 781 2787 781 3010 
C 781 3207 614 3264 525 3264 
C 486 3264 448 3258 422 3245 
C 544 3790 915 4058 1306 4058 
C 1862 4058 2227 3617 2227 3035 
C 2227 2479 1901 2000 1536 1584 
L 262 146 
L 262 0 
L 2515 0 
L 2669 989 
z
" transform="scale(0.015625)"/>
       </defs>
       <use xlink:href="#CMR17-32" transform="scale(0.996264)"/>
       <use xlink:href="#CMR17-30" transform="translate(45.690477 0) scale(0.996264)"/>
      </g>
     </g>
    </g>
    <g id="xtick_6">
     <g id="line2d_11">
      <path d="M 376.663636 448.56 
L 376.663636 60.48 
" clip-path="url(#p3de62690d2)" style="fill: none; stroke: #b0b0b0; stroke-width: 0.8; stroke-linecap: square"/>
     </g>
     <g id="line2d_12">
      <g>
       <use xlink:href="#m54a59d5368" x="376.663636" y="448.56" style="stroke: #000000; stroke-width: 1.5"/>
      </g>
     </g>
     <g id="text_6">
      <!-- $\mathdefault{25}$ -->
      <g transform="translate(369.347399 466.437725) scale(0.15 -0.15)">
       <use xlink:href="#CMR17-32" transform="scale(0.996264)"/>
       <use xlink:href="#CMR17-35" transform="translate(45.690477 0) scale(0.996264)"/>
      </g>
     </g>
    </g>
    <g id="xtick_7">
     <g id="line2d_13">
      <path d="M 435.845455 448.56 
L 435.845455 60.48 
" clip-path="url(#p3de62690d2)" style="fill: none; stroke: #b0b0b0; stroke-width: 0.8; stroke-linecap: square"/>
     </g>
     <g id="line2d_14">
      <g>
       <use xlink:href="#m54a59d5368" x="435.845455" y="448.56" style="stroke: #000000; stroke-width: 1.5"/>
      </g>
     </g>
     <g id="text_7">
      <!-- $\mathdefault{30}$ -->
      <g transform="translate(428.529217 466.437725) scale(0.15 -0.15)">
       <defs>
        <path id="CMR17-33" d="M 1414 2157 
C 1984 2157 2234 1662 2234 1090 
C 2234 320 1824 25 1453 25 
C 1114 25 563 194 390 693 
C 422 680 454 680 486 680 
C 640 680 755 782 755 948 
C 755 1133 614 1216 486 1216 
C 378 1216 211 1165 211 926 
C 211 335 787 -128 1466 -128 
C 2176 -128 2720 430 2720 1085 
C 2720 1707 2208 2157 1600 2227 
C 2086 2328 2554 2756 2554 3329 
C 2554 3820 2048 4179 1472 4179 
C 890 4179 378 3829 378 3329 
C 378 3110 544 3072 627 3072 
C 762 3072 877 3155 877 3321 
C 877 3486 762 3569 627 3569 
C 602 3569 570 3569 544 3557 
C 730 3959 1235 4032 1459 4032 
C 1683 4032 2106 3925 2106 3320 
C 2106 3143 2080 2828 1862 2550 
C 1670 2304 1453 2304 1242 2284 
C 1210 2284 1062 2269 1037 2269 
C 992 2263 966 2257 966 2208 
C 966 2163 973 2157 1101 2157 
L 1414 2157 
z
" transform="scale(0.015625)"/>
       </defs>
       <use xlink:href="#CMR17-33" transform="scale(0.996264)"/>
       <use xlink:href="#CMR17-30" transform="translate(45.690477 0) scale(0.996264)"/>
      </g>
     </g>
    </g>
    <g id="text_8">
     <!-- $t$ -->
     <g transform="translate(255.481894 484.413058) scale(0.16 -0.16)">
      <defs>
       <path id="CMMI12-74" d="M 1286 2566 
L 1875 2566 
C 1997 2566 2061 2566 2061 2681 
C 2061 2752 2022 2752 1894 2752 
L 1331 2752 
L 1568 3692 
C 1594 3781 1594 3794 1594 3840 
C 1594 3943 1510 4000 1427 4000 
C 1376 4000 1229 3981 1178 3775 
L 928 2752 
L 326 2752 
C 198 2752 141 2752 141 2630 
C 141 2566 186 2566 307 2566 
L 877 2566 
L 454 881 
C 403 658 384 594 384 511 
C 384 211 595 -64 954 -64 
C 1600 -64 1946 868 1946 912 
C 1946 951 1920 970 1882 970 
C 1869 970 1843 970 1830 944 
C 1824 938 1818 931 1773 829 
C 1638 511 1344 64 973 64 
C 781 64 768 224 768 364 
C 768 370 768 492 787 568 
L 1286 2566 
z
" transform="scale(0.015625)"/>
      </defs>
      <use xlink:href="#CMMI12-74" transform="scale(0.996264)"/>
     </g>
    </g>
   </g>
   <g id="matplotlib.axis_2">
    <g id="ytick_1">
     <g id="line2d_15">
      <path d="M 63 390.22054 
L 453.6 390.22054 
" clip-path="url(#p3de62690d2)" style="fill: none; stroke: #b0b0b0; stroke-width: 0.8; stroke-linecap: square"/>
     </g>
     <g id="line2d_16">
      <defs>
       <path id="m328a1e483a" d="M 0 0 
L -4 0 
" style="stroke: #000000; stroke-width: 1.5"/>
      </defs>
      <g>
       <use xlink:href="#m328a1e483a" x="63" y="390.22054" style="stroke: #000000; stroke-width: 1.5"/>
      </g>
     </g>
     <g id="text_9">
      <!-- $\mathdefault{−0.4}$ -->
      <g transform="translate(25.179832 395.409402) scale(0.15 -0.15)">
       <defs>
        <path id="CMSY10-0" d="M 4218 1472 
C 4326 1472 4442 1472 4442 1600 
C 4442 1728 4326 1728 4218 1728 
L 755 1728 
C 646 1728 531 1728 531 1600 
C 531 1472 646 1472 755 1472 
L 4218 1472 
z
" transform="scale(0.015625)"/>
        <path id="CMMI12-3a" d="M 1178 307 
C 1178 492 1024 619 870 619 
C 685 619 557 466 557 313 
C 557 128 710 0 864 0 
C 1050 0 1178 153 1178 307 
z
" transform="scale(0.015625)"/>
        <path id="CMR17-34" d="M 2150 4122 
C 2150 4256 2144 4256 2029 4256 
L 128 1254 
L 128 1088 
L 1779 1088 
L 1779 457 
C 1779 224 1766 160 1318 160 
L 1197 160 
L 1197 0 
C 1402 0 1747 0 1965 0 
C 2182 0 2528 0 2733 0 
L 2733 160 
L 2611 160 
C 2163 160 2150 224 2150 457 
L 2150 1088 
L 2803 1088 
L 2803 1254 
L 2150 1254 
L 2150 4122 
z
M 1798 3703 
L 1798 1254 
L 256 1254 
L 1798 3703 
z
" transform="scale(0.015625)"/>
       </defs>
       <use xlink:href="#CMSY10-0" transform="scale(0.996264)"/>
       <use xlink:href="#CMR17-30" transform="translate(77.487468 0) scale(0.996264)"/>
       <use xlink:href="#CMMI12-3a" transform="translate(123.177945 0) scale(0.996264)"/>
       <use xlink:href="#CMR17-34" transform="translate(150.275122 0) scale(0.996264)"/>
      </g>
     </g>
    </g>
    <g id="ytick_2">
     <g id="line2d_17">
      <path d="M 63 324.550326 
L 453.6 324.550326 
" clip-path="url(#p3de62690d2)" style="fill: none; stroke: #b0b0b0; stroke-width: 0.8; stroke-linecap: square"/>
     </g>
     <g id="line2d_18">
      <g>
       <use xlink:href="#m328a1e483a" x="63" y="324.550326" style="stroke: #000000; stroke-width: 1.5"/>
      </g>
     </g>
     <g id="text_10">
      <!-- $\mathdefault{−0.2}$ -->
      <g transform="translate(25.179832 329.739188) scale(0.15 -0.15)">
       <use xlink:href="#CMSY10-0" transform="scale(0.996264)"/>
       <use xlink:href="#CMR17-30" transform="translate(77.487468 0) scale(0.996264)"/>
       <use xlink:href="#CMMI12-3a" transform="translate(123.177945 0) scale(0.996264)"/>
       <use xlink:href="#CMR17-32" transform="translate(150.275122 0) scale(0.996264)"/>
      </g>
     </g>
    </g>
    <g id="ytick_3">
     <g id="line2d_19">
      <path d="M 63 258.880112 
L 453.6 258.880112 
" clip-path="url(#p3de62690d2)" style="fill: none; stroke: #b0b0b0; stroke-width: 0.8; stroke-linecap: square"/>
     </g>
     <g id="line2d_20">
      <g>
       <use xlink:href="#m328a1e483a" x="63" y="258.880112" style="stroke: #000000; stroke-width: 1.5"/>
      </g>
     </g>
     <g id="text_11">
      <!-- $\mathdefault{0.0}$ -->
      <g transform="translate(36.802948 264.068974) scale(0.15 -0.15)">
       <use xlink:href="#CMR17-30" transform="scale(0.996264)"/>
       <use xlink:href="#CMMI12-3a" transform="translate(45.690477 0) scale(0.996264)"/>
       <use xlink:href="#CMR17-30" transform="translate(72.787654 0) scale(0.996264)"/>
      </g>
     </g>
    </g>
    <g id="ytick_4">
     <g id="line2d_21">
      <path d="M 63 193.209898 
L 453.6 193.209898 
" clip-path="url(#p3de62690d2)" style="fill: none; stroke: #b0b0b0; stroke-width: 0.8; stroke-linecap: square"/>
     </g>
     <g id="line2d_22">
      <g>
       <use xlink:href="#m328a1e483a" x="63" y="193.209898" style="stroke: #000000; stroke-width: 1.5"/>
      </g>
     </g>
     <g id="text_12">
      <!-- $\mathdefault{0.2}$ -->
      <g transform="translate(36.802948 198.398761) scale(0.15 -0.15)">
       <use xlink:href="#CMR17-30" transform="scale(0.996264)"/>
       <use xlink:href="#CMMI12-3a" transform="translate(45.690477 0) scale(0.996264)"/>
       <use xlink:href="#CMR17-32" transform="translate(72.787654 0) scale(0.996264)"/>
      </g>
     </g>
    </g>
    <g id="ytick_5">
     <g id="line2d_23">
      <path d="M 63 127.539684 
L 453.6 127.539684 
" clip-path="url(#p3de62690d2)" style="fill: none; stroke: #b0b0b0; stroke-width: 0.8; stroke-linecap: square"/>
     </g>
     <g id="line2d_24">
      <g>
       <use xlink:href="#m328a1e483a" x="63" y="127.539684" style="stroke: #000000; stroke-width: 1.5"/>
      </g>
     </g>
     <g id="text_13">
      <!-- $\mathdefault{0.4}$ -->
      <g transform="translate(36.802948 132.728547) scale(0.15 -0.15)">
       <use xlink:href="#CMR17-30" transform="scale(0.996264)"/>
       <use xlink:href="#CMMI12-3a" transform="translate(45.690477 0) scale(0.996264)"/>
       <use xlink:href="#CMR17-34" transform="translate(72.787654 0) scale(0.996264)"/>
      </g>
     </g>
    </g>
    <g id="ytick_6">
     <g id="line2d_25">
      <path d="M 63 61.86947 
L 453.6 61.86947 
" clip-path="url(#p3de62690d2)" style="fill: none; stroke: #b0b0b0; stroke-width: 0.8; stroke-linecap: square"/>
     </g>
     <g id="line2d_26">
      <g>
       <use xlink:href="#m328a1e483a" x="63" y="61.86947" style="stroke: #000000; stroke-width: 1.5"/>
      </g>
     </g>
     <g id="text_14">
      <!-- $\mathdefault{0.6}$ -->
      <g transform="translate(36.802948 67.058333) scale(0.15 -0.15)">
       <defs>
        <path id="CMR17-36" d="M 678 2176 
C 678 3690 1395 4032 1811 4032 
C 1946 4032 2272 4009 2400 3776 
C 2298 3776 2106 3776 2106 3553 
C 2106 3381 2246 3323 2336 3323 
C 2394 3323 2566 3348 2566 3560 
C 2566 3954 2246 4179 1805 4179 
C 1043 4179 243 3390 243 1984 
C 243 253 966 -128 1478 -128 
C 2099 -128 2688 427 2688 1283 
C 2688 2081 2170 2662 1517 2662 
C 1126 2662 838 2407 678 1960 
L 678 2176 
z
M 1478 25 
C 691 25 691 1200 691 1436 
C 691 1896 909 2560 1504 2560 
C 1613 2560 1926 2560 2138 2120 
C 2253 1870 2253 1609 2253 1289 
C 2253 944 2253 690 2118 434 
C 1978 171 1773 25 1478 25 
z
" transform="scale(0.015625)"/>
       </defs>
       <use xlink:href="#CMR17-30" transform="scale(0.996264)"/>
       <use xlink:href="#CMMI12-3a" transform="translate(45.690477 0) scale(0.996264)"/>
       <use xlink:href="#CMR17-36" transform="translate(72.787654 0) scale(0.996264)"/>
      </g>
     </g>
    </g>
    <g id="text_15">
     <!-- $\phi(t)$ -->
     <g transform="translate(17.194776 268.026609) rotate(-90) scale(0.16 -0.16)">
      <defs>
       <path id="CMMI12-1e" d="M 2752 4390 
C 2752 4448 2707 4448 2688 4448 
C 2630 4448 2624 4435 2598 4326 
L 2253 2939 
C 2234 2856 2227 2849 2221 2843 
C 2214 2830 2170 2824 2157 2824 
C 1107 2734 301 1864 301 1057 
C 301 361 832 -64 1498 -64 
C 1446 -261 1402 -463 1350 -659 
C 1261 -995 1210 -1204 1210 -1229 
C 1210 -1241 1210 -1280 1274 -1280 
C 1293 -1280 1318 -1280 1331 -1254 
C 1344 -1241 1382 -1089 1408 -1008 
L 1645 -64 
C 2739 -64 3571 854 3571 1680 
C 3571 2343 3085 2816 2374 2816 
L 2752 4390 
z
M 2336 2701 
C 2758 2701 3181 2463 3181 1828 
C 3181 1097 2675 128 1677 50 
L 2336 2701 
z
M 1530 50 
C 1216 50 691 220 691 938 
C 691 1761 1274 2676 2195 2676 
L 1530 50 
z
" transform="scale(0.015625)"/>
       <path id="CMR17-28" d="M 1958 -1561 
C 1958 -1555 1958 -1542 1939 -1523 
C 1645 -1224 858 -407 858 1581 
C 858 3569 1632 4379 1946 4697 
C 1946 4704 1958 4717 1958 4736 
C 1958 4755 1939 4768 1914 4768 
C 1843 4768 1299 4296 986 3594 
C 666 2887 576 2199 576 1588 
C 576 1128 621 351 1005 -471 
C 1312 -1135 1837 -1600 1914 -1600 
C 1946 -1600 1958 -1587 1958 -1561 
z
" transform="scale(0.015625)"/>
       <path id="CMR17-29" d="M 1683 1581 
C 1683 2040 1638 2817 1254 3639 
C 947 4303 422 4768 346 4768 
C 326 4768 301 4761 301 4729 
C 301 4717 307 4710 314 4697 
C 621 4378 1402 3568 1402 1584 
C 1402 -407 627 -1217 314 -1537 
C 307 -1549 301 -1556 301 -1568 
C 301 -1600 326 -1600 346 -1600 
C 416 -1600 960 -1128 1274 -426 
C 1594 281 1683 969 1683 1581 
z
" transform="scale(0.015625)"/>
      </defs>
      <use xlink:href="#CMMI12-1e" transform="scale(0.996264)"/>
      <use xlink:href="#CMR17-28" transform="translate(57.73418 0) scale(0.996264)"/>
      <use xlink:href="#CMMI12-74" transform="translate(93.014948 0) scale(0.996264)"/>
      <use xlink:href="#CMR17-29" transform="translate(128.241278 0) scale(0.996264)"/>
     </g>
    </g>
   </g>
   <g id="line2d_27">
    <path d="M 80.754545 258.880112 
L 81.819925 258.768154 
L 82.920817 258.42685 
L 84.163759 257.803056 
L 85.797341 256.714995 
L 89.100016 254.461923 
L 90.307446 253.945557 
L 91.3018 253.753299 
L 92.225129 253.802543 
L 93.112945 254.080082 
L 94.000761 254.596291 
L 94.959602 255.42533 
L 95.989469 256.619016 
L 97.196899 258.378279 
L 98.68843 260.971235 
L 103.6602 269.971194 
L 104.725579 271.274533 
L 105.613395 272.024147 
L 106.35916 272.380464 
L 107.033901 272.467596 
L 107.673128 272.33196 
L 108.347868 271.950181 
L 109.058121 271.278944 
L 109.839399 270.222239 
L 110.727215 268.628054 
L 111.757082 266.289482 
L 112.964512 262.965119 
L 114.527068 257.965938 
L 119.143712 242.747868 
L 120.280116 239.954427 
L 121.203445 238.228463 
L 121.984723 237.213094 
L 122.623951 236.715468 
L 123.192153 236.539794 
L 123.724842 236.611319 
L 124.257532 236.916428 
L 124.861247 237.547508 
L 125.535987 238.610728 
L 126.317265 240.304452 
L 127.205081 242.804212 
L 128.234948 246.404364 
L 129.477891 251.596815 
L 131.182497 259.772497 
L 135.053375 278.670267 
L 136.296318 283.50126 
L 137.290672 286.540047 
L 138.107463 288.379568 
L 138.782203 289.403786 
L 139.350405 289.89634 
L 139.847582 290.039238 
L 140.309246 289.925732 
L 140.770911 289.572266 
L 141.3036 288.865133 
L 141.907315 287.678403 
L 142.617568 285.768742 
L 143.469872 282.77572 
L 144.464226 278.39304 
L 145.636143 272.166593 
L 147.163186 262.768063 
L 152.099444 231.399572 
L 153.235848 226.027979 
L 154.159177 222.650169 
L 154.940455 220.586807 
L 155.579683 219.487021 
L 156.07686 219.015873 
L 156.503011 218.887104 
L 156.89365 218.995551 
L 157.319802 219.362894 
L 157.816979 220.120388 
L 158.385181 221.416896 
L 159.059921 223.541688 
L 159.8412 226.76479 
L 160.764528 231.555773 
L 161.86542 238.49203 
L 163.285926 248.987563 
L 165.665273 268.590515 
L 167.902569 286.328071 
L 169.216537 295.078119 
L 170.246404 300.583553 
L 171.098707 304.050517 
L 171.80896 306.09954 
L 172.377162 307.152524 
L 172.838827 307.609847 
L 173.229466 307.712072 
L 173.584592 307.57595 
L 173.975231 307.172958 
L 174.436896 306.354739 
L 175.005098 304.843179 
L 175.679838 302.339878 
L 176.461116 298.519097 
L 177.384445 292.818027 
L 178.485337 284.544299 
L 179.87033 272.338468 
L 182.143139 249.973606 
L 184.486973 227.598507 
L 185.836454 216.760436 
L 186.901833 209.902475 
L 187.754136 205.728058 
L 188.464389 203.242551 
L 189.032591 201.94626 
L 189.494256 201.3627 
L 189.849382 201.206051 
L 190.168996 201.284597 
L 190.524122 201.616963 
L 190.950274 202.35647 
L 191.482964 203.800344 
L 192.086679 206.123255 
L 192.832444 209.966664 
L 193.684748 215.600549 
L 194.714614 223.998352 
L 195.993069 236.427601 
L 197.768701 256.151109 
L 201.319966 296.043588 
L 202.633933 308.097267 
L 203.6638 315.653161 
L 204.516103 320.397911 
L 205.226356 323.195939 
L 205.794559 324.631532 
L 206.256223 325.254532 
L 206.611349 325.396291 
L 206.930963 325.270762 
L 207.28609 324.849095 
L 207.712241 323.951439 
L 208.244931 322.233174 
L 208.884158 319.31328 
L 209.629924 314.76698 
L 210.51774 307.857201 
L 211.583119 297.651414 
L 212.897087 282.731749 
L 214.81477 258.06788 
L 217.868857 218.876025 
L 219.218337 204.47297 
L 220.283717 195.340057 
L 221.13602 189.756377 
L 221.846273 186.404172 
L 222.449988 184.543677 
L 222.911652 183.755943 
L 223.266778 183.531525 
L 223.55088 183.592977 
L 223.870493 183.919091 
L 224.261132 184.687121 
L 224.722797 186.11597 
L 225.290999 188.63895 
L 225.965739 192.700436 
L 226.78253 199.087692 
L 227.741371 208.467078 
L 228.913289 222.292979 
L 230.440332 243.198172 
L 235.447615 314.022108 
L 236.584019 326.044282 
L 237.507348 333.705306 
L 238.288626 338.50416 
L 238.927854 341.191629 
L 239.425031 342.476625 
L 239.81567 342.980154 
L 240.099771 343.063328 
L 240.383872 342.906866 
L 240.703486 342.443932 
L 241.094125 341.466346 
L 241.591302 339.572044 
L 242.195017 336.310114 
L 242.90527 331.167487 
L 243.757573 323.243633 
L 244.751927 311.820023 
L 245.994869 294.792814 
L 247.699476 268.035045 
L 251.570354 206.255396 
L 252.848809 189.820764 
L 253.878676 179.26358 
L 254.730979 172.672938 
L 255.441232 168.815492 
L 256.009435 166.859826 
L 256.435586 166.072306 
L 256.7552 165.869417 
L 257.003789 165.942903 
L 257.28789 166.27529 
L 257.643016 167.06313 
L 258.10468 168.702625 
L 258.672883 171.662484 
L 259.347623 176.490675 
L 260.128901 183.776685 
L 261.087742 195.001235 
L 262.224147 211.114279 
L 263.715678 235.750402 
L 269.078087 327.753678 
L 270.178979 341.499801 
L 271.102308 350.447722 
L 271.848073 355.736945 
L 272.451788 358.660021 
L 272.948965 360.118507 
L 273.339604 360.650677 
L 273.623705 360.695028 
L 273.872294 360.496157 
L 274.191907 359.914309 
L 274.582546 358.706276 
L 275.079723 356.385213 
L 275.683438 352.409288 
L 276.393691 346.163772 
L 277.245995 336.568099 
L 278.275861 322.228941 
L 279.518804 301.618872 
L 281.258923 268.689019 
L 284.916725 198.56871 
L 286.230693 178.05888 
L 287.26056 165.183925 
L 288.112863 157.065158 
L 288.823116 152.234776 
L 289.391318 149.710145 
L 289.852983 148.563365 
L 290.172596 148.251915 
L 290.421185 148.284493 
L 290.669773 148.558121 
L 290.989387 149.26402 
L 291.415539 150.822395 
L 291.948228 153.751406 
L 292.587456 158.672132 
L 293.333222 166.271029 
L 294.221038 177.742882 
L 295.286417 194.582802 
L 296.635897 219.75514 
L 298.69563 263.034562 
L 301.430104 319.697968 
L 302.779584 343.16757 
L 303.844964 358.14366 
L 304.73278 367.720093 
L 305.478545 373.493774 
L 306.08226 376.553274 
L 306.543924 377.884953 
L 306.863538 378.286608 
L 307.112127 378.302553 
L 307.360715 378.058398 
L 307.680329 377.362303 
L 308.070968 375.929636 
L 308.568145 373.189337 
L 309.17186 368.50866 
L 309.882113 361.17113 
L 310.734416 349.916436 
L 311.764283 333.123633 
L 313.042738 308.283934 
L 314.81837 268.944982 
L 318.334122 190.363111 
L 319.648089 166.295465 
L 320.677956 151.117152 
L 321.530259 141.482811 
L 322.240512 135.690181 
L 322.808715 132.605161 
L 323.270379 131.145056 
L 323.589993 130.692668 
L 323.838581 130.659007 
L 324.08717 130.904517 
L 324.406783 131.630364 
L 324.797422 133.142025 
L 325.294599 136.050011 
L 325.898314 141.03336 
L 326.608567 148.860951 
L 327.460871 160.88298 
L 328.490737 178.836874 
L 329.769192 205.411426 
L 331.544824 247.520411 
L 335.060576 331.6964 
L 336.374544 357.50329 
L 337.439923 374.285567 
L 338.292226 384.516356 
L 339.002479 390.645745 
L 339.570682 393.890778 
L 340.032346 395.407839 
L 340.35196 395.861013 
L 340.565036 395.889891 
L 340.778111 395.69966 
L 341.062213 395.10514 
L 341.452852 393.653308 
L 341.914516 390.998102 
L 342.482718 386.357192 
L 343.157458 378.940626 
L 343.974249 367.346543 
L 344.933091 350.412784 
L 346.105008 325.58369 
L 347.667564 287.346478 
L 352.355233 169.276515 
L 353.562663 145.966803 
L 354.521504 131.386993 
L 355.338295 122.128313 
L 356.013035 116.855379 
L 356.545725 114.280578 
L 356.936364 113.30394 
L 357.220465 113.083351 
L 357.433541 113.189661 
L 357.682129 113.608383 
L 358.001743 114.61242 
L 358.427895 116.761758 
L 358.960584 120.734793 
L 359.599812 127.341925 
L 360.345577 137.474742 
L 361.233393 152.691613 
L 362.298773 174.929494 
L 363.648253 208.030352 
L 365.779012 266.664433 
L 368.371434 336.59652 
L 369.720915 367.232695 
L 370.786294 386.803889 
L 371.67411 399.345814 
L 372.419876 406.938011 
L 373.023591 410.993134 
L 373.485255 412.78949 
L 373.804869 413.360022 
L 374.017945 413.432329 
L 374.23102 413.25759 
L 374.515122 412.640237 
L 374.870248 411.252317 
L 375.331912 408.431979 
L 375.900115 403.409607 
L 376.574855 395.290496 
L 377.391646 382.499211 
L 378.350487 363.712017 
L 379.522404 336.045188 
L 381.049448 294.296738 
L 385.950192 156.064948 
L 387.122109 131.085826 
L 388.080951 115.053443 
L 388.862229 105.338896 
L 389.501457 99.801786 
L 390.034146 96.916605 
L 390.424785 95.822254 
L 390.708886 95.57492 
L 390.921962 95.693766 
L 391.170551 96.162396 
L 391.490164 97.286252 
L 391.916316 99.691985 
L 392.449006 104.13839 
L 393.088233 111.531315 
L 393.833999 122.866487 
L 394.721815 139.88398 
L 395.787194 164.744484 
L 397.136675 201.732975 
L 399.267433 267.213143 
L 401.824343 344.268719 
L 403.173824 378.600507 
L 404.239203 400.588779 
L 405.127019 414.730267 
L 405.872785 423.33948 
L 406.476499 427.984574 
L 406.938164 430.085935 
L 407.29329 430.832411 
L 407.506366 430.914615 
L 407.719442 430.721875 
L 408.003543 430.037181 
L 408.35867 428.495728 
L 408.820334 425.361712 
L 409.388536 419.779626 
L 410.063276 410.75551 
L 410.880067 396.539804 
L 411.838908 375.664343 
L 413.010826 344.93036 
L 414.537869 298.570373 
L 419.438614 145.196727 
L 420.610531 117.501044 
L 421.569372 99.727373 
L 422.350651 88.957393 
L 422.989878 82.817053 
L 423.522568 79.61511 
L 423.913207 78.397967 
L 424.197308 78.12 
L 424.374871 78.206905 
L 424.62346 78.66566 
L 424.943073 79.832531 
L 425.369225 82.392812 
L 425.901915 87.187086 
L 426.541142 95.219519 
L 427.286908 107.595005 
L 428.174724 126.236554 
L 429.240103 153.53785 
L 430.589584 194.241525 
L 432.684829 265.218028 
L 435.312765 352.72661 
L 435.845455 368.503017 
L 435.845455 368.503017 
" clip-path="url(#p3de62690d2)" style="fill: none; stroke: #000000; stroke-width: 1.5; stroke-linecap: square"/>
   </g>
   <g id="patch_3">
    <path d="M 63 448.56 
L 63 60.48 
" style="fill: none; stroke: #000000; stroke-width: 1.5; stroke-linejoin: miter; stroke-linecap: square"/>
   </g>
   <g id="patch_4">
    <path d="M 453.6 448.56 
L 453.6 60.48 
" style="fill: none; stroke: #000000; stroke-width: 1.5; stroke-linejoin: miter; stroke-linecap: square"/>
   </g>
   <g id="patch_5">
    <path d="M 63 448.56 
L 453.6 448.56 
" style="fill: none; stroke: #000000; stroke-width: 1.5; stroke-linejoin: miter; stroke-linecap: square"/>
   </g>
   <g id="patch_6">
    <path d="M 63 60.48 
L 453.6 60.48 
" style="fill: none; stroke: #000000; stroke-width: 1.5; stroke-linejoin: miter; stroke-linecap: square"/>
   </g>
  </g>
 </g>
 <defs>
  <clipPath id="p3de62690d2">
   <rect x="63" y="60.48" width="390.6" height="388.08"/>
  </clipPath>
 </defs>
</svg>
