<?xml version="1.0" encoding="utf-8" standalone="no"?>
<!DOCTYPE svg PUBLIC "-//W3C//DTD SVG 1.1//EN"
  "http://www.w3.org/Graphics/SVG/1.1/DTD/svg11.dtd">
<svg xmlns:xlink="http://www.w3.org/1999/xlink" width="504pt" height="504pt" viewBox="0 0 504 504" xmlns="http://www.w3.org/2000/svg" version="1.1">
 <metadata>
  <rdf:RDF xmlns:dc="http://purl.org/dc/elements/1.1/" xmlns:cc="http://creativecommons.org/ns#" xmlns:rdf="http://www.w3.org/1999/02/22-rdf-syntax-ns#">
   <cc:Work>
    <dc:type rdf:resource="http://purl.org/dc/dcmitype/StillImage"/>
    <dc:date>2023-08-29T17:37:36.501262</dc:date>
    <dc:format>image/svg+xml</dc:format>
    <dc:creator>
     <cc:Agent>
      <dc:title>Matplotlib v3.7.2, https://matplotlib.org/</dc:title>
     </cc:Agent>
    </dc:creator>
   </cc:Work>
  </rdf:RDF>
 </metadata>
 <defs>
  <style type="text/css">*{stroke-linejoin: round; stroke-linecap: butt}</style>
 </defs>
 <g id="figure_1">
  <g id="patch_1">
   <path d="M 0 504 
L 504 504 
L 504 0 
L 0 0 
z
" style="fill: #ffffff"/>
  </g>
  <g id="axes_1">
   <g id="patch_2">
    <path d="M 63 448.56 
L 453.6 448.56 
L 453.6 60.48 
L 63 60.48 
z
" style="fill: #ffffff"/>
   </g>
   <g id="matplotlib.axis_1">
    <g id="xtick_1">
     <g id="line2d_1">
      <path d="M 80.754545 448.56 
L 80.754545 60.48 
" clip-path="url(#p26bcd05b0c)" style="fill: none; stroke: #b0b0b0; stroke-width: 0.8; stroke-linecap: square"/>
     </g>
     <g id="line2d_2">
      <defs>
       <path id="mc3b8c23ec0" d="M 0 0 
L 0 4 
" style="stroke: #000000; stroke-width: 1.5"/>
      </defs>
      <g>
       <use xlink:href="#mc3b8c23ec0" x="80.754545" y="448.56" style="stroke: #000000; stroke-width: 1.5"/>
      </g>
     </g>
     <g id="text_1">
      <!-- $\mathdefault{0}$ -->
      <g transform="translate(77.096427 466.437725) scale(0.15 -0.15)">
       <defs>
        <path id="CMR17-30" d="M 2688 2025 
C 2688 2416 2682 3080 2413 3591 
C 2176 4039 1798 4198 1466 4198 
C 1158 4198 768 4058 525 3597 
C 269 3118 243 2524 243 2025 
C 243 1661 250 1106 448 619 
C 723 -39 1216 -128 1466 -128 
C 1760 -128 2208 -7 2470 600 
C 2662 1042 2688 1559 2688 2025 
z
M 1466 -26 
C 1056 -26 813 325 723 812 
C 653 1188 653 1738 653 2096 
C 653 2588 653 2997 736 3387 
C 858 3929 1216 4096 1466 4096 
C 1728 4096 2067 3923 2189 3400 
C 2272 3036 2278 2607 2278 2096 
C 2278 1680 2278 1169 2202 792 
C 2067 95 1690 -26 1466 -26 
z
" transform="scale(0.015625)"/>
       </defs>
       <use xlink:href="#CMR17-30" transform="scale(0.996264)"/>
      </g>
     </g>
    </g>
    <g id="xtick_2">
     <g id="line2d_3">
      <path d="M 139.936364 448.56 
L 139.936364 60.48 
" clip-path="url(#p26bcd05b0c)" style="fill: none; stroke: #b0b0b0; stroke-width: 0.8; stroke-linecap: square"/>
     </g>
     <g id="line2d_4">
      <g>
       <use xlink:href="#mc3b8c23ec0" x="139.936364" y="448.56" style="stroke: #000000; stroke-width: 1.5"/>
      </g>
     </g>
     <g id="text_2">
      <!-- $\mathdefault{5}$ -->
      <g transform="translate(136.278245 466.437725) scale(0.15 -0.15)">
       <defs>
        <path id="CMR17-35" d="M 730 3692 
C 794 3666 1056 3584 1325 3584 
C 1920 3584 2246 3911 2432 4100 
C 2432 4157 2432 4192 2394 4192 
C 2387 4192 2374 4192 2323 4163 
C 2099 4058 1837 3973 1517 3973 
C 1325 3973 1037 3999 723 4139 
C 653 4171 640 4171 634 4171 
C 602 4171 595 4164 595 4037 
L 595 2203 
C 595 2089 595 2057 659 2057 
C 691 2057 704 2070 736 2114 
C 941 2401 1222 2522 1542 2522 
C 1766 2522 2246 2382 2246 1289 
C 2246 1085 2246 715 2054 421 
C 1894 159 1645 25 1370 25 
C 947 25 518 320 403 814 
C 429 807 480 795 506 795 
C 589 795 749 840 749 1038 
C 749 1210 627 1280 506 1280 
C 358 1280 262 1190 262 1011 
C 262 454 704 -128 1382 -128 
C 2042 -128 2669 440 2669 1264 
C 2669 2030 2170 2624 1549 2624 
C 1222 2624 947 2503 730 2274 
L 730 3692 
z
" transform="scale(0.015625)"/>
       </defs>
       <use xlink:href="#CMR17-35" transform="scale(0.996264)"/>
      </g>
     </g>
    </g>
    <g id="xtick_3">
     <g id="line2d_5">
      <path d="M 199.118182 448.56 
L 199.118182 60.48 
" clip-path="url(#p26bcd05b0c)" style="fill: none; stroke: #b0b0b0; stroke-width: 0.8; stroke-linecap: square"/>
     </g>
     <g id="line2d_6">
      <g>
       <use xlink:href="#mc3b8c23ec0" x="199.118182" y="448.56" style="stroke: #000000; stroke-width: 1.5"/>
      </g>
     </g>
     <g id="text_3">
      <!-- $\mathdefault{10}$ -->
      <g transform="translate(191.801944 466.437725) scale(0.15 -0.15)">
       <defs>
        <path id="CMR17-31" d="M 1702 4058 
C 1702 4192 1696 4192 1606 4192 
C 1357 3916 979 3827 621 3827 
C 602 3827 570 3827 563 3808 
C 557 3795 557 3782 557 3648 
C 755 3648 1088 3686 1344 3839 
L 1344 461 
C 1344 236 1331 160 781 160 
L 589 160 
L 589 0 
C 896 0 1216 0 1523 0 
C 1830 0 2150 0 2458 0 
L 2458 160 
L 2266 160 
C 1715 160 1702 230 1702 458 
L 1702 4058 
z
" transform="scale(0.015625)"/>
       </defs>
       <use xlink:href="#CMR17-31" transform="scale(0.996264)"/>
       <use xlink:href="#CMR17-30" transform="translate(45.690477 0) scale(0.996264)"/>
      </g>
     </g>
    </g>
    <g id="xtick_4">
     <g id="line2d_7">
      <path d="M 258.3 448.56 
L 258.3 60.48 
" clip-path="url(#p26bcd05b0c)" style="fill: none; stroke: #b0b0b0; stroke-width: 0.8; stroke-linecap: square"/>
     </g>
     <g id="line2d_8">
      <g>
       <use xlink:href="#mc3b8c23ec0" x="258.3" y="448.56" style="stroke: #000000; stroke-width: 1.5"/>
      </g>
     </g>
     <g id="text_4">
      <!-- $\mathdefault{15}$ -->
      <g transform="translate(250.983762 466.437725) scale(0.15 -0.15)">
       <use xlink:href="#CMR17-31" transform="scale(0.996264)"/>
       <use xlink:href="#CMR17-35" transform="translate(45.690477 0) scale(0.996264)"/>
      </g>
     </g>
    </g>
    <g id="xtick_5">
     <g id="line2d_9">
      <path d="M 317.481818 448.56 
L 317.481818 60.48 
" clip-path="url(#p26bcd05b0c)" style="fill: none; stroke: #b0b0b0; stroke-width: 0.8; stroke-linecap: square"/>
     </g>
     <g id="line2d_10">
      <g>
       <use xlink:href="#mc3b8c23ec0" x="317.481818" y="448.56" style="stroke: #000000; stroke-width: 1.5"/>
      </g>
     </g>
     <g id="text_5">
      <!-- $\mathdefault{20}$ -->
      <g transform="translate(310.16558 466.437725) scale(0.15 -0.15)">
       <defs>
        <path id="CMR17-32" d="M 2669 989 
L 2554 989 
C 2490 536 2438 459 2413 420 
C 2381 369 1920 369 1830 369 
L 602 369 
C 832 619 1280 1072 1824 1597 
C 2214 1967 2669 2402 2669 3035 
C 2669 3790 2067 4224 1395 4224 
C 691 4224 262 3604 262 3030 
C 262 2780 448 2748 525 2748 
C 589 2748 781 2787 781 3010 
C 781 3207 614 3264 525 3264 
C 486 3264 448 3258 422 3245 
C 544 3790 915 4058 1306 4058 
C 1862 4058 2227 3617 2227 3035 
C 2227 2479 1901 2000 1536 1584 
L 262 146 
L 262 0 
L 2515 0 
L 2669 989 
z
" transform="scale(0.015625)"/>
       </defs>
       <use xlink:href="#CMR17-32" transform="scale(0.996264)"/>
       <use xlink:href="#CMR17-30" transform="translate(45.690477 0) scale(0.996264)"/>
      </g>
     </g>
    </g>
    <g id="xtick_6">
     <g id="line2d_11">
      <path d="M 376.663636 448.56 
L 376.663636 60.48 
" clip-path="url(#p26bcd05b0c)" style="fill: none; stroke: #b0b0b0; stroke-width: 0.8; stroke-linecap: square"/>
     </g>
     <g id="line2d_12">
      <g>
       <use xlink:href="#mc3b8c23ec0" x="376.663636" y="448.56" style="stroke: #000000; stroke-width: 1.5"/>
      </g>
     </g>
     <g id="text_6">
      <!-- $\mathdefault{25}$ -->
      <g transform="translate(369.347399 466.437725) scale(0.15 -0.15)">
       <use xlink:href="#CMR17-32" transform="scale(0.996264)"/>
       <use xlink:href="#CMR17-35" transform="translate(45.690477 0) scale(0.996264)"/>
      </g>
     </g>
    </g>
    <g id="xtick_7">
     <g id="line2d_13">
      <path d="M 435.845455 448.56 
L 435.845455 60.48 
" clip-path="url(#p26bcd05b0c)" style="fill: none; stroke: #b0b0b0; stroke-width: 0.8; stroke-linecap: square"/>
     </g>
     <g id="line2d_14">
      <g>
       <use xlink:href="#mc3b8c23ec0" x="435.845455" y="448.56" style="stroke: #000000; stroke-width: 1.5"/>
      </g>
     </g>
     <g id="text_7">
      <!-- $\mathdefault{30}$ -->
      <g transform="translate(428.529217 466.437725) scale(0.15 -0.15)">
       <defs>
        <path id="CMR17-33" d="M 1414 2157 
C 1984 2157 2234 1662 2234 1090 
C 2234 320 1824 25 1453 25 
C 1114 25 563 194 390 693 
C 422 680 454 680 486 680 
C 640 680 755 782 755 948 
C 755 1133 614 1216 486 1216 
C 378 1216 211 1165 211 926 
C 211 335 787 -128 1466 -128 
C 2176 -128 2720 430 2720 1085 
C 2720 1707 2208 2157 1600 2227 
C 2086 2328 2554 2756 2554 3329 
C 2554 3820 2048 4179 1472 4179 
C 890 4179 378 3829 378 3329 
C 378 3110 544 3072 627 3072 
C 762 3072 877 3155 877 3321 
C 877 3486 762 3569 627 3569 
C 602 3569 570 3569 544 3557 
C 730 3959 1235 4032 1459 4032 
C 1683 4032 2106 3925 2106 3320 
C 2106 3143 2080 2828 1862 2550 
C 1670 2304 1453 2304 1242 2284 
C 1210 2284 1062 2269 1037 2269 
C 992 2263 966 2257 966 2208 
C 966 2163 973 2157 1101 2157 
L 1414 2157 
z
" transform="scale(0.015625)"/>
       </defs>
       <use xlink:href="#CMR17-33" transform="scale(0.996264)"/>
       <use xlink:href="#CMR17-30" transform="translate(45.690477 0) scale(0.996264)"/>
      </g>
     </g>
    </g>
    <g id="text_8">
     <!-- $t$ -->
     <g transform="translate(255.481894 484.413058) scale(0.16 -0.16)">
      <defs>
       <path id="CMMI12-74" d="M 1286 2566 
L 1875 2566 
C 1997 2566 2061 2566 2061 2681 
C 2061 2752 2022 2752 1894 2752 
L 1331 2752 
L 1568 3692 
C 1594 3781 1594 3794 1594 3840 
C 1594 3943 1510 4000 1427 4000 
C 1376 4000 1229 3981 1178 3775 
L 928 2752 
L 326 2752 
C 198 2752 141 2752 141 2630 
C 141 2566 186 2566 307 2566 
L 877 2566 
L 454 881 
C 403 658 384 594 384 511 
C 384 211 595 -64 954 -64 
C 1600 -64 1946 868 1946 912 
C 1946 951 1920 970 1882 970 
C 1869 970 1843 970 1830 944 
C 1824 938 1818 931 1773 829 
C 1638 511 1344 64 973 64 
C 781 64 768 224 768 364 
C 768 370 768 492 787 568 
L 1286 2566 
z
" transform="scale(0.015625)"/>
      </defs>
      <use xlink:href="#CMMI12-74" transform="scale(0.996264)"/>
     </g>
    </g>
   </g>
   <g id="matplotlib.axis_2">
    <g id="ytick_1">
     <g id="line2d_15">
      <path d="M 63 441.829219 
L 453.6 441.829219 
" clip-path="url(#p26bcd05b0c)" style="fill: none; stroke: #b0b0b0; stroke-width: 0.8; stroke-linecap: square"/>
     </g>
     <g id="line2d_16">
      <defs>
       <path id="m76493bd541" d="M 0 0 
L -4 0 
" style="stroke: #000000; stroke-width: 1.5"/>
      </defs>
      <g>
       <use xlink:href="#m76493bd541" x="63" y="441.829219" style="stroke: #000000; stroke-width: 1.5"/>
      </g>
     </g>
     <g id="text_9">
      <!-- $\mathdefault{−0.8}$ -->
      <g transform="translate(25.179832 447.018081) scale(0.15 -0.15)">
       <defs>
        <path id="CMSY10-0" d="M 4218 1472 
C 4326 1472 4442 1472 4442 1600 
C 4442 1728 4326 1728 4218 1728 
L 755 1728 
C 646 1728 531 1728 531 1600 
C 531 1472 646 1472 755 1472 
L 4218 1472 
z
" transform="scale(0.015625)"/>
        <path id="CMMI12-3a" d="M 1178 307 
C 1178 492 1024 619 870 619 
C 685 619 557 466 557 313 
C 557 128 710 0 864 0 
C 1050 0 1178 153 1178 307 
z
" transform="scale(0.015625)"/>
        <path id="CMR17-38" d="M 1741 2264 
C 2144 2467 2554 2773 2554 3263 
C 2554 3841 1990 4179 1472 4179 
C 890 4179 378 3759 378 3180 
C 378 3021 416 2747 666 2505 
C 730 2442 998 2251 1171 2130 
C 883 1983 211 1634 211 934 
C 211 279 838 -128 1459 -128 
C 2144 -128 2720 362 2720 1010 
C 2720 1590 2330 1857 2074 2029 
L 1741 2264 
z
M 902 2822 
C 851 2854 595 3051 595 3351 
C 595 3739 998 4032 1459 4032 
C 1965 4032 2336 3676 2336 3262 
C 2336 2669 1670 2331 1638 2331 
C 1632 2331 1626 2331 1574 2370 
L 902 2822 
z
M 2080 1519 
C 2176 1449 2483 1240 2483 851 
C 2483 381 2010 25 1472 25 
C 890 25 448 438 448 940 
C 448 1443 838 1862 1280 2060 
L 2080 1519 
z
" transform="scale(0.015625)"/>
       </defs>
       <use xlink:href="#CMSY10-0" transform="scale(0.996264)"/>
       <use xlink:href="#CMR17-30" transform="translate(77.487468 0) scale(0.996264)"/>
       <use xlink:href="#CMMI12-3a" transform="translate(123.177945 0) scale(0.996264)"/>
       <use xlink:href="#CMR17-38" transform="translate(150.275122 0) scale(0.996264)"/>
      </g>
     </g>
    </g>
    <g id="ytick_2">
     <g id="line2d_17">
      <path d="M 63 396.100597 
L 453.6 396.100597 
" clip-path="url(#p26bcd05b0c)" style="fill: none; stroke: #b0b0b0; stroke-width: 0.8; stroke-linecap: square"/>
     </g>
     <g id="line2d_18">
      <g>
       <use xlink:href="#m76493bd541" x="63" y="396.100597" style="stroke: #000000; stroke-width: 1.5"/>
      </g>
     </g>
     <g id="text_10">
      <!-- $\mathdefault{−0.6}$ -->
      <g transform="translate(25.179832 401.289459) scale(0.15 -0.15)">
       <defs>
        <path id="CMR17-36" d="M 678 2176 
C 678 3690 1395 4032 1811 4032 
C 1946 4032 2272 4009 2400 3776 
C 2298 3776 2106 3776 2106 3553 
C 2106 3381 2246 3323 2336 3323 
C 2394 3323 2566 3348 2566 3560 
C 2566 3954 2246 4179 1805 4179 
C 1043 4179 243 3390 243 1984 
C 243 253 966 -128 1478 -128 
C 2099 -128 2688 427 2688 1283 
C 2688 2081 2170 2662 1517 2662 
C 1126 2662 838 2407 678 1960 
L 678 2176 
z
M 1478 25 
C 691 25 691 1200 691 1436 
C 691 1896 909 2560 1504 2560 
C 1613 2560 1926 2560 2138 2120 
C 2253 1870 2253 1609 2253 1289 
C 2253 944 2253 690 2118 434 
C 1978 171 1773 25 1478 25 
z
" transform="scale(0.015625)"/>
       </defs>
       <use xlink:href="#CMSY10-0" transform="scale(0.996264)"/>
       <use xlink:href="#CMR17-30" transform="translate(77.487468 0) scale(0.996264)"/>
       <use xlink:href="#CMMI12-3a" transform="translate(123.177945 0) scale(0.996264)"/>
       <use xlink:href="#CMR17-36" transform="translate(150.275122 0) scale(0.996264)"/>
      </g>
     </g>
    </g>
    <g id="ytick_3">
     <g id="line2d_19">
      <path d="M 63 350.371974 
L 453.6 350.371974 
" clip-path="url(#p26bcd05b0c)" style="fill: none; stroke: #b0b0b0; stroke-width: 0.8; stroke-linecap: square"/>
     </g>
     <g id="line2d_20">
      <g>
       <use xlink:href="#m76493bd541" x="63" y="350.371974" style="stroke: #000000; stroke-width: 1.5"/>
      </g>
     </g>
     <g id="text_11">
      <!-- $\mathdefault{−0.4}$ -->
      <g transform="translate(25.179832 355.560837) scale(0.15 -0.15)">
       <defs>
        <path id="CMR17-34" d="M 2150 4122 
C 2150 4256 2144 4256 2029 4256 
L 128 1254 
L 128 1088 
L 1779 1088 
L 1779 457 
C 1779 224 1766 160 1318 160 
L 1197 160 
L 1197 0 
C 1402 0 1747 0 1965 0 
C 2182 0 2528 0 2733 0 
L 2733 160 
L 2611 160 
C 2163 160 2150 224 2150 457 
L 2150 1088 
L 2803 1088 
L 2803 1254 
L 2150 1254 
L 2150 4122 
z
M 1798 3703 
L 1798 1254 
L 256 1254 
L 1798 3703 
z
" transform="scale(0.015625)"/>
       </defs>
       <use xlink:href="#CMSY10-0" transform="scale(0.996264)"/>
       <use xlink:href="#CMR17-30" transform="translate(77.487468 0) scale(0.996264)"/>
       <use xlink:href="#CMMI12-3a" transform="translate(123.177945 0) scale(0.996264)"/>
       <use xlink:href="#CMR17-34" transform="translate(150.275122 0) scale(0.996264)"/>
      </g>
     </g>
    </g>
    <g id="ytick_4">
     <g id="line2d_21">
      <path d="M 63 304.643352 
L 453.6 304.643352 
" clip-path="url(#p26bcd05b0c)" style="fill: none; stroke: #b0b0b0; stroke-width: 0.8; stroke-linecap: square"/>
     </g>
     <g id="line2d_22">
      <g>
       <use xlink:href="#m76493bd541" x="63" y="304.643352" style="stroke: #000000; stroke-width: 1.5"/>
      </g>
     </g>
     <g id="text_12">
      <!-- $\mathdefault{−0.2}$ -->
      <g transform="translate(25.179832 309.832215) scale(0.15 -0.15)">
       <use xlink:href="#CMSY10-0" transform="scale(0.996264)"/>
       <use xlink:href="#CMR17-30" transform="translate(77.487468 0) scale(0.996264)"/>
       <use xlink:href="#CMMI12-3a" transform="translate(123.177945 0) scale(0.996264)"/>
       <use xlink:href="#CMR17-32" transform="translate(150.275122 0) scale(0.996264)"/>
      </g>
     </g>
    </g>
    <g id="ytick_5">
     <g id="line2d_23">
      <path d="M 63 258.91473 
L 453.6 258.91473 
" clip-path="url(#p26bcd05b0c)" style="fill: none; stroke: #b0b0b0; stroke-width: 0.8; stroke-linecap: square"/>
     </g>
     <g id="line2d_24">
      <g>
       <use xlink:href="#m76493bd541" x="63" y="258.91473" style="stroke: #000000; stroke-width: 1.5"/>
      </g>
     </g>
     <g id="text_13">
      <!-- $\mathdefault{0.0}$ -->
      <g transform="translate(36.802948 264.103592) scale(0.15 -0.15)">
       <use xlink:href="#CMR17-30" transform="scale(0.996264)"/>
       <use xlink:href="#CMMI12-3a" transform="translate(45.690477 0) scale(0.996264)"/>
       <use xlink:href="#CMR17-30" transform="translate(72.787654 0) scale(0.996264)"/>
      </g>
     </g>
    </g>
    <g id="ytick_6">
     <g id="line2d_25">
      <path d="M 63 213.186108 
L 453.6 213.186108 
" clip-path="url(#p26bcd05b0c)" style="fill: none; stroke: #b0b0b0; stroke-width: 0.8; stroke-linecap: square"/>
     </g>
     <g id="line2d_26">
      <g>
       <use xlink:href="#m76493bd541" x="63" y="213.186108" style="stroke: #000000; stroke-width: 1.5"/>
      </g>
     </g>
     <g id="text_14">
      <!-- $\mathdefault{0.2}$ -->
      <g transform="translate(36.802948 218.37497) scale(0.15 -0.15)">
       <use xlink:href="#CMR17-30" transform="scale(0.996264)"/>
       <use xlink:href="#CMMI12-3a" transform="translate(45.690477 0) scale(0.996264)"/>
       <use xlink:href="#CMR17-32" transform="translate(72.787654 0) scale(0.996264)"/>
      </g>
     </g>
    </g>
    <g id="ytick_7">
     <g id="line2d_27">
      <path d="M 63 167.457486 
L 453.6 167.457486 
" clip-path="url(#p26bcd05b0c)" style="fill: none; stroke: #b0b0b0; stroke-width: 0.8; stroke-linecap: square"/>
     </g>
     <g id="line2d_28">
      <g>
       <use xlink:href="#m76493bd541" x="63" y="167.457486" style="stroke: #000000; stroke-width: 1.5"/>
      </g>
     </g>
     <g id="text_15">
      <!-- $\mathdefault{0.4}$ -->
      <g transform="translate(36.802948 172.646348) scale(0.15 -0.15)">
       <use xlink:href="#CMR17-30" transform="scale(0.996264)"/>
       <use xlink:href="#CMMI12-3a" transform="translate(45.690477 0) scale(0.996264)"/>
       <use xlink:href="#CMR17-34" transform="translate(72.787654 0) scale(0.996264)"/>
      </g>
     </g>
    </g>
    <g id="ytick_8">
     <g id="line2d_29">
      <path d="M 63 121.728863 
L 453.6 121.728863 
" clip-path="url(#p26bcd05b0c)" style="fill: none; stroke: #b0b0b0; stroke-width: 0.8; stroke-linecap: square"/>
     </g>
     <g id="line2d_30">
      <g>
       <use xlink:href="#m76493bd541" x="63" y="121.728863" style="stroke: #000000; stroke-width: 1.5"/>
      </g>
     </g>
     <g id="text_16">
      <!-- $\mathdefault{0.6}$ -->
      <g transform="translate(36.802948 126.917726) scale(0.15 -0.15)">
       <use xlink:href="#CMR17-30" transform="scale(0.996264)"/>
       <use xlink:href="#CMMI12-3a" transform="translate(45.690477 0) scale(0.996264)"/>
       <use xlink:href="#CMR17-36" transform="translate(72.787654 0) scale(0.996264)"/>
      </g>
     </g>
    </g>
    <g id="ytick_9">
     <g id="line2d_31">
      <path d="M 63 76.000241 
L 453.6 76.000241 
" clip-path="url(#p26bcd05b0c)" style="fill: none; stroke: #b0b0b0; stroke-width: 0.8; stroke-linecap: square"/>
     </g>
     <g id="line2d_32">
      <g>
       <use xlink:href="#m76493bd541" x="63" y="76.000241" style="stroke: #000000; stroke-width: 1.5"/>
      </g>
     </g>
     <g id="text_17">
      <!-- $\mathdefault{0.8}$ -->
      <g transform="translate(36.802948 81.189104) scale(0.15 -0.15)">
       <use xlink:href="#CMR17-30" transform="scale(0.996264)"/>
       <use xlink:href="#CMMI12-3a" transform="translate(45.690477 0) scale(0.996264)"/>
       <use xlink:href="#CMR17-38" transform="translate(72.787654 0) scale(0.996264)"/>
      </g>
     </g>
    </g>
    <g id="text_18">
     <!-- $\phi(t)$ -->
     <g transform="translate(17.194776 268.026609) rotate(-90) scale(0.16 -0.16)">
      <defs>
       <path id="CMMI12-1e" d="M 2752 4390 
C 2752 4448 2707 4448 2688 4448 
C 2630 4448 2624 4435 2598 4326 
L 2253 2939 
C 2234 2856 2227 2849 2221 2843 
C 2214 2830 2170 2824 2157 2824 
C 1107 2734 301 1864 301 1057 
C 301 361 832 -64 1498 -64 
C 1446 -261 1402 -463 1350 -659 
C 1261 -995 1210 -1204 1210 -1229 
C 1210 -1241 1210 -1280 1274 -1280 
C 1293 -1280 1318 -1280 1331 -1254 
C 1344 -1241 1382 -1089 1408 -1008 
L 1645 -64 
C 2739 -64 3571 854 3571 1680 
C 3571 2343 3085 2816 2374 2816 
L 2752 4390 
z
M 2336 2701 
C 2758 2701 3181 2463 3181 1828 
C 3181 1097 2675 128 1677 50 
L 2336 2701 
z
M 1530 50 
C 1216 50 691 220 691 938 
C 691 1761 1274 2676 2195 2676 
L 1530 50 
z
" transform="scale(0.015625)"/>
       <path id="CMR17-28" d="M 1958 -1561 
C 1958 -1555 1958 -1542 1939 -1523 
C 1645 -1224 858 -407 858 1581 
C 858 3569 1632 4379 1946 4697 
C 1946 4704 1958 4717 1958 4736 
C 1958 4755 1939 4768 1914 4768 
C 1843 4768 1299 4296 986 3594 
C 666 2887 576 2199 576 1588 
C 576 1128 621 351 1005 -471 
C 1312 -1135 1837 -1600 1914 -1600 
C 1946 -1600 1958 -1587 1958 -1561 
z
" transform="scale(0.015625)"/>
       <path id="CMR17-29" d="M 1683 1581 
C 1683 2040 1638 2817 1254 3639 
C 947 4303 422 4768 346 4768 
C 326 4768 301 4761 301 4729 
C 301 4717 307 4710 314 4697 
C 621 4378 1402 3568 1402 1584 
C 1402 -407 627 -1217 314 -1537 
C 307 -1549 301 -1556 301 -1568 
C 301 -1600 326 -1600 346 -1600 
C 416 -1600 960 -1128 1274 -426 
C 1594 281 1683 969 1683 1581 
z
" transform="scale(0.015625)"/>
      </defs>
      <use xlink:href="#CMMI12-1e" transform="scale(0.996264)"/>
      <use xlink:href="#CMR17-28" transform="translate(57.73418 0) scale(0.996264)"/>
      <use xlink:href="#CMMI12-74" transform="translate(93.014948 0) scale(0.996264)"/>
      <use xlink:href="#CMR17-29" transform="translate(128.241278 0) scale(0.996264)"/>
     </g>
    </g>
   </g>
   <g id="line2d_33">
    <path d="M 80.754545 258.91473 
L 81.819925 258.80351 
L 82.920817 258.464428 
L 84.163759 257.844584 
L 85.797341 256.762992 
L 89.100016 254.519864 
L 90.307446 254.003512 
L 91.3018 253.80907 
L 92.225129 253.854326 
L 93.112945 254.126209 
L 94.000761 254.635036 
L 94.959602 255.454359 
L 95.989469 256.635977 
L 97.196899 258.379723 
L 98.68843 260.953208 
L 103.731225 270.018336 
L 104.796604 271.300063 
L 105.68442 272.031454 
L 106.430186 272.372889 
L 107.104926 272.447277 
L 107.744154 272.300488 
L 108.418894 271.908183 
L 109.129147 271.227532 
L 109.910425 270.162757 
L 110.798241 268.562654 
L 111.828107 266.221911 
L 113.07105 262.795912 
L 114.669119 257.678885 
L 119.072686 243.182508 
L 120.244604 240.254543 
L 121.167932 238.48636 
L 121.94921 237.426832 
L 122.623951 236.866943 
L 123.192153 236.666774 
L 123.724842 236.713109 
L 124.257532 236.991096 
L 124.825734 237.545877 
L 125.464962 238.488577 
L 126.210727 240.007963 
L 127.063031 242.276099 
L 128.057385 245.585146 
L 129.264815 250.432329 
L 130.827371 257.707746 
L 135.550552 280.380991 
L 136.72247 284.602852 
L 137.645798 287.164656 
L 138.427076 288.721041 
L 139.066304 289.539518 
L 139.598994 289.891837 
L 140.060658 289.946989 
L 140.522322 289.76551 
L 141.019499 289.302919 
L 141.587701 288.434686 
L 142.226929 287.029453 
L 142.972695 284.832036 
L 143.860511 281.473854 
L 144.890377 276.662421 
L 146.168832 269.548354 
L 147.944464 258.250662 
L 151.531241 235.173363 
L 152.809696 228.496805 
L 153.839563 224.223875 
L 154.691866 221.5856 
L 155.366607 220.137871 
L 155.934809 219.38618 
L 156.396473 219.101671 
L 156.787112 219.094169 
L 157.177751 219.302891 
L 157.639416 219.829709 
L 158.172105 220.813981 
L 158.811333 222.520924 
L 159.557098 225.216636 
L 160.409402 229.176405 
L 161.439268 235.094853 
L 162.682211 243.622556 
L 164.386818 257.019177 
L 168.257696 287.958788 
L 169.536151 296.150235 
L 170.530505 301.209166 
L 171.347296 304.342929 
L 172.022036 306.164741 
L 172.590238 307.128294 
L 173.051902 307.513671 
L 173.442542 307.555977 
L 173.797668 307.366448 
L 174.22382 306.85127 
L 174.720997 305.854306 
L 175.324712 304.076848 
L 176.034964 301.210101 
L 176.851755 296.926495 
L 177.810597 290.662175 
L 178.982514 281.448459 
L 180.509557 267.529282 
L 185.51684 220.389368 
L 186.653244 212.419639 
L 187.576573 207.370865 
L 188.357851 204.241801 
L 188.997079 202.524536 
L 189.494256 201.73769 
L 189.884895 201.464841 
L 190.240021 201.484051 
L 190.595148 201.759436 
L 191.021299 202.428562 
L 191.518476 203.67406 
L 192.122191 205.850053 
L 192.832444 209.314822 
L 193.684748 214.694912 
L 194.679102 222.503321 
L 195.886531 233.857321 
L 197.520113 251.545945 
L 201.817143 299.228978 
L 203.060085 310.05227 
L 204.054439 316.882726 
L 204.87123 321.068748 
L 205.54597 323.466267 
L 206.07866 324.645387 
L 206.504811 325.122067 
L 206.824425 325.203305 
L 207.144039 325.045998 
L 207.499165 324.59069 
L 207.925317 323.655197 
L 208.458007 321.893873 
L 209.097234 318.929079 
L 209.843 314.340495 
L 210.730816 307.395488 
L 211.796195 297.169973 
L 213.110163 282.259832 
L 215.063358 257.20112 
L 218.04642 219.121559 
L 219.3959 204.76825 
L 220.46128 195.657056 
L 221.349096 189.88139 
L 222.059349 186.584879 
L 222.627551 184.848621 
L 223.089215 184.048106 
L 223.444342 183.811444 
L 223.728443 183.861621 
L 224.048057 184.173514 
L 224.438696 184.922023 
L 224.90036 186.324901 
L 225.468562 188.811899 
L 226.143303 192.825498 
L 226.960093 199.14853 
L 227.918935 208.446169 
L 229.090852 222.167615 
L 230.617895 242.939911 
L 235.660691 313.943805 
L 236.797095 325.903922 
L 237.720424 333.525631 
L 238.501702 338.300567 
L 239.14093 340.97551 
L 239.638107 342.255389 
L 240.028746 342.75781 
L 240.312847 342.841806 
L 240.596948 342.687541 
L 240.916562 342.228718 
L 241.307201 341.258493 
L 241.804378 339.377213 
L 242.408093 336.136404 
L 243.118345 331.025629 
L 243.970649 323.148953 
L 244.965003 311.79059 
L 246.207945 294.855608 
L 247.912552 268.230722 
L 251.818943 206.180308 
L 253.097398 189.860173 
L 254.127265 179.388821 
L 254.979568 172.861503 
L 255.654308 169.203752 
L 256.22251 167.215695 
L 256.648662 166.399474 
L 256.968276 166.172683 
L 257.216864 166.226223 
L 257.500966 166.534422 
L 257.856092 167.290037 
L 258.317756 168.88456 
L 258.885959 171.784786 
L 259.560699 176.537005 
L 260.341977 183.729815 
L 261.265306 194.382948 
L 262.40171 210.269037 
L 263.857729 234.04193 
L 266.84079 287.648991 
L 268.651935 317.739098 
L 269.894878 334.995399 
L 270.889232 346.025484 
L 271.741535 353.170595 
L 272.416275 357.170257 
L 272.984478 359.340812 
L 273.410629 360.229246 
L 273.730243 360.473482 
L 273.978832 360.411697 
L 274.262933 360.070728 
L 274.618059 359.239275 
L 275.079723 357.488779 
L 275.647926 354.309214 
L 276.322666 349.104292 
L 277.103944 341.232407 
L 278.027273 329.581753 
L 279.163677 312.220625 
L 280.619696 286.261115 
L 283.744808 225.065447 
L 285.484928 193.847952 
L 286.72787 175.282978 
L 287.722224 163.498544 
L 288.539015 156.201345 
L 289.213755 151.942512 
L 289.781957 149.661772 
L 290.208109 148.75642 
L 290.527723 148.536571 
L 290.776311 148.639245 
L 291.060412 149.050306 
L 291.415539 150.004118 
L 291.877203 151.970521 
L 292.445405 155.50173 
L 293.120146 161.242044 
L 293.901424 169.882762 
L 294.860265 183.166748 
L 295.99667 202.200776 
L 297.488201 231.250062 
L 302.815097 338.811041 
L 303.951502 355.515834 
L 304.87483 366.014433 
L 305.620596 372.2253 
L 306.224311 375.664393 
L 306.721488 377.388124 
L 307.076614 377.994127 
L 307.360715 378.100198 
L 307.609304 377.915799 
L 307.893405 377.38802 
L 308.284044 376.111522 
L 308.781221 373.571919 
L 309.384936 369.135418 
L 310.095189 362.081569 
L 310.947492 351.154869 
L 311.941846 335.34741 
L 313.184788 311.729775 
L 314.853883 275.355607 
L 318.866811 186.337911 
L 320.145266 163.67587 
L 321.175133 149.166923 
L 322.027436 140.139736 
L 322.702177 135.089986 
L 323.270379 132.350623 
L 323.696531 131.229228 
L 324.016144 130.920298 
L 324.22922 130.969169 
L 324.477809 131.284312 
L 324.797422 132.097678 
L 325.223574 133.893338 
L 325.756264 137.267801 
L 326.395491 142.935405 
L 327.141257 151.684789 
L 328.029073 164.888419 
L 329.094452 184.262103 
L 330.443933 213.208239 
L 332.503666 262.950877 
L 335.238139 328.061528 
L 336.58762 355.045439 
L 337.652999 372.284662 
L 338.540815 383.331359 
L 339.28658 390.016186 
L 339.890295 393.583571 
L 340.35196 395.160466 
L 340.707086 395.683168 
L 340.920162 395.706612 
L 341.133238 395.511873 
L 341.417339 394.912795 
L 341.807978 393.457419 
L 342.269642 390.802085 
L 342.837845 386.166982 
L 343.512585 378.76558 
L 344.329376 367.201086 
L 345.288217 350.315911 
L 346.460134 325.562216 
L 348.02269 287.441541 
L 352.710359 169.650656 
L 353.917789 146.355359 
L 354.87663 131.762752 
L 355.693421 122.475422 
L 356.368161 117.166512 
L 356.900851 114.555661 
L 357.29149 113.548471 
L 357.575591 113.30357 
L 357.788667 113.390532 
L 358.037256 113.785524 
L 358.356869 114.757302 
L 358.783021 116.860772 
L 359.315711 120.772354 
L 359.954938 127.300673 
L 360.700704 137.336337 
L 361.58852 152.433524 
L 362.653899 174.528077 
L 364.003379 207.460091 
L 366.098625 264.896095 
L 368.726561 335.765281 
L 370.111554 367.195936 
L 371.176933 386.718804 
L 372.064749 399.234582 
L 372.810515 406.816067 
L 373.41423 410.870502 
L 373.875894 412.671262 
L 374.23102 413.277284 
L 374.444096 413.313425 
L 374.657172 413.103375 
L 374.941273 412.440365 
L 375.2964 410.997838 
L 375.758064 408.110947 
L 376.326266 403.014144 
L 377.001006 394.818246 
L 377.817797 381.952029 
L 378.776639 363.103234 
L 379.948556 335.40021 
L 381.511112 292.642848 
L 386.305319 157.476987 
L 387.477236 132.287888 
L 388.436077 116.027258 
L 389.252868 105.717029 
L 389.892096 100.104238 
L 390.424785 97.148005 
L 390.815424 95.997323 
L 391.099525 95.706959 
L 391.312601 95.792475 
L 391.56119 96.221155 
L 391.880804 97.292102 
L 392.306955 99.624917 
L 392.839645 103.977091 
L 393.478872 111.253851 
L 394.224638 122.451767 
L 395.112454 139.30788 
L 396.177833 163.985487 
L 397.527314 200.774253 
L 399.62256 264.940265 
L 402.250495 344.115491 
L 403.635488 379.237599 
L 404.700867 401.063329 
L 405.588683 415.066947 
L 406.334449 423.562373 
L 406.938164 428.118627 
L 407.399828 430.154889 
L 407.754955 430.853327 
L 407.96803 430.90766 
L 408.181106 430.687816 
L 408.465207 429.968249 
L 408.820334 428.385363 
L 409.281998 425.201317 
L 409.8502 419.564004 
L 410.524941 410.483964 
L 411.341731 396.215212 
L 412.300573 375.298297 
L 413.47249 344.543353 
L 415.035046 297.063791 
L 419.829253 146.924571 
L 421.00117 118.926216 
L 421.960011 100.838426 
L 422.776802 89.354827 
L 423.451542 82.813443 
L 423.984232 79.615945 
L 424.374871 78.399204 
L 424.658972 78.12 
L 424.836535 78.20548 
L 425.085124 78.661403 
L 425.404738 79.823218 
L 425.830889 82.374338 
L 426.363579 87.15344 
L 427.002807 95.162627 
L 427.748572 107.504928 
L 428.636388 126.100297 
L 429.701767 153.340367 
L 431.051248 193.965705 
L 433.146494 264.846086 
L 435.809942 353.419378 
L 435.845455 354.49747 
L 435.845455 354.49747 
" clip-path="url(#p26bcd05b0c)" style="fill: none; stroke: #000000; stroke-width: 1.5; stroke-linecap: square"/>
   </g>
   <g id="patch_3">
    <path d="M 63 448.56 
L 63 60.48 
" style="fill: none; stroke: #000000; stroke-width: 1.5; stroke-linejoin: miter; stroke-linecap: square"/>
   </g>
   <g id="patch_4">
    <path d="M 453.6 448.56 
L 453.6 60.48 
" style="fill: none; stroke: #000000; stroke-width: 1.5; stroke-linejoin: miter; stroke-linecap: square"/>
   </g>
   <g id="patch_5">
    <path d="M 63 448.56 
L 453.6 448.56 
" style="fill: none; stroke: #000000; stroke-width: 1.5; stroke-linejoin: miter; stroke-linecap: square"/>
   </g>
   <g id="patch_6">
    <path d="M 63 60.48 
L 453.6 60.48 
" style="fill: none; stroke: #000000; stroke-width: 1.5; stroke-linejoin: miter; stroke-linecap: square"/>
   </g>
  </g>
 </g>
 <defs>
  <clipPath id="p26bcd05b0c">
   <rect x="63" y="60.48" width="390.6" height="388.08"/>
  </clipPath>
 </defs>
</svg>
