<?xml version="1.0" encoding="utf-8" standalone="no"?>
<!DOCTYPE svg PUBLIC "-//W3C//DTD SVG 1.1//EN"
  "http://www.w3.org/Graphics/SVG/1.1/DTD/svg11.dtd">
<svg height="433.01875pt" version="1.1" viewBox="0 0 474.086875 433.01875" width="474.086875pt" xmlns="http://www.w3.org/2000/svg" xmlns:xlink="http://www.w3.org/1999/xlink">
 <metadata>
  <rdf:RDF xmlns:cc="http://creativecommons.org/ns#" xmlns:dc="http://purl.org/dc/elements/1.1/" xmlns:rdf="http://www.w3.org/1999/02/22-rdf-syntax-ns#">
   <cc:Work>
    <dc:type rdf:resource="http://purl.org/dc/dcmitype/StillImage"/>
    <dc:date>2022-12-28T15:20:06.120693</dc:date>
    <dc:format>image/svg+xml</dc:format>
    <dc:creator>
     <cc:Agent>
      <dc:title>Matplotlib v3.4.2, https://matplotlib.org/</dc:title>
     </cc:Agent>
    </dc:creator>
   </cc:Work>
  </rdf:RDF>
 </metadata>
 <defs>
  <style type="text/css">*{stroke-linecap:butt;stroke-linejoin:round;}</style>
 </defs>
 <g id="figure_1">
  <g id="patch_1">
   <path d="M 0 433.01875 
L 474.086875 433.01875 
L 474.086875 0 
L 0 0 
z
" style="fill:none;"/>
  </g>
  <g id="axes_1">
   <g id="patch_2">
    <path d="M 76.286875 387.72 
L 466.886875 387.72 
L 466.886875 7.2 
L 76.286875 7.2 
z
" style="fill:#ffffff;"/>
   </g>
   <g id="matplotlib.axis_1">
    <g id="xtick_1">
     <g id="line2d_1">
      <defs>
       <path d="M 0 0 
L 0 3.5 
" id="mbbec13229d" style="stroke:#000000;stroke-width:0.8;"/>
      </defs>
      <g>
       <use style="stroke:#000000;stroke-width:0.8;" x="86.643693" xlink:href="#mbbec13229d" y="387.72"/>
      </g>
     </g>
     <g id="text_1">
      <!-- 0 -->
      <g transform="translate(82.189943 405.357813)scale(0.14 -0.14)">
       <defs>
        <path d="M 2034 4250 
Q 1547 4250 1301 3770 
Q 1056 3291 1056 2328 
Q 1056 1369 1301 889 
Q 1547 409 2034 409 
Q 2525 409 2770 889 
Q 3016 1369 3016 2328 
Q 3016 3291 2770 3770 
Q 2525 4250 2034 4250 
z
M 2034 4750 
Q 2819 4750 3233 4129 
Q 3647 3509 3647 2328 
Q 3647 1150 3233 529 
Q 2819 -91 2034 -91 
Q 1250 -91 836 529 
Q 422 1150 422 2328 
Q 422 3509 836 4129 
Q 1250 4750 2034 4750 
z
" id="DejaVuSans-30" transform="scale(0.015625)"/>
       </defs>
       <use xlink:href="#DejaVuSans-30"/>
      </g>
     </g>
    </g>
    <g id="xtick_2">
     <g id="line2d_2">
      <g>
       <use style="stroke:#000000;stroke-width:0.8;" x="160.620966" xlink:href="#mbbec13229d" y="387.72"/>
      </g>
     </g>
     <g id="text_2">
      <!-- 10 -->
      <g transform="translate(151.713466 405.357813)scale(0.14 -0.14)">
       <defs>
        <path d="M 794 531 
L 1825 531 
L 1825 4091 
L 703 3866 
L 703 4441 
L 1819 4666 
L 2450 4666 
L 2450 531 
L 3481 531 
L 3481 0 
L 794 0 
L 794 531 
z
" id="DejaVuSans-31" transform="scale(0.015625)"/>
       </defs>
       <use xlink:href="#DejaVuSans-31"/>
       <use x="63.623047" xlink:href="#DejaVuSans-30"/>
      </g>
     </g>
    </g>
    <g id="xtick_3">
     <g id="line2d_3">
      <g>
       <use style="stroke:#000000;stroke-width:0.8;" x="234.598239" xlink:href="#mbbec13229d" y="387.72"/>
      </g>
     </g>
     <g id="text_3">
      <!-- 20 -->
      <g transform="translate(225.690739 405.357813)scale(0.14 -0.14)">
       <defs>
        <path d="M 1228 531 
L 3431 531 
L 3431 0 
L 469 0 
L 469 531 
Q 828 903 1448 1529 
Q 2069 2156 2228 2338 
Q 2531 2678 2651 2914 
Q 2772 3150 2772 3378 
Q 2772 3750 2511 3984 
Q 2250 4219 1831 4219 
Q 1534 4219 1204 4116 
Q 875 4013 500 3803 
L 500 4441 
Q 881 4594 1212 4672 
Q 1544 4750 1819 4750 
Q 2544 4750 2975 4387 
Q 3406 4025 3406 3419 
Q 3406 3131 3298 2873 
Q 3191 2616 2906 2266 
Q 2828 2175 2409 1742 
Q 1991 1309 1228 531 
z
" id="DejaVuSans-32" transform="scale(0.015625)"/>
       </defs>
       <use xlink:href="#DejaVuSans-32"/>
       <use x="63.623047" xlink:href="#DejaVuSans-30"/>
      </g>
     </g>
    </g>
    <g id="xtick_4">
     <g id="line2d_4">
      <g>
       <use style="stroke:#000000;stroke-width:0.8;" x="308.575511" xlink:href="#mbbec13229d" y="387.72"/>
      </g>
     </g>
     <g id="text_4">
      <!-- 30 -->
      <g transform="translate(299.668011 405.357813)scale(0.14 -0.14)">
       <defs>
        <path d="M 2597 2516 
Q 3050 2419 3304 2112 
Q 3559 1806 3559 1356 
Q 3559 666 3084 287 
Q 2609 -91 1734 -91 
Q 1441 -91 1130 -33 
Q 819 25 488 141 
L 488 750 
Q 750 597 1062 519 
Q 1375 441 1716 441 
Q 2309 441 2620 675 
Q 2931 909 2931 1356 
Q 2931 1769 2642 2001 
Q 2353 2234 1838 2234 
L 1294 2234 
L 1294 2753 
L 1863 2753 
Q 2328 2753 2575 2939 
Q 2822 3125 2822 3475 
Q 2822 3834 2567 4026 
Q 2313 4219 1838 4219 
Q 1578 4219 1281 4162 
Q 984 4106 628 3988 
L 628 4550 
Q 988 4650 1302 4700 
Q 1616 4750 1894 4750 
Q 2613 4750 3031 4423 
Q 3450 4097 3450 3541 
Q 3450 3153 3228 2886 
Q 3006 2619 2597 2516 
z
" id="DejaVuSans-33" transform="scale(0.015625)"/>
       </defs>
       <use xlink:href="#DejaVuSans-33"/>
       <use x="63.623047" xlink:href="#DejaVuSans-30"/>
      </g>
     </g>
    </g>
    <g id="xtick_5">
     <g id="line2d_5">
      <g>
       <use style="stroke:#000000;stroke-width:0.8;" x="382.552784" xlink:href="#mbbec13229d" y="387.72"/>
      </g>
     </g>
     <g id="text_5">
      <!-- 40 -->
      <g transform="translate(373.645284 405.357813)scale(0.14 -0.14)">
       <defs>
        <path d="M 2419 4116 
L 825 1625 
L 2419 1625 
L 2419 4116 
z
M 2253 4666 
L 3047 4666 
L 3047 1625 
L 3713 1625 
L 3713 1100 
L 3047 1100 
L 3047 0 
L 2419 0 
L 2419 1100 
L 313 1100 
L 313 1709 
L 2253 4666 
z
" id="DejaVuSans-34" transform="scale(0.015625)"/>
       </defs>
       <use xlink:href="#DejaVuSans-34"/>
       <use x="63.623047" xlink:href="#DejaVuSans-30"/>
      </g>
     </g>
    </g>
    <g id="xtick_6">
     <g id="line2d_6">
      <g>
       <use style="stroke:#000000;stroke-width:0.8;" x="456.530057" xlink:href="#mbbec13229d" y="387.72"/>
      </g>
     </g>
     <g id="text_6">
      <!-- 50 -->
      <g transform="translate(447.622557 405.357813)scale(0.14 -0.14)">
       <defs>
        <path d="M 691 4666 
L 3169 4666 
L 3169 4134 
L 1269 4134 
L 1269 2991 
Q 1406 3038 1543 3061 
Q 1681 3084 1819 3084 
Q 2600 3084 3056 2656 
Q 3513 2228 3513 1497 
Q 3513 744 3044 326 
Q 2575 -91 1722 -91 
Q 1428 -91 1123 -41 
Q 819 9 494 109 
L 494 744 
Q 775 591 1075 516 
Q 1375 441 1709 441 
Q 2250 441 2565 725 
Q 2881 1009 2881 1497 
Q 2881 1984 2565 2268 
Q 2250 2553 1709 2553 
Q 1456 2553 1204 2497 
Q 953 2441 691 2322 
L 691 4666 
z
" id="DejaVuSans-35" transform="scale(0.015625)"/>
       </defs>
       <use xlink:href="#DejaVuSans-35"/>
       <use x="63.623047" xlink:href="#DejaVuSans-30"/>
      </g>
     </g>
    </g>
    <g id="text_7">
     <!-- Number of estimators -->
     <g transform="translate(194.9675 422.907188)scale(0.14 -0.14)">
      <defs>
       <path d="M 628 4666 
L 1478 4666 
L 3547 763 
L 3547 4666 
L 4159 4666 
L 4159 0 
L 3309 0 
L 1241 3903 
L 1241 0 
L 628 0 
L 628 4666 
z
" id="DejaVuSans-4e" transform="scale(0.015625)"/>
       <path d="M 544 1381 
L 544 3500 
L 1119 3500 
L 1119 1403 
Q 1119 906 1312 657 
Q 1506 409 1894 409 
Q 2359 409 2629 706 
Q 2900 1003 2900 1516 
L 2900 3500 
L 3475 3500 
L 3475 0 
L 2900 0 
L 2900 538 
Q 2691 219 2414 64 
Q 2138 -91 1772 -91 
Q 1169 -91 856 284 
Q 544 659 544 1381 
z
M 1991 3584 
L 1991 3584 
z
" id="DejaVuSans-75" transform="scale(0.015625)"/>
       <path d="M 3328 2828 
Q 3544 3216 3844 3400 
Q 4144 3584 4550 3584 
Q 5097 3584 5394 3201 
Q 5691 2819 5691 2113 
L 5691 0 
L 5113 0 
L 5113 2094 
Q 5113 2597 4934 2840 
Q 4756 3084 4391 3084 
Q 3944 3084 3684 2787 
Q 3425 2491 3425 1978 
L 3425 0 
L 2847 0 
L 2847 2094 
Q 2847 2600 2669 2842 
Q 2491 3084 2119 3084 
Q 1678 3084 1418 2786 
Q 1159 2488 1159 1978 
L 1159 0 
L 581 0 
L 581 3500 
L 1159 3500 
L 1159 2956 
Q 1356 3278 1631 3431 
Q 1906 3584 2284 3584 
Q 2666 3584 2933 3390 
Q 3200 3197 3328 2828 
z
" id="DejaVuSans-6d" transform="scale(0.015625)"/>
       <path d="M 3116 1747 
Q 3116 2381 2855 2742 
Q 2594 3103 2138 3103 
Q 1681 3103 1420 2742 
Q 1159 2381 1159 1747 
Q 1159 1113 1420 752 
Q 1681 391 2138 391 
Q 2594 391 2855 752 
Q 3116 1113 3116 1747 
z
M 1159 2969 
Q 1341 3281 1617 3432 
Q 1894 3584 2278 3584 
Q 2916 3584 3314 3078 
Q 3713 2572 3713 1747 
Q 3713 922 3314 415 
Q 2916 -91 2278 -91 
Q 1894 -91 1617 61 
Q 1341 213 1159 525 
L 1159 0 
L 581 0 
L 581 4863 
L 1159 4863 
L 1159 2969 
z
" id="DejaVuSans-62" transform="scale(0.015625)"/>
       <path d="M 3597 1894 
L 3597 1613 
L 953 1613 
Q 991 1019 1311 708 
Q 1631 397 2203 397 
Q 2534 397 2845 478 
Q 3156 559 3463 722 
L 3463 178 
Q 3153 47 2828 -22 
Q 2503 -91 2169 -91 
Q 1331 -91 842 396 
Q 353 884 353 1716 
Q 353 2575 817 3079 
Q 1281 3584 2069 3584 
Q 2775 3584 3186 3129 
Q 3597 2675 3597 1894 
z
M 3022 2063 
Q 3016 2534 2758 2815 
Q 2500 3097 2075 3097 
Q 1594 3097 1305 2825 
Q 1016 2553 972 2059 
L 3022 2063 
z
" id="DejaVuSans-65" transform="scale(0.015625)"/>
       <path d="M 2631 2963 
Q 2534 3019 2420 3045 
Q 2306 3072 2169 3072 
Q 1681 3072 1420 2755 
Q 1159 2438 1159 1844 
L 1159 0 
L 581 0 
L 581 3500 
L 1159 3500 
L 1159 2956 
Q 1341 3275 1631 3429 
Q 1922 3584 2338 3584 
Q 2397 3584 2469 3576 
Q 2541 3569 2628 3553 
L 2631 2963 
z
" id="DejaVuSans-72" transform="scale(0.015625)"/>
       <path id="DejaVuSans-20" transform="scale(0.015625)"/>
       <path d="M 1959 3097 
Q 1497 3097 1228 2736 
Q 959 2375 959 1747 
Q 959 1119 1226 758 
Q 1494 397 1959 397 
Q 2419 397 2687 759 
Q 2956 1122 2956 1747 
Q 2956 2369 2687 2733 
Q 2419 3097 1959 3097 
z
M 1959 3584 
Q 2709 3584 3137 3096 
Q 3566 2609 3566 1747 
Q 3566 888 3137 398 
Q 2709 -91 1959 -91 
Q 1206 -91 779 398 
Q 353 888 353 1747 
Q 353 2609 779 3096 
Q 1206 3584 1959 3584 
z
" id="DejaVuSans-6f" transform="scale(0.015625)"/>
       <path d="M 2375 4863 
L 2375 4384 
L 1825 4384 
Q 1516 4384 1395 4259 
Q 1275 4134 1275 3809 
L 1275 3500 
L 2222 3500 
L 2222 3053 
L 1275 3053 
L 1275 0 
L 697 0 
L 697 3053 
L 147 3053 
L 147 3500 
L 697 3500 
L 697 3744 
Q 697 4328 969 4595 
Q 1241 4863 1831 4863 
L 2375 4863 
z
" id="DejaVuSans-66" transform="scale(0.015625)"/>
       <path d="M 2834 3397 
L 2834 2853 
Q 2591 2978 2328 3040 
Q 2066 3103 1784 3103 
Q 1356 3103 1142 2972 
Q 928 2841 928 2578 
Q 928 2378 1081 2264 
Q 1234 2150 1697 2047 
L 1894 2003 
Q 2506 1872 2764 1633 
Q 3022 1394 3022 966 
Q 3022 478 2636 193 
Q 2250 -91 1575 -91 
Q 1294 -91 989 -36 
Q 684 19 347 128 
L 347 722 
Q 666 556 975 473 
Q 1284 391 1588 391 
Q 1994 391 2212 530 
Q 2431 669 2431 922 
Q 2431 1156 2273 1281 
Q 2116 1406 1581 1522 
L 1381 1569 
Q 847 1681 609 1914 
Q 372 2147 372 2553 
Q 372 3047 722 3315 
Q 1072 3584 1716 3584 
Q 2034 3584 2315 3537 
Q 2597 3491 2834 3397 
z
" id="DejaVuSans-73" transform="scale(0.015625)"/>
       <path d="M 1172 4494 
L 1172 3500 
L 2356 3500 
L 2356 3053 
L 1172 3053 
L 1172 1153 
Q 1172 725 1289 603 
Q 1406 481 1766 481 
L 2356 481 
L 2356 0 
L 1766 0 
Q 1100 0 847 248 
Q 594 497 594 1153 
L 594 3053 
L 172 3053 
L 172 3500 
L 594 3500 
L 594 4494 
L 1172 4494 
z
" id="DejaVuSans-74" transform="scale(0.015625)"/>
       <path d="M 603 3500 
L 1178 3500 
L 1178 0 
L 603 0 
L 603 3500 
z
M 603 4863 
L 1178 4863 
L 1178 4134 
L 603 4134 
L 603 4863 
z
" id="DejaVuSans-69" transform="scale(0.015625)"/>
       <path d="M 2194 1759 
Q 1497 1759 1228 1600 
Q 959 1441 959 1056 
Q 959 750 1161 570 
Q 1363 391 1709 391 
Q 2188 391 2477 730 
Q 2766 1069 2766 1631 
L 2766 1759 
L 2194 1759 
z
M 3341 1997 
L 3341 0 
L 2766 0 
L 2766 531 
Q 2569 213 2275 61 
Q 1981 -91 1556 -91 
Q 1019 -91 701 211 
Q 384 513 384 1019 
Q 384 1609 779 1909 
Q 1175 2209 1959 2209 
L 2766 2209 
L 2766 2266 
Q 2766 2663 2505 2880 
Q 2244 3097 1772 3097 
Q 1472 3097 1187 3025 
Q 903 2953 641 2809 
L 641 3341 
Q 956 3463 1253 3523 
Q 1550 3584 1831 3584 
Q 2591 3584 2966 3190 
Q 3341 2797 3341 1997 
z
" id="DejaVuSans-61" transform="scale(0.015625)"/>
      </defs>
      <use xlink:href="#DejaVuSans-4e"/>
      <use x="74.804688" xlink:href="#DejaVuSans-75"/>
      <use x="138.183594" xlink:href="#DejaVuSans-6d"/>
      <use x="235.595703" xlink:href="#DejaVuSans-62"/>
      <use x="299.072266" xlink:href="#DejaVuSans-65"/>
      <use x="360.595703" xlink:href="#DejaVuSans-72"/>
      <use x="401.708984" xlink:href="#DejaVuSans-20"/>
      <use x="433.496094" xlink:href="#DejaVuSans-6f"/>
      <use x="494.677734" xlink:href="#DejaVuSans-66"/>
      <use x="529.882812" xlink:href="#DejaVuSans-20"/>
      <use x="561.669922" xlink:href="#DejaVuSans-65"/>
      <use x="623.193359" xlink:href="#DejaVuSans-73"/>
      <use x="675.292969" xlink:href="#DejaVuSans-74"/>
      <use x="714.501953" xlink:href="#DejaVuSans-69"/>
      <use x="742.285156" xlink:href="#DejaVuSans-6d"/>
      <use x="839.697266" xlink:href="#DejaVuSans-61"/>
      <use x="900.976562" xlink:href="#DejaVuSans-74"/>
      <use x="940.185547" xlink:href="#DejaVuSans-6f"/>
      <use x="1001.367188" xlink:href="#DejaVuSans-72"/>
      <use x="1042.480469" xlink:href="#DejaVuSans-73"/>
     </g>
    </g>
   </g>
   <g id="matplotlib.axis_2">
    <g id="ytick_1">
     <g id="line2d_7">
      <defs>
       <path d="M 0 0 
L -3.5 0 
" id="mc8174cc908" style="stroke:#000000;stroke-width:0.8;"/>
      </defs>
      <g>
       <use style="stroke:#000000;stroke-width:0.8;" x="76.286875" xlink:href="#mc8174cc908" y="381.440117"/>
      </g>
     </g>
     <g id="text_8">
      <!-- 0 -->
      <g transform="translate(60.379375 386.759023)scale(0.14 -0.14)">
       <use xlink:href="#DejaVuSans-30"/>
      </g>
     </g>
    </g>
    <g id="ytick_2">
     <g id="line2d_8">
      <g>
       <use style="stroke:#000000;stroke-width:0.8;" x="76.286875" xlink:href="#mc8174cc908" y="337.236934"/>
      </g>
     </g>
     <g id="text_9">
      <!-- 5000 -->
      <g transform="translate(33.656875 342.55584)scale(0.14 -0.14)">
       <use xlink:href="#DejaVuSans-35"/>
       <use x="63.623047" xlink:href="#DejaVuSans-30"/>
       <use x="127.246094" xlink:href="#DejaVuSans-30"/>
       <use x="190.869141" xlink:href="#DejaVuSans-30"/>
      </g>
     </g>
    </g>
    <g id="ytick_3">
     <g id="line2d_9">
      <g>
       <use style="stroke:#000000;stroke-width:0.8;" x="76.286875" xlink:href="#mc8174cc908" y="293.03375"/>
      </g>
     </g>
     <g id="text_10">
      <!-- 10000 -->
      <g transform="translate(24.749375 298.352656)scale(0.14 -0.14)">
       <use xlink:href="#DejaVuSans-31"/>
       <use x="63.623047" xlink:href="#DejaVuSans-30"/>
       <use x="127.246094" xlink:href="#DejaVuSans-30"/>
       <use x="190.869141" xlink:href="#DejaVuSans-30"/>
       <use x="254.492188" xlink:href="#DejaVuSans-30"/>
      </g>
     </g>
    </g>
    <g id="ytick_4">
     <g id="line2d_10">
      <g>
       <use style="stroke:#000000;stroke-width:0.8;" x="76.286875" xlink:href="#mc8174cc908" y="248.830567"/>
      </g>
     </g>
     <g id="text_11">
      <!-- 15000 -->
      <g transform="translate(24.749375 254.149473)scale(0.14 -0.14)">
       <use xlink:href="#DejaVuSans-31"/>
       <use x="63.623047" xlink:href="#DejaVuSans-35"/>
       <use x="127.246094" xlink:href="#DejaVuSans-30"/>
       <use x="190.869141" xlink:href="#DejaVuSans-30"/>
       <use x="254.492188" xlink:href="#DejaVuSans-30"/>
      </g>
     </g>
    </g>
    <g id="ytick_5">
     <g id="line2d_11">
      <g>
       <use style="stroke:#000000;stroke-width:0.8;" x="76.286875" xlink:href="#mc8174cc908" y="204.627384"/>
      </g>
     </g>
     <g id="text_12">
      <!-- 20000 -->
      <g transform="translate(24.749375 209.94629)scale(0.14 -0.14)">
       <use xlink:href="#DejaVuSans-32"/>
       <use x="63.623047" xlink:href="#DejaVuSans-30"/>
       <use x="127.246094" xlink:href="#DejaVuSans-30"/>
       <use x="190.869141" xlink:href="#DejaVuSans-30"/>
       <use x="254.492188" xlink:href="#DejaVuSans-30"/>
      </g>
     </g>
    </g>
    <g id="ytick_6">
     <g id="line2d_12">
      <g>
       <use style="stroke:#000000;stroke-width:0.8;" x="76.286875" xlink:href="#mc8174cc908" y="160.4242"/>
      </g>
     </g>
     <g id="text_13">
      <!-- 25000 -->
      <g transform="translate(24.749375 165.743106)scale(0.14 -0.14)">
       <use xlink:href="#DejaVuSans-32"/>
       <use x="63.623047" xlink:href="#DejaVuSans-35"/>
       <use x="127.246094" xlink:href="#DejaVuSans-30"/>
       <use x="190.869141" xlink:href="#DejaVuSans-30"/>
       <use x="254.492188" xlink:href="#DejaVuSans-30"/>
      </g>
     </g>
    </g>
    <g id="ytick_7">
     <g id="line2d_13">
      <g>
       <use style="stroke:#000000;stroke-width:0.8;" x="76.286875" xlink:href="#mc8174cc908" y="116.221017"/>
      </g>
     </g>
     <g id="text_14">
      <!-- 30000 -->
      <g transform="translate(24.749375 121.539923)scale(0.14 -0.14)">
       <use xlink:href="#DejaVuSans-33"/>
       <use x="63.623047" xlink:href="#DejaVuSans-30"/>
       <use x="127.246094" xlink:href="#DejaVuSans-30"/>
       <use x="190.869141" xlink:href="#DejaVuSans-30"/>
       <use x="254.492188" xlink:href="#DejaVuSans-30"/>
      </g>
     </g>
    </g>
    <g id="ytick_8">
     <g id="line2d_14">
      <g>
       <use style="stroke:#000000;stroke-width:0.8;" x="76.286875" xlink:href="#mc8174cc908" y="72.017834"/>
      </g>
     </g>
     <g id="text_15">
      <!-- 35000 -->
      <g transform="translate(24.749375 77.33674)scale(0.14 -0.14)">
       <use xlink:href="#DejaVuSans-33"/>
       <use x="63.623047" xlink:href="#DejaVuSans-35"/>
       <use x="127.246094" xlink:href="#DejaVuSans-30"/>
       <use x="190.869141" xlink:href="#DejaVuSans-30"/>
       <use x="254.492188" xlink:href="#DejaVuSans-30"/>
      </g>
     </g>
    </g>
    <g id="ytick_9">
     <g id="line2d_15">
      <g>
       <use style="stroke:#000000;stroke-width:0.8;" x="76.286875" xlink:href="#mc8174cc908" y="27.81465"/>
      </g>
     </g>
     <g id="text_16">
      <!-- 40000 -->
      <g transform="translate(24.749375 33.133556)scale(0.14 -0.14)">
       <use xlink:href="#DejaVuSans-34"/>
       <use x="63.623047" xlink:href="#DejaVuSans-30"/>
       <use x="127.246094" xlink:href="#DejaVuSans-30"/>
       <use x="190.869141" xlink:href="#DejaVuSans-30"/>
       <use x="254.492188" xlink:href="#DejaVuSans-30"/>
      </g>
     </g>
    </g>
    <g id="text_17">
     <!-- MSE -->
     <g transform="translate(17.837813 212.366719)rotate(-90)scale(0.14 -0.14)">
      <defs>
       <path d="M 628 4666 
L 1569 4666 
L 2759 1491 
L 3956 4666 
L 4897 4666 
L 4897 0 
L 4281 0 
L 4281 4097 
L 3078 897 
L 2444 897 
L 1241 4097 
L 1241 0 
L 628 0 
L 628 4666 
z
" id="DejaVuSans-4d" transform="scale(0.015625)"/>
       <path d="M 3425 4513 
L 3425 3897 
Q 3066 4069 2747 4153 
Q 2428 4238 2131 4238 
Q 1616 4238 1336 4038 
Q 1056 3838 1056 3469 
Q 1056 3159 1242 3001 
Q 1428 2844 1947 2747 
L 2328 2669 
Q 3034 2534 3370 2195 
Q 3706 1856 3706 1288 
Q 3706 609 3251 259 
Q 2797 -91 1919 -91 
Q 1588 -91 1214 -16 
Q 841 59 441 206 
L 441 856 
Q 825 641 1194 531 
Q 1563 422 1919 422 
Q 2459 422 2753 634 
Q 3047 847 3047 1241 
Q 3047 1584 2836 1778 
Q 2625 1972 2144 2069 
L 1759 2144 
Q 1053 2284 737 2584 
Q 422 2884 422 3419 
Q 422 4038 858 4394 
Q 1294 4750 2059 4750 
Q 2388 4750 2728 4690 
Q 3069 4631 3425 4513 
z
" id="DejaVuSans-53" transform="scale(0.015625)"/>
       <path d="M 628 4666 
L 3578 4666 
L 3578 4134 
L 1259 4134 
L 1259 2753 
L 3481 2753 
L 3481 2222 
L 1259 2222 
L 1259 531 
L 3634 531 
L 3634 0 
L 628 0 
L 628 4666 
z
" id="DejaVuSans-45" transform="scale(0.015625)"/>
      </defs>
      <use xlink:href="#DejaVuSans-4d"/>
      <use x="86.279297" xlink:href="#DejaVuSans-53"/>
      <use x="149.755859" xlink:href="#DejaVuSans-45"/>
     </g>
    </g>
   </g>
   <g id="line2d_16">
    <path clip-path="url(#p6f18431cf8)" d="M 94.04142 367.777721 
L 101.439148 367.384333 
L 108.836875 369.830345 
L 116.234602 368.643478 
L 123.63233 370.423636 
L 131.030057 369.43346 
L 138.427784 368.964962 
L 145.825511 369.979027 
L 153.223239 366.965863 
L 160.620966 368.29267 
L 168.018693 369.107673 
L 175.41642 368.636101 
L 182.814148 367.280416 
L 190.211875 368.295505 
L 197.609602 367.759823 
L 205.00733 369.03338 
L 212.405057 368.297374 
L 219.802784 368.140812 
L 227.200511 369.049225 
L 234.598239 368.366702 
L 241.995966 368.682847 
L 249.393693 368.022186 
L 256.79142 368.46749 
L 264.189148 369.16204 
L 271.586875 368.959545 
L 278.984602 368.602256 
L 286.38233 368.615347 
L 293.780057 369.308126 
L 301.177784 369.41402 
L 308.575511 369.078361 
L 315.973239 368.82879 
L 323.370966 368.182092 
L 330.768693 369.249385 
L 338.16642 369.436645 
L 345.564148 369.155398 
L 352.961875 368.285722 
L 360.359602 368.525666 
L 367.75733 368.643567 
L 375.155057 369.106327 
L 382.552784 369.274154 
L 389.950511 368.980634 
L 397.348239 369.193183 
L 404.745966 368.77551 
L 412.143693 368.764406 
L 419.54142 368.967851 
L 426.939148 368.975209 
L 434.336875 368.565736 
L 441.734602 368.439928 
L 449.13233 368.490501 
" style="fill:none;stroke:#1f77b4;stroke-dasharray:5.55,2.4;stroke-dashoffset:0;stroke-width:1.5;"/>
    <defs>
     <path d="M 0 3 
C 0.795609 3 1.55874 2.683901 2.12132 2.12132 
C 2.683901 1.55874 3 0.795609 3 0 
C 3 -0.795609 2.683901 -1.55874 2.12132 -2.12132 
C 1.55874 -2.683901 0.795609 -3 0 -3 
C -0.795609 -3 -1.55874 -2.683901 -2.12132 -2.12132 
C -2.683901 -1.55874 -3 -0.795609 -3 0 
C -3 0.795609 -2.683901 1.55874 -2.12132 2.12132 
C -1.55874 2.683901 -0.795609 3 0 3 
z
" id="m19cf867a09" style="stroke:#1f77b4;"/>
    </defs>
    <g clip-path="url(#p6f18431cf8)">
     <use style="fill:#1f77b4;stroke:#1f77b4;" x="94.04142" xlink:href="#m19cf867a09" y="367.777721"/>
     <use style="fill:#1f77b4;stroke:#1f77b4;" x="101.439148" xlink:href="#m19cf867a09" y="367.384333"/>
     <use style="fill:#1f77b4;stroke:#1f77b4;" x="108.836875" xlink:href="#m19cf867a09" y="369.830345"/>
     <use style="fill:#1f77b4;stroke:#1f77b4;" x="116.234602" xlink:href="#m19cf867a09" y="368.643478"/>
     <use style="fill:#1f77b4;stroke:#1f77b4;" x="123.63233" xlink:href="#m19cf867a09" y="370.423636"/>
     <use style="fill:#1f77b4;stroke:#1f77b4;" x="131.030057" xlink:href="#m19cf867a09" y="369.43346"/>
     <use style="fill:#1f77b4;stroke:#1f77b4;" x="138.427784" xlink:href="#m19cf867a09" y="368.964962"/>
     <use style="fill:#1f77b4;stroke:#1f77b4;" x="145.825511" xlink:href="#m19cf867a09" y="369.979027"/>
     <use style="fill:#1f77b4;stroke:#1f77b4;" x="153.223239" xlink:href="#m19cf867a09" y="366.965863"/>
     <use style="fill:#1f77b4;stroke:#1f77b4;" x="160.620966" xlink:href="#m19cf867a09" y="368.29267"/>
     <use style="fill:#1f77b4;stroke:#1f77b4;" x="168.018693" xlink:href="#m19cf867a09" y="369.107673"/>
     <use style="fill:#1f77b4;stroke:#1f77b4;" x="175.41642" xlink:href="#m19cf867a09" y="368.636101"/>
     <use style="fill:#1f77b4;stroke:#1f77b4;" x="182.814148" xlink:href="#m19cf867a09" y="367.280416"/>
     <use style="fill:#1f77b4;stroke:#1f77b4;" x="190.211875" xlink:href="#m19cf867a09" y="368.295505"/>
     <use style="fill:#1f77b4;stroke:#1f77b4;" x="197.609602" xlink:href="#m19cf867a09" y="367.759823"/>
     <use style="fill:#1f77b4;stroke:#1f77b4;" x="205.00733" xlink:href="#m19cf867a09" y="369.03338"/>
     <use style="fill:#1f77b4;stroke:#1f77b4;" x="212.405057" xlink:href="#m19cf867a09" y="368.297374"/>
     <use style="fill:#1f77b4;stroke:#1f77b4;" x="219.802784" xlink:href="#m19cf867a09" y="368.140812"/>
     <use style="fill:#1f77b4;stroke:#1f77b4;" x="227.200511" xlink:href="#m19cf867a09" y="369.049225"/>
     <use style="fill:#1f77b4;stroke:#1f77b4;" x="234.598239" xlink:href="#m19cf867a09" y="368.366702"/>
     <use style="fill:#1f77b4;stroke:#1f77b4;" x="241.995966" xlink:href="#m19cf867a09" y="368.682847"/>
     <use style="fill:#1f77b4;stroke:#1f77b4;" x="249.393693" xlink:href="#m19cf867a09" y="368.022186"/>
     <use style="fill:#1f77b4;stroke:#1f77b4;" x="256.79142" xlink:href="#m19cf867a09" y="368.46749"/>
     <use style="fill:#1f77b4;stroke:#1f77b4;" x="264.189148" xlink:href="#m19cf867a09" y="369.16204"/>
     <use style="fill:#1f77b4;stroke:#1f77b4;" x="271.586875" xlink:href="#m19cf867a09" y="368.959545"/>
     <use style="fill:#1f77b4;stroke:#1f77b4;" x="278.984602" xlink:href="#m19cf867a09" y="368.602256"/>
     <use style="fill:#1f77b4;stroke:#1f77b4;" x="286.38233" xlink:href="#m19cf867a09" y="368.615347"/>
     <use style="fill:#1f77b4;stroke:#1f77b4;" x="293.780057" xlink:href="#m19cf867a09" y="369.308126"/>
     <use style="fill:#1f77b4;stroke:#1f77b4;" x="301.177784" xlink:href="#m19cf867a09" y="369.41402"/>
     <use style="fill:#1f77b4;stroke:#1f77b4;" x="308.575511" xlink:href="#m19cf867a09" y="369.078361"/>
     <use style="fill:#1f77b4;stroke:#1f77b4;" x="315.973239" xlink:href="#m19cf867a09" y="368.82879"/>
     <use style="fill:#1f77b4;stroke:#1f77b4;" x="323.370966" xlink:href="#m19cf867a09" y="368.182092"/>
     <use style="fill:#1f77b4;stroke:#1f77b4;" x="330.768693" xlink:href="#m19cf867a09" y="369.249385"/>
     <use style="fill:#1f77b4;stroke:#1f77b4;" x="338.16642" xlink:href="#m19cf867a09" y="369.436645"/>
     <use style="fill:#1f77b4;stroke:#1f77b4;" x="345.564148" xlink:href="#m19cf867a09" y="369.155398"/>
     <use style="fill:#1f77b4;stroke:#1f77b4;" x="352.961875" xlink:href="#m19cf867a09" y="368.285722"/>
     <use style="fill:#1f77b4;stroke:#1f77b4;" x="360.359602" xlink:href="#m19cf867a09" y="368.525666"/>
     <use style="fill:#1f77b4;stroke:#1f77b4;" x="367.75733" xlink:href="#m19cf867a09" y="368.643567"/>
     <use style="fill:#1f77b4;stroke:#1f77b4;" x="375.155057" xlink:href="#m19cf867a09" y="369.106327"/>
     <use style="fill:#1f77b4;stroke:#1f77b4;" x="382.552784" xlink:href="#m19cf867a09" y="369.274154"/>
     <use style="fill:#1f77b4;stroke:#1f77b4;" x="389.950511" xlink:href="#m19cf867a09" y="368.980634"/>
     <use style="fill:#1f77b4;stroke:#1f77b4;" x="397.348239" xlink:href="#m19cf867a09" y="369.193183"/>
     <use style="fill:#1f77b4;stroke:#1f77b4;" x="404.745966" xlink:href="#m19cf867a09" y="368.77551"/>
     <use style="fill:#1f77b4;stroke:#1f77b4;" x="412.143693" xlink:href="#m19cf867a09" y="368.764406"/>
     <use style="fill:#1f77b4;stroke:#1f77b4;" x="419.54142" xlink:href="#m19cf867a09" y="368.967851"/>
     <use style="fill:#1f77b4;stroke:#1f77b4;" x="426.939148" xlink:href="#m19cf867a09" y="368.975209"/>
     <use style="fill:#1f77b4;stroke:#1f77b4;" x="434.336875" xlink:href="#m19cf867a09" y="368.565736"/>
     <use style="fill:#1f77b4;stroke:#1f77b4;" x="441.734602" xlink:href="#m19cf867a09" y="368.439928"/>
     <use style="fill:#1f77b4;stroke:#1f77b4;" x="449.13233" xlink:href="#m19cf867a09" y="368.490501"/>
    </g>
   </g>
   <g id="line2d_17">
    <path clip-path="url(#p6f18431cf8)" d="M 94.04142 337.875819 
L 101.439148 334.349502 
L 108.836875 340.366937 
L 116.234602 342.112054 
L 123.63233 335.701487 
L 131.030057 338.464843 
L 138.427784 339.434712 
L 145.825511 340.465785 
L 153.223239 344.287288 
L 160.620966 340.922471 
L 168.018693 340.894686 
L 175.41642 341.839661 
L 182.814148 342.41308 
L 190.211875 341.518236 
L 197.609602 344.544058 
L 205.00733 337.630803 
L 212.405057 343.240016 
L 219.802784 339.411374 
L 227.200511 341.803109 
L 234.598239 338.802794 
L 241.995966 341.713843 
L 249.393693 340.051473 
L 256.79142 344.387145 
L 264.189148 345.501853 
L 271.586875 341.810932 
L 278.984602 343.724555 
L 286.38233 339.479443 
L 293.780057 339.792024 
L 301.177784 341.617227 
L 308.575511 341.297979 
L 315.973239 341.31476 
L 323.370966 342.185824 
L 330.768693 340.86861 
L 338.16642 340.378299 
L 345.564148 339.535273 
L 352.961875 342.875983 
L 360.359602 340.986398 
L 367.75733 342.19305 
L 375.155057 342.974676 
L 382.552784 341.155539 
L 389.950511 342.937007 
L 397.348239 342.399883 
L 404.745966 342.430584 
L 412.143693 343.728258 
L 419.54142 343.729871 
L 426.939148 343.366854 
L 434.336875 342.255499 
L 441.734602 341.898886 
L 449.13233 340.627826 
" style="fill:none;stroke:#ff7f0e;stroke-dasharray:5.55,2.4;stroke-dashoffset:0;stroke-width:1.5;"/>
    <defs>
     <path d="M 0 3 
C 0.795609 3 1.55874 2.683901 2.12132 2.12132 
C 2.683901 1.55874 3 0.795609 3 0 
C 3 -0.795609 2.683901 -1.55874 2.12132 -2.12132 
C 1.55874 -2.683901 0.795609 -3 0 -3 
C -0.795609 -3 -1.55874 -2.683901 -2.12132 -2.12132 
C -2.683901 -1.55874 -3 -0.795609 -3 0 
C -3 0.795609 -2.683901 1.55874 -2.12132 2.12132 
C -1.55874 2.683901 -0.795609 3 0 3 
z
" id="m450ff4b26f" style="stroke:#ff7f0e;"/>
    </defs>
    <g clip-path="url(#p6f18431cf8)">
     <use style="fill:#ff7f0e;stroke:#ff7f0e;" x="94.04142" xlink:href="#m450ff4b26f" y="337.875819"/>
     <use style="fill:#ff7f0e;stroke:#ff7f0e;" x="101.439148" xlink:href="#m450ff4b26f" y="334.349502"/>
     <use style="fill:#ff7f0e;stroke:#ff7f0e;" x="108.836875" xlink:href="#m450ff4b26f" y="340.366937"/>
     <use style="fill:#ff7f0e;stroke:#ff7f0e;" x="116.234602" xlink:href="#m450ff4b26f" y="342.112054"/>
     <use style="fill:#ff7f0e;stroke:#ff7f0e;" x="123.63233" xlink:href="#m450ff4b26f" y="335.701487"/>
     <use style="fill:#ff7f0e;stroke:#ff7f0e;" x="131.030057" xlink:href="#m450ff4b26f" y="338.464843"/>
     <use style="fill:#ff7f0e;stroke:#ff7f0e;" x="138.427784" xlink:href="#m450ff4b26f" y="339.434712"/>
     <use style="fill:#ff7f0e;stroke:#ff7f0e;" x="145.825511" xlink:href="#m450ff4b26f" y="340.465785"/>
     <use style="fill:#ff7f0e;stroke:#ff7f0e;" x="153.223239" xlink:href="#m450ff4b26f" y="344.287288"/>
     <use style="fill:#ff7f0e;stroke:#ff7f0e;" x="160.620966" xlink:href="#m450ff4b26f" y="340.922471"/>
     <use style="fill:#ff7f0e;stroke:#ff7f0e;" x="168.018693" xlink:href="#m450ff4b26f" y="340.894686"/>
     <use style="fill:#ff7f0e;stroke:#ff7f0e;" x="175.41642" xlink:href="#m450ff4b26f" y="341.839661"/>
     <use style="fill:#ff7f0e;stroke:#ff7f0e;" x="182.814148" xlink:href="#m450ff4b26f" y="342.41308"/>
     <use style="fill:#ff7f0e;stroke:#ff7f0e;" x="190.211875" xlink:href="#m450ff4b26f" y="341.518236"/>
     <use style="fill:#ff7f0e;stroke:#ff7f0e;" x="197.609602" xlink:href="#m450ff4b26f" y="344.544058"/>
     <use style="fill:#ff7f0e;stroke:#ff7f0e;" x="205.00733" xlink:href="#m450ff4b26f" y="337.630803"/>
     <use style="fill:#ff7f0e;stroke:#ff7f0e;" x="212.405057" xlink:href="#m450ff4b26f" y="343.240016"/>
     <use style="fill:#ff7f0e;stroke:#ff7f0e;" x="219.802784" xlink:href="#m450ff4b26f" y="339.411374"/>
     <use style="fill:#ff7f0e;stroke:#ff7f0e;" x="227.200511" xlink:href="#m450ff4b26f" y="341.803109"/>
     <use style="fill:#ff7f0e;stroke:#ff7f0e;" x="234.598239" xlink:href="#m450ff4b26f" y="338.802794"/>
     <use style="fill:#ff7f0e;stroke:#ff7f0e;" x="241.995966" xlink:href="#m450ff4b26f" y="341.713843"/>
     <use style="fill:#ff7f0e;stroke:#ff7f0e;" x="249.393693" xlink:href="#m450ff4b26f" y="340.051473"/>
     <use style="fill:#ff7f0e;stroke:#ff7f0e;" x="256.79142" xlink:href="#m450ff4b26f" y="344.387145"/>
     <use style="fill:#ff7f0e;stroke:#ff7f0e;" x="264.189148" xlink:href="#m450ff4b26f" y="345.501853"/>
     <use style="fill:#ff7f0e;stroke:#ff7f0e;" x="271.586875" xlink:href="#m450ff4b26f" y="341.810932"/>
     <use style="fill:#ff7f0e;stroke:#ff7f0e;" x="278.984602" xlink:href="#m450ff4b26f" y="343.724555"/>
     <use style="fill:#ff7f0e;stroke:#ff7f0e;" x="286.38233" xlink:href="#m450ff4b26f" y="339.479443"/>
     <use style="fill:#ff7f0e;stroke:#ff7f0e;" x="293.780057" xlink:href="#m450ff4b26f" y="339.792024"/>
     <use style="fill:#ff7f0e;stroke:#ff7f0e;" x="301.177784" xlink:href="#m450ff4b26f" y="341.617227"/>
     <use style="fill:#ff7f0e;stroke:#ff7f0e;" x="308.575511" xlink:href="#m450ff4b26f" y="341.297979"/>
     <use style="fill:#ff7f0e;stroke:#ff7f0e;" x="315.973239" xlink:href="#m450ff4b26f" y="341.31476"/>
     <use style="fill:#ff7f0e;stroke:#ff7f0e;" x="323.370966" xlink:href="#m450ff4b26f" y="342.185824"/>
     <use style="fill:#ff7f0e;stroke:#ff7f0e;" x="330.768693" xlink:href="#m450ff4b26f" y="340.86861"/>
     <use style="fill:#ff7f0e;stroke:#ff7f0e;" x="338.16642" xlink:href="#m450ff4b26f" y="340.378299"/>
     <use style="fill:#ff7f0e;stroke:#ff7f0e;" x="345.564148" xlink:href="#m450ff4b26f" y="339.535273"/>
     <use style="fill:#ff7f0e;stroke:#ff7f0e;" x="352.961875" xlink:href="#m450ff4b26f" y="342.875983"/>
     <use style="fill:#ff7f0e;stroke:#ff7f0e;" x="360.359602" xlink:href="#m450ff4b26f" y="340.986398"/>
     <use style="fill:#ff7f0e;stroke:#ff7f0e;" x="367.75733" xlink:href="#m450ff4b26f" y="342.19305"/>
     <use style="fill:#ff7f0e;stroke:#ff7f0e;" x="375.155057" xlink:href="#m450ff4b26f" y="342.974676"/>
     <use style="fill:#ff7f0e;stroke:#ff7f0e;" x="382.552784" xlink:href="#m450ff4b26f" y="341.155539"/>
     <use style="fill:#ff7f0e;stroke:#ff7f0e;" x="389.950511" xlink:href="#m450ff4b26f" y="342.937007"/>
     <use style="fill:#ff7f0e;stroke:#ff7f0e;" x="397.348239" xlink:href="#m450ff4b26f" y="342.399883"/>
     <use style="fill:#ff7f0e;stroke:#ff7f0e;" x="404.745966" xlink:href="#m450ff4b26f" y="342.430584"/>
     <use style="fill:#ff7f0e;stroke:#ff7f0e;" x="412.143693" xlink:href="#m450ff4b26f" y="343.728258"/>
     <use style="fill:#ff7f0e;stroke:#ff7f0e;" x="419.54142" xlink:href="#m450ff4b26f" y="343.729871"/>
     <use style="fill:#ff7f0e;stroke:#ff7f0e;" x="426.939148" xlink:href="#m450ff4b26f" y="343.366854"/>
     <use style="fill:#ff7f0e;stroke:#ff7f0e;" x="434.336875" xlink:href="#m450ff4b26f" y="342.255499"/>
     <use style="fill:#ff7f0e;stroke:#ff7f0e;" x="441.734602" xlink:href="#m450ff4b26f" y="341.898886"/>
     <use style="fill:#ff7f0e;stroke:#ff7f0e;" x="449.13233" xlink:href="#m450ff4b26f" y="340.627826"/>
    </g>
   </g>
   <g id="line2d_18">
    <path clip-path="url(#p6f18431cf8)" d="M 94.04142 265.820248 
L 101.439148 268.147177 
L 108.836875 264.059245 
L 116.234602 266.764138 
L 123.63233 270.093721 
L 131.030057 274.14724 
L 138.427784 275.481471 
L 145.825511 282.098154 
L 153.223239 257.235238 
L 160.620966 270.127158 
L 168.018693 270.701026 
L 175.41642 273.782496 
L 182.814148 274.031496 
L 190.211875 269.659744 
L 197.609602 266.272847 
L 205.00733 267.955096 
L 212.405057 269.221296 
L 219.802784 271.318073 
L 227.200511 273.959076 
L 234.598239 273.410487 
L 241.995966 270.621415 
L 249.393693 273.42728 
L 256.79142 271.670713 
L 264.189148 275.19476 
L 271.586875 272.505863 
L 278.984602 271.758929 
L 286.38233 268.084415 
L 293.780057 267.802282 
L 301.177784 269.321343 
L 308.575511 264.266369 
L 315.973239 273.058452 
L 323.370966 270.320731 
L 330.768693 271.580107 
L 338.16642 271.955818 
L 345.564148 272.034579 
L 352.961875 269.631789 
L 360.359602 274.076287 
L 367.75733 273.717499 
L 375.155057 273.999404 
L 382.552784 271.507702 
L 389.950511 274.256738 
L 397.348239 270.812622 
L 404.745966 271.157709 
L 412.143693 271.249831 
L 419.54142 269.10199 
L 426.939148 269.332019 
L 434.336875 272.756141 
L 441.734602 273.460961 
L 449.13233 273.132567 
" style="fill:none;stroke:#2ca02c;stroke-dasharray:5.55,2.4;stroke-dashoffset:0;stroke-width:1.5;"/>
    <defs>
     <path d="M 0 3 
C 0.795609 3 1.55874 2.683901 2.12132 2.12132 
C 2.683901 1.55874 3 0.795609 3 0 
C 3 -0.795609 2.683901 -1.55874 2.12132 -2.12132 
C 1.55874 -2.683901 0.795609 -3 0 -3 
C -0.795609 -3 -1.55874 -2.683901 -2.12132 -2.12132 
C -2.683901 -1.55874 -3 -0.795609 -3 0 
C -3 0.795609 -2.683901 1.55874 -2.12132 2.12132 
C -1.55874 2.683901 -0.795609 3 0 3 
z
" id="m1999e0a865" style="stroke:#2ca02c;"/>
    </defs>
    <g clip-path="url(#p6f18431cf8)">
     <use style="fill:#2ca02c;stroke:#2ca02c;" x="94.04142" xlink:href="#m1999e0a865" y="265.820248"/>
     <use style="fill:#2ca02c;stroke:#2ca02c;" x="101.439148" xlink:href="#m1999e0a865" y="268.147177"/>
     <use style="fill:#2ca02c;stroke:#2ca02c;" x="108.836875" xlink:href="#m1999e0a865" y="264.059245"/>
     <use style="fill:#2ca02c;stroke:#2ca02c;" x="116.234602" xlink:href="#m1999e0a865" y="266.764138"/>
     <use style="fill:#2ca02c;stroke:#2ca02c;" x="123.63233" xlink:href="#m1999e0a865" y="270.093721"/>
     <use style="fill:#2ca02c;stroke:#2ca02c;" x="131.030057" xlink:href="#m1999e0a865" y="274.14724"/>
     <use style="fill:#2ca02c;stroke:#2ca02c;" x="138.427784" xlink:href="#m1999e0a865" y="275.481471"/>
     <use style="fill:#2ca02c;stroke:#2ca02c;" x="145.825511" xlink:href="#m1999e0a865" y="282.098154"/>
     <use style="fill:#2ca02c;stroke:#2ca02c;" x="153.223239" xlink:href="#m1999e0a865" y="257.235238"/>
     <use style="fill:#2ca02c;stroke:#2ca02c;" x="160.620966" xlink:href="#m1999e0a865" y="270.127158"/>
     <use style="fill:#2ca02c;stroke:#2ca02c;" x="168.018693" xlink:href="#m1999e0a865" y="270.701026"/>
     <use style="fill:#2ca02c;stroke:#2ca02c;" x="175.41642" xlink:href="#m1999e0a865" y="273.782496"/>
     <use style="fill:#2ca02c;stroke:#2ca02c;" x="182.814148" xlink:href="#m1999e0a865" y="274.031496"/>
     <use style="fill:#2ca02c;stroke:#2ca02c;" x="190.211875" xlink:href="#m1999e0a865" y="269.659744"/>
     <use style="fill:#2ca02c;stroke:#2ca02c;" x="197.609602" xlink:href="#m1999e0a865" y="266.272847"/>
     <use style="fill:#2ca02c;stroke:#2ca02c;" x="205.00733" xlink:href="#m1999e0a865" y="267.955096"/>
     <use style="fill:#2ca02c;stroke:#2ca02c;" x="212.405057" xlink:href="#m1999e0a865" y="269.221296"/>
     <use style="fill:#2ca02c;stroke:#2ca02c;" x="219.802784" xlink:href="#m1999e0a865" y="271.318073"/>
     <use style="fill:#2ca02c;stroke:#2ca02c;" x="227.200511" xlink:href="#m1999e0a865" y="273.959076"/>
     <use style="fill:#2ca02c;stroke:#2ca02c;" x="234.598239" xlink:href="#m1999e0a865" y="273.410487"/>
     <use style="fill:#2ca02c;stroke:#2ca02c;" x="241.995966" xlink:href="#m1999e0a865" y="270.621415"/>
     <use style="fill:#2ca02c;stroke:#2ca02c;" x="249.393693" xlink:href="#m1999e0a865" y="273.42728"/>
     <use style="fill:#2ca02c;stroke:#2ca02c;" x="256.79142" xlink:href="#m1999e0a865" y="271.670713"/>
     <use style="fill:#2ca02c;stroke:#2ca02c;" x="264.189148" xlink:href="#m1999e0a865" y="275.19476"/>
     <use style="fill:#2ca02c;stroke:#2ca02c;" x="271.586875" xlink:href="#m1999e0a865" y="272.505863"/>
     <use style="fill:#2ca02c;stroke:#2ca02c;" x="278.984602" xlink:href="#m1999e0a865" y="271.758929"/>
     <use style="fill:#2ca02c;stroke:#2ca02c;" x="286.38233" xlink:href="#m1999e0a865" y="268.084415"/>
     <use style="fill:#2ca02c;stroke:#2ca02c;" x="293.780057" xlink:href="#m1999e0a865" y="267.802282"/>
     <use style="fill:#2ca02c;stroke:#2ca02c;" x="301.177784" xlink:href="#m1999e0a865" y="269.321343"/>
     <use style="fill:#2ca02c;stroke:#2ca02c;" x="308.575511" xlink:href="#m1999e0a865" y="264.266369"/>
     <use style="fill:#2ca02c;stroke:#2ca02c;" x="315.973239" xlink:href="#m1999e0a865" y="273.058452"/>
     <use style="fill:#2ca02c;stroke:#2ca02c;" x="323.370966" xlink:href="#m1999e0a865" y="270.320731"/>
     <use style="fill:#2ca02c;stroke:#2ca02c;" x="330.768693" xlink:href="#m1999e0a865" y="271.580107"/>
     <use style="fill:#2ca02c;stroke:#2ca02c;" x="338.16642" xlink:href="#m1999e0a865" y="271.955818"/>
     <use style="fill:#2ca02c;stroke:#2ca02c;" x="345.564148" xlink:href="#m1999e0a865" y="272.034579"/>
     <use style="fill:#2ca02c;stroke:#2ca02c;" x="352.961875" xlink:href="#m1999e0a865" y="269.631789"/>
     <use style="fill:#2ca02c;stroke:#2ca02c;" x="360.359602" xlink:href="#m1999e0a865" y="274.076287"/>
     <use style="fill:#2ca02c;stroke:#2ca02c;" x="367.75733" xlink:href="#m1999e0a865" y="273.717499"/>
     <use style="fill:#2ca02c;stroke:#2ca02c;" x="375.155057" xlink:href="#m1999e0a865" y="273.999404"/>
     <use style="fill:#2ca02c;stroke:#2ca02c;" x="382.552784" xlink:href="#m1999e0a865" y="271.507702"/>
     <use style="fill:#2ca02c;stroke:#2ca02c;" x="389.950511" xlink:href="#m1999e0a865" y="274.256738"/>
     <use style="fill:#2ca02c;stroke:#2ca02c;" x="397.348239" xlink:href="#m1999e0a865" y="270.812622"/>
     <use style="fill:#2ca02c;stroke:#2ca02c;" x="404.745966" xlink:href="#m1999e0a865" y="271.157709"/>
     <use style="fill:#2ca02c;stroke:#2ca02c;" x="412.143693" xlink:href="#m1999e0a865" y="271.249831"/>
     <use style="fill:#2ca02c;stroke:#2ca02c;" x="419.54142" xlink:href="#m1999e0a865" y="269.10199"/>
     <use style="fill:#2ca02c;stroke:#2ca02c;" x="426.939148" xlink:href="#m1999e0a865" y="269.332019"/>
     <use style="fill:#2ca02c;stroke:#2ca02c;" x="434.336875" xlink:href="#m1999e0a865" y="272.756141"/>
     <use style="fill:#2ca02c;stroke:#2ca02c;" x="441.734602" xlink:href="#m1999e0a865" y="273.460961"/>
     <use style="fill:#2ca02c;stroke:#2ca02c;" x="449.13233" xlink:href="#m1999e0a865" y="273.132567"/>
    </g>
   </g>
   <g id="line2d_19">
    <path clip-path="url(#p6f18431cf8)" d="M 94.04142 24.496364 
L 101.439148 117.592333 
L 108.836875 125.60729 
L 116.234602 148.830211 
L 123.63233 137.295917 
L 131.030057 143.038304 
L 138.427784 139.641235 
L 145.825511 152.852449 
L 153.223239 149.838643 
L 160.620966 149.593919 
L 168.018693 142.797709 
L 175.41642 150.154306 
L 182.814148 149.889296 
L 190.211875 150.428543 
L 197.609602 152.806873 
L 205.00733 157.345055 
L 212.405057 152.09267 
L 219.802784 151.672649 
L 227.200511 155.120466 
L 234.598239 154.948674 
L 241.995966 159.972123 
L 249.393693 157.103418 
L 256.79142 151.933927 
L 264.189148 165.227823 
L 271.586875 158.302959 
L 278.984602 153.525577 
L 286.38233 157.814799 
L 293.780057 156.004745 
L 301.177784 164.053847 
L 308.575511 154.316816 
L 315.973239 154.593399 
L 323.370966 158.969607 
L 330.768693 157.442572 
L 338.16642 156.879328 
L 345.564148 159.213568 
L 352.961875 160.866649 
L 360.359602 159.399525 
L 367.75733 159.60673 
L 375.155057 157.924037 
L 382.552784 160.977196 
L 389.950511 155.866196 
L 397.348239 162.656088 
L 404.745966 155.620757 
L 412.143693 161.816429 
L 419.54142 156.738296 
L 426.939148 157.911314 
L 434.336875 159.350462 
L 441.734602 160.089611 
L 449.13233 161.095046 
" style="fill:none;stroke:#d62728;stroke-dasharray:5.55,2.4;stroke-dashoffset:0;stroke-width:1.5;"/>
    <defs>
     <path d="M 0 3 
C 0.795609 3 1.55874 2.683901 2.12132 2.12132 
C 2.683901 1.55874 3 0.795609 3 0 
C 3 -0.795609 2.683901 -1.55874 2.12132 -2.12132 
C 1.55874 -2.683901 0.795609 -3 0 -3 
C -0.795609 -3 -1.55874 -2.683901 -2.12132 -2.12132 
C -2.683901 -1.55874 -3 -0.795609 -3 0 
C -3 0.795609 -2.683901 1.55874 -2.12132 2.12132 
C -1.55874 2.683901 -0.795609 3 0 3 
z
" id="m65df49c869" style="stroke:#d62728;"/>
    </defs>
    <g clip-path="url(#p6f18431cf8)">
     <use style="fill:#d62728;stroke:#d62728;" x="94.04142" xlink:href="#m65df49c869" y="24.496364"/>
     <use style="fill:#d62728;stroke:#d62728;" x="101.439148" xlink:href="#m65df49c869" y="117.592333"/>
     <use style="fill:#d62728;stroke:#d62728;" x="108.836875" xlink:href="#m65df49c869" y="125.60729"/>
     <use style="fill:#d62728;stroke:#d62728;" x="116.234602" xlink:href="#m65df49c869" y="148.830211"/>
     <use style="fill:#d62728;stroke:#d62728;" x="123.63233" xlink:href="#m65df49c869" y="137.295917"/>
     <use style="fill:#d62728;stroke:#d62728;" x="131.030057" xlink:href="#m65df49c869" y="143.038304"/>
     <use style="fill:#d62728;stroke:#d62728;" x="138.427784" xlink:href="#m65df49c869" y="139.641235"/>
     <use style="fill:#d62728;stroke:#d62728;" x="145.825511" xlink:href="#m65df49c869" y="152.852449"/>
     <use style="fill:#d62728;stroke:#d62728;" x="153.223239" xlink:href="#m65df49c869" y="149.838643"/>
     <use style="fill:#d62728;stroke:#d62728;" x="160.620966" xlink:href="#m65df49c869" y="149.593919"/>
     <use style="fill:#d62728;stroke:#d62728;" x="168.018693" xlink:href="#m65df49c869" y="142.797709"/>
     <use style="fill:#d62728;stroke:#d62728;" x="175.41642" xlink:href="#m65df49c869" y="150.154306"/>
     <use style="fill:#d62728;stroke:#d62728;" x="182.814148" xlink:href="#m65df49c869" y="149.889296"/>
     <use style="fill:#d62728;stroke:#d62728;" x="190.211875" xlink:href="#m65df49c869" y="150.428543"/>
     <use style="fill:#d62728;stroke:#d62728;" x="197.609602" xlink:href="#m65df49c869" y="152.806873"/>
     <use style="fill:#d62728;stroke:#d62728;" x="205.00733" xlink:href="#m65df49c869" y="157.345055"/>
     <use style="fill:#d62728;stroke:#d62728;" x="212.405057" xlink:href="#m65df49c869" y="152.09267"/>
     <use style="fill:#d62728;stroke:#d62728;" x="219.802784" xlink:href="#m65df49c869" y="151.672649"/>
     <use style="fill:#d62728;stroke:#d62728;" x="227.200511" xlink:href="#m65df49c869" y="155.120466"/>
     <use style="fill:#d62728;stroke:#d62728;" x="234.598239" xlink:href="#m65df49c869" y="154.948674"/>
     <use style="fill:#d62728;stroke:#d62728;" x="241.995966" xlink:href="#m65df49c869" y="159.972123"/>
     <use style="fill:#d62728;stroke:#d62728;" x="249.393693" xlink:href="#m65df49c869" y="157.103418"/>
     <use style="fill:#d62728;stroke:#d62728;" x="256.79142" xlink:href="#m65df49c869" y="151.933927"/>
     <use style="fill:#d62728;stroke:#d62728;" x="264.189148" xlink:href="#m65df49c869" y="165.227823"/>
     <use style="fill:#d62728;stroke:#d62728;" x="271.586875" xlink:href="#m65df49c869" y="158.302959"/>
     <use style="fill:#d62728;stroke:#d62728;" x="278.984602" xlink:href="#m65df49c869" y="153.525577"/>
     <use style="fill:#d62728;stroke:#d62728;" x="286.38233" xlink:href="#m65df49c869" y="157.814799"/>
     <use style="fill:#d62728;stroke:#d62728;" x="293.780057" xlink:href="#m65df49c869" y="156.004745"/>
     <use style="fill:#d62728;stroke:#d62728;" x="301.177784" xlink:href="#m65df49c869" y="164.053847"/>
     <use style="fill:#d62728;stroke:#d62728;" x="308.575511" xlink:href="#m65df49c869" y="154.316816"/>
     <use style="fill:#d62728;stroke:#d62728;" x="315.973239" xlink:href="#m65df49c869" y="154.593399"/>
     <use style="fill:#d62728;stroke:#d62728;" x="323.370966" xlink:href="#m65df49c869" y="158.969607"/>
     <use style="fill:#d62728;stroke:#d62728;" x="330.768693" xlink:href="#m65df49c869" y="157.442572"/>
     <use style="fill:#d62728;stroke:#d62728;" x="338.16642" xlink:href="#m65df49c869" y="156.879328"/>
     <use style="fill:#d62728;stroke:#d62728;" x="345.564148" xlink:href="#m65df49c869" y="159.213568"/>
     <use style="fill:#d62728;stroke:#d62728;" x="352.961875" xlink:href="#m65df49c869" y="160.866649"/>
     <use style="fill:#d62728;stroke:#d62728;" x="360.359602" xlink:href="#m65df49c869" y="159.399525"/>
     <use style="fill:#d62728;stroke:#d62728;" x="367.75733" xlink:href="#m65df49c869" y="159.60673"/>
     <use style="fill:#d62728;stroke:#d62728;" x="375.155057" xlink:href="#m65df49c869" y="157.924037"/>
     <use style="fill:#d62728;stroke:#d62728;" x="382.552784" xlink:href="#m65df49c869" y="160.977196"/>
     <use style="fill:#d62728;stroke:#d62728;" x="389.950511" xlink:href="#m65df49c869" y="155.866196"/>
     <use style="fill:#d62728;stroke:#d62728;" x="397.348239" xlink:href="#m65df49c869" y="162.656088"/>
     <use style="fill:#d62728;stroke:#d62728;" x="404.745966" xlink:href="#m65df49c869" y="155.620757"/>
     <use style="fill:#d62728;stroke:#d62728;" x="412.143693" xlink:href="#m65df49c869" y="161.816429"/>
     <use style="fill:#d62728;stroke:#d62728;" x="419.54142" xlink:href="#m65df49c869" y="156.738296"/>
     <use style="fill:#d62728;stroke:#d62728;" x="426.939148" xlink:href="#m65df49c869" y="157.911314"/>
     <use style="fill:#d62728;stroke:#d62728;" x="434.336875" xlink:href="#m65df49c869" y="159.350462"/>
     <use style="fill:#d62728;stroke:#d62728;" x="441.734602" xlink:href="#m65df49c869" y="160.089611"/>
     <use style="fill:#d62728;stroke:#d62728;" x="449.13233" xlink:href="#m65df49c869" y="161.095046"/>
    </g>
   </g>
   <g id="patch_3">
    <path d="M 76.286875 387.72 
L 76.286875 7.2 
" style="fill:none;stroke:#000000;stroke-linecap:square;stroke-linejoin:miter;stroke-width:0.8;"/>
   </g>
   <g id="patch_4">
    <path d="M 466.886875 387.72 
L 466.886875 7.2 
" style="fill:none;stroke:#000000;stroke-linecap:square;stroke-linejoin:miter;stroke-width:0.8;"/>
   </g>
   <g id="patch_5">
    <path d="M 76.286875 387.72 
L 466.886875 387.72 
" style="fill:none;stroke:#000000;stroke-linecap:square;stroke-linejoin:miter;stroke-width:0.8;"/>
   </g>
   <g id="patch_6">
    <path d="M 76.286875 7.2 
L 466.886875 7.2 
" style="fill:none;stroke:#000000;stroke-linecap:square;stroke-linejoin:miter;stroke-width:0.8;"/>
   </g>
   <g id="legend_1">
    <g id="patch_7">
     <path d="M 273.695625 102.155 
L 457.086875 102.155 
Q 459.886875 102.155 459.886875 99.355 
L 459.886875 17 
Q 459.886875 14.2 457.086875 14.2 
L 273.695625 14.2 
Q 270.895625 14.2 270.895625 17 
L 270.895625 99.355 
Q 270.895625 102.155 273.695625 102.155 
z
" style="fill:#ffffff;opacity:0.8;stroke:#cccccc;stroke-linejoin:miter;"/>
    </g>
    <g id="line2d_20">
     <path d="M 276.495625 25.537813 
L 304.495625 25.537813 
" style="fill:none;stroke:#1f77b4;stroke-dasharray:5.55,2.4;stroke-dashoffset:0;stroke-width:1.5;"/>
    </g>
    <g id="line2d_21">
     <g>
      <use style="fill:#1f77b4;stroke:#1f77b4;" x="290.495625" xlink:href="#m19cf867a09" y="25.537813"/>
     </g>
    </g>
    <g id="text_18">
     <!-- Gap - max_depth: 1 -->
     <g transform="translate(315.695625 30.437813)scale(0.14 -0.14)">
      <defs>
       <path d="M 3809 666 
L 3809 1919 
L 2778 1919 
L 2778 2438 
L 4434 2438 
L 4434 434 
Q 4069 175 3628 42 
Q 3188 -91 2688 -91 
Q 1594 -91 976 548 
Q 359 1188 359 2328 
Q 359 3472 976 4111 
Q 1594 4750 2688 4750 
Q 3144 4750 3555 4637 
Q 3966 4525 4313 4306 
L 4313 3634 
Q 3963 3931 3569 4081 
Q 3175 4231 2741 4231 
Q 1884 4231 1454 3753 
Q 1025 3275 1025 2328 
Q 1025 1384 1454 906 
Q 1884 428 2741 428 
Q 3075 428 3337 486 
Q 3600 544 3809 666 
z
" id="DejaVuSans-47" transform="scale(0.015625)"/>
       <path d="M 1159 525 
L 1159 -1331 
L 581 -1331 
L 581 3500 
L 1159 3500 
L 1159 2969 
Q 1341 3281 1617 3432 
Q 1894 3584 2278 3584 
Q 2916 3584 3314 3078 
Q 3713 2572 3713 1747 
Q 3713 922 3314 415 
Q 2916 -91 2278 -91 
Q 1894 -91 1617 61 
Q 1341 213 1159 525 
z
M 3116 1747 
Q 3116 2381 2855 2742 
Q 2594 3103 2138 3103 
Q 1681 3103 1420 2742 
Q 1159 2381 1159 1747 
Q 1159 1113 1420 752 
Q 1681 391 2138 391 
Q 2594 391 2855 752 
Q 3116 1113 3116 1747 
z
" id="DejaVuSans-70" transform="scale(0.015625)"/>
       <path d="M 313 2009 
L 1997 2009 
L 1997 1497 
L 313 1497 
L 313 2009 
z
" id="DejaVuSans-2d" transform="scale(0.015625)"/>
       <path d="M 3513 3500 
L 2247 1797 
L 3578 0 
L 2900 0 
L 1881 1375 
L 863 0 
L 184 0 
L 1544 1831 
L 300 3500 
L 978 3500 
L 1906 2253 
L 2834 3500 
L 3513 3500 
z
" id="DejaVuSans-78" transform="scale(0.015625)"/>
       <path d="M 3263 -1063 
L 3263 -1509 
L -63 -1509 
L -63 -1063 
L 3263 -1063 
z
" id="DejaVuSans-5f" transform="scale(0.015625)"/>
       <path d="M 2906 2969 
L 2906 4863 
L 3481 4863 
L 3481 0 
L 2906 0 
L 2906 525 
Q 2725 213 2448 61 
Q 2172 -91 1784 -91 
Q 1150 -91 751 415 
Q 353 922 353 1747 
Q 353 2572 751 3078 
Q 1150 3584 1784 3584 
Q 2172 3584 2448 3432 
Q 2725 3281 2906 2969 
z
M 947 1747 
Q 947 1113 1208 752 
Q 1469 391 1925 391 
Q 2381 391 2643 752 
Q 2906 1113 2906 1747 
Q 2906 2381 2643 2742 
Q 2381 3103 1925 3103 
Q 1469 3103 1208 2742 
Q 947 2381 947 1747 
z
" id="DejaVuSans-64" transform="scale(0.015625)"/>
       <path d="M 3513 2113 
L 3513 0 
L 2938 0 
L 2938 2094 
Q 2938 2591 2744 2837 
Q 2550 3084 2163 3084 
Q 1697 3084 1428 2787 
Q 1159 2491 1159 1978 
L 1159 0 
L 581 0 
L 581 4863 
L 1159 4863 
L 1159 2956 
Q 1366 3272 1645 3428 
Q 1925 3584 2291 3584 
Q 2894 3584 3203 3211 
Q 3513 2838 3513 2113 
z
" id="DejaVuSans-68" transform="scale(0.015625)"/>
       <path d="M 750 794 
L 1409 794 
L 1409 0 
L 750 0 
L 750 794 
z
M 750 3309 
L 1409 3309 
L 1409 2516 
L 750 2516 
L 750 3309 
z
" id="DejaVuSans-3a" transform="scale(0.015625)"/>
      </defs>
      <use xlink:href="#DejaVuSans-47"/>
      <use x="77.490234" xlink:href="#DejaVuSans-61"/>
      <use x="138.769531" xlink:href="#DejaVuSans-70"/>
      <use x="202.246094" xlink:href="#DejaVuSans-20"/>
      <use x="234.033203" xlink:href="#DejaVuSans-2d"/>
      <use x="270.117188" xlink:href="#DejaVuSans-20"/>
      <use x="301.904297" xlink:href="#DejaVuSans-6d"/>
      <use x="399.316406" xlink:href="#DejaVuSans-61"/>
      <use x="460.595703" xlink:href="#DejaVuSans-78"/>
      <use x="519.775391" xlink:href="#DejaVuSans-5f"/>
      <use x="569.775391" xlink:href="#DejaVuSans-64"/>
      <use x="633.251953" xlink:href="#DejaVuSans-65"/>
      <use x="694.775391" xlink:href="#DejaVuSans-70"/>
      <use x="758.251953" xlink:href="#DejaVuSans-74"/>
      <use x="797.460938" xlink:href="#DejaVuSans-68"/>
      <use x="860.839844" xlink:href="#DejaVuSans-3a"/>
      <use x="894.53125" xlink:href="#DejaVuSans-20"/>
      <use x="926.318359" xlink:href="#DejaVuSans-31"/>
     </g>
    </g>
    <g id="line2d_22">
     <path d="M 276.495625 46.476563 
L 304.495625 46.476563 
" style="fill:none;stroke:#ff7f0e;stroke-dasharray:5.55,2.4;stroke-dashoffset:0;stroke-width:1.5;"/>
    </g>
    <g id="line2d_23">
     <g>
      <use style="fill:#ff7f0e;stroke:#ff7f0e;" x="290.495625" xlink:href="#m450ff4b26f" y="46.476563"/>
     </g>
    </g>
    <g id="text_19">
     <!-- Gap - max_depth: 3 -->
     <g transform="translate(315.695625 51.376563)scale(0.14 -0.14)">
      <use xlink:href="#DejaVuSans-47"/>
      <use x="77.490234" xlink:href="#DejaVuSans-61"/>
      <use x="138.769531" xlink:href="#DejaVuSans-70"/>
      <use x="202.246094" xlink:href="#DejaVuSans-20"/>
      <use x="234.033203" xlink:href="#DejaVuSans-2d"/>
      <use x="270.117188" xlink:href="#DejaVuSans-20"/>
      <use x="301.904297" xlink:href="#DejaVuSans-6d"/>
      <use x="399.316406" xlink:href="#DejaVuSans-61"/>
      <use x="460.595703" xlink:href="#DejaVuSans-78"/>
      <use x="519.775391" xlink:href="#DejaVuSans-5f"/>
      <use x="569.775391" xlink:href="#DejaVuSans-64"/>
      <use x="633.251953" xlink:href="#DejaVuSans-65"/>
      <use x="694.775391" xlink:href="#DejaVuSans-70"/>
      <use x="758.251953" xlink:href="#DejaVuSans-74"/>
      <use x="797.460938" xlink:href="#DejaVuSans-68"/>
      <use x="860.839844" xlink:href="#DejaVuSans-3a"/>
      <use x="894.53125" xlink:href="#DejaVuSans-20"/>
      <use x="926.318359" xlink:href="#DejaVuSans-33"/>
     </g>
    </g>
    <g id="line2d_24">
     <path d="M 276.495625 67.415312 
L 304.495625 67.415312 
" style="fill:none;stroke:#2ca02c;stroke-dasharray:5.55,2.4;stroke-dashoffset:0;stroke-width:1.5;"/>
    </g>
    <g id="line2d_25">
     <g>
      <use style="fill:#2ca02c;stroke:#2ca02c;" x="290.495625" xlink:href="#m1999e0a865" y="67.415312"/>
     </g>
    </g>
    <g id="text_20">
     <!-- Gap - max_depth: 6 -->
     <g transform="translate(315.695625 72.315313)scale(0.14 -0.14)">
      <defs>
       <path d="M 2113 2584 
Q 1688 2584 1439 2293 
Q 1191 2003 1191 1497 
Q 1191 994 1439 701 
Q 1688 409 2113 409 
Q 2538 409 2786 701 
Q 3034 994 3034 1497 
Q 3034 2003 2786 2293 
Q 2538 2584 2113 2584 
z
M 3366 4563 
L 3366 3988 
Q 3128 4100 2886 4159 
Q 2644 4219 2406 4219 
Q 1781 4219 1451 3797 
Q 1122 3375 1075 2522 
Q 1259 2794 1537 2939 
Q 1816 3084 2150 3084 
Q 2853 3084 3261 2657 
Q 3669 2231 3669 1497 
Q 3669 778 3244 343 
Q 2819 -91 2113 -91 
Q 1303 -91 875 529 
Q 447 1150 447 2328 
Q 447 3434 972 4092 
Q 1497 4750 2381 4750 
Q 2619 4750 2861 4703 
Q 3103 4656 3366 4563 
z
" id="DejaVuSans-36" transform="scale(0.015625)"/>
      </defs>
      <use xlink:href="#DejaVuSans-47"/>
      <use x="77.490234" xlink:href="#DejaVuSans-61"/>
      <use x="138.769531" xlink:href="#DejaVuSans-70"/>
      <use x="202.246094" xlink:href="#DejaVuSans-20"/>
      <use x="234.033203" xlink:href="#DejaVuSans-2d"/>
      <use x="270.117188" xlink:href="#DejaVuSans-20"/>
      <use x="301.904297" xlink:href="#DejaVuSans-6d"/>
      <use x="399.316406" xlink:href="#DejaVuSans-61"/>
      <use x="460.595703" xlink:href="#DejaVuSans-78"/>
      <use x="519.775391" xlink:href="#DejaVuSans-5f"/>
      <use x="569.775391" xlink:href="#DejaVuSans-64"/>
      <use x="633.251953" xlink:href="#DejaVuSans-65"/>
      <use x="694.775391" xlink:href="#DejaVuSans-70"/>
      <use x="758.251953" xlink:href="#DejaVuSans-74"/>
      <use x="797.460938" xlink:href="#DejaVuSans-68"/>
      <use x="860.839844" xlink:href="#DejaVuSans-3a"/>
      <use x="894.53125" xlink:href="#DejaVuSans-20"/>
      <use x="926.318359" xlink:href="#DejaVuSans-36"/>
     </g>
    </g>
    <g id="line2d_26">
     <path d="M 276.495625 88.354062 
L 304.495625 88.354062 
" style="fill:none;stroke:#d62728;stroke-dasharray:5.55,2.4;stroke-dashoffset:0;stroke-width:1.5;"/>
    </g>
    <g id="line2d_27">
     <g>
      <use style="fill:#d62728;stroke:#d62728;" x="290.495625" xlink:href="#m65df49c869" y="88.354062"/>
     </g>
    </g>
    <g id="text_21">
     <!-- Gap - max_depth: 9 -->
     <g transform="translate(315.695625 93.254062)scale(0.14 -0.14)">
      <defs>
       <path d="M 703 97 
L 703 672 
Q 941 559 1184 500 
Q 1428 441 1663 441 
Q 2288 441 2617 861 
Q 2947 1281 2994 2138 
Q 2813 1869 2534 1725 
Q 2256 1581 1919 1581 
Q 1219 1581 811 2004 
Q 403 2428 403 3163 
Q 403 3881 828 4315 
Q 1253 4750 1959 4750 
Q 2769 4750 3195 4129 
Q 3622 3509 3622 2328 
Q 3622 1225 3098 567 
Q 2575 -91 1691 -91 
Q 1453 -91 1209 -44 
Q 966 3 703 97 
z
M 1959 2075 
Q 2384 2075 2632 2365 
Q 2881 2656 2881 3163 
Q 2881 3666 2632 3958 
Q 2384 4250 1959 4250 
Q 1534 4250 1286 3958 
Q 1038 3666 1038 3163 
Q 1038 2656 1286 2365 
Q 1534 2075 1959 2075 
z
" id="DejaVuSans-39" transform="scale(0.015625)"/>
      </defs>
      <use xlink:href="#DejaVuSans-47"/>
      <use x="77.490234" xlink:href="#DejaVuSans-61"/>
      <use x="138.769531" xlink:href="#DejaVuSans-70"/>
      <use x="202.246094" xlink:href="#DejaVuSans-20"/>
      <use x="234.033203" xlink:href="#DejaVuSans-2d"/>
      <use x="270.117188" xlink:href="#DejaVuSans-20"/>
      <use x="301.904297" xlink:href="#DejaVuSans-6d"/>
      <use x="399.316406" xlink:href="#DejaVuSans-61"/>
      <use x="460.595703" xlink:href="#DejaVuSans-78"/>
      <use x="519.775391" xlink:href="#DejaVuSans-5f"/>
      <use x="569.775391" xlink:href="#DejaVuSans-64"/>
      <use x="633.251953" xlink:href="#DejaVuSans-65"/>
      <use x="694.775391" xlink:href="#DejaVuSans-70"/>
      <use x="758.251953" xlink:href="#DejaVuSans-74"/>
      <use x="797.460938" xlink:href="#DejaVuSans-68"/>
      <use x="860.839844" xlink:href="#DejaVuSans-3a"/>
      <use x="894.53125" xlink:href="#DejaVuSans-20"/>
      <use x="926.318359" xlink:href="#DejaVuSans-39"/>
     </g>
    </g>
   </g>
  </g>
 </g>
 <defs>
  <clipPath id="p6f18431cf8">
   <rect height="380.52" width="390.6" x="76.286875" y="7.2"/>
  </clipPath>
 </defs>
</svg>
