<?xml version="1.0" encoding="utf-8" standalone="no"?>
<!DOCTYPE svg PUBLIC "-//W3C//DTD SVG 1.1//EN"
  "http://www.w3.org/Graphics/SVG/1.1/DTD/svg11.dtd">
<svg height="433.01875pt" version="1.1" viewBox="0 0 482.994375 433.01875" width="482.994375pt" xmlns="http://www.w3.org/2000/svg" xmlns:xlink="http://www.w3.org/1999/xlink">
 <metadata>
  <rdf:RDF xmlns:cc="http://creativecommons.org/ns#" xmlns:dc="http://purl.org/dc/elements/1.1/" xmlns:rdf="http://www.w3.org/1999/02/22-rdf-syntax-ns#">
   <cc:Work>
    <dc:type rdf:resource="http://purl.org/dc/dcmitype/StillImage"/>
    <dc:date>2022-12-27T14:45:29.356645</dc:date>
    <dc:format>image/svg+xml</dc:format>
    <dc:creator>
     <cc:Agent>
      <dc:title>Matplotlib v3.4.2, https://matplotlib.org/</dc:title>
     </cc:Agent>
    </dc:creator>
   </cc:Work>
  </rdf:RDF>
 </metadata>
 <defs>
  <style type="text/css">*{stroke-linecap:butt;stroke-linejoin:round;}</style>
 </defs>
 <g id="figure_1">
  <g id="patch_1">
   <path d="M 0 433.01875 
L 482.994375 433.01875 
L 482.994375 0 
L 0 0 
z
" style="fill:none;"/>
  </g>
  <g id="axes_1">
   <g id="patch_2">
    <path d="M 85.194375 387.72 
L 475.794375 387.72 
L 475.794375 7.2 
L 85.194375 7.2 
z
" style="fill:#ffffff;"/>
   </g>
   <g id="matplotlib.axis_1">
    <g id="xtick_1">
     <g id="line2d_1">
      <defs>
       <path d="M 0 0 
L 0 3.5 
" id="m4c56cd9580" style="stroke:#000000;stroke-width:0.8;"/>
      </defs>
      <g>
       <use style="stroke:#000000;stroke-width:0.8;" x="95.551193" xlink:href="#m4c56cd9580" y="387.72"/>
      </g>
     </g>
     <g id="text_1">
      <!-- 0 -->
      <g transform="translate(91.097443 405.357812)scale(0.14 -0.14)">
       <defs>
        <path d="M 2034 4250 
Q 1547 4250 1301 3770 
Q 1056 3291 1056 2328 
Q 1056 1369 1301 889 
Q 1547 409 2034 409 
Q 2525 409 2770 889 
Q 3016 1369 3016 2328 
Q 3016 3291 2770 3770 
Q 2525 4250 2034 4250 
z
M 2034 4750 
Q 2819 4750 3233 4129 
Q 3647 3509 3647 2328 
Q 3647 1150 3233 529 
Q 2819 -91 2034 -91 
Q 1250 -91 836 529 
Q 422 1150 422 2328 
Q 422 3509 836 4129 
Q 1250 4750 2034 4750 
z
" id="DejaVuSans-30" transform="scale(0.015625)"/>
       </defs>
       <use xlink:href="#DejaVuSans-30"/>
      </g>
     </g>
    </g>
    <g id="xtick_2">
     <g id="line2d_2">
      <g>
       <use style="stroke:#000000;stroke-width:0.8;" x="169.528466" xlink:href="#m4c56cd9580" y="387.72"/>
      </g>
     </g>
     <g id="text_2">
      <!-- 10 -->
      <g transform="translate(160.620966 405.357812)scale(0.14 -0.14)">
       <defs>
        <path d="M 794 531 
L 1825 531 
L 1825 4091 
L 703 3866 
L 703 4441 
L 1819 4666 
L 2450 4666 
L 2450 531 
L 3481 531 
L 3481 0 
L 794 0 
L 794 531 
z
" id="DejaVuSans-31" transform="scale(0.015625)"/>
       </defs>
       <use xlink:href="#DejaVuSans-31"/>
       <use x="63.623047" xlink:href="#DejaVuSans-30"/>
      </g>
     </g>
    </g>
    <g id="xtick_3">
     <g id="line2d_3">
      <g>
       <use style="stroke:#000000;stroke-width:0.8;" x="243.505739" xlink:href="#m4c56cd9580" y="387.72"/>
      </g>
     </g>
     <g id="text_3">
      <!-- 20 -->
      <g transform="translate(234.598239 405.357812)scale(0.14 -0.14)">
       <defs>
        <path d="M 1228 531 
L 3431 531 
L 3431 0 
L 469 0 
L 469 531 
Q 828 903 1448 1529 
Q 2069 2156 2228 2338 
Q 2531 2678 2651 2914 
Q 2772 3150 2772 3378 
Q 2772 3750 2511 3984 
Q 2250 4219 1831 4219 
Q 1534 4219 1204 4116 
Q 875 4013 500 3803 
L 500 4441 
Q 881 4594 1212 4672 
Q 1544 4750 1819 4750 
Q 2544 4750 2975 4387 
Q 3406 4025 3406 3419 
Q 3406 3131 3298 2873 
Q 3191 2616 2906 2266 
Q 2828 2175 2409 1742 
Q 1991 1309 1228 531 
z
" id="DejaVuSans-32" transform="scale(0.015625)"/>
       </defs>
       <use xlink:href="#DejaVuSans-32"/>
       <use x="63.623047" xlink:href="#DejaVuSans-30"/>
      </g>
     </g>
    </g>
    <g id="xtick_4">
     <g id="line2d_4">
      <g>
       <use style="stroke:#000000;stroke-width:0.8;" x="317.483011" xlink:href="#m4c56cd9580" y="387.72"/>
      </g>
     </g>
     <g id="text_4">
      <!-- 30 -->
      <g transform="translate(308.575511 405.357812)scale(0.14 -0.14)">
       <defs>
        <path d="M 2597 2516 
Q 3050 2419 3304 2112 
Q 3559 1806 3559 1356 
Q 3559 666 3084 287 
Q 2609 -91 1734 -91 
Q 1441 -91 1130 -33 
Q 819 25 488 141 
L 488 750 
Q 750 597 1062 519 
Q 1375 441 1716 441 
Q 2309 441 2620 675 
Q 2931 909 2931 1356 
Q 2931 1769 2642 2001 
Q 2353 2234 1838 2234 
L 1294 2234 
L 1294 2753 
L 1863 2753 
Q 2328 2753 2575 2939 
Q 2822 3125 2822 3475 
Q 2822 3834 2567 4026 
Q 2313 4219 1838 4219 
Q 1578 4219 1281 4162 
Q 984 4106 628 3988 
L 628 4550 
Q 988 4650 1302 4700 
Q 1616 4750 1894 4750 
Q 2613 4750 3031 4423 
Q 3450 4097 3450 3541 
Q 3450 3153 3228 2886 
Q 3006 2619 2597 2516 
z
" id="DejaVuSans-33" transform="scale(0.015625)"/>
       </defs>
       <use xlink:href="#DejaVuSans-33"/>
       <use x="63.623047" xlink:href="#DejaVuSans-30"/>
      </g>
     </g>
    </g>
    <g id="xtick_5">
     <g id="line2d_5">
      <g>
       <use style="stroke:#000000;stroke-width:0.8;" x="391.460284" xlink:href="#m4c56cd9580" y="387.72"/>
      </g>
     </g>
     <g id="text_5">
      <!-- 40 -->
      <g transform="translate(382.552784 405.357812)scale(0.14 -0.14)">
       <defs>
        <path d="M 2419 4116 
L 825 1625 
L 2419 1625 
L 2419 4116 
z
M 2253 4666 
L 3047 4666 
L 3047 1625 
L 3713 1625 
L 3713 1100 
L 3047 1100 
L 3047 0 
L 2419 0 
L 2419 1100 
L 313 1100 
L 313 1709 
L 2253 4666 
z
" id="DejaVuSans-34" transform="scale(0.015625)"/>
       </defs>
       <use xlink:href="#DejaVuSans-34"/>
       <use x="63.623047" xlink:href="#DejaVuSans-30"/>
      </g>
     </g>
    </g>
    <g id="xtick_6">
     <g id="line2d_6">
      <g>
       <use style="stroke:#000000;stroke-width:0.8;" x="465.437557" xlink:href="#m4c56cd9580" y="387.72"/>
      </g>
     </g>
     <g id="text_6">
      <!-- 50 -->
      <g transform="translate(456.530057 405.357812)scale(0.14 -0.14)">
       <defs>
        <path d="M 691 4666 
L 3169 4666 
L 3169 4134 
L 1269 4134 
L 1269 2991 
Q 1406 3038 1543 3061 
Q 1681 3084 1819 3084 
Q 2600 3084 3056 2656 
Q 3513 2228 3513 1497 
Q 3513 744 3044 326 
Q 2575 -91 1722 -91 
Q 1428 -91 1123 -41 
Q 819 9 494 109 
L 494 744 
Q 775 591 1075 516 
Q 1375 441 1709 441 
Q 2250 441 2565 725 
Q 2881 1009 2881 1497 
Q 2881 1984 2565 2268 
Q 2250 2553 1709 2553 
Q 1456 2553 1204 2497 
Q 953 2441 691 2322 
L 691 4666 
z
" id="DejaVuSans-35" transform="scale(0.015625)"/>
       </defs>
       <use xlink:href="#DejaVuSans-35"/>
       <use x="63.623047" xlink:href="#DejaVuSans-30"/>
      </g>
     </g>
    </g>
    <g id="text_7">
     <!-- Number of estimators -->
     <g transform="translate(203.875 422.907187)scale(0.14 -0.14)">
      <defs>
       <path d="M 628 4666 
L 1478 4666 
L 3547 763 
L 3547 4666 
L 4159 4666 
L 4159 0 
L 3309 0 
L 1241 3903 
L 1241 0 
L 628 0 
L 628 4666 
z
" id="DejaVuSans-4e" transform="scale(0.015625)"/>
       <path d="M 544 1381 
L 544 3500 
L 1119 3500 
L 1119 1403 
Q 1119 906 1312 657 
Q 1506 409 1894 409 
Q 2359 409 2629 706 
Q 2900 1003 2900 1516 
L 2900 3500 
L 3475 3500 
L 3475 0 
L 2900 0 
L 2900 538 
Q 2691 219 2414 64 
Q 2138 -91 1772 -91 
Q 1169 -91 856 284 
Q 544 659 544 1381 
z
M 1991 3584 
L 1991 3584 
z
" id="DejaVuSans-75" transform="scale(0.015625)"/>
       <path d="M 3328 2828 
Q 3544 3216 3844 3400 
Q 4144 3584 4550 3584 
Q 5097 3584 5394 3201 
Q 5691 2819 5691 2113 
L 5691 0 
L 5113 0 
L 5113 2094 
Q 5113 2597 4934 2840 
Q 4756 3084 4391 3084 
Q 3944 3084 3684 2787 
Q 3425 2491 3425 1978 
L 3425 0 
L 2847 0 
L 2847 2094 
Q 2847 2600 2669 2842 
Q 2491 3084 2119 3084 
Q 1678 3084 1418 2786 
Q 1159 2488 1159 1978 
L 1159 0 
L 581 0 
L 581 3500 
L 1159 3500 
L 1159 2956 
Q 1356 3278 1631 3431 
Q 1906 3584 2284 3584 
Q 2666 3584 2933 3390 
Q 3200 3197 3328 2828 
z
" id="DejaVuSans-6d" transform="scale(0.015625)"/>
       <path d="M 3116 1747 
Q 3116 2381 2855 2742 
Q 2594 3103 2138 3103 
Q 1681 3103 1420 2742 
Q 1159 2381 1159 1747 
Q 1159 1113 1420 752 
Q 1681 391 2138 391 
Q 2594 391 2855 752 
Q 3116 1113 3116 1747 
z
M 1159 2969 
Q 1341 3281 1617 3432 
Q 1894 3584 2278 3584 
Q 2916 3584 3314 3078 
Q 3713 2572 3713 1747 
Q 3713 922 3314 415 
Q 2916 -91 2278 -91 
Q 1894 -91 1617 61 
Q 1341 213 1159 525 
L 1159 0 
L 581 0 
L 581 4863 
L 1159 4863 
L 1159 2969 
z
" id="DejaVuSans-62" transform="scale(0.015625)"/>
       <path d="M 3597 1894 
L 3597 1613 
L 953 1613 
Q 991 1019 1311 708 
Q 1631 397 2203 397 
Q 2534 397 2845 478 
Q 3156 559 3463 722 
L 3463 178 
Q 3153 47 2828 -22 
Q 2503 -91 2169 -91 
Q 1331 -91 842 396 
Q 353 884 353 1716 
Q 353 2575 817 3079 
Q 1281 3584 2069 3584 
Q 2775 3584 3186 3129 
Q 3597 2675 3597 1894 
z
M 3022 2063 
Q 3016 2534 2758 2815 
Q 2500 3097 2075 3097 
Q 1594 3097 1305 2825 
Q 1016 2553 972 2059 
L 3022 2063 
z
" id="DejaVuSans-65" transform="scale(0.015625)"/>
       <path d="M 2631 2963 
Q 2534 3019 2420 3045 
Q 2306 3072 2169 3072 
Q 1681 3072 1420 2755 
Q 1159 2438 1159 1844 
L 1159 0 
L 581 0 
L 581 3500 
L 1159 3500 
L 1159 2956 
Q 1341 3275 1631 3429 
Q 1922 3584 2338 3584 
Q 2397 3584 2469 3576 
Q 2541 3569 2628 3553 
L 2631 2963 
z
" id="DejaVuSans-72" transform="scale(0.015625)"/>
       <path id="DejaVuSans-20" transform="scale(0.015625)"/>
       <path d="M 1959 3097 
Q 1497 3097 1228 2736 
Q 959 2375 959 1747 
Q 959 1119 1226 758 
Q 1494 397 1959 397 
Q 2419 397 2687 759 
Q 2956 1122 2956 1747 
Q 2956 2369 2687 2733 
Q 2419 3097 1959 3097 
z
M 1959 3584 
Q 2709 3584 3137 3096 
Q 3566 2609 3566 1747 
Q 3566 888 3137 398 
Q 2709 -91 1959 -91 
Q 1206 -91 779 398 
Q 353 888 353 1747 
Q 353 2609 779 3096 
Q 1206 3584 1959 3584 
z
" id="DejaVuSans-6f" transform="scale(0.015625)"/>
       <path d="M 2375 4863 
L 2375 4384 
L 1825 4384 
Q 1516 4384 1395 4259 
Q 1275 4134 1275 3809 
L 1275 3500 
L 2222 3500 
L 2222 3053 
L 1275 3053 
L 1275 0 
L 697 0 
L 697 3053 
L 147 3053 
L 147 3500 
L 697 3500 
L 697 3744 
Q 697 4328 969 4595 
Q 1241 4863 1831 4863 
L 2375 4863 
z
" id="DejaVuSans-66" transform="scale(0.015625)"/>
       <path d="M 2834 3397 
L 2834 2853 
Q 2591 2978 2328 3040 
Q 2066 3103 1784 3103 
Q 1356 3103 1142 2972 
Q 928 2841 928 2578 
Q 928 2378 1081 2264 
Q 1234 2150 1697 2047 
L 1894 2003 
Q 2506 1872 2764 1633 
Q 3022 1394 3022 966 
Q 3022 478 2636 193 
Q 2250 -91 1575 -91 
Q 1294 -91 989 -36 
Q 684 19 347 128 
L 347 722 
Q 666 556 975 473 
Q 1284 391 1588 391 
Q 1994 391 2212 530 
Q 2431 669 2431 922 
Q 2431 1156 2273 1281 
Q 2116 1406 1581 1522 
L 1381 1569 
Q 847 1681 609 1914 
Q 372 2147 372 2553 
Q 372 3047 722 3315 
Q 1072 3584 1716 3584 
Q 2034 3584 2315 3537 
Q 2597 3491 2834 3397 
z
" id="DejaVuSans-73" transform="scale(0.015625)"/>
       <path d="M 1172 4494 
L 1172 3500 
L 2356 3500 
L 2356 3053 
L 1172 3053 
L 1172 1153 
Q 1172 725 1289 603 
Q 1406 481 1766 481 
L 2356 481 
L 2356 0 
L 1766 0 
Q 1100 0 847 248 
Q 594 497 594 1153 
L 594 3053 
L 172 3053 
L 172 3500 
L 594 3500 
L 594 4494 
L 1172 4494 
z
" id="DejaVuSans-74" transform="scale(0.015625)"/>
       <path d="M 603 3500 
L 1178 3500 
L 1178 0 
L 603 0 
L 603 3500 
z
M 603 4863 
L 1178 4863 
L 1178 4134 
L 603 4134 
L 603 4863 
z
" id="DejaVuSans-69" transform="scale(0.015625)"/>
       <path d="M 2194 1759 
Q 1497 1759 1228 1600 
Q 959 1441 959 1056 
Q 959 750 1161 570 
Q 1363 391 1709 391 
Q 2188 391 2477 730 
Q 2766 1069 2766 1631 
L 2766 1759 
L 2194 1759 
z
M 3341 1997 
L 3341 0 
L 2766 0 
L 2766 531 
Q 2569 213 2275 61 
Q 1981 -91 1556 -91 
Q 1019 -91 701 211 
Q 384 513 384 1019 
Q 384 1609 779 1909 
Q 1175 2209 1959 2209 
L 2766 2209 
L 2766 2266 
Q 2766 2663 2505 2880 
Q 2244 3097 1772 3097 
Q 1472 3097 1187 3025 
Q 903 2953 641 2809 
L 641 3341 
Q 956 3463 1253 3523 
Q 1550 3584 1831 3584 
Q 2591 3584 2966 3190 
Q 3341 2797 3341 1997 
z
" id="DejaVuSans-61" transform="scale(0.015625)"/>
      </defs>
      <use xlink:href="#DejaVuSans-4e"/>
      <use x="74.804688" xlink:href="#DejaVuSans-75"/>
      <use x="138.183594" xlink:href="#DejaVuSans-6d"/>
      <use x="235.595703" xlink:href="#DejaVuSans-62"/>
      <use x="299.072266" xlink:href="#DejaVuSans-65"/>
      <use x="360.595703" xlink:href="#DejaVuSans-72"/>
      <use x="401.708984" xlink:href="#DejaVuSans-20"/>
      <use x="433.496094" xlink:href="#DejaVuSans-6f"/>
      <use x="494.677734" xlink:href="#DejaVuSans-66"/>
      <use x="529.882812" xlink:href="#DejaVuSans-20"/>
      <use x="561.669922" xlink:href="#DejaVuSans-65"/>
      <use x="623.193359" xlink:href="#DejaVuSans-73"/>
      <use x="675.292969" xlink:href="#DejaVuSans-74"/>
      <use x="714.501953" xlink:href="#DejaVuSans-69"/>
      <use x="742.285156" xlink:href="#DejaVuSans-6d"/>
      <use x="839.697266" xlink:href="#DejaVuSans-61"/>
      <use x="900.976562" xlink:href="#DejaVuSans-74"/>
      <use x="940.185547" xlink:href="#DejaVuSans-6f"/>
      <use x="1001.367188" xlink:href="#DejaVuSans-72"/>
      <use x="1042.480469" xlink:href="#DejaVuSans-73"/>
     </g>
    </g>
   </g>
   <g id="matplotlib.axis_2">
    <g id="ytick_1">
     <g id="line2d_7">
      <defs>
       <path d="M 0 0 
L -3.5 0 
" id="m028ff19f8f" style="stroke:#000000;stroke-width:0.8;"/>
      </defs>
      <g>
       <use style="stroke:#000000;stroke-width:0.8;" x="85.194375" xlink:href="#m028ff19f8f" y="321.51748"/>
      </g>
     </g>
     <g id="text_8">
      <!-- 20000 -->
      <g transform="translate(33.656875 326.836387)scale(0.14 -0.14)">
       <use xlink:href="#DejaVuSans-32"/>
       <use x="63.623047" xlink:href="#DejaVuSans-30"/>
       <use x="127.246094" xlink:href="#DejaVuSans-30"/>
       <use x="190.869141" xlink:href="#DejaVuSans-30"/>
       <use x="254.492188" xlink:href="#DejaVuSans-30"/>
      </g>
     </g>
    </g>
    <g id="ytick_2">
     <g id="line2d_8">
      <g>
       <use style="stroke:#000000;stroke-width:0.8;" x="85.194375" xlink:href="#m028ff19f8f" y="253.660423"/>
      </g>
     </g>
     <g id="text_9">
      <!-- 40000 -->
      <g transform="translate(33.656875 258.979329)scale(0.14 -0.14)">
       <use xlink:href="#DejaVuSans-34"/>
       <use x="63.623047" xlink:href="#DejaVuSans-30"/>
       <use x="127.246094" xlink:href="#DejaVuSans-30"/>
       <use x="190.869141" xlink:href="#DejaVuSans-30"/>
       <use x="254.492188" xlink:href="#DejaVuSans-30"/>
      </g>
     </g>
    </g>
    <g id="ytick_3">
     <g id="line2d_9">
      <g>
       <use style="stroke:#000000;stroke-width:0.8;" x="85.194375" xlink:href="#m028ff19f8f" y="185.803365"/>
      </g>
     </g>
     <g id="text_10">
      <!-- 60000 -->
      <g transform="translate(33.656875 191.122272)scale(0.14 -0.14)">
       <defs>
        <path d="M 2113 2584 
Q 1688 2584 1439 2293 
Q 1191 2003 1191 1497 
Q 1191 994 1439 701 
Q 1688 409 2113 409 
Q 2538 409 2786 701 
Q 3034 994 3034 1497 
Q 3034 2003 2786 2293 
Q 2538 2584 2113 2584 
z
M 3366 4563 
L 3366 3988 
Q 3128 4100 2886 4159 
Q 2644 4219 2406 4219 
Q 1781 4219 1451 3797 
Q 1122 3375 1075 2522 
Q 1259 2794 1537 2939 
Q 1816 3084 2150 3084 
Q 2853 3084 3261 2657 
Q 3669 2231 3669 1497 
Q 3669 778 3244 343 
Q 2819 -91 2113 -91 
Q 1303 -91 875 529 
Q 447 1150 447 2328 
Q 447 3434 972 4092 
Q 1497 4750 2381 4750 
Q 2619 4750 2861 4703 
Q 3103 4656 3366 4563 
z
" id="DejaVuSans-36" transform="scale(0.015625)"/>
       </defs>
       <use xlink:href="#DejaVuSans-36"/>
       <use x="63.623047" xlink:href="#DejaVuSans-30"/>
       <use x="127.246094" xlink:href="#DejaVuSans-30"/>
       <use x="190.869141" xlink:href="#DejaVuSans-30"/>
       <use x="254.492188" xlink:href="#DejaVuSans-30"/>
      </g>
     </g>
    </g>
    <g id="ytick_4">
     <g id="line2d_10">
      <g>
       <use style="stroke:#000000;stroke-width:0.8;" x="85.194375" xlink:href="#m028ff19f8f" y="117.946308"/>
      </g>
     </g>
     <g id="text_11">
      <!-- 80000 -->
      <g transform="translate(33.656875 123.265214)scale(0.14 -0.14)">
       <defs>
        <path d="M 2034 2216 
Q 1584 2216 1326 1975 
Q 1069 1734 1069 1313 
Q 1069 891 1326 650 
Q 1584 409 2034 409 
Q 2484 409 2743 651 
Q 3003 894 3003 1313 
Q 3003 1734 2745 1975 
Q 2488 2216 2034 2216 
z
M 1403 2484 
Q 997 2584 770 2862 
Q 544 3141 544 3541 
Q 544 4100 942 4425 
Q 1341 4750 2034 4750 
Q 2731 4750 3128 4425 
Q 3525 4100 3525 3541 
Q 3525 3141 3298 2862 
Q 3072 2584 2669 2484 
Q 3125 2378 3379 2068 
Q 3634 1759 3634 1313 
Q 3634 634 3220 271 
Q 2806 -91 2034 -91 
Q 1263 -91 848 271 
Q 434 634 434 1313 
Q 434 1759 690 2068 
Q 947 2378 1403 2484 
z
M 1172 3481 
Q 1172 3119 1398 2916 
Q 1625 2713 2034 2713 
Q 2441 2713 2670 2916 
Q 2900 3119 2900 3481 
Q 2900 3844 2670 4047 
Q 2441 4250 2034 4250 
Q 1625 4250 1398 4047 
Q 1172 3844 1172 3481 
z
" id="DejaVuSans-38" transform="scale(0.015625)"/>
       </defs>
       <use xlink:href="#DejaVuSans-38"/>
       <use x="63.623047" xlink:href="#DejaVuSans-30"/>
       <use x="127.246094" xlink:href="#DejaVuSans-30"/>
       <use x="190.869141" xlink:href="#DejaVuSans-30"/>
       <use x="254.492188" xlink:href="#DejaVuSans-30"/>
      </g>
     </g>
    </g>
    <g id="ytick_5">
     <g id="line2d_11">
      <g>
       <use style="stroke:#000000;stroke-width:0.8;" x="85.194375" xlink:href="#m028ff19f8f" y="50.08925"/>
      </g>
     </g>
     <g id="text_12">
      <!-- 100000 -->
      <g transform="translate(24.749375 55.408157)scale(0.14 -0.14)">
       <use xlink:href="#DejaVuSans-31"/>
       <use x="63.623047" xlink:href="#DejaVuSans-30"/>
       <use x="127.246094" xlink:href="#DejaVuSans-30"/>
       <use x="190.869141" xlink:href="#DejaVuSans-30"/>
       <use x="254.492188" xlink:href="#DejaVuSans-30"/>
       <use x="318.115234" xlink:href="#DejaVuSans-30"/>
      </g>
     </g>
    </g>
    <g id="text_13">
     <!-- MSE -->
     <g transform="translate(17.837812 212.366719)rotate(-90)scale(0.14 -0.14)">
      <defs>
       <path d="M 628 4666 
L 1569 4666 
L 2759 1491 
L 3956 4666 
L 4897 4666 
L 4897 0 
L 4281 0 
L 4281 4097 
L 3078 897 
L 2444 897 
L 1241 4097 
L 1241 0 
L 628 0 
L 628 4666 
z
" id="DejaVuSans-4d" transform="scale(0.015625)"/>
       <path d="M 3425 4513 
L 3425 3897 
Q 3066 4069 2747 4153 
Q 2428 4238 2131 4238 
Q 1616 4238 1336 4038 
Q 1056 3838 1056 3469 
Q 1056 3159 1242 3001 
Q 1428 2844 1947 2747 
L 2328 2669 
Q 3034 2534 3370 2195 
Q 3706 1856 3706 1288 
Q 3706 609 3251 259 
Q 2797 -91 1919 -91 
Q 1588 -91 1214 -16 
Q 841 59 441 206 
L 441 856 
Q 825 641 1194 531 
Q 1563 422 1919 422 
Q 2459 422 2753 634 
Q 3047 847 3047 1241 
Q 3047 1584 2836 1778 
Q 2625 1972 2144 2069 
L 1759 2144 
Q 1053 2284 737 2584 
Q 422 2884 422 3419 
Q 422 4038 858 4394 
Q 1294 4750 2059 4750 
Q 2388 4750 2728 4690 
Q 3069 4631 3425 4513 
z
" id="DejaVuSans-53" transform="scale(0.015625)"/>
       <path d="M 628 4666 
L 3578 4666 
L 3578 4134 
L 1259 4134 
L 1259 2753 
L 3481 2753 
L 3481 2222 
L 1259 2222 
L 1259 531 
L 3634 531 
L 3634 0 
L 628 0 
L 628 4666 
z
" id="DejaVuSans-45" transform="scale(0.015625)"/>
      </defs>
      <use xlink:href="#DejaVuSans-4d"/>
      <use x="86.279297" xlink:href="#DejaVuSans-53"/>
      <use x="149.755859" xlink:href="#DejaVuSans-45"/>
     </g>
    </g>
   </g>
   <g id="line2d_12">
    <path clip-path="url(#p4f2acd8f5d)" d="M 102.94892 256.701402 
L 110.346648 314.993828 
L 117.744375 334.828333 
L 125.142102 344.25711 
L 132.53983 350.000363 
L 139.937557 354.370272 
L 147.335284 356.702957 
L 154.733011 358.238544 
L 162.130739 360.050626 
L 169.528466 361.070942 
L 176.926193 362.40728 
L 184.32392 363.095788 
L 191.721648 364.261873 
L 199.119375 364.330465 
L 206.517102 364.956351 
L 213.91483 366.111727 
L 221.312557 365.993053 
L 228.710284 365.736166 
L 236.108011 366.865966 
L 243.505739 366.405059 
L 250.903466 367.396923 
L 258.301193 367.373911 
L 265.69892 368.205591 
L 273.096648 367.75637 
L 280.494375 368.068323 
L 287.892102 368.250712 
L 295.28983 368.499532 
L 302.687557 368.646251 
L 310.085284 368.546173 
L 317.483011 369.38266 
L 324.880739 368.976529 
L 332.278466 369.052894 
L 339.676193 368.937349 
L 347.07392 369.234877 
L 354.471648 369.318771 
L 361.869375 369.042471 
L 369.267102 369.758996 
L 376.66483 369.561436 
L 384.062557 369.691375 
L 391.460284 369.567699 
L 398.858011 369.967535 
L 406.255739 369.973424 
L 413.653466 370.314606 
L 421.051193 370.122083 
L 428.44892 370.214221 
L 435.846648 370.207682 
L 443.244375 370.227289 
L 450.642102 370.423636 
L 458.03983 370.236981 
" style="fill:none;stroke:#1f77b4;stroke-dasharray:5.55,2.4;stroke-dashoffset:0;stroke-width:1.5;"/>
    <defs>
     <path d="M 0 3 
C 0.795609 3 1.55874 2.683901 2.12132 2.12132 
C 2.683901 1.55874 3 0.795609 3 0 
C 3 -0.795609 2.683901 -1.55874 2.12132 -2.12132 
C 1.55874 -2.683901 0.795609 -3 0 -3 
C -0.795609 -3 -1.55874 -2.683901 -2.12132 -2.12132 
C -2.683901 -1.55874 -3 -0.795609 -3 0 
C -3 0.795609 -2.683901 1.55874 -2.12132 2.12132 
C -1.55874 2.683901 -0.795609 3 0 3 
z
" id="m16d182f6d3" style="stroke:#1f77b4;"/>
    </defs>
    <g clip-path="url(#p4f2acd8f5d)">
     <use style="fill:#1f77b4;stroke:#1f77b4;" x="102.94892" xlink:href="#m16d182f6d3" y="256.701402"/>
     <use style="fill:#1f77b4;stroke:#1f77b4;" x="110.346648" xlink:href="#m16d182f6d3" y="314.993828"/>
     <use style="fill:#1f77b4;stroke:#1f77b4;" x="117.744375" xlink:href="#m16d182f6d3" y="334.828333"/>
     <use style="fill:#1f77b4;stroke:#1f77b4;" x="125.142102" xlink:href="#m16d182f6d3" y="344.25711"/>
     <use style="fill:#1f77b4;stroke:#1f77b4;" x="132.53983" xlink:href="#m16d182f6d3" y="350.000363"/>
     <use style="fill:#1f77b4;stroke:#1f77b4;" x="139.937557" xlink:href="#m16d182f6d3" y="354.370272"/>
     <use style="fill:#1f77b4;stroke:#1f77b4;" x="147.335284" xlink:href="#m16d182f6d3" y="356.702957"/>
     <use style="fill:#1f77b4;stroke:#1f77b4;" x="154.733011" xlink:href="#m16d182f6d3" y="358.238544"/>
     <use style="fill:#1f77b4;stroke:#1f77b4;" x="162.130739" xlink:href="#m16d182f6d3" y="360.050626"/>
     <use style="fill:#1f77b4;stroke:#1f77b4;" x="169.528466" xlink:href="#m16d182f6d3" y="361.070942"/>
     <use style="fill:#1f77b4;stroke:#1f77b4;" x="176.926193" xlink:href="#m16d182f6d3" y="362.40728"/>
     <use style="fill:#1f77b4;stroke:#1f77b4;" x="184.32392" xlink:href="#m16d182f6d3" y="363.095788"/>
     <use style="fill:#1f77b4;stroke:#1f77b4;" x="191.721648" xlink:href="#m16d182f6d3" y="364.261873"/>
     <use style="fill:#1f77b4;stroke:#1f77b4;" x="199.119375" xlink:href="#m16d182f6d3" y="364.330465"/>
     <use style="fill:#1f77b4;stroke:#1f77b4;" x="206.517102" xlink:href="#m16d182f6d3" y="364.956351"/>
     <use style="fill:#1f77b4;stroke:#1f77b4;" x="213.91483" xlink:href="#m16d182f6d3" y="366.111727"/>
     <use style="fill:#1f77b4;stroke:#1f77b4;" x="221.312557" xlink:href="#m16d182f6d3" y="365.993053"/>
     <use style="fill:#1f77b4;stroke:#1f77b4;" x="228.710284" xlink:href="#m16d182f6d3" y="365.736166"/>
     <use style="fill:#1f77b4;stroke:#1f77b4;" x="236.108011" xlink:href="#m16d182f6d3" y="366.865966"/>
     <use style="fill:#1f77b4;stroke:#1f77b4;" x="243.505739" xlink:href="#m16d182f6d3" y="366.405059"/>
     <use style="fill:#1f77b4;stroke:#1f77b4;" x="250.903466" xlink:href="#m16d182f6d3" y="367.396923"/>
     <use style="fill:#1f77b4;stroke:#1f77b4;" x="258.301193" xlink:href="#m16d182f6d3" y="367.373911"/>
     <use style="fill:#1f77b4;stroke:#1f77b4;" x="265.69892" xlink:href="#m16d182f6d3" y="368.205591"/>
     <use style="fill:#1f77b4;stroke:#1f77b4;" x="273.096648" xlink:href="#m16d182f6d3" y="367.75637"/>
     <use style="fill:#1f77b4;stroke:#1f77b4;" x="280.494375" xlink:href="#m16d182f6d3" y="368.068323"/>
     <use style="fill:#1f77b4;stroke:#1f77b4;" x="287.892102" xlink:href="#m16d182f6d3" y="368.250712"/>
     <use style="fill:#1f77b4;stroke:#1f77b4;" x="295.28983" xlink:href="#m16d182f6d3" y="368.499532"/>
     <use style="fill:#1f77b4;stroke:#1f77b4;" x="302.687557" xlink:href="#m16d182f6d3" y="368.646251"/>
     <use style="fill:#1f77b4;stroke:#1f77b4;" x="310.085284" xlink:href="#m16d182f6d3" y="368.546173"/>
     <use style="fill:#1f77b4;stroke:#1f77b4;" x="317.483011" xlink:href="#m16d182f6d3" y="369.38266"/>
     <use style="fill:#1f77b4;stroke:#1f77b4;" x="324.880739" xlink:href="#m16d182f6d3" y="368.976529"/>
     <use style="fill:#1f77b4;stroke:#1f77b4;" x="332.278466" xlink:href="#m16d182f6d3" y="369.052894"/>
     <use style="fill:#1f77b4;stroke:#1f77b4;" x="339.676193" xlink:href="#m16d182f6d3" y="368.937349"/>
     <use style="fill:#1f77b4;stroke:#1f77b4;" x="347.07392" xlink:href="#m16d182f6d3" y="369.234877"/>
     <use style="fill:#1f77b4;stroke:#1f77b4;" x="354.471648" xlink:href="#m16d182f6d3" y="369.318771"/>
     <use style="fill:#1f77b4;stroke:#1f77b4;" x="361.869375" xlink:href="#m16d182f6d3" y="369.042471"/>
     <use style="fill:#1f77b4;stroke:#1f77b4;" x="369.267102" xlink:href="#m16d182f6d3" y="369.758996"/>
     <use style="fill:#1f77b4;stroke:#1f77b4;" x="376.66483" xlink:href="#m16d182f6d3" y="369.561436"/>
     <use style="fill:#1f77b4;stroke:#1f77b4;" x="384.062557" xlink:href="#m16d182f6d3" y="369.691375"/>
     <use style="fill:#1f77b4;stroke:#1f77b4;" x="391.460284" xlink:href="#m16d182f6d3" y="369.567699"/>
     <use style="fill:#1f77b4;stroke:#1f77b4;" x="398.858011" xlink:href="#m16d182f6d3" y="369.967535"/>
     <use style="fill:#1f77b4;stroke:#1f77b4;" x="406.255739" xlink:href="#m16d182f6d3" y="369.973424"/>
     <use style="fill:#1f77b4;stroke:#1f77b4;" x="413.653466" xlink:href="#m16d182f6d3" y="370.314606"/>
     <use style="fill:#1f77b4;stroke:#1f77b4;" x="421.051193" xlink:href="#m16d182f6d3" y="370.122083"/>
     <use style="fill:#1f77b4;stroke:#1f77b4;" x="428.44892" xlink:href="#m16d182f6d3" y="370.214221"/>
     <use style="fill:#1f77b4;stroke:#1f77b4;" x="435.846648" xlink:href="#m16d182f6d3" y="370.207682"/>
     <use style="fill:#1f77b4;stroke:#1f77b4;" x="443.244375" xlink:href="#m16d182f6d3" y="370.227289"/>
     <use style="fill:#1f77b4;stroke:#1f77b4;" x="450.642102" xlink:href="#m16d182f6d3" y="370.423636"/>
     <use style="fill:#1f77b4;stroke:#1f77b4;" x="458.03983" xlink:href="#m16d182f6d3" y="370.236981"/>
    </g>
   </g>
   <g id="line2d_13">
    <path clip-path="url(#p4f2acd8f5d)" d="M 102.94892 24.496364 
L 110.346648 145.534838 
L 117.744375 192.75272 
L 125.142102 204.073673 
L 132.53983 217.870557 
L 139.937557 227.068088 
L 147.335284 232.364435 
L 154.733011 233.320689 
L 162.130739 235.875415 
L 169.528466 242.204963 
L 176.926193 243.610741 
L 184.32392 242.991905 
L 191.721648 242.462839 
L 199.119375 247.159157 
L 206.517102 248.884724 
L 213.91483 252.484426 
L 221.312557 251.067082 
L 228.710284 250.455342 
L 236.108011 252.669029 
L 243.505739 248.581327 
L 250.903466 253.163824 
L 258.301193 252.152596 
L 265.69892 251.812658 
L 273.096648 251.056525 
L 280.494375 253.354221 
L 287.892102 252.094498 
L 295.28983 253.848459 
L 302.687557 255.835834 
L 310.085284 253.208265 
L 317.483011 256.769879 
L 324.880739 256.685474 
L 332.278466 256.585446 
L 339.676193 255.68569 
L 347.07392 256.384091 
L 354.471648 254.787978 
L 361.869375 255.083769 
L 369.267102 257.506239 
L 376.66483 256.627882 
L 384.062557 256.436402 
L 391.460284 257.566087 
L 398.858011 256.371172 
L 406.255739 258.554912 
L 413.653466 258.791852 
L 421.051193 257.078896 
L 428.44892 256.852219 
L 435.846648 257.602347 
L 443.244375 257.62669 
L 450.642102 258.047199 
L 458.03983 258.011036 
" style="fill:none;stroke:#ff7f0e;stroke-dasharray:5.55,2.4;stroke-dashoffset:0;stroke-width:1.5;"/>
    <defs>
     <path d="M 0 3 
C 0.795609 3 1.55874 2.683901 2.12132 2.12132 
C 2.683901 1.55874 3 0.795609 3 0 
C 3 -0.795609 2.683901 -1.55874 2.12132 -2.12132 
C 1.55874 -2.683901 0.795609 -3 0 -3 
C -0.795609 -3 -1.55874 -2.683901 -2.12132 -2.12132 
C -2.683901 -1.55874 -3 -0.795609 -3 0 
C -3 0.795609 -2.683901 1.55874 -2.12132 2.12132 
C -1.55874 2.683901 -0.795609 3 0 3 
z
" id="mf229e80dd8" style="stroke:#ff7f0e;"/>
    </defs>
    <g clip-path="url(#p4f2acd8f5d)">
     <use style="fill:#ff7f0e;stroke:#ff7f0e;" x="102.94892" xlink:href="#mf229e80dd8" y="24.496364"/>
     <use style="fill:#ff7f0e;stroke:#ff7f0e;" x="110.346648" xlink:href="#mf229e80dd8" y="145.534838"/>
     <use style="fill:#ff7f0e;stroke:#ff7f0e;" x="117.744375" xlink:href="#mf229e80dd8" y="192.75272"/>
     <use style="fill:#ff7f0e;stroke:#ff7f0e;" x="125.142102" xlink:href="#mf229e80dd8" y="204.073673"/>
     <use style="fill:#ff7f0e;stroke:#ff7f0e;" x="132.53983" xlink:href="#mf229e80dd8" y="217.870557"/>
     <use style="fill:#ff7f0e;stroke:#ff7f0e;" x="139.937557" xlink:href="#mf229e80dd8" y="227.068088"/>
     <use style="fill:#ff7f0e;stroke:#ff7f0e;" x="147.335284" xlink:href="#mf229e80dd8" y="232.364435"/>
     <use style="fill:#ff7f0e;stroke:#ff7f0e;" x="154.733011" xlink:href="#mf229e80dd8" y="233.320689"/>
     <use style="fill:#ff7f0e;stroke:#ff7f0e;" x="162.130739" xlink:href="#mf229e80dd8" y="235.875415"/>
     <use style="fill:#ff7f0e;stroke:#ff7f0e;" x="169.528466" xlink:href="#mf229e80dd8" y="242.204963"/>
     <use style="fill:#ff7f0e;stroke:#ff7f0e;" x="176.926193" xlink:href="#mf229e80dd8" y="243.610741"/>
     <use style="fill:#ff7f0e;stroke:#ff7f0e;" x="184.32392" xlink:href="#mf229e80dd8" y="242.991905"/>
     <use style="fill:#ff7f0e;stroke:#ff7f0e;" x="191.721648" xlink:href="#mf229e80dd8" y="242.462839"/>
     <use style="fill:#ff7f0e;stroke:#ff7f0e;" x="199.119375" xlink:href="#mf229e80dd8" y="247.159157"/>
     <use style="fill:#ff7f0e;stroke:#ff7f0e;" x="206.517102" xlink:href="#mf229e80dd8" y="248.884724"/>
     <use style="fill:#ff7f0e;stroke:#ff7f0e;" x="213.91483" xlink:href="#mf229e80dd8" y="252.484426"/>
     <use style="fill:#ff7f0e;stroke:#ff7f0e;" x="221.312557" xlink:href="#mf229e80dd8" y="251.067082"/>
     <use style="fill:#ff7f0e;stroke:#ff7f0e;" x="228.710284" xlink:href="#mf229e80dd8" y="250.455342"/>
     <use style="fill:#ff7f0e;stroke:#ff7f0e;" x="236.108011" xlink:href="#mf229e80dd8" y="252.669029"/>
     <use style="fill:#ff7f0e;stroke:#ff7f0e;" x="243.505739" xlink:href="#mf229e80dd8" y="248.581327"/>
     <use style="fill:#ff7f0e;stroke:#ff7f0e;" x="250.903466" xlink:href="#mf229e80dd8" y="253.163824"/>
     <use style="fill:#ff7f0e;stroke:#ff7f0e;" x="258.301193" xlink:href="#mf229e80dd8" y="252.152596"/>
     <use style="fill:#ff7f0e;stroke:#ff7f0e;" x="265.69892" xlink:href="#mf229e80dd8" y="251.812658"/>
     <use style="fill:#ff7f0e;stroke:#ff7f0e;" x="273.096648" xlink:href="#mf229e80dd8" y="251.056525"/>
     <use style="fill:#ff7f0e;stroke:#ff7f0e;" x="280.494375" xlink:href="#mf229e80dd8" y="253.354221"/>
     <use style="fill:#ff7f0e;stroke:#ff7f0e;" x="287.892102" xlink:href="#mf229e80dd8" y="252.094498"/>
     <use style="fill:#ff7f0e;stroke:#ff7f0e;" x="295.28983" xlink:href="#mf229e80dd8" y="253.848459"/>
     <use style="fill:#ff7f0e;stroke:#ff7f0e;" x="302.687557" xlink:href="#mf229e80dd8" y="255.835834"/>
     <use style="fill:#ff7f0e;stroke:#ff7f0e;" x="310.085284" xlink:href="#mf229e80dd8" y="253.208265"/>
     <use style="fill:#ff7f0e;stroke:#ff7f0e;" x="317.483011" xlink:href="#mf229e80dd8" y="256.769879"/>
     <use style="fill:#ff7f0e;stroke:#ff7f0e;" x="324.880739" xlink:href="#mf229e80dd8" y="256.685474"/>
     <use style="fill:#ff7f0e;stroke:#ff7f0e;" x="332.278466" xlink:href="#mf229e80dd8" y="256.585446"/>
     <use style="fill:#ff7f0e;stroke:#ff7f0e;" x="339.676193" xlink:href="#mf229e80dd8" y="255.68569"/>
     <use style="fill:#ff7f0e;stroke:#ff7f0e;" x="347.07392" xlink:href="#mf229e80dd8" y="256.384091"/>
     <use style="fill:#ff7f0e;stroke:#ff7f0e;" x="354.471648" xlink:href="#mf229e80dd8" y="254.787978"/>
     <use style="fill:#ff7f0e;stroke:#ff7f0e;" x="361.869375" xlink:href="#mf229e80dd8" y="255.083769"/>
     <use style="fill:#ff7f0e;stroke:#ff7f0e;" x="369.267102" xlink:href="#mf229e80dd8" y="257.506239"/>
     <use style="fill:#ff7f0e;stroke:#ff7f0e;" x="376.66483" xlink:href="#mf229e80dd8" y="256.627882"/>
     <use style="fill:#ff7f0e;stroke:#ff7f0e;" x="384.062557" xlink:href="#mf229e80dd8" y="256.436402"/>
     <use style="fill:#ff7f0e;stroke:#ff7f0e;" x="391.460284" xlink:href="#mf229e80dd8" y="257.566087"/>
     <use style="fill:#ff7f0e;stroke:#ff7f0e;" x="398.858011" xlink:href="#mf229e80dd8" y="256.371172"/>
     <use style="fill:#ff7f0e;stroke:#ff7f0e;" x="406.255739" xlink:href="#mf229e80dd8" y="258.554912"/>
     <use style="fill:#ff7f0e;stroke:#ff7f0e;" x="413.653466" xlink:href="#mf229e80dd8" y="258.791852"/>
     <use style="fill:#ff7f0e;stroke:#ff7f0e;" x="421.051193" xlink:href="#mf229e80dd8" y="257.078896"/>
     <use style="fill:#ff7f0e;stroke:#ff7f0e;" x="428.44892" xlink:href="#mf229e80dd8" y="256.852219"/>
     <use style="fill:#ff7f0e;stroke:#ff7f0e;" x="435.846648" xlink:href="#mf229e80dd8" y="257.602347"/>
     <use style="fill:#ff7f0e;stroke:#ff7f0e;" x="443.244375" xlink:href="#mf229e80dd8" y="257.62669"/>
     <use style="fill:#ff7f0e;stroke:#ff7f0e;" x="450.642102" xlink:href="#mf229e80dd8" y="258.047199"/>
     <use style="fill:#ff7f0e;stroke:#ff7f0e;" x="458.03983" xlink:href="#mf229e80dd8" y="258.011036"/>
    </g>
   </g>
   <g id="patch_3">
    <path d="M 85.194375 387.72 
L 85.194375 7.2 
" style="fill:none;stroke:#000000;stroke-linecap:square;stroke-linejoin:miter;stroke-width:0.8;"/>
   </g>
   <g id="patch_4">
    <path d="M 475.794375 387.72 
L 475.794375 7.2 
" style="fill:none;stroke:#000000;stroke-linecap:square;stroke-linejoin:miter;stroke-width:0.8;"/>
   </g>
   <g id="patch_5">
    <path d="M 85.194375 387.72 
L 475.794375 387.72 
" style="fill:none;stroke:#000000;stroke-linecap:square;stroke-linejoin:miter;stroke-width:0.8;"/>
   </g>
   <g id="patch_6">
    <path d="M 85.194375 7.2 
L 475.794375 7.2 
" style="fill:none;stroke:#000000;stroke-linecap:square;stroke-linejoin:miter;stroke-width:0.8;"/>
   </g>
   <g id="legend_1">
    <g id="patch_7">
     <path d="M 353.349063 59.49875 
L 465.994375 59.49875 
Q 468.794375 59.49875 468.794375 56.69875 
L 468.794375 17 
Q 468.794375 14.2 465.994375 14.2 
L 353.349063 14.2 
Q 350.549062 14.2 350.549062 17 
L 350.549062 56.69875 
Q 350.549062 59.49875 353.349063 59.49875 
z
" style="fill:#ffffff;opacity:0.8;stroke:#cccccc;stroke-linejoin:miter;"/>
    </g>
    <g id="line2d_14">
     <path d="M 356.149063 25.537812 
L 384.149063 25.537812 
" style="fill:none;stroke:#1f77b4;stroke-dasharray:5.55,2.4;stroke-dashoffset:0;stroke-width:1.5;"/>
    </g>
    <g id="line2d_15">
     <g>
      <use style="fill:#1f77b4;stroke:#1f77b4;" x="370.149063" xlink:href="#m16d182f6d3" y="25.537812"/>
     </g>
    </g>
    <g id="text_14">
     <!-- Train MSE -->
     <g transform="translate(395.349063 30.437812)scale(0.14 -0.14)">
      <defs>
       <path d="M -19 4666 
L 3928 4666 
L 3928 4134 
L 2272 4134 
L 2272 0 
L 1638 0 
L 1638 4134 
L -19 4134 
L -19 4666 
z
" id="DejaVuSans-54" transform="scale(0.015625)"/>
       <path d="M 3513 2113 
L 3513 0 
L 2938 0 
L 2938 2094 
Q 2938 2591 2744 2837 
Q 2550 3084 2163 3084 
Q 1697 3084 1428 2787 
Q 1159 2491 1159 1978 
L 1159 0 
L 581 0 
L 581 3500 
L 1159 3500 
L 1159 2956 
Q 1366 3272 1645 3428 
Q 1925 3584 2291 3584 
Q 2894 3584 3203 3211 
Q 3513 2838 3513 2113 
z
" id="DejaVuSans-6e" transform="scale(0.015625)"/>
      </defs>
      <use xlink:href="#DejaVuSans-54"/>
      <use x="46.333984" xlink:href="#DejaVuSans-72"/>
      <use x="87.447266" xlink:href="#DejaVuSans-61"/>
      <use x="148.726562" xlink:href="#DejaVuSans-69"/>
      <use x="176.509766" xlink:href="#DejaVuSans-6e"/>
      <use x="239.888672" xlink:href="#DejaVuSans-20"/>
      <use x="271.675781" xlink:href="#DejaVuSans-4d"/>
      <use x="357.955078" xlink:href="#DejaVuSans-53"/>
      <use x="421.431641" xlink:href="#DejaVuSans-45"/>
     </g>
    </g>
    <g id="line2d_16">
     <path d="M 356.149063 46.087187 
L 384.149063 46.087187 
" style="fill:none;stroke:#ff7f0e;stroke-dasharray:5.55,2.4;stroke-dashoffset:0;stroke-width:1.5;"/>
    </g>
    <g id="line2d_17">
     <g>
      <use style="fill:#ff7f0e;stroke:#ff7f0e;" x="370.149063" xlink:href="#mf229e80dd8" y="46.087187"/>
     </g>
    </g>
    <g id="text_15">
     <!-- Test MSE -->
     <g transform="translate(395.349063 50.987187)scale(0.14 -0.14)">
      <use xlink:href="#DejaVuSans-54"/>
      <use x="44.083984" xlink:href="#DejaVuSans-65"/>
      <use x="105.607422" xlink:href="#DejaVuSans-73"/>
      <use x="157.707031" xlink:href="#DejaVuSans-74"/>
      <use x="196.916016" xlink:href="#DejaVuSans-20"/>
      <use x="228.703125" xlink:href="#DejaVuSans-4d"/>
      <use x="314.982422" xlink:href="#DejaVuSans-53"/>
      <use x="378.458984" xlink:href="#DejaVuSans-45"/>
     </g>
    </g>
   </g>
  </g>
 </g>
 <defs>
  <clipPath id="p4f2acd8f5d">
   <rect height="380.52" width="390.6" x="85.194375" y="7.2"/>
  </clipPath>
 </defs>
</svg>
